<svg width="65" height="60" viewBox="0 0 65 60" fill="none" xmlns="http://www.w3.org/2000/svg">
<path fill-rule="evenodd" clip-rule="evenodd" d="M42 17C42 22.9124 37.0164 28 30.5 28C23.9836 28 19 22.9124 19 17C19 11.0876 23.9836 6 30.5 6C37.0164 6 42 11.0876 42 17ZM48 17C48 26.3888 40.165 34 30.5 34C29.7285 34 28.9687 33.9515 28.2236 33.8575C26.398 34.1043 24.6097 34.5384 22.8989 35.1526C20.3876 36.0541 18.0879 37.3278 16.1069 38.9118C15.0733 39.6787 14.0979 40.5262 13.1905 41.4479C10.8881 43.7864 9.06783 46.5564 7.83405 49.6001C7.36144 50.766 6.97845 51.9632 6.68707 53.1814L24.9271 53.0513L24.9269 53.0303L30.9268 52.9875L30.9483 56.0085C30.9601 57.6653 29.6266 59.018 27.9698 59.0298L3.00072 59.2079C1.34391 59.2197 -0.0238299 57.8832 0.124247 56.233C0.397649 53.1861 1.12037 50.1908 2.27352 47.3461C3.80302 43.5729 6.05979 40.1383 8.91498 37.2383C11.7702 34.3384 15.1679 32.03 18.9141 30.4449C19.1035 30.3648 19.2936 30.2865 19.4844 30.2103C15.5284 27.0935 13 22.3336 13 17C13 7.61116 20.835 0 30.5 0C40.165 0 48 7.61116 48 17ZM35.5 41.5C35.5 40.1193 36.6193 39 38 39H47.5366L47.5 30.0102C47.4944 28.6295 48.6091 27.5056 49.9898 27.5C51.3705 27.4944 52.4944 28.6091 52.5 29.9898L52.5366 39H62C63.3807 39 64.5 40.1193 64.5 41.5C64.5 42.8807 63.3807 44 62 44H52.557L52.5976 53.9896C52.6032 55.3703 51.4885 56.4942 50.1078 56.4998C48.7271 56.5054 47.6033 55.3907 47.5977 54.01L47.5569 44H38C36.6193 44 35.5 42.8807 35.5 41.5Z" fill="black"/>
</svg>
