<svg width="100" height="100" viewBox="0 0 100 100" fill="none" xmlns="http://www.w3.org/2000/svg">
<rect width="100" height="100" fill="none
"/>
<path d="M63 28C63 35.6506 56.5907 42 48.5 42C40.4093 42 34 35.6506 34 28C34 20.3494 40.4093 14 48.5 14C56.5907 14 63 20.3494 63 28Z" stroke="#415A77" stroke-width="6"/>
<path fill-rule="evenodd" clip-rule="evenodd" d="M34.1069 49.9118C33.0733 50.6787 32.0979 51.5262 31.1905 52.4479C28.8881 54.7864 27.0678 57.5564 25.834 60.6001C25.3614 61.766 24.9784 62.9632 24.6871 64.1814L42.9271 64.0513L42.9269 64.0303L48.9268 63.9875L48.9483 67.0085C48.9601 68.6653 47.6266 70.018 45.9698 70.0298L21.0007 70.2079C19.3439 70.2197 17.9762 68.8832 18.1242 67.233C18.3976 64.1861 19.1204 61.1908 20.2735 58.3461C21.803 54.5729 24.0598 51.1383 26.915 48.2384C29.7702 45.3384 33.1679 43.03 36.9141 41.4449C39.7373 40.2503 42.7168 39.4842 45.7543 39.1667C47.4022 38.9945 48.7581 40.3431 48.7699 41.9999L48.7887 44.6354C46.0766 44.7399 43.4047 45.253 40.8989 46.1526C38.3876 47.0541 36.0879 48.3278 34.1069 49.9118Z" fill="#415A77"/>
<path d="M56 52.5H80" stroke="#1B263B" stroke-width="5" stroke-linecap="round"/>
<path d="M68.0976 64.9998L68 41" stroke="#1B263B" stroke-width="5" stroke-linecap="round"/>
</svg>
