<svg width="100" height="100" viewBox="0 0 100 100" fill="none" xmlns="http://www.w3.org/2000/svg">
<rect width="100" height="100" fill="white"/>
<path fill-rule="evenodd" clip-rule="evenodd" d="M81.75 22.7164H16.5C13.7386 22.7164 11.5 24.955 11.5 27.7164V82.5C11.5 85.2614 13.7386 87.5 16.5 87.5H81.75C84.5114 87.5 86.75 85.2614 86.75 82.5V27.7164C86.75 24.955 84.5114 22.7164 81.75 22.7164ZM16.5 16.7164C10.4249 16.7164 5.5 21.6413 5.5 27.7164V82.5C5.5 88.5751 10.4249 93.5 16.5 93.5H81.75C87.8251 93.5 92.75 88.5751 92.75 82.5V27.7164C92.75 21.6413 87.8251 16.7164 81.75 16.7164H16.5Z" fill="black"/>
<line x1="9.75612" y1="40.0122" x2="88.4939" y2="40.0122" stroke="black" stroke-width="6"/>
<path d="M34.535 19.7071C35.4651 19.6343 36.168 18.8186 35.9955 17.9016C35.6338 15.9796 34.9233 14.1683 33.9156 12.6232C32.6196 10.636 30.895 9.18615 28.9773 8.47166C27.0596 7.75717 25.0422 7.81282 23.2005 8.63101C21.3588 9.44921 19.7826 10.9901 18.6869 13.0433C17.5912 15.0965 17.0295 17.5621 17.0784 20.1034C17.1274 22.6447 17.7845 25.138 18.9603 27.2429C20.0192 29.1388 21.5373 30.3186 23.1983 31.1939C23.5631 31.3861 23.9555 31.5194 24.3545 31.6231C24.3835 31.6306 24.4122 31.6381 24.4407 31.6455C25.2488 31.8561 25.8471 32.012 26.7487 31.8811C27.5684 31.7622 28.1112 31.0086 28.1642 30.1821C28.2434 28.9458 27.2196 28.1225 25.9808 28.0816C25.5537 28.0675 25.1248 27.9893 24.715 27.7919C23.5017 27.2077 22.4423 26.1632 21.6814 24.8009C20.9205 23.4387 20.4952 21.8251 20.4635 20.1804C20.4319 18.5357 20.7954 16.9401 21.5045 15.6113C22.2136 14.2825 23.2337 13.2853 24.4256 12.7558C25.6175 12.2263 26.9231 12.1903 28.1642 12.6527C29.4052 13.1151 30.5213 14.0533 31.3601 15.3394C31.9095 16.1818 32.3224 17.1464 32.5788 18.1732C32.8049 19.0786 33.6049 19.7798 34.535 19.7071Z" fill="black"/>
<path d="M34.535 19.7071C35.4651 19.6343 36.168 18.8186 35.9955 17.9016C35.6338 15.9796 34.9233 14.1683 33.9156 12.6232C32.6196 10.636 30.895 9.18615 28.9773 8.47166C27.0596 7.75717 25.0422 7.81282 23.2005 8.63101C21.3588 9.44921 19.7826 10.9901 18.6869 13.0433C17.5912 15.0965 17.0295 17.5621 17.0784 20.1034C17.1274 22.6447 17.7845 25.138 18.9603 27.2429C20.0192 29.1388 21.5373 30.3186 23.1983 31.1939C23.5631 31.3861 23.9555 31.5194 24.3545 31.6231C24.3835 31.6306 24.4122 31.6381 24.4407 31.6455C25.2488 31.8561 25.8471 32.012 26.7487 31.8811C27.5684 31.7622 28.1112 31.0086 28.1642 30.1821C28.2434 28.9458 27.2196 28.1225 25.9808 28.0816C25.5537 28.0675 25.1248 27.9893 24.715 27.7919C23.5017 27.2077 22.4423 26.1632 21.6814 24.8009C20.9205 23.4387 20.4952 21.8251 20.4635 20.1804C20.4319 18.5357 20.7954 16.9401 21.5045 15.6113C22.2136 14.2825 23.2337 13.2853 24.4256 12.7558C25.6175 12.2263 26.9231 12.1903 28.1642 12.6527C29.4052 13.1151 30.5213 14.0533 31.3601 15.3394C31.9095 16.1818 32.3224 17.1464 32.5788 18.1732C32.8049 19.0786 33.6049 19.7798 34.535 19.7071Z" stroke="black"/>
<path d="M56.8795 19.7071C57.8096 19.6343 58.5125 18.8186 58.34 17.9016C57.9783 15.9796 57.2678 14.1683 56.2601 12.6232C54.9641 10.636 53.2395 9.18615 51.3218 8.47166C49.4041 7.75717 47.3867 7.81282 45.545 8.63101C43.7033 9.44921 42.1271 10.9901 41.0314 13.0433C39.9357 15.0965 39.374 17.5621 39.4229 20.1034C39.4719 22.6447 40.129 25.138 41.3048 27.2429C42.3637 29.1388 43.8818 30.3186 45.5428 31.1939C45.9076 31.3861 46.3 31.5194 46.699 31.6231C46.728 31.6306 46.7567 31.6381 46.7852 31.6455C47.5933 31.8561 48.1916 32.0119 49.0932 31.8811C49.9129 31.7622 50.4557 31.0086 50.5087 30.1821C50.5879 28.9458 49.5641 28.1224 48.3253 28.0816C47.8982 28.0675 47.4693 27.9892 47.0595 27.7919C45.8462 27.2077 44.7868 26.1632 44.0259 24.8009C43.265 23.4387 42.8397 21.8251 42.808 20.1804C42.7764 18.5357 43.1399 16.9401 43.849 15.6113C44.5581 14.2825 45.5782 13.2853 46.7701 12.7558C47.962 12.2263 49.2676 12.1902 50.5086 12.6527C51.7497 13.115 52.8658 14.0533 53.7046 15.3394C54.254 16.1818 54.6669 17.1464 54.9233 18.1732C55.1494 19.0786 55.9494 19.7798 56.8795 19.7071Z" fill="black"/>
<path d="M56.8795 19.7071C57.8096 19.6343 58.5125 18.8186 58.34 17.9016C57.9783 15.9796 57.2678 14.1683 56.2601 12.6232C54.9641 10.636 53.2395 9.18615 51.3218 8.47166C49.4041 7.75717 47.3867 7.81282 45.545 8.63101C43.7033 9.44921 42.1271 10.9901 41.0314 13.0433C39.9357 15.0965 39.374 17.5621 39.4229 20.1034C39.4719 22.6447 40.129 25.138 41.3048 27.2429C42.3637 29.1388 43.8818 30.3186 45.5428 31.1939C45.9076 31.3861 46.3 31.5194 46.699 31.6231C46.728 31.6306 46.7567 31.6381 46.7852 31.6455C47.5933 31.8561 48.1916 32.0119 49.0932 31.8811C49.9129 31.7622 50.4557 31.0086 50.5087 30.1821C50.5879 28.9458 49.5641 28.1224 48.3253 28.0816C47.8982 28.0675 47.4693 27.9892 47.0595 27.7919C45.8462 27.2077 44.7868 26.1632 44.0259 24.8009C43.265 23.4387 42.8397 21.8251 42.808 20.1804C42.7764 18.5357 43.1399 16.9401 43.849 15.6113C44.5581 14.2825 45.5782 13.2853 46.7701 12.7558C47.962 12.2263 49.2676 12.1902 50.5086 12.6527C51.7497 13.115 52.8658 14.0533 53.7046 15.3394C54.254 16.1818 54.6669 17.1464 54.9233 18.1732C55.1494 19.0786 55.9494 19.7798 56.8795 19.7071Z" stroke="black"/>
<path d="M79.224 19.7071C80.1541 19.6343 80.8571 18.8186 80.6845 17.9016C80.3228 15.9796 79.6124 14.1683 78.6047 12.6232C77.3086 10.636 75.584 9.18615 73.6663 8.47166C71.7486 7.75717 69.7312 7.81282 67.8896 8.63101C66.0479 9.44921 64.4716 10.9901 63.3759 13.0433C62.2803 15.0965 61.7186 17.5621 61.7675 20.1034C61.8164 22.6447 62.4736 25.138 63.6493 27.2429C64.7083 29.1388 66.2263 30.3186 67.8873 31.1939C68.2521 31.3861 68.6445 31.5194 69.0435 31.6231C69.0725 31.6306 69.1013 31.6381 69.1298 31.6455C69.9378 31.8561 70.5361 32.0119 71.4377 31.8811C72.2575 31.7622 72.8002 31.0086 72.8532 30.1821C72.9325 28.9458 71.9086 28.1224 70.6699 28.0816C70.2428 28.0675 69.8138 27.9892 69.4041 27.7919C68.1908 27.2077 67.1313 26.1632 66.3704 24.8009C65.6095 23.4387 65.1842 21.8251 65.1526 20.1804C65.1209 18.5357 65.4844 16.9401 66.1935 15.6113C66.9026 14.2825 67.9227 13.2853 69.1146 12.7558C70.3065 12.2263 71.6121 12.1902 72.8532 12.6527C74.0943 13.115 75.2104 14.0533 76.0492 15.3394C76.5986 16.1818 77.0114 17.1464 77.2679 18.1732C77.494 19.0786 78.2939 19.7798 79.224 19.7071Z" fill="black"/>
<path d="M79.224 19.7071C80.1541 19.6343 80.8571 18.8186 80.6845 17.9016C80.3228 15.9796 79.6124 14.1683 78.6047 12.6232C77.3086 10.636 75.584 9.18615 73.6663 8.47166C71.7486 7.75717 69.7312 7.81282 67.8896 8.63101C66.0479 9.44921 64.4716 10.9901 63.3759 13.0433C62.2803 15.0965 61.7186 17.5621 61.7675 20.1034C61.8164 22.6447 62.4736 25.138 63.6493 27.2429C64.7083 29.1388 66.2263 30.3186 67.8873 31.1939C68.2521 31.3861 68.6445 31.5194 69.0435 31.6231C69.0725 31.6306 69.1013 31.6381 69.1298 31.6455C69.9378 31.8561 70.5361 32.0119 71.4377 31.8811C72.2575 31.7622 72.8002 31.0086 72.8532 30.1821C72.9325 28.9458 71.9086 28.1224 70.6699 28.0816C70.2428 28.0675 69.8138 27.9892 69.4041 27.7919C68.1908 27.2077 67.1313 26.1632 66.3704 24.8009C65.6095 23.4387 65.1842 21.8251 65.1526 20.1804C65.1209 18.5357 65.4844 16.9401 66.1935 15.6113C66.9026 14.2825 67.9227 13.2853 69.1146 12.7558C70.3065 12.2263 71.6121 12.1902 72.8532 12.6527C74.0943 13.115 75.2104 14.0533 76.0492 15.3394C76.5986 16.1818 77.0114 17.1464 77.2679 18.1732C77.494 19.0786 78.2939 19.7798 79.224 19.7071Z" stroke="black"/>
<rect x="37.5" y="50.5" width="9" height="9" rx="1.5" fill="black" stroke="black" stroke-linejoin="round"/>
<rect x="53.5" y="50.5" width="9" height="9" rx="1.5" fill="black" stroke="black" stroke-linejoin="round"/>
<rect x="69.5" y="50.5" width="9" height="9" rx="1.5" fill="black" stroke="black" stroke-linejoin="round"/>
<rect x="21.5" y="70.5" width="9" height="9" rx="1.5" fill="black" stroke="black" stroke-linejoin="round"/>
<rect x="37.5" y="70.5" width="9" height="9" rx="1.5" fill="black" stroke="black" stroke-linejoin="round"/>
<rect x="53.5" y="70.5" width="9" height="9" rx="1.5" fill="black" stroke="black" stroke-linejoin="round"/>
<rect x="69.5" y="70.5" width="9" height="9" rx="1.5" fill="black" stroke="black" stroke-linejoin="round"/>
</svg>
