<svg width="87" height="86" viewBox="0 0 87 86" fill="none" xmlns="http://www.w3.org/2000/svg">
<g clip-path="url(#clip0_231_4)">
<path fill-rule="evenodd" clip-rule="evenodd" d="M76.25 15.4664H11C8.23859 15.4664 6 17.705 6 20.4664V75.25C6 78.0114 8.23858 80.25 11 80.25H76.25C79.0114 80.25 81.25 78.0114 81.25 75.25V20.4664C81.25 17.705 79.0114 15.4664 76.25 15.4664ZM11 9.46643C4.92487 9.46643 0 14.3913 0 20.4664V75.25C0 81.3251 4.92487 86.25 11 86.25H76.25C82.3251 86.25 87.25 81.3251 87.25 75.25V20.4664C87.25 14.3913 82.3251 9.46643 76.25 9.46643H11Z" fill="#1B263B"/>
<line x1="4.25611" y1="32.7622" x2="82.9939" y2="32.7622" stroke="#1B263B" stroke-width="6"/>
<path d="M29.035 12.457C29.9651 12.3843 30.668 11.5686 30.4955 10.6516C30.1338 8.72962 29.4233 6.91823 28.4156 5.37319C27.1195 3.38593 25.395 1.93612 23.4773 1.22163C21.5596 0.507136 19.5422 0.562787 17.7005 1.38098C15.8588 2.19918 14.2826 3.74005 13.1869 5.79328C12.0912 7.84651 11.5295 10.3121 11.5784 12.8534C11.6273 15.3947 12.2845 17.888 13.4602 19.9929C14.5192 21.8888 16.0373 23.0686 17.6983 23.9439C18.0631 24.1361 18.4555 24.2693 18.8544 24.3731C18.8835 24.3806 18.9122 24.3881 18.9407 24.3955C19.7488 24.606 20.3471 24.7619 21.2486 24.6311C22.0684 24.5121 22.6112 23.7586 22.6642 22.9321C22.7434 21.6957 21.7196 20.8724 20.4808 20.8316C20.0537 20.8175 19.6248 20.7392 19.215 20.5419C18.0017 19.9577 16.9423 18.9131 16.1814 17.5509C15.4205 16.1887 14.9952 14.5751 14.9635 12.9304C14.9319 11.2857 15.2954 9.69008 16.0045 8.36128C16.7136 7.03248 17.7337 6.03527 18.9256 5.50575C20.1175 4.97624 21.4231 4.94022 22.6641 5.40262C23.9052 5.86502 25.0213 6.80331 25.8601 8.08941C26.4095 8.93175 26.8224 9.89642 27.0788 10.9232C27.3049 11.8286 28.1049 12.5297 29.035 12.457Z" fill="#1B263B"/>
<path d="M29.035 12.457C29.9651 12.3843 30.668 11.5686 30.4955 10.6516C30.1338 8.72962 29.4233 6.91823 28.4156 5.37319C27.1195 3.38593 25.395 1.93612 23.4773 1.22163C21.5596 0.507136 19.5422 0.562787 17.7005 1.38098C15.8588 2.19918 14.2826 3.74005 13.1869 5.79328C12.0912 7.84651 11.5295 10.3121 11.5784 12.8534C11.6273 15.3947 12.2845 17.888 13.4602 19.9929C14.5192 21.8888 16.0373 23.0686 17.6983 23.9439C18.0631 24.1361 18.4555 24.2693 18.8544 24.3731C18.8835 24.3806 18.9122 24.3881 18.9407 24.3955C19.7488 24.606 20.3471 24.7619 21.2486 24.6311C22.0684 24.5121 22.6112 23.7586 22.6642 22.9321C22.7434 21.6957 21.7196 20.8724 20.4808 20.8316C20.0537 20.8175 19.6248 20.7392 19.215 20.5419C18.0017 19.9577 16.9423 18.9131 16.1814 17.5509C15.4205 16.1887 14.9952 14.5751 14.9635 12.9304C14.9319 11.2857 15.2954 9.69008 16.0045 8.36128C16.7136 7.03248 17.7337 6.03527 18.9256 5.50575C20.1175 4.97624 21.4231 4.94022 22.6641 5.40262C23.9052 5.86502 25.0213 6.80331 25.8601 8.08941C26.4095 8.93175 26.8224 9.89642 27.0788 10.9232C27.3049 11.8286 28.1049 12.5297 29.035 12.457Z" stroke="#1B263B"/>
<path d="M51.3795 12.457C52.3096 12.3843 53.0125 11.5686 52.84 10.6516C52.4783 8.72962 51.7678 6.91823 50.7601 5.37319C49.4641 3.38593 47.7395 1.93612 45.8218 1.22163C43.9041 0.507135 41.8867 0.562785 40.045 1.38098C38.2033 2.19918 36.6271 3.74005 35.5314 5.79328C34.4357 7.84651 33.874 10.3121 33.9229 12.8534C33.9719 15.3947 34.629 17.888 35.8048 19.9929C36.8637 21.8888 38.3818 23.0686 40.0428 23.9439C40.4076 24.1361 40.8 24.2693 41.199 24.373C41.228 24.3806 41.2568 24.3881 41.2852 24.3955C42.0933 24.606 42.6916 24.7619 43.5932 24.6311C44.4129 24.5121 44.9557 23.7586 45.0087 22.9321C45.088 21.6957 44.0641 20.8724 42.8253 20.8316C42.3982 20.8175 41.9693 20.7392 41.5595 20.5419C40.3462 19.9577 39.2868 18.9131 38.5259 17.5509C37.765 16.1887 37.3397 14.5751 37.308 12.9304C37.2764 11.2857 37.6399 9.69008 38.349 8.36128C39.0581 7.03248 40.0782 6.03527 41.2701 5.50575C42.462 4.97623 43.7676 4.94022 45.0087 5.40262C46.2497 5.86502 47.3659 6.80331 48.2046 8.0894C48.754 8.93175 49.1669 9.89642 49.4233 10.9231C49.6494 11.8286 50.4494 12.5297 51.3795 12.457Z" fill="#1B263B"/>
<path d="M51.3795 12.457C52.3096 12.3843 53.0125 11.5686 52.84 10.6516C52.4783 8.72962 51.7678 6.91823 50.7601 5.37319C49.4641 3.38593 47.7395 1.93612 45.8218 1.22163C43.9041 0.507135 41.8867 0.562785 40.045 1.38098C38.2033 2.19918 36.6271 3.74005 35.5314 5.79328C34.4357 7.84651 33.874 10.3121 33.9229 12.8534C33.9719 15.3947 34.629 17.888 35.8048 19.9929C36.8637 21.8888 38.3818 23.0686 40.0428 23.9439C40.4076 24.1361 40.8 24.2693 41.199 24.373C41.228 24.3806 41.2568 24.3881 41.2852 24.3955C42.0933 24.606 42.6916 24.7619 43.5932 24.6311C44.4129 24.5121 44.9557 23.7586 45.0087 22.9321C45.088 21.6957 44.0641 20.8724 42.8253 20.8316C42.3982 20.8175 41.9693 20.7392 41.5595 20.5419C40.3462 19.9577 39.2868 18.9131 38.5259 17.5509C37.765 16.1887 37.3397 14.5751 37.308 12.9304C37.2764 11.2857 37.6399 9.69008 38.349 8.36128C39.0581 7.03248 40.0782 6.03527 41.2701 5.50575C42.462 4.97623 43.7676 4.94022 45.0087 5.40262C46.2497 5.86502 47.3659 6.80331 48.2046 8.0894C48.754 8.93175 49.1669 9.89642 49.4233 10.9231C49.6494 11.8286 50.4494 12.5297 51.3795 12.457Z" stroke="#1B263B"/>
<path d="M73.724 12.457C74.6541 12.3843 75.3571 11.5686 75.1845 10.6516C74.8228 8.72962 74.1123 6.91823 73.1047 5.37319C71.8086 3.38593 70.084 1.93612 68.1663 1.22163C66.2486 0.507135 64.2312 0.562785 62.3895 1.38098C60.5479 2.19918 58.9716 3.74005 57.8759 5.79328C56.7803 7.84651 56.2185 10.3121 56.2675 12.8534C56.3164 15.3947 56.9736 17.888 58.1493 19.9929C59.2083 21.8888 60.7263 23.0686 62.3873 23.9439C62.7521 24.1361 63.1445 24.2693 63.5435 24.373C63.5725 24.3806 63.6013 24.3881 63.6298 24.3955C64.4378 24.606 65.0361 24.7619 65.9377 24.6311C66.7574 24.5121 67.3002 23.7586 67.3532 22.9321C67.4325 21.6957 66.4086 20.8724 65.1699 20.8316C64.7428 20.8175 64.3138 20.7392 63.9041 20.5419C62.6907 19.9577 61.6313 18.9131 60.8704 17.5509C60.1095 16.1887 59.6842 14.5751 59.6526 12.9304C59.6209 11.2857 59.9844 9.69008 60.6935 8.36128C61.4026 7.03248 62.4227 6.03527 63.6146 5.50575C64.8065 4.97623 66.1121 4.94022 67.3532 5.40262C68.5943 5.86502 69.7104 6.80331 70.5492 8.0894C71.0985 8.93175 71.5114 9.89642 71.7678 10.9231C71.994 11.8286 72.7939 12.5297 73.724 12.457Z" fill="#1B263B"/>
<path d="M73.724 12.457C74.6541 12.3843 75.3571 11.5686 75.1845 10.6516C74.8228 8.72962 74.1123 6.91823 73.1047 5.37319C71.8086 3.38593 70.084 1.93612 68.1663 1.22163C66.2486 0.507135 64.2312 0.562785 62.3895 1.38098C60.5479 2.19918 58.9716 3.74005 57.8759 5.79328C56.7803 7.84651 56.2185 10.3121 56.2675 12.8534C56.3164 15.3947 56.9736 17.888 58.1493 19.9929C59.2083 21.8888 60.7263 23.0686 62.3873 23.9439C62.7521 24.1361 63.1445 24.2693 63.5435 24.373C63.5725 24.3806 63.6013 24.3881 63.6298 24.3955C64.4378 24.606 65.0361 24.7619 65.9377 24.6311C66.7574 24.5121 67.3002 23.7586 67.3532 22.9321C67.4325 21.6957 66.4086 20.8724 65.1699 20.8316C64.7428 20.8175 64.3138 20.7392 63.9041 20.5419C62.6907 19.9577 61.6313 18.9131 60.8704 17.5509C60.1095 16.1887 59.6842 14.5751 59.6526 12.9304C59.6209 11.2857 59.9844 9.69008 60.6935 8.36128C61.4026 7.03248 62.4227 6.03527 63.6146 5.50575C64.8065 4.97623 66.1121 4.94022 67.3532 5.40262C68.5943 5.86502 69.7104 6.80331 70.5492 8.0894C71.0985 8.93175 71.5114 9.89642 71.7678 10.9231C71.994 11.8286 72.7939 12.5297 73.724 12.457Z" stroke="#1B263B"/>
<rect x="32" y="43.25" width="9" height="9" rx="1.5" fill="#1B263B" stroke="#1B263B" stroke-linejoin="round"/>
<rect x="48" y="43.25" width="9" height="9" rx="1.5" fill="#1B263B" stroke="#1B263B" stroke-linejoin="round"/>
<rect x="64" y="43.25" width="9" height="9" rx="1.5" fill="#1B263B" stroke="#1B263B" stroke-linejoin="round"/>
<rect x="16" y="63.25" width="9" height="9" rx="1.5" fill="#1B263B" stroke="#1B263B" stroke-linejoin="round"/>
<rect x="32" y="63.25" width="9" height="9" rx="1.5" fill="#1B263B" stroke="#1B263B" stroke-linejoin="round"/>
<rect x="48" y="63.25" width="9" height="9" rx="1.5" fill="#1B263B" stroke="#1B263B" stroke-linejoin="round"/>
<rect x="64" y="63.25" width="9" height="9" rx="1.5" fill="#1B263B" stroke="#1B263B" stroke-linejoin="round"/>
</g>
<defs>
<clipPath id="clip0_231_4">
<rect width="87" height="86" fill="white"/>
</clipPath>
</defs>
</svg>
