<svg width="69" height="57" viewBox="0 0 69 57" fill="none" xmlns="http://www.w3.org/2000/svg">
<g clip-path="url(#clip0_840_11)">
<rect x="2.5" y="54.5" width="44" height="64" rx="9.5" transform="rotate(-90 2.5 54.5)" stroke="#1B263B" stroke-width="5"/>
<circle cx="13.5" cy="20.5" r="3.5" fill="#1B263B"/>
<circle cx="35" cy="33" r="12.5" stroke="#1B263B" stroke-width="5"/>
<mask id="path-4-inside-1_840_11" fill="white">
<path fill-rule="evenodd" clip-rule="evenodd" d="M27 0C23.134 0 20 3.13401 20 7V13H50V7C50 3.13401 46.866 0 43 0H27Z"/>
</mask>
<path d="M20 13H15V18H20V13ZM50 13V18H55V13H50ZM25 7C25 5.89543 25.8954 5 27 5V-5C20.3726 -5 15 0.372584 15 7H25ZM25 13V7H15V13H25ZM20 18H50V8H20V18ZM45 7V13H55V7H45ZM43 5C44.1046 5 45 5.89543 45 7H55C55 0.372584 49.6274 -5 43 -5V5ZM27 5H43V-5H27V5Z" fill="#1B263B" mask="url(#path-4-inside-1_840_11)"/>
</g>
<defs>
<clipPath id="clip0_840_11">
<rect width="69" height="57" fill="white"/>
</clipPath>
</defs>
</svg>
