<svg width="76" height="93" viewBox="0 0 76 93" fill="none" xmlns="http://www.w3.org/2000/svg">
<path d="M62.4652 43C62.4652 57.1371 51.4433 68.5 37.9652 68.5C24.4871 68.5 13.4652 57.1371 13.4652 43C13.4652 28.8629 24.4871 17.5 37.9652 17.5C51.4433 17.5 62.4652 28.8629 62.4652 43Z" fill="white" stroke="black" stroke-width="3"/>
<path d="M37.4652 31L48.4024 39.2918L44.2247 52.7082H30.7057L26.5281 39.2918L37.4652 31Z" fill="black"/>
<line y1="-1" x2="17.8358" y2="-1" transform="matrix(-0.935132 -0.354299 0.330057 -0.943961 32.7446 40.0251)" stroke="black" stroke-width="2"/>
<line y1="-1" x2="17.8358" y2="-1" transform="matrix(-0.935132 0.354299 -0.330057 -0.943961 61.0935 33.7059)" stroke="black" stroke-width="2"/>
<path d="M52.9843 38.284L57.8015 26.6517L63.877 43.9314L52.9843 38.284Z" fill="black"/>
<line y1="-1" x2="18.1793" y2="-1" transform="matrix(-0.627581 0.778551 -0.75315 -0.657849 33.1445 47.8707)" stroke="black" stroke-width="2"/>
<path d="M27.4288 56.1242L29.1554 68.3305L15.5832 56.5412L27.4288 56.1242Z" fill="black"/>
<line y1="-1" x2="18.1793" y2="-1" transform="matrix(-0.627581 -0.778551 0.75315 -0.657849 53.5559 62.0242)" stroke="black" stroke-width="2"/>
<line x1="36.9652" y1="36" x2="36.9652" y2="17" stroke="black" stroke-width="2"/>
<path d="M37.4652 28L28.3719 19L46.5585 19L37.4652 28Z" fill="black"/>
<path d="M22.9359 37.5357L12.0529 43.2031L18.0986 25.9122L22.9359 37.5357Z" fill="black"/>
<path d="M47.3097 55.1242L59.4409 55.8973L45.8686 67.6866L47.3097 55.1242Z" fill="black"/>
<mask id="path-13-inside-1_348_317" fill="white">
<path fill-rule="evenodd" clip-rule="evenodd" d="M11.9337 0C12.0305 0.527218 12.0799 1.0652 12.0796 1.60823C12.0782 4.0368 11.0815 6.36735 9.30786 8.08657C7.53419 9.80579 5.12982 10.7719 2.62433 10.7733C1.73137 10.7737 0.851633 10.6517 0.00901103 10.4167L0 13.457C0.811584 13.6258 1.64415 13.7168 2.48619 13.7255C1.78921 13.7333 1.09175 13.6726 0.403401 13.5431C0.394178 13.8349 0.393924 14.1288 0.4029 14.4246L1.87383 62.901L7.94712 71.0804L7.91079 71.1074C10.6918 74.3584 14.0499 77.3119 17.9774 79.8433L38.3891 93L57.4735 81.7956C63.7143 78.1317 68.619 73.4093 72.1529 68.086L72.1525 68.12L75.2139 62.9962L75.2186 62.6013L75.2352 62.5652V61.2052L75.7962 14.167C75.7996 13.8889 75.7947 13.6127 75.782 13.3386C75.7242 13.3546 75.6662 13.3702 75.6081 13.3852C75.7275 13.3543 75.8466 13.3212 75.9652 13.286V10.0234C72.9571 11.2636 69.4214 10.5848 67.0003 7.99103C64.9739 5.82008 64.1997 2.81249 64.68 0H61.7494H61.7494H15.0161H14.3965H11.9337ZM15.0427 3C14.7193 5.70007 13.4654 8.23262 11.462 10.1746C9.301 12.2692 6.43114 13.5186 3.40015 13.7025C3.39469 13.9115 3.3951 14.1219 3.40152 14.3336L4.81953 61.066H4.92327C8.02113 67.4064 12.9875 73.1338 19.7769 77.51L38.4583 89.5513L55.769 79.3882C63.4475 74.8801 68.959 68.6553 72.2292 61.6921L72.7965 14.1312C72.7981 13.9953 72.7972 13.8599 72.7939 13.7252C69.9514 13.6867 67.121 12.5065 64.9533 10.1841C63.0746 8.17143 61.9967 5.62547 61.7192 3H15.0427Z"/>
</mask>
<path fill-rule="evenodd" clip-rule="evenodd" d="M11.9337 0C12.0305 0.527218 12.0799 1.0652 12.0796 1.60823C12.0782 4.0368 11.0815 6.36735 9.30786 8.08657C7.53419 9.80579 5.12982 10.7719 2.62433 10.7733C1.73137 10.7737 0.851633 10.6517 0.00901103 10.4167L0 13.457C0.811584 13.6258 1.64415 13.7168 2.48619 13.7255C1.78921 13.7333 1.09175 13.6726 0.403401 13.5431C0.394178 13.8349 0.393924 14.1288 0.4029 14.4246L1.87383 62.901L7.94712 71.0804L7.91079 71.1074C10.6918 74.3584 14.0499 77.3119 17.9774 79.8433L38.3891 93L57.4735 81.7956C63.7143 78.1317 68.619 73.4093 72.1529 68.086L72.1525 68.12L75.2139 62.9962L75.2186 62.6013L75.2352 62.5652V61.2052L75.7962 14.167C75.7996 13.8889 75.7947 13.6127 75.782 13.3386C75.7242 13.3546 75.6662 13.3702 75.6081 13.3852C75.7275 13.3543 75.8466 13.3212 75.9652 13.286V10.0234C72.9571 11.2636 69.4214 10.5848 67.0003 7.99103C64.9739 5.82008 64.1997 2.81249 64.68 0H61.7494H61.7494H15.0161H14.3965H11.9337ZM15.0427 3C14.7193 5.70007 13.4654 8.23262 11.462 10.1746C9.301 12.2692 6.43114 13.5186 3.40015 13.7025C3.39469 13.9115 3.3951 14.1219 3.40152 14.3336L4.81953 61.066H4.92327C8.02113 67.4064 12.9875 73.1338 19.7769 77.51L38.4583 89.5513L55.769 79.3882C63.4475 74.8801 68.959 68.6553 72.2292 61.6921L72.7965 14.1312C72.7981 13.9953 72.7972 13.8599 72.7939 13.7252C69.9514 13.6867 67.121 12.5065 64.9533 10.1841C63.0746 8.17143 61.9967 5.62547 61.7192 3H15.0427Z" fill="black"/>
<path d="M12.0796 1.60823L13.0796 1.6088L13.0796 1.6088L12.0796 1.60823ZM11.9337 0V-1H10.7335L10.9502 0.180517L11.9337 0ZM9.30786 8.08657L10.0039 8.80462L10.0039 8.80462L9.30786 8.08657ZM2.62433 10.7733L2.62379 9.77326L2.62379 9.77326L2.62433 10.7733ZM0.00901103 10.4167L0.277633 9.45345L-0.987093 9.10075L-0.990985 10.4137L0.00901103 10.4167ZM0 13.457L-0.999996 13.4541L-1.00241 14.27L-0.203565 14.4361L0 13.457ZM2.48619 13.7255L2.49747 14.7254L2.49648 12.7255L2.48619 13.7255ZM0.403401 13.5431L0.588165 12.5604L-0.55921 12.3447L-0.5961 13.5115L0.403401 13.5431ZM0.4029 14.4246L-0.59664 14.455L-0.59664 14.455L0.4029 14.4246ZM1.87383 62.901L0.874291 62.9313L0.883812 63.2451L1.07095 63.4971L1.87383 62.901ZM7.94712 71.0804L8.54322 71.8833L9.34617 71.2872L8.75 70.4843L7.94712 71.0804ZM7.91079 71.1074L7.31469 70.3045L6.45437 70.9432L7.1509 71.7575L7.91079 71.1074ZM17.9774 79.8433L18.5191 79.0028L18.5191 79.0028L17.9774 79.8433ZM38.3891 93L37.8474 93.8405L38.3647 94.1739L38.8954 93.8623L38.3891 93ZM57.4735 81.7956L57.9798 82.658L57.9798 82.658L57.4735 81.7956ZM72.1529 68.086L73.1529 68.0979L73.1932 64.711L71.3198 67.5329L72.1529 68.086ZM72.1525 68.12L71.1526 68.1081L71.1085 71.8171L73.011 68.6329L72.1525 68.12ZM75.2139 62.9962L76.0723 63.5091L76.2106 63.2777L76.2138 63.0082L75.2139 62.9962ZM75.2186 62.6013L74.3106 62.1823L74.2212 62.3761L74.2186 62.5894L75.2186 62.6013ZM75.2352 62.5652L76.1432 62.9842L76.2352 62.7848V62.5652H75.2352ZM75.2352 61.2052L74.2352 61.1932V61.2052H75.2352ZM75.7962 14.167L74.7963 14.155L74.7963 14.155L75.7962 14.167ZM75.782 13.3386L76.781 13.2923L76.7229 12.0399L75.5148 12.3749L75.782 13.3386ZM75.6081 13.3852L75.3572 12.4172L75.8591 14.3532L75.6081 13.3852ZM75.9652 13.286L76.2495 14.2447L76.9652 14.0325V13.286H75.9652ZM75.9652 10.0234H76.9652V8.52938L75.584 9.09885L75.9652 10.0234ZM67.0003 7.99103L67.7314 7.30868L67.7314 7.30868L67.0003 7.99103ZM64.68 0L65.6657 0.168329L65.8652 -1L64.68 -1V0ZM11.462 10.1746L12.158 10.8926L12.158 10.8926L11.462 10.1746ZM15.0427 3V2H14.1553L14.0498 2.88109L15.0427 3ZM3.40015 13.7025L3.33958 12.7043L2.42439 12.7598L2.40049 13.6764L3.40015 13.7025ZM3.40152 14.3336L4.40106 14.3033L4.40106 14.3033L3.40152 14.3336ZM4.81953 61.066L3.81999 61.0963L3.84941 62.066H4.81953V61.066ZM4.92327 61.066L5.82177 60.627L5.54767 60.066H4.92327V61.066ZM19.7769 77.51L20.3187 76.6694L20.3187 76.6694L19.7769 77.51ZM38.4583 89.5513L37.9165 90.3918L38.4338 90.7252L38.9645 90.4136L38.4583 89.5513ZM55.769 79.3882L56.2753 80.2506L56.2753 80.2506L55.769 79.3882ZM72.2292 61.6921L73.1343 62.1172L73.2265 61.9209L73.2291 61.704L72.2292 61.6921ZM72.7965 14.1312L73.7964 14.1431L73.7964 14.1431L72.7965 14.1312ZM72.7939 13.7252L73.7936 13.7008L73.7702 12.7383L72.8075 12.7253L72.7939 13.7252ZM64.9533 10.1841L65.6843 9.50175L65.6843 9.50175L64.9533 10.1841ZM61.7192 3L62.7137 2.89491L62.6191 2H61.7192V3ZM13.0796 1.6088C13.08 1.00463 13.025 0.406041 12.9173 -0.180517L10.9502 0.180517C11.036 0.648396 11.0799 1.12577 11.0796 1.60766L13.0796 1.6088ZM10.0039 8.80462C11.9681 6.90069 13.0781 4.31279 13.0796 1.6088L11.0796 1.60766C11.0784 3.76081 10.195 5.83402 8.61186 7.36853L10.0039 8.80462ZM2.62487 11.7733C5.38567 11.7718 8.04068 10.7075 10.0039 8.80462L8.61186 7.36853C7.0277 8.90406 4.87397 9.77205 2.62379 9.77326L2.62487 11.7733ZM-0.259611 11.3799C0.670136 11.6392 1.64041 11.7738 2.62487 11.7733L2.62379 9.77326C1.82233 9.7737 1.03313 9.66413 0.277633 9.45345L-0.259611 11.3799ZM0.999996 13.46L1.00901 10.4197L-0.990985 10.4137L-0.999996 13.4541L0.999996 13.46ZM2.49648 12.7255C1.71972 12.7175 0.951872 12.6336 0.203565 12.478L-0.203565 14.4361C0.671296 14.618 1.56858 14.7161 2.47589 14.7254L2.49648 12.7255ZM0.218637 14.5259C0.9717 14.6675 1.73483 14.734 2.49747 14.7254L2.4749 12.7255C1.8436 12.7326 1.21181 12.6776 0.588165 12.5604L0.218637 14.5259ZM1.40244 14.3943C1.39409 14.1191 1.39433 13.8458 1.4029 13.5747L-0.5961 13.5115C-0.605974 13.8239 -0.606243 14.1385 -0.59664 14.455L1.40244 14.3943ZM2.87337 62.8706L1.40244 14.3943L-0.59664 14.455L0.874291 62.9313L2.87337 62.8706ZM8.75 70.4843L2.67671 62.3048L1.07095 63.4971L7.14424 71.6766L8.75 70.4843ZM8.50689 71.9103L8.54322 71.8833L7.35102 70.2775L7.31469 70.3045L8.50689 71.9103ZM18.5191 79.0028C14.6716 76.5228 11.3874 73.6331 8.67069 70.4574L7.1509 71.7575C9.99628 75.0836 13.4282 78.1009 17.4356 80.6838L18.5191 79.0028ZM38.9309 92.1595L18.5191 79.0028L17.4356 80.6838L37.8474 93.8405L38.9309 92.1595ZM56.9672 80.9333L37.8828 92.1376L38.8954 93.8623L57.9798 82.658L56.9672 80.9333ZM71.3198 67.5329C67.872 72.7265 63.0802 77.3444 56.9672 80.9333L57.9798 82.658C64.3484 78.919 69.3661 74.092 72.9861 68.6391L71.3198 67.5329ZM73.1525 68.1319L73.1529 68.0979L71.153 68.0741L71.1526 68.1081L73.1525 68.1319ZM73.011 68.6329L76.0723 63.5091L74.3554 62.4833L71.2941 67.6071L73.011 68.6329ZM74.2186 62.5894L74.2139 62.9843L76.2138 63.0082L76.2185 62.6132L74.2186 62.5894ZM74.3272 62.1462L74.3106 62.1823L76.1266 63.0203L76.1432 62.9842L74.3272 62.1462ZM74.2352 61.2052V62.5652H76.2352V61.2052H74.2352ZM74.7963 14.155L74.2353 61.1932L76.2352 61.2171L76.7962 14.1789L74.7963 14.155ZM74.7831 13.3849C74.7949 13.6397 74.7994 13.8965 74.7963 14.155L76.7962 14.1789C76.7997 13.8814 76.7946 13.5858 76.781 13.2923L74.7831 13.3849ZM75.8591 14.3532C75.9223 14.3368 75.9857 14.3198 76.0493 14.3022L75.5148 12.3749C75.4626 12.3894 75.41 12.4035 75.3572 12.4172L75.8591 14.3532ZM75.6809 12.3273C75.5733 12.3592 75.4654 12.3892 75.3572 12.4172L75.8591 14.3532C75.9897 14.3194 76.1198 14.2832 76.2495 14.2447L75.6809 12.3273ZM74.9652 10.0234V13.286H76.9652V10.0234H74.9652ZM66.2693 8.67338C68.9754 11.5725 72.9545 12.3464 76.3464 10.9479L75.584 9.09885C72.9597 10.1809 69.8674 9.59704 67.7314 7.30868L66.2693 8.67338ZM63.6943 -0.168329C63.1657 2.9271 64.0132 6.25637 66.2693 8.67338L67.7314 7.30868C65.9346 5.38378 65.2338 2.69788 65.6657 0.168329L63.6943 -0.168329ZM61.7494 1H64.68V-1H61.7494V1ZM61.7494 1H61.7494V-1H61.7494V1ZM15.0161 1H61.7494V-1H15.0161V1ZM14.3965 1H15.0161V-1H14.3965V1ZM11.9337 1H14.3965V-1H11.9337V1ZM12.158 10.8926C14.3242 8.7929 15.6846 6.04963 16.0356 3.11891L14.0498 2.88109C13.7541 5.3505 12.6067 7.67233 10.766 9.45653L12.158 10.8926ZM3.46071 14.7006C6.72561 14.5025 9.82219 13.1567 12.158 10.8926L10.766 9.45653C8.77981 11.3817 6.13668 12.5346 3.33958 12.7043L3.46071 14.7006ZM4.40106 14.3033C4.39521 14.1104 4.39484 13.9188 4.39981 13.7285L2.40049 13.6764C2.39454 13.9042 2.39499 14.1335 2.40198 14.364L4.40106 14.3033ZM5.81907 61.0356L4.40106 14.3033L2.40198 14.364L3.81999 61.0963L5.81907 61.0356ZM4.92327 60.066H4.81953V62.066H4.92327V60.066ZM20.3187 76.6694C13.679 72.3897 8.83768 66.7997 5.82177 60.627L4.02478 61.5049C7.20457 68.0131 12.2961 73.8778 19.2352 78.3505L20.3187 76.6694ZM39 88.7107L20.3187 76.6694L19.2352 78.3505L37.9165 90.3918L39 88.7107ZM55.2627 78.5259L37.952 88.6889L38.9645 90.4136L56.2753 80.2506L55.2627 78.5259ZM71.3241 61.267C68.1416 68.0432 62.7714 74.1175 55.2627 78.5259L56.2753 80.2506C64.1237 75.6428 69.7763 69.2674 73.1343 62.1172L71.3241 61.267ZM71.7965 14.1193L71.2293 61.6802L73.2291 61.704L73.7964 14.1431L71.7965 14.1193ZM71.7942 13.7495C71.7972 13.8722 71.798 13.9954 71.7965 14.1193L73.7964 14.1431C73.7981 13.9951 73.7972 13.8477 73.7936 13.7008L71.7942 13.7495ZM64.2223 10.8665C66.576 13.3881 69.6657 14.6829 72.7804 14.7251L72.8075 12.7253C70.2372 12.6905 67.666 11.6248 65.6843 9.50175L64.2223 10.8665ZM60.7248 3.10509C61.0234 5.93088 62.1851 8.68397 64.2223 10.8665L65.6843 9.50175C63.9642 7.65889 62.97 5.32006 62.7137 2.89491L60.7248 3.10509ZM15.0427 4H61.7192V2H15.0427V4Z" fill="black" mask="url(#path-13-inside-1_348_317)"/>
<line x1="16.9652" y1="5.5" x2="59.9652" y2="5.5" stroke="black"/>
<line x1="6.46507" y1="16.9884" x2="7.46508" y2="59.9884" stroke="black"/>
<line x1="69.4651" y1="17.0116" x2="68.4651" y2="60.0116" stroke="black"/>
<path fill-rule="evenodd" clip-rule="evenodd" d="M60.3187 5.25722L59.4599 5C59.4441 5.04277 59.4287 5.08563 59.4137 5.12857C59.3205 5.39475 59.2417 5.66404 59.1775 5.93542C58.9041 7.09009 58.8938 8.28244 59.1521 9.43217C59.4809 10.8957 60.2323 12.2345 61.3252 13.3038C62.4182 14.3731 63.811 15.1323 65.3532 15.4993C66.5636 15.7874 67.8299 15.8253 69.0667 15.615C69.3325 15.5698 69.597 15.5131 69.8593 15.445C69.9315 15.4263 70.0035 15.4067 70.0754 15.3862L69.8067 14.4686L68.7917 14.6759L68.7935 14.6818C67.7356 14.8476 66.6567 14.8081 65.625 14.5626C64.2664 14.2392 63.04 13.5706 62.0778 12.6292C61.1155 11.6877 60.4529 10.508 60.1628 9.21668C59.9443 8.24389 59.9434 7.23545 60.1568 6.25402L60.3187 5.25722Z" fill="black"/>
<path fill-rule="evenodd" clip-rule="evenodd" d="M7.15386 15.607L6.93424 16.497C7.02333 16.5224 7.11267 16.5464 7.20223 16.569C7.43411 16.6274 7.66743 16.6763 7.90163 16.7156C9.16021 16.9269 10.444 16.8618 11.6641 16.5199C13.199 16.0899 14.5749 15.2382 15.643 14.0569C16.7111 12.8757 17.4308 11.4098 17.7243 9.8177C17.9572 8.55419 17.9147 7.24935 17.6045 5.99272C17.5585 5.80628 17.5066 5.62091 17.4488 5.43688C17.4053 5.29834 17.3585 5.16057 17.3084 5.0237L16.3499 5.35694L16.6224 6.3342L16.6679 6.31835C16.9241 7.40691 16.9542 8.53198 16.7535 9.62018C16.4941 11.0277 15.8582 12.3222 14.9152 13.3652C13.9721 14.4082 12.7554 15.1623 11.3946 15.5435C10.3424 15.8384 9.23477 15.9016 8.14436 15.7319L8.15229 15.6998L7.15386 15.607Z" fill="black"/>
<path fill-rule="evenodd" clip-rule="evenodd" d="M19.2084 72.6901L38.1879 84.5204L57.1301 73.7983L55.3352 73.7459L38.1905 83.4505L21.0119 72.7428L19.2084 72.6901Z" fill="black"/>
</svg>
