<svg width="100" height="100" viewBox="0 0 100 100" fill="none" xmlns="http://www.w3.org/2000/svg">
<rect width="100" height="100" fill="white"/>
<path d="M63.7205 46.7305H56.7212C56.5934 45.8249 56.3324 45.0206 55.9382 44.3175C55.544 43.6037 55.038 42.9964 54.4201 42.4957C53.8022 41.995 53.0884 41.6115 52.2788 41.3452C51.4798 41.0788 50.6115 40.9457 49.674 40.9457C47.9801 40.9457 46.5046 41.3665 45.2475 42.2081C43.9904 43.0391 43.0156 44.2536 42.3232 45.8516C41.6307 47.4389 41.2844 49.3672 41.2844 51.6364C41.2844 53.9695 41.6307 55.9297 42.3232 57.517C43.0263 59.1044 44.0064 60.3029 45.2635 61.1126C46.5206 61.9222 47.9748 62.3271 49.6261 62.3271C50.5529 62.3271 51.4105 62.2045 52.1989 61.9595C52.9979 61.7145 53.7063 61.3576 54.3242 60.8888C54.9421 60.4094 55.4535 59.8288 55.8583 59.147C56.2738 58.4652 56.5614 57.6875 56.7212 56.8139L63.7205 56.8459C63.5394 58.348 63.0866 59.7969 62.3622 61.1925C61.6484 62.5774 60.6843 63.8185 59.4698 64.9158C58.266 66.0025 56.8278 66.8654 55.1552 67.5046C53.4933 68.1332 51.6129 68.4474 49.5142 68.4474C46.5952 68.4474 43.9851 67.7869 41.6839 66.4659C39.3935 65.1449 37.5824 63.2326 36.2507 60.729C34.9297 58.2255 34.2692 55.1946 34.2692 51.6364C34.2692 48.0675 34.9403 45.0312 36.2827 42.5277C37.625 40.0241 39.4467 38.1172 41.7479 36.8068C44.049 35.4858 46.6378 34.8253 49.5142 34.8253C51.4105 34.8253 53.1683 35.0916 54.7876 35.6243C56.4176 36.157 57.8612 36.9347 59.1183 37.9574C60.3754 38.9695 61.3981 40.2106 62.1864 41.6808C62.9854 43.1509 63.4968 44.8342 63.7205 46.7305Z" fill="#1B263B"/>
<path fill-rule="evenodd" clip-rule="evenodd" d="M72 24H28C24.6863 24 22 26.6863 22 30V74C22 77.3137 24.6863 80 28 80H72C75.3137 80 78 77.3137 78 74V30C78 26.6863 75.3137 24 72 24ZM28 19C21.9249 19 17 23.9249 17 30V74C17 80.0751 21.9249 85 28 85H72C78.0751 85 83 80.0751 83 74V30C83 23.9249 78.0751 19 72 19H28Z" fill="#1B263B"/>
</svg>
