<svg width="100" height="100" viewBox="0 0 100 100" fill="none" xmlns="http://www.w3.org/2000/svg">
<rect width="100" height="100" fill="white"/>
<path d="M69.294 43.6406H59.9616C59.7912 42.4332 59.4432 41.3608 58.9176 40.4233C58.392 39.4716 57.7173 38.6619 56.8935 37.9943C56.0696 37.3267 55.1179 36.8153 54.0384 36.4602C52.973 36.1051 51.8153 35.9276 50.5653 35.9276C48.3068 35.9276 46.3395 36.4886 44.6634 37.6108C42.9872 38.7187 41.6875 40.3381 40.7642 42.4688C39.8409 44.5852 39.3793 47.1562 39.3793 50.1818C39.3793 53.2926 39.8409 55.9062 40.7642 58.0227C41.7017 60.1392 43.0085 61.7372 44.6847 62.8168C46.3608 63.8963 48.2997 64.4361 50.5014 64.4361C51.7372 64.4361 52.8807 64.2727 53.9318 63.946C54.9972 63.6193 55.9418 63.1435 56.7656 62.5185C57.5895 61.8793 58.2713 61.1051 58.8111 60.196C59.3651 59.2869 59.7486 58.25 59.9616 57.0852L69.294 57.1278C69.0526 59.1307 68.4489 61.0625 67.483 62.9233C66.5313 64.7699 65.2457 66.4247 63.6264 67.8878C62.0213 69.3366 60.1037 70.4872 57.8736 71.3395C55.6577 72.1776 53.1506 72.5966 50.3523 72.5966C46.4602 72.5966 42.9801 71.7159 39.9119 69.9545C36.858 68.1932 34.4432 65.6435 32.6676 62.3054C30.9062 58.9673 30.0256 54.9261 30.0256 50.1818C30.0256 45.4233 30.9205 41.375 32.7102 38.0369C34.5 34.6989 36.929 32.1562 39.9972 30.4091C43.0653 28.6477 46.517 27.767 50.3523 27.767C52.8807 27.767 55.2244 28.1222 57.3835 28.8324C59.5568 29.5426 61.4815 30.5795 63.1577 31.9432C64.8338 33.2926 66.1974 34.9474 67.2486 36.9077C68.3139 38.8679 68.9957 41.1122 69.294 43.6406Z" fill="#1B263B"/>
</svg>
