<svg width="69" height="81" viewBox="0 0 69 81" fill="none" xmlns="http://www.w3.org/2000/svg">
<g clip-path="url(#clip0_119_5)">
<rect width="69" height="81"/>
<rect x="3" y="14.25" width="51.5" height="63.5" rx="8" fill="white" stroke="#1B263B" stroke-width="6"/>
<mask id="path-2-inside-1_119_5" fill="white">
<path fill-rule="evenodd" clip-rule="evenodd" d="M50 0.25H23C16.9249 0.25 12 5.17487 12 11.25V58.75C12 64.8251 16.9249 69.75 23 69.75H58.5C64.5751 69.75 69.5 64.8251 69.5 58.75V19.75L50 0.25Z"/>
</mask>
<path fill-rule="evenodd" clip-rule="evenodd" d="M50 0.25H23C16.9249 0.25 12 5.17487 12 11.25V58.75C12 64.8251 16.9249 69.75 23 69.75H58.5C64.5751 69.75 69.5 64.8251 69.5 58.75V19.75L50 0.25Z" fill="white"/>
<path d="M50 0.25L54.2426 -3.99264L52.4853 -5.75H50V0.25ZM69.5 19.75H75.5V17.2647L73.7426 15.5074L69.5 19.75ZM23 6.25H50V-5.75H23V6.25ZM18 11.25C18 8.48858 20.2386 6.25 23 6.25V-5.75C13.6112 -5.75 6 1.86116 6 11.25H18ZM18 58.75V11.25H6V58.75H18ZM23 63.75C20.2386 63.75 18 61.5114 18 58.75H6C6 68.1388 13.6112 75.75 23 75.75V63.75ZM58.5 63.75H23V75.75H58.5V63.75ZM63.5 58.75C63.5 61.5114 61.2614 63.75 58.5 63.75V75.75C67.8888 75.75 75.5 68.1388 75.5 58.75H63.5ZM63.5 19.75V58.75H75.5V19.75H63.5ZM73.7426 15.5074L54.2426 -3.99264L45.7574 4.49264L65.2574 23.9926L73.7426 15.5074Z" fill="#1B263B" mask="url(#path-2-inside-1_119_5)"/>
<mask id="path-4-inside-2_119_5" fill="white">
<path d="M40.75 2H67.75V29H51.75C45.6749 29 40.75 24.0751 40.75 18V2Z"/>
</mask>
<path d="M40.75 2H67.75H40.75ZM67.75 35H51.75C42.3612 35 34.75 27.3888 34.75 18H46.75C46.75 20.7614 48.9886 23 51.75 23H67.75V35ZM51.75 35C42.3612 35 34.75 27.3888 34.75 18V2H46.75V18C46.75 20.7614 48.9886 23 51.75 23V35ZM67.75 2V29V2Z" fill="#1B263B" mask="url(#path-4-inside-2_119_5)"/>
<path fill-rule="evenodd" clip-rule="evenodd" d="M29.4928 38.5908C28.1121 38.5908 26.996 39.7101 27 41.0908C27.004 42.4715 28.1265 43.5908 29.5072 43.5908H52.185C53.5657 43.5908 54.6817 42.4715 54.6777 41.0908C54.6737 39.7101 53.5512 38.5908 52.1705 38.5908H29.4928ZM29.5025 50.6668C28.1218 50.6668 27.0025 51.7861 27.0025 53.1668C27.0025 54.5475 28.1218 55.6668 29.5025 55.6668H52.176C53.5568 55.6668 54.676 54.5475 54.676 53.1668C54.676 51.7861 53.5568 50.6668 52.176 50.6668H29.5025Z" fill="#1B263B"/>
</g>
<defs>
<clipPath id="clip0_119_5">
<rect width="69" height="81" fill="white"/>
</clipPath>

</defs>
</svg>
