<svg width="45" height="61" viewBox="0 0 45 61" fill="none" xmlns="http://www.w3.org/2000/svg">
<g clip-path="url(#clip0_834_11)">
<circle cx="22.5" cy="22.5" r="7.5" stroke="#0B2239" stroke-width="4"/>
<path fill-rule="evenodd" clip-rule="evenodd" d="M36.5013 33C38.6982 30.0752 40 26.4396 40 22.5C40 12.835 32.165 5 22.5 5C12.835 5 5 12.835 5 22.5C5 26.4396 6.30181 30.0752 8.49872 33H2.59514C0.938195 29.8654 0 26.2923 0 22.5C0 10.0736 10.0736 0 22.5 0C34.9264 0 45 10.0736 45 22.5C45 26.2923 44.0618 29.8654 42.4049 33H36.5013Z" fill="#0B2239"/>
<path d="M5 32L23 58" stroke="#0B2239" stroke-width="5" stroke-linecap="round"/>
<path d="M23 58L40 32" stroke="#0B2239" stroke-width="5" stroke-linecap="round"/>
</g>
<defs>
<clipPath id="clip0_834_11">
<rect width="45" height="61" fill="white"/>
</clipPath>
</defs>
</svg>
