<svg width="45" height="61" viewBox="0 0 45 61" fill="none" xmlns="http://www.w3.org/2000/svg">
<circle cx="22.5" cy="22.5" r="7.5" stroke="#0B2239" stroke-width="4"/>
<path fill-rule="evenodd" clip-rule="evenodd" d="M37.7336 33C39.7936 30.017 41 26.3994 41 22.5C41 12.2827 32.7173 4 22.5 4C12.2827 4 4 12.2827 4 22.5C4 26.3994 5.20643 30.017 7.26639 33H2.59514C0.938195 29.8654 0 26.2923 0 22.5C0 10.0736 10.0736 0 22.5 0C34.9264 0 45 10.0736 45 22.5C45 26.2923 44.0618 29.8654 42.4049 33H37.7336Z" fill="#0B2239"/>
<path d="M6.62307 31.8314L5.45446 30.2083L2.20832 32.5455L3.37693 34.1686L6.62307 31.8314ZM21.3769 59.1686C22.0223 60.065 23.2722 60.2685 24.1686 59.6231C25.065 58.9777 25.2685 57.7278 24.6231 56.8314L21.3769 59.1686ZM3.37693 34.1686L21.3769 59.1686L24.6231 56.8314L6.62307 31.8314L3.37693 34.1686Z" fill="#0B2239"/>
<path d="M21.3461 56.8754C20.725 57.7888 20.962 59.0327 21.8754 59.6539C22.7888 60.275 24.0327 60.038 24.6539 59.1246L21.3461 56.8754ZM41.6539 34.1246L42.7785 32.4708L39.4708 30.2215L38.3461 31.8754L41.6539 34.1246ZM24.6539 59.1246L41.6539 34.1246L38.3461 31.8754L21.3461 56.8754L24.6539 59.1246Z" fill="#0B2239"/>
</svg>
