<svg fill="none" xmlns="http://www.w3.org/2000/svg" viewBox="20 47 60 5">
<rect x="30.5" y="47" width="6" height="5" fill="#1B263B"/>
<rect x="41.5" y="47" width="6" height="5" fill="#1B263B"/>
<rect x="52.5" y="47" width="6" height="5" fill="#1B263B"/>
<rect x="63.5" y="47" width="6" height="5" fill="#1B263B"/>
<path d="M22 47C21.7374 47 21.4773 47.0647 21.2346 47.1903C20.992 47.3159 20.7715 47.5001 20.5858 47.7322C20.4001 47.9644 20.2528 48.24 20.1522 48.5433C20.0517 48.8466 20 49.1717 20 49.5C20 49.8283 20.0517 50.1534 20.1522 50.4567C20.2528 50.76 20.4001 51.0356 20.5858 51.2678C20.7715 51.4999 20.992 51.6841 21.2346 51.8097C21.4773 51.9353 21.7374 52 22 52L22 49.5V47Z" fill="#1B263B"/>
<rect x="22" y="47" width="4" height="5" fill="#1B263B"/>
<path d="M78 52C78.2626 52 78.5227 51.9353 78.7654 51.8097C79.008 51.6841 79.2285 51.4999 79.4142 51.2678C79.5999 51.0356 79.7472 50.76 79.8478 50.4567C79.9483 50.1534 80 49.8283 80 49.5C80 49.1717 79.9483 48.8466 79.8478 48.5433C79.7472 48.24 79.5999 47.9644 79.4142 47.7322C79.2285 47.5001 79.008 47.3159 78.7654 47.1903C78.5227 47.0647 78.2626 47 78 47L78 49.5V52Z" fill="#1B263B"/>
<rect x="78" y="52" width="4" height="5" transform="rotate(180 78 52)" fill="#1B263B"/>
</svg>