<svg fill="none" xmlns="http://www.w3.org/2000/svg" viewBox="10 5.6 80 83.82">
<path fill-rule="evenodd" clip-rule="evenodd" d="M80 22.25H20C17.2386 22.25 15 24.4886 15 27.25V78.25C15 81.0114 17.2386 83.25 20 83.25H80C82.7614 83.25 85 81.0114 85 78.25V27.25C85 24.4886 82.7614 22.25 80 22.25ZM20 16.25C13.9249 16.25 9 21.1749 9 27.25V78.25C9 84.3251 13.9249 89.25 20 89.25H80C86.0751 89.25 91 84.3251 91 78.25V27.25C91 21.1749 86.0751 16.25 80 16.25H20Z" fill="black"/>
<path fill-rule="evenodd" clip-rule="evenodd" d="M53.8229 54.2812C53.8229 56.4354 52.0281 58.3125 49.6516 58.3125C47.2752 58.3125 45.4804 56.4354 45.4804 54.2812C45.4804 52.1271 47.2752 50.25 49.6516 50.25C52.0281 50.25 53.8229 52.1271 53.8229 54.2812ZM54.394 62.0129C57.0486 60.4306 58.8229 57.56 58.8229 54.2812C58.8229 49.2934 54.7168 45.25 49.6516 45.25C44.5865 45.25 40.4804 49.2934 40.4804 54.2812C40.4804 57.6379 42.34 60.5668 45.1001 62.1236C44.6255 62.2872 44.1572 62.4753 43.6966 62.6874C41.7255 63.5952 39.9345 64.9256 38.4259 66.6029C36.9173 68.2801 35.7206 70.2713 34.9042 72.4628C34.549 73.4163 34.2687 74.3995 34.0655 75.4015C33.6264 77.5666 35.4584 79.375 37.6675 79.375H49.9137H62.1599C64.369 79.375 66.2011 77.5666 65.7619 75.4015C65.5587 74.3995 65.2785 73.4163 64.9232 72.4628C64.1068 70.2713 62.9101 68.2801 61.4015 66.6029C59.8929 64.9256 58.1019 63.5952 56.1309 62.6874C55.5627 62.4258 54.9828 62.2007 54.394 62.0129ZM60.2378 74.2084C60.2585 74.2638 60.2788 74.3193 60.2987 74.375H49.9137H39.5287C39.5487 74.3193 39.569 74.2638 39.5896 74.2084C40.1949 72.5837 41.0704 71.1396 42.1434 69.9466C43.2155 68.7546 44.4593 67.8409 45.7881 67.229C47.1148 66.618 48.515 66.3125 49.9137 66.3125C51.3124 66.3125 52.7126 66.618 54.0394 67.229C55.3681 67.8409 56.6119 68.7546 57.684 69.9466C58.757 71.1396 59.6326 72.5837 60.2378 74.2084Z" fill="black"/>
<line x1="13" y1="38.25" x2="87" y2="38.25" stroke="black" stroke-width="6"/>
<path d="M36.2879 19.0932C37.162 19.0241 37.8231 18.2568 37.6638 17.3946C37.3249 15.5607 36.6559 13.8321 35.7058 12.3584C34.4877 10.4691 32.8669 9.09071 31.0646 8.41143C29.2623 7.73215 27.3663 7.78506 25.6354 8.56293C23.9046 9.34081 22.4232 10.8058 21.3934 12.7578C20.3637 14.7099 19.8357 17.0539 19.8817 19.47C19.9277 21.8861 20.5453 24.2565 21.6503 26.2577C22.645 28.0592 24.0707 29.1807 25.6307 30.0127C25.9752 30.1963 26.3464 30.3238 26.7239 30.4231C26.7498 30.4299 26.7755 30.4367 26.801 30.4434C27.5561 30.6424 28.1164 30.7901 28.9557 30.6695C29.7355 30.5574 30.2506 29.8379 30.3004 29.0517C30.375 27.8758 29.4015 27.1007 28.2242 27.0542C27.8308 27.0386 27.4362 26.9635 27.0588 26.7797C25.9185 26.2243 24.9228 25.2312 24.2077 23.9361C23.4926 22.641 23.0929 21.1069 23.0631 19.5432C23.0334 17.9796 23.375 16.4626 24.0415 15.1993C24.7079 13.936 25.6666 12.9879 26.7868 12.4845C27.907 11.981 29.134 11.9468 30.3004 12.3864C31.4668 12.826 32.5158 13.7181 33.3041 14.9408C33.8235 15.7464 34.2131 16.6697 34.4537 17.6524C34.6623 18.5041 35.4137 19.1623 36.2879 19.0932Z" fill="black"/>
<path d="M36.2879 19.0932C37.162 19.0241 37.8231 18.2568 37.6638 17.3946C37.3249 15.5607 36.6559 13.8321 35.7058 12.3584C34.4877 10.4691 32.8669 9.09071 31.0646 8.41143C29.2623 7.73215 27.3663 7.78506 25.6354 8.56293C23.9046 9.34081 22.4232 10.8058 21.3934 12.7578C20.3637 14.7099 19.8357 17.0539 19.8817 19.47C19.9277 21.8861 20.5453 24.2565 21.6503 26.2577C22.645 28.0592 24.0707 29.1807 25.6307 30.0127C25.9752 30.1963 26.3464 30.3238 26.7239 30.4231C26.7498 30.4299 26.7755 30.4367 26.801 30.4434C27.5561 30.6424 28.1164 30.7901 28.9557 30.6695C29.7355 30.5574 30.2506 29.8379 30.3004 29.0517C30.375 27.8758 29.4015 27.1007 28.2242 27.0542C27.8308 27.0386 27.4362 26.9635 27.0588 26.7797C25.9185 26.2243 24.9228 25.2312 24.2077 23.9361C23.4926 22.641 23.0929 21.1069 23.0631 19.5432C23.0334 17.9796 23.375 16.4626 24.0415 15.1993C24.7079 13.936 25.6666 12.9879 26.7868 12.4845C27.907 11.981 29.134 11.9468 30.3004 12.3864C31.4668 12.826 32.5158 13.7181 33.3041 14.9408C33.8235 15.7464 34.2131 16.6697 34.4537 17.6524C34.6623 18.5041 35.4137 19.1623 36.2879 19.0932Z" stroke="black"/>
<path d="M57.2879 19.0932C58.162 19.0241 58.8231 18.2568 58.6638 17.3945C58.3249 15.5607 57.6559 13.8321 56.7058 12.3584C55.4877 10.4691 53.8669 9.09071 52.0646 8.41143C50.2623 7.73215 48.3663 7.78505 46.6354 8.56293C44.9046 9.34081 43.4232 10.8058 42.3934 12.7578C41.3637 14.7099 40.8358 17.0539 40.8817 19.47C40.9277 21.8861 41.5453 24.2565 42.6503 26.2577C43.645 28.0592 45.0707 29.1807 46.6308 30.0126C46.9752 30.1963 47.3464 30.3238 47.7239 30.4231C47.7498 30.4299 47.7756 30.4367 47.801 30.4434C48.5562 30.6424 49.1164 30.7901 49.9557 30.6695C50.7355 30.5574 51.2506 29.8379 51.3004 29.0517C51.375 27.8758 50.4015 27.1007 49.2242 27.0542C48.8308 27.0386 48.4362 26.9635 48.0588 26.7797C46.9185 26.2243 45.9228 25.2312 45.2077 23.9361C44.4926 22.641 44.0929 21.1069 44.0631 19.5432C44.0334 17.9796 44.375 16.4626 45.0415 15.1993C45.7079 13.936 46.6666 12.9879 47.7868 12.4845C48.907 11.981 50.134 11.9468 51.3004 12.3864C52.4668 12.826 53.5158 13.7181 54.3041 14.9408C54.8235 15.7464 55.2131 16.6697 55.4537 17.6524C55.6623 18.5041 56.4138 19.1623 57.2879 19.0932Z" fill="black"/>
<path d="M57.2879 19.0932C58.162 19.0241 58.8231 18.2568 58.6638 17.3945C58.3249 15.5607 57.6559 13.8321 56.7058 12.3584C55.4877 10.4691 53.8669 9.09071 52.0646 8.41143C50.2623 7.73215 48.3663 7.78505 46.6354 8.56293C44.9046 9.34081 43.4232 10.8058 42.3934 12.7578C41.3637 14.7099 40.8358 17.0539 40.8817 19.47C40.9277 21.8861 41.5453 24.2565 42.6503 26.2577C43.645 28.0592 45.0707 29.1807 46.6308 30.0126C46.9752 30.1963 47.3464 30.3238 47.7239 30.4231C47.7498 30.4299 47.7756 30.4367 47.801 30.4434C48.5562 30.6424 49.1164 30.7901 49.9557 30.6695C50.7355 30.5574 51.2506 29.8379 51.3004 29.0517C51.375 27.8758 50.4015 27.1007 49.2242 27.0542C48.8308 27.0386 48.4362 26.9635 48.0588 26.7797C46.9185 26.2243 45.9228 25.2312 45.2077 23.9361C44.4926 22.641 44.0929 21.1069 44.0631 19.5432C44.0334 17.9796 44.375 16.4626 45.0415 15.1993C45.7079 13.936 46.6666 12.9879 47.7868 12.4845C48.907 11.981 50.134 11.9468 51.3004 12.3864C52.4668 12.826 53.5158 13.7181 54.3041 14.9408C54.8235 15.7464 55.2131 16.6697 55.4537 17.6524C55.6623 18.5041 56.4138 19.1623 57.2879 19.0932Z" stroke="black"/>
<path d="M78.2879 19.0932C79.162 19.0241 79.8231 18.2568 79.6638 17.3945C79.3249 15.5607 78.6559 13.8321 77.7058 12.3584C76.4877 10.4691 74.8669 9.09071 73.0646 8.41143C71.2623 7.73215 69.3663 7.78505 67.6354 8.56293C65.9046 9.34081 64.4232 10.8058 63.3934 12.7578C62.3637 14.7099 61.8358 17.0539 61.8817 19.47C61.9277 21.8861 62.5453 24.2565 63.6503 26.2577C64.645 28.0592 66.0707 29.1807 67.6308 30.0126C67.9752 30.1963 68.3464 30.3238 68.7239 30.4231C68.7498 30.4299 68.7756 30.4367 68.801 30.4434C69.5562 30.6424 70.1164 30.7901 70.9557 30.6695C71.7355 30.5574 72.2506 29.8379 72.3004 29.0517C72.375 27.8758 71.4015 27.1007 70.2242 27.0542C69.8308 27.0386 69.4362 26.9635 69.0588 26.7797C67.9185 26.2243 66.9228 25.2312 66.2077 23.9361C65.4926 22.641 65.0929 21.1069 65.0631 19.5432C65.0334 17.9796 65.375 16.4626 66.0415 15.1993C66.7079 13.936 67.6666 12.9879 68.7868 12.4845C69.907 11.981 71.134 11.9468 72.3004 12.3864C73.4668 12.826 74.5158 13.7181 75.3041 14.9408C75.8235 15.7464 76.2131 16.6697 76.4537 17.6524C76.6623 18.5041 77.4138 19.1623 78.2879 19.0932Z" fill="black"/>
<path d="M78.2879 19.0932C79.162 19.0241 79.8231 18.2568 79.6638 17.3945C79.3249 15.5607 78.6559 13.8321 77.7058 12.3584C76.4877 10.4691 74.8669 9.09071 73.0646 8.41143C71.2623 7.73215 69.3663 7.78505 67.6354 8.56293C65.9046 9.34081 64.4232 10.8058 63.3934 12.7578C62.3637 14.7099 61.8358 17.0539 61.8817 19.47C61.9277 21.8861 62.5453 24.2565 63.6503 26.2577C64.645 28.0592 66.0707 29.1807 67.6308 30.0126C67.9752 30.1963 68.3464 30.3238 68.7239 30.4231C68.7498 30.4299 68.7756 30.4367 68.801 30.4434C69.5562 30.6424 70.1164 30.7901 70.9557 30.6695C71.7355 30.5574 72.2506 29.8379 72.3004 29.0517C72.375 27.8758 71.4015 27.1007 70.2242 27.0542C69.8308 27.0386 69.4362 26.9635 69.0588 26.7797C67.9185 26.2243 66.9228 25.2312 66.2077 23.9361C65.4926 22.641 65.0929 21.1069 65.0631 19.5432C65.0334 17.9796 65.375 16.4626 66.0415 15.1993C66.7079 13.936 67.6666 12.9879 68.7868 12.4845C69.907 11.981 71.134 11.9468 72.3004 12.3864C73.4668 12.826 74.5158 13.7181 75.3041 14.9408C75.8235 15.7464 76.2131 16.6697 76.4537 17.6524C76.6623 18.5041 77.4138 19.1623 78.2879 19.0932Z" stroke="black"/>
</svg>


