<svg fill="none" xmlns="http://www.w3.org/2000/svg" viewBox="13 19 77.5 70">
<path fill-rule="evenodd" clip-rule="evenodd" d="M64 26H27C25.8954 26 25 26.8954 25 28V76C25 77.1046 25.8954 78 27 78H51.1521V84L27 84C22.5817 84 19 80.4183 19 76V28C19 23.5817 22.5817 20 27 20H64C68.4183 20 72 23.5817 72 28V50.6194H66V28C66 26.8954 65.1046 26 64 26ZM33.0578 30.9736C31.4012 30.9418 30.0325 32.2589 30.0006 33.9154C29.9686 35.572 31.2857 36.9407 32.9422 36.9724L58.9422 37.4715C60.5988 37.5033 61.9675 36.1862 61.9995 34.5296C62.0314 32.8731 60.7144 31.5044 59.0578 31.4726L33.0578 30.9736ZM30 45.9499C30 44.293 31.3431 42.9499 33 42.9499H59C60.6569 42.9499 62 44.293 62 45.9499C62 47.6067 60.6569 48.9499 59 48.9499H33C31.3431 48.9499 30 47.6067 30 45.9499ZM32.9906 54.6902C31.3338 54.693 29.993 56.0385 29.9959 57.6954C29.9987 59.3522 31.3442 60.693 33.0011 60.6902L48.0094 60.6642C49.6662 60.6614 51.007 59.3159 51.0042 57.6591C51.0013 56.0022 49.6558 54.6614 47.999 54.6642L32.9906 54.6902Z" fill="#0B2239"/>
<circle cx="65.5" cy="68.5" r="10" stroke="#0B2239" stroke-width="5"/>
<circle cx="69" cy="51" r="3" fill="#0B2239"/>
<circle cx="51" cy="81" r="3" fill="#0B2239"/>
<path d="M74 77L84 87" stroke="#0B2239" stroke-width="5" stroke-linecap="round"/>
</svg>