<svg width="59" height="72" viewBox="0 0 59 72" fill="none" xmlns="http://www.w3.org/2000/svg">
<path fill-rule="evenodd" clip-rule="evenodd" d="M11 6H42C44.7614 6 47 8.23858 47 11V39H53V11C53 4.92487 48.0751 0 42 0H11C4.92487 0 0 4.92487 0 11V58C0 64.0751 4.92487 69 11 69H36V63H11C8.23858 63 6 60.7614 6 58V11C6 8.23858 8.23858 6 11 6ZM11.0006 13.9423C11.0324 12.2858 12.4011 10.9687 14.0577 11.0006L40.0577 11.5006C41.7142 11.5324 43.0313 12.9011 42.9994 14.5577C42.9676 16.2142 41.5989 17.5313 39.9423 17.4994L13.9423 16.9994C12.2858 16.9676 10.9687 15.5989 11.0006 13.9423ZM14 23C12.3431 23 11 24.3431 11 26C11 27.6569 12.3431 29 14 29H40C41.6569 29 43 27.6569 43 26C43 24.3431 41.6569 23 40 23H14ZM10.9959 37.7682C10.993 36.1113 12.3338 34.7659 13.9907 34.763L28.999 34.737C30.6558 34.7341 32.0013 36.075 32.0041 37.7318C32.007 39.3887 30.6662 40.7341 29.0093 40.737L14.001 40.763C12.3442 40.7659 10.9987 39.425 10.9959 37.7682ZM51.3653 65.0237L40.5436 44.2497L40.6258 42.6987L41.4908 43.2024L51.9349 63.2517C52.0389 63.4512 52.1095 63.7986 51.9969 64.2286C51.8843 64.6585 51.6524 64.9266 51.4639 65.0496C51.4396 65.0655 51.4187 65.0774 51.4016 65.0862C51.391 65.0701 51.3787 65.0495 51.3653 65.0237ZM45.2656 38.4573L45.2194 38.4304L37.8517 34.14C36.6181 33.4216 35.0562 34.4162 34.9738 35.9725L34.4689 45.5022L34.4405 45.5207L46.044 67.7957C47.752 71.0745 51.6465 72.0948 54.7427 70.0745C57.8389 68.0542 58.9642 63.7585 57.2562 60.4797L48.438 43.5516L47.838 42.3997L45.6527 38.2047L45.2656 38.4573Z" fill="black"/>
</svg>
