<svg width="85" height="58" viewBox="0 0 85 58" fill="none" xmlns="http://www.w3.org/2000/svg">
<path fill-rule="evenodd" clip-rule="evenodd" d="M79 9.18599L58.7888 26.7888L79 47V9.18599ZM75.5147 52L54.2535 30.7388L46.1583 37.7892C44.6696 39.0857 42.4576 39.1023 40.9496 37.8281L32.2238 30.4552L11.3549 52H75.5147ZM6 48.9045L27.6302 26.5738L6 8.29724V48.9045ZM0 7C0 3.13401 3.13401 0 7 0H78C78.4047 0 78.8015 0.0343501 79.1874 0.100294C79.6741 0.146979 80.1217 0.275645 80.5237 0.468727C83.1426 1.48135 85 4.02376 85 7V51C85 54.866 81.866 58 78 58H7C3.13401 58 0 54.866 0 51V7ZM73.3834 6.12114L43.5115 32.1378L13.2536 6.57115L73.3834 6.12114Z" fill="black"/>
</svg>
