<svg width="62" height="67" viewBox="0 0 62 67" fill="none" xmlns="http://www.w3.org/2000/svg">
<path fill-rule="evenodd" clip-rule="evenodd" d="M35.9714 33.44C43.4703 31.5205 49 24.8876 49 17C49 7.61116 41.165 0 31.5 0C21.835 0 14 7.61116 14 17C14 24.7524 19.3418 31.2928 26.6448 33.3372C24.0716 33.7377 21.5487 34.4924 19.1368 35.5881C15.3757 37.2968 11.9583 39.8012 9.07968 42.9584C6.20106 46.1156 3.91762 49.8637 2.35973 53.9888C1.26832 56.8786 0.547982 59.9139 0.214448 63.0076C-0.0223435 65.204 1.79085 67 3.99999 67H31H58C60.2091 67 62.0223 65.204 61.7855 63.0076C61.452 59.9139 60.7317 56.8786 59.6403 53.9888C58.0824 49.8637 55.7989 46.1156 52.9203 42.9584C50.0417 39.8012 46.6243 37.2968 42.8632 35.5881C40.6441 34.58 38.3311 33.8605 35.9714 33.44Z" fill="white"/>
</svg>
