<svg width="92" height="67" viewBox="0 0 92 67" fill="none" xmlns="http://www.w3.org/2000/svg">
<path fill-rule="evenodd" clip-rule="evenodd" d="M81 5H11C7.68629 5 5 7.68629 5 11V56C5 59.3137 7.68629 62 11 62H81C84.3137 62 87 59.3137 87 56V11C87 7.68629 84.3137 5 81 5ZM11 0C4.92487 0 0 4.92487 0 11V56C0 62.0751 4.92487 67 11 67H81C87.0751 67 92 62.0751 92 56V11C92 4.92487 87.0751 0 81 0H11ZM74 21C76.2091 21 78 19.2091 78 17C78 14.7909 76.2091 13 74 13C71.7909 13 70 14.7909 70 17C70 19.2091 71.7909 21 74 21ZM74 25C78.4183 25 82 21.4183 82 17C82 12.5817 78.4183 9 74 9C69.5817 9 66 12.5817 66 17C66 21.4183 69.5817 25 74 25ZM79 53C79 55.2091 77.2091 57 75 57C72.7909 57 71 55.2091 71 53C71 50.7909 72.7909 49 75 49C77.2091 49 79 50.7909 79 53ZM83 53C83 57.4183 79.4183 61 75 61C70.5817 61 67 57.4183 67 53C67 48.5817 70.5817 45 75 45C79.4183 45 83 48.5817 83 53ZM22.7214 14.1769C23.3713 13.2838 23.1742 12.0329 22.2811 11.383C21.3879 10.7331 20.1371 10.9302 19.4871 11.8233L16.1914 16.3522L12.4743 12.2972C11.7279 11.483 10.4628 11.428 9.64856 12.1744C8.83432 12.9208 8.77932 14.1859 9.5257 15.0001L13.79 19.6521L9.9086 24.9858C9.25867 25.879 9.45581 27.1299 10.3489 27.7798C11.242 28.4297 12.4929 28.2326 13.1429 27.3395L16.5478 22.6606L20.5257 27.0001C21.2721 27.8144 22.5372 27.8694 23.3515 27.123C24.1657 26.3766 24.2207 25.1115 23.4743 24.2972L18.9491 19.3607L22.7214 14.1769ZM24.2811 36.383C25.1742 37.0329 25.3713 38.2838 24.7214 39.1769L20.9491 44.3607L25.4743 49.2972C26.2207 50.1115 26.1657 51.3766 25.3515 52.123C24.5372 52.8694 23.2721 52.8144 22.5257 52.0001L18.5478 47.6606L15.1429 52.3395C14.4929 53.2326 13.242 53.4297 12.3489 52.7798C11.4558 52.1299 11.2587 50.879 11.9086 49.9858L15.79 44.6521L11.5257 40.0001C10.7793 39.1859 10.8343 37.9208 11.6486 37.1744C12.4628 36.428 13.7279 36.483 14.4743 37.2972L18.1914 41.3522L21.4871 36.8233C22.1371 35.9302 23.3879 35.7331 24.2811 36.383ZM27.3877 44.2032C26.7232 43.865 26.4587 43.0522 26.7968 42.3877C30.0263 36.0419 35.0856 30.5302 41.4417 26.3894C36.2793 23.5741 30.6445 21.8513 24.8818 21.3448C24.1391 21.2795 23.5899 20.6245 23.6552 19.8818C23.7205 19.1391 24.3755 18.5899 25.1182 18.6552C31.7701 19.2398 38.2473 21.3435 44.0884 24.7871C49.1753 21.9307 54.8365 19.9824 60.7338 19.0523L53.7741 13.3011C53.1993 12.8262 53.1184 11.9753 53.5933 11.4005C54.0683 10.8258 54.9192 10.7449 55.4939 11.2198L64.8599 18.9593C65.4347 19.4343 65.5156 20.2852 65.0407 20.8599L57.3011 30.226C56.8262 30.8007 55.9753 30.8816 55.4005 30.4067C54.8258 29.9317 54.7449 29.0808 55.2198 28.5061L60.7776 21.7803C55.8192 22.6022 51.0514 24.1837 46.6994 26.4449C46.9977 26.6484 47.2941 26.8556 47.5884 27.0664C53.4393 31.2576 58.2974 36.7588 61.7909 43.1158L64.8655 34.6206C65.1192 33.9195 65.8933 33.5568 66.5944 33.8106C67.2954 34.0643 67.6581 34.8384 67.4043 35.5394L63.2694 46.9642C63.0157 47.6653 62.2416 48.0279 61.5406 47.7742L50.1158 43.6392C49.4147 43.3855 49.0521 42.6115 49.3058 41.9104C49.5596 41.2093 50.3336 40.8467 51.0347 41.1004L59.2306 44.0667C55.9443 38.2067 51.427 33.1374 46.0161 29.2614C45.3723 28.8002 44.7183 28.3577 44.0549 27.934C43.7823 28.1 43.5116 28.2688 43.243 28.4405C37.0978 32.3666 32.2567 37.6121 29.2032 43.6123C28.865 44.2768 28.0522 44.5413 27.3877 44.2032Z" fill="#1B263B"/>
</svg>
