<svg width="100" height="100" viewBox="0 0 100 100" fill="none" xmlns="http://www.w3.org/2000/svg">
<rect width="100" height="100" fill="white"/>
<path d="M56.5455 45.8516C56.3217 45.0739 56.0075 44.3867 55.6026 43.7901C55.1978 43.1829 54.7024 42.6715 54.1165 42.256C53.5412 41.8299 52.8807 41.505 52.1349 41.2812C51.3999 41.0575 50.5849 40.9457 49.69 40.9457C48.0174 40.9457 46.5472 41.3612 45.2795 42.1921C44.0224 43.0231 43.0423 44.2322 42.3391 45.8196C41.636 47.3963 41.2844 49.3246 41.2844 51.6044C41.2844 53.8842 41.6307 55.8232 42.3232 57.4212C43.0156 59.0192 43.9957 60.239 45.2635 61.0806C46.5312 61.9116 48.0281 62.3271 49.7539 62.3271C51.32 62.3271 52.657 62.0501 53.7649 61.4961C54.8835 60.9315 55.7358 60.1378 56.3217 59.1151C56.9183 58.0923 57.2166 56.8832 57.2166 55.4876L58.6229 55.6953H50.1854V50.4858H63.8803V54.6087C63.8803 57.4851 63.2731 59.9567 62.0586 62.0234C60.8441 64.0795 59.1715 65.6669 57.0408 66.7855C54.9102 67.8935 52.4705 68.4474 49.7219 68.4474C46.6538 68.4474 43.9585 67.771 41.636 66.418C39.3136 65.0543 37.5025 63.1207 36.2028 60.6172C34.9137 58.103 34.2692 55.12 34.2692 51.6683C34.2692 49.0156 34.6527 46.6506 35.4197 44.5732C36.1974 42.4851 37.2841 40.7166 38.6797 39.2678C40.0753 37.8189 41.6999 36.7163 43.5536 35.9599C45.4073 35.2035 47.4155 34.8253 49.5781 34.8253C51.4318 34.8253 53.1577 35.0969 54.7557 35.6403C56.3537 36.1729 57.7706 36.9293 59.0064 37.9094C60.2528 38.8896 61.2702 40.0561 62.0586 41.4091C62.8469 42.7514 63.353 44.2322 63.5767 45.8516H56.5455Z" fill="#1B263B"/>
<path fill-rule="evenodd" clip-rule="evenodd" d="M72 24H28C24.6863 24 22 26.6863 22 30V74C22 77.3137 24.6863 80 28 80H72C75.3137 80 78 77.3137 78 74V30C78 26.6863 75.3137 24 72 24ZM28 19C21.9249 19 17 23.9249 17 30V74C17 80.0751 21.9249 85 28 85H72C78.0751 85 83 80.0751 83 74V30C83 23.9249 78.0751 19 72 19H28Z" fill="#1B263B"/>
</svg>
