<svg width="100" height="100" viewBox="0 0 100 100" fill="none" xmlns="http://www.w3.org/2000/svg">
<rect width="100" height="100" fill="white"/>
<path d="M59.7273 42.4688C59.429 41.4318 59.0099 40.5156 58.4702 39.7202C57.9304 38.9105 57.2699 38.2287 56.4886 37.6747C55.7216 37.1065 54.8409 36.6733 53.8466 36.375C52.8665 36.0767 51.7798 35.9276 50.5866 35.9276C48.3565 35.9276 46.3963 36.4815 44.706 37.5895C43.0298 38.6974 41.723 40.3097 40.7855 42.4261C39.848 44.5284 39.3793 47.0994 39.3793 50.1392C39.3793 53.179 39.8409 55.7642 40.7642 57.8949C41.6875 60.0256 42.9943 61.652 44.6847 62.7741C46.375 63.8821 48.3707 64.4361 50.6719 64.4361C52.7599 64.4361 54.5426 64.0668 56.0199 63.3281C57.5114 62.5753 58.6477 61.517 59.429 60.1534C60.2244 58.7898 60.6222 57.1776 60.6222 55.3168L62.4972 55.5938H51.2472V48.6477H69.5071V54.1449C69.5071 57.9801 68.6974 61.2756 67.0781 64.0312C65.4588 66.7727 63.2287 68.8892 60.3878 70.3807C57.5469 71.858 54.294 72.5966 50.6293 72.5966C46.5384 72.5966 42.9446 71.6946 39.848 69.8906C36.7514 68.0724 34.3366 65.4943 32.6037 62.1562C30.8849 58.804 30.0256 54.8267 30.0256 50.2244C30.0256 46.6875 30.5369 43.5341 31.5597 40.7642C32.5966 37.9801 34.0455 35.6222 35.9062 33.6903C37.767 31.7585 39.9332 30.2884 42.4048 29.2798C44.8764 28.2713 47.554 27.767 50.4375 27.767C52.9091 27.767 55.2102 28.1293 57.3409 28.8537C59.4716 29.5639 61.3608 30.5724 63.0085 31.8793C64.6705 33.1861 66.027 34.7415 67.0781 36.5455C68.1293 38.3352 68.804 40.3097 69.1023 42.4688H59.7273Z" fill="#1B263B"/>
</svg>
