<svg width="51" height="66" viewBox="0 0 51 66" fill="none" xmlns="http://www.w3.org/2000/svg">
<path fill-rule="evenodd" clip-rule="evenodd" d="M40.6437 37.1584L40.3115 37.4995L25.936 59.3292L11.0009 37.7985L10.6651 37.4686C7.12129 33.9865 5 29.3152 5 24.212C5 13.8425 13.9308 5 25.5 5C37.0692 5 46 13.8425 46 24.212C46 29.1667 44.0011 33.7115 40.6437 37.1584ZM0 24.212C0 30.748 2.72754 36.6791 7.16082 41.0351L23.5147 64.6112C24.7252 66.3561 27.3166 66.3238 28.4852 64.5492L44.2255 40.6471C48.4304 36.33 51 30.556 51 24.212C51 10.8401 39.5833 0 25.5 0C11.4167 0 0 10.8401 0 24.212ZM31 25.5C31 28.3467 28.5095 31 25 31C21.4905 31 19 28.3467 19 25.5C19 22.6533 21.4905 20 25 20C28.5095 20 31 22.6533 31 25.5ZM35 25.5C35 30.7467 30.5228 35 25 35C19.4772 35 15 30.7467 15 25.5C15 20.2533 19.4772 16 25 16C30.5228 16 35 20.2533 35 25.5Z" fill="#ccc"/>
</svg>
