<svg width="89" height="66" viewBox="0 0 89 66" fill="none" xmlns="http://www.w3.org/2000/svg">
<g clip-path="url(#clip0_673_8)">
<rect width="89" height="66" fill="white"/>
<path fill-rule="evenodd" clip-rule="evenodd" d="M15.6589 61.126C14.6238 62.4198 14.8336 64.3077 16.1274 65.3427C17.4212 66.3777 19.309 66.168 20.3441 64.8742L68.3441 4.8742C69.3791 3.58041 69.1693 1.69253 67.8755 0.657504C66.5818 -0.377525 64.6939 -0.16776 63.6589 1.12602L57.6586 8.62641C42.385 3.9317 25.0875 7.53904 12.8807 19.5161L4.28277 27.952L0 32.1541L4.20212 36.4369L12.4855 44.8793C15.5248 47.9769 18.9021 50.5419 22.5011 52.5732L15.6589 61.126ZM26.3072 47.8156L30.6197 42.4249C28.9619 39.852 28 36.7883 28 33.5C28 24.3873 35.3873 17 44.5 17C46.4892 17 48.3961 17.352 50.162 17.9971L53.5777 13.7275C40.9343 10.6782 27.0503 14.019 17.0828 23.7988L8.4849 32.2348L16.7683 40.6772C19.6427 43.6068 22.866 45.9867 26.3072 47.8156ZM46.0668 23.1161C45.5556 23.0396 45.0324 23 44.5 23C38.701 23 34 27.701 34 33.5C34 34.8436 34.2524 36.1283 34.7123 37.3092L46.0668 23.1161ZM76.1223 45.4842C64.3761 57.0091 47.9164 60.7843 33.0821 56.8699L37.2666 51.6701C49.4015 53.9841 62.4343 50.5086 71.9202 41.2014L80.518 32.7654L72.2346 24.323C69.81 21.8518 67.1371 19.7718 64.2946 18.0836L68.09 13.3672C71.0963 15.2318 73.9294 17.4833 76.5174 20.1209L84.8008 28.5633L89.0029 32.8461L84.7202 37.0482L76.1223 45.4842ZM44.5 50C42.6783 50 40.9255 49.7048 39.2869 49.1595L43.4784 43.9509C43.8146 43.9834 44.1553 44 44.5 44C50.299 44 55 39.299 55 33.5C55 32.3711 54.8218 31.2838 54.4921 30.2647L58.6808 25.0596C60.1537 27.5291 61 30.4157 61 33.5C61 42.6127 53.6127 50 44.5 50Z" fill="black"/>
</g>
<defs>
<clipPath id="clip0_673_8">
<rect width="89" height="66" fill="white"/>
</clipPath>
</defs>
</svg>
