<svg width="91" height="66" viewBox="0 0 91 66" fill="none" xmlns="http://www.w3.org/2000/svg">
<path fill-rule="evenodd" clip-rule="evenodd" d="M16.6574 61.1259C15.6224 62.4197 15.8321 64.3076 17.1259 65.3426C18.4197 66.3776 20.3076 66.1679 21.3426 64.8741L69.3426 4.87409C70.3776 3.5803 70.1679 1.69242 68.8741 0.657396C67.5803 -0.377633 65.6924 -0.167868 64.6574 1.12592L58.6571 8.6263C43.3836 3.93159 26.0861 7.53894 13.8792 19.5159L5.28131 27.9519L0.998535 32.154L5.20066 36.4368L13.4841 44.8792C16.5234 47.9768 19.9006 50.5418 23.4997 52.5731L16.6574 61.1259ZM27.3057 47.8155L32.2089 41.6865C30.192 39.1157 29 35.9386 29 32.5C29 23.9396 36.3873 17 45.5 17C47.503 17 49.4226 17.3353 51.1987 17.9493L54.5762 13.7274C41.9329 10.6781 28.0489 14.0189 18.0813 23.7987L9.48343 32.2347L17.7668 40.6771C20.6413 43.6067 23.8646 45.9866 27.3057 47.8155ZM47.0756 23.1031C46.5655 23.0353 46.0397 23 45.5 23C39.3421 23 35 27.6012 35 32.5C35 33.9931 35.4034 35.4585 36.1385 36.7745L47.0756 23.1031ZM77.1208 45.4841C65.3747 57.009 48.915 60.7842 34.0807 56.8698L38.2651 51.67C50.4001 53.9839 63.4329 50.5085 72.9187 41.2013L81.5166 32.7653L73.2332 24.3229C70.8085 21.8517 68.1356 19.7717 65.2931 18.0835L69.0885 13.3671C72.0949 15.2317 74.9279 17.4831 77.5159 20.1208L85.7993 28.5632L90.0015 32.846L85.7187 37.0481L77.1208 45.4841ZM45.5 48C44.147 48 42.8321 47.847 41.5738 47.5585L46.057 41.9873C51.9181 41.7197 56 37.2498 56 32.5C56 31.6762 55.8772 30.8609 55.6437 30.0744L59.8512 24.8459C61.2188 27.104 62 29.7163 62 32.5C62 41.0604 54.6127 48 45.5 48Z" fill="black"/>
</svg>
