<svg width="74" height="52" viewBox="0 0 74 52" fill="none" xmlns="http://www.w3.org/2000/svg">
<path d="M1.52513 23.5251C0.158292 24.892 0.158292 27.108 1.52513 28.4749L23.799 50.7487C25.1658 52.1156 27.3819 52.1156 28.7487 50.7487C30.1156 49.3819 30.1156 47.1658 28.7487 45.799L8.94975 26L28.7487 6.20101C30.1156 4.83418 30.1156 2.6181 28.7487 1.25126C27.3819 -0.11557 25.1658 -0.11557 23.799 1.25126L1.52513 23.5251ZM70 29.5C71.933 29.5 73.5 27.933 73.5 26C73.5 24.067 71.933 22.5 70 22.5L70 29.5ZM4 29.5L70 29.5L70 22.5L4 22.5L4 29.5Z" fill="black"/>
</svg>
