<svg width="51" height="73" viewBox="0 0 51 73" fill="none" xmlns="http://www.w3.org/2000/svg">
<path fill-rule="evenodd" clip-rule="evenodd" d="M40.3115 37.4995L40.6437 37.1584C44.0011 33.7115 46 29.1667 46 24.2121C46 13.8425 37.0692 5 25.5 5C13.9308 5 5 13.8425 5 24.2121C5 29.3152 7.1213 33.9865 10.6651 37.4686L11.0009 37.7985L25.936 59.3292L40.3115 37.4995ZM7.16082 41.0351C2.72754 36.6791 0 30.748 0 24.2121C0 10.8401 11.4167 0 25.5 0C39.5833 0 51 10.8401 51 24.2121C51 30.556 48.4304 36.33 44.2255 40.6471L28.4852 64.5492C27.3166 66.3238 24.7252 66.3561 23.5147 64.6112L7.16082 41.0351ZM25 31C28.5095 31 31 28.3467 31 25.5C31 22.6533 28.5095 20 25 20C21.4905 20 19 22.6533 19 25.5C19 28.3467 21.4905 31 25 31ZM25 35C30.5228 35 35 30.7467 35 25.5C35 20.2533 30.5228 16 25 16C19.4772 16 15 20.2533 15 25.5C15 30.7467 19.4772 35 25 35ZM26 73C33.1797 73 39 72.3284 39 71.5C39 70.6716 33.1797 70 26 70C18.8203 70 13 70.6716 13 71.5C13 72.3284 18.8203 73 26 73Z" fill="black"/>
</svg>
