<svg width="62" height="75" viewBox="0 0 62 75" fill="none" xmlns="http://www.w3.org/2000/svg">
<path fill-rule="evenodd" clip-rule="evenodd" d="M40 31V15.5C40 10.2533 35.7467 6 30.5 6C25.2533 6 21 10.2533 21 15.5V31H40ZM15 15.5V31H7C3.13401 31 0 34.134 0 38V68C0 71.866 3.13401 75 7 75H55C58.866 75 62 71.866 62 68V38C62 34.134 58.866 31 55 31H46V15.5C46 6.93959 39.0604 0 30.5 0C21.9396 0 15 6.93959 15 15.5ZM40 37H46H55C55.5523 37 56 37.4477 56 38V68C56 68.5523 55.5523 69 55 69H7C6.44772 69 6 68.5523 6 68V38C6 37.4477 6.44772 37 7 37H15H21H40ZM37 49.0625C37 51.1384 35.5191 52.9226 33.4 53.7038V59.6C33.4 60.9255 32.3255 62 31 62C29.6745 62 28.6 60.9255 28.6 59.6V53.7038C26.4809 52.9226 25 51.1385 25 49.0625C25 46.2666 27.6863 44 31 44C34.3137 44 37 46.2666 37 49.0625Z" fill="black"/>
</svg>
