<svg width="136" height="68" viewBox="0 0 136 68" fill="none" xmlns="http://www.w3.org/2000/svg">
<g clip-path="url(#clip0_792_38)">
<path d="M132.687 30.1669C134.093 28.8408 134.158 26.6257 132.832 25.2193L111.222 2.30071C109.896 0.894312 107.681 0.829213 106.275 2.15531C104.868 3.4814 104.803 5.69652 106.129 7.10292L125.338 27.475L104.966 46.6838C103.56 48.0099 103.494 50.225 104.821 51.6314C106.147 53.0378 108.362 53.1029 109.768 51.7768L132.687 30.1669ZM58.4449 35.5317L59.3595 38.91L59.3595 38.91L58.4449 35.5317ZM3.69308 58.6379C2.2394 59.912 2.09379 62.1232 3.36786 63.5769C4.64194 65.0306 6.85323 65.1762 8.30692 63.9022L3.69308 58.6379ZM130.388 24.1219C104.914 23.3732 79.7577 26.1353 57.5302 32.1533L59.3595 38.91C80.8547 33.0903 105.319 30.3881 130.183 31.1189L130.388 24.1219ZM57.5302 32.1533C35.3321 38.1633 16.6851 47.2512 3.69308 58.6379L8.30692 63.9022C20.2587 53.4271 37.8348 44.7377 59.3595 38.91L57.5302 32.1533Z" fill="white"/>
<path d="M27.875 64C26.8333 64 26.3125 63.4271 26.3125 62.2812V20.9062C26.3125 19.7604 26.8333 19.1875 27.875 19.1875H41C48.0833 19.1875 52.8646 20.3854 55.3438 22.7812C57.8229 25.1562 59.0625 28.4271 59.0625 32.5938C59.0625 36.7604 57.8229 40.0417 55.3438 42.4375C52.8646 44.8125 48.0833 46 41 46H32.3125V62.2812C32.3125 63.4271 31.7917 64 30.75 64H27.875ZM32.3125 40.875H41.0938C45.6771 40.875 48.8021 40.2292 50.4688 38.9375C52.1354 37.625 52.9688 35.5104 52.9688 32.5938C52.9688 29.6771 52.1354 27.5729 50.4688 26.2812C48.8021 24.9688 45.6771 24.3125 41.0938 24.3125H32.3125V40.875Z" fill="#7A95B5"/>
<path d="M55.3438 22.7812L54.6488 23.5003L54.652 23.5034L55.3438 22.7812ZM55.3438 42.4375L56.0355 43.1596L56.0387 43.1566L55.3438 42.4375ZM32.3125 46V45H31.3125V46H32.3125ZM32.3125 40.875H31.3125V41.875H32.3125V40.875ZM50.4688 38.9375L51.0813 39.7279L51.0874 39.7231L50.4688 38.9375ZM50.4688 26.2812L49.85 27.0669L49.8562 27.0717L50.4688 26.2812ZM32.3125 24.3125V23.3125H31.3125V24.3125H32.3125ZM27.875 63C27.5342 63 27.4549 62.9107 27.4431 62.8976C27.4148 62.8665 27.3125 62.7224 27.3125 62.2812H25.3125C25.3125 62.986 25.4706 63.7012 25.9632 64.243C26.4722 64.8029 27.1742 65 27.875 65V63ZM27.3125 62.2812V20.9062H25.3125V62.2812H27.3125ZM27.3125 20.9062C27.3125 20.4651 27.4148 20.321 27.4431 20.2899C27.4549 20.2768 27.5342 20.1875 27.875 20.1875V18.1875C27.1742 18.1875 26.4722 18.3846 25.9632 18.9445C25.4706 19.4863 25.3125 20.2015 25.3125 20.9062H27.3125ZM27.875 20.1875H41V18.1875H27.875V20.1875ZM41 20.1875C48.057 20.1875 52.4745 21.3991 54.6488 23.5003L56.0387 22.0622C53.2547 19.3717 48.1097 18.1875 41 18.1875V20.1875ZM54.652 23.5034C56.8932 25.6505 58.0625 28.6372 58.0625 32.5938H60.0625C60.0625 28.217 58.7526 24.662 56.0355 22.0591L54.652 23.5034ZM58.0625 32.5938C58.0625 36.55 56.8933 39.5494 54.6488 41.7184L56.0387 43.1566C58.7525 40.5339 60.0625 36.9708 60.0625 32.5938H58.0625ZM54.652 41.7154C53.5815 42.7409 51.948 43.57 49.6574 44.1389C47.3717 44.7066 44.4926 45 41 45V47C44.5908 47 47.6439 46.6997 50.1395 46.0799C52.6301 45.4613 54.6268 44.5091 56.0355 43.1596L54.652 41.7154ZM41 45H32.3125V47H41V45ZM31.3125 46V62.2812H33.3125V46H31.3125ZM31.3125 62.2812C31.3125 62.7224 31.2102 62.8665 31.1819 62.8976C31.1701 62.9107 31.0908 63 30.75 63V65C31.4508 65 32.1528 64.8029 32.6618 64.243C33.1544 63.7012 33.3125 62.986 33.3125 62.2812H31.3125ZM30.75 63H27.875V65H30.75V63ZM32.3125 41.875H41.0938V39.875H32.3125V41.875ZM41.0938 41.875C43.4267 41.875 45.4264 41.7111 47.0774 41.3699C48.7194 41.0306 50.0815 40.5028 51.0813 39.7279L49.8562 38.1471C49.1893 38.6639 48.1556 39.1048 46.6726 39.4113C45.1986 39.716 43.3442 39.875 41.0938 39.875V41.875ZM51.0874 39.7231C53.0768 38.1565 53.9688 35.6948 53.9688 32.5938H51.9688C51.9688 35.3261 51.194 37.0935 49.8501 38.1519L51.0874 39.7231ZM53.9688 32.5938C53.9688 29.4939 53.0772 27.0376 51.0813 25.4908L49.8562 27.0717C51.1936 28.1082 51.9688 29.8602 51.9688 32.5938H53.9688ZM51.0874 25.4956C50.0874 24.7081 48.7242 24.1712 47.0805 23.826C45.4283 23.4791 43.4274 23.3125 41.0938 23.3125V25.3125C43.3435 25.3125 45.1967 25.4741 46.6695 25.7833C48.1508 26.0944 49.1834 26.5419 49.8501 27.0669L51.0874 25.4956ZM41.0938 23.3125H32.3125V25.3125H41.0938V23.3125ZM31.3125 24.3125V40.875H33.3125V24.3125H31.3125Z" fill="#7A95B5"/>
<mask id="path-4-outside-1_792_38" maskUnits="userSpaceOnUse" x="64.3125" y="18.1875" width="36" height="47" fill="black">
<rect fill="white" x="64.3125" y="18.1875" width="36" height="47"/>
<path fill-rule="evenodd" clip-rule="evenodd" d="M65.3125 62.2812C65.3125 63.4271 65.8333 64 66.875 64H80.625C87.6458 64 92.4583 62.8125 95.0625 60.4375C97.6875 58.0625 99 55.1042 99 51.5625C99 48.2917 97.6979 45.7083 95.0938 43.8125C92.5104 41.8958 90.1667 40.8438 88.0625 40.6562V40.5625C89.9792 40.25 91.9583 39.2083 94 37.4375C94.9152 36.6343 95.6253 35.7537 96.1303 34.7956C93.6634 35.0436 91.2141 35.3269 88.7852 35.645C88.448 35.9537 88.0716 36.2491 87.6562 36.5312C85.4688 38.0104 82.6354 38.75 79.1562 38.75H71.3125V24.3125H79.1562C80.3386 24.3125 81.4232 24.3499 82.41 24.4248C86.1435 23.862 89.9235 23.3795 93.7404 22.9781C93.6218 22.8592 93.5 22.7415 93.375 22.625C90.9167 20.3333 86.1458 19.1875 79.0625 19.1875H66.875C65.8333 19.1875 65.3125 19.7604 65.3125 20.9062V62.2812ZM79.625 58.875H71.3125V43.25H79.625C84.0417 43.25 87.3021 43.9583 89.4062 45.375C91.5312 46.7917 92.5938 48.7917 92.5938 51.375C92.5938 54.1667 91.5521 56.1146 89.4688 57.2188C87.3854 58.3229 84.1042 58.875 79.625 58.875Z"/>
</mask>
<path fill-rule="evenodd" clip-rule="evenodd" d="M65.3125 62.2812C65.3125 63.4271 65.8333 64 66.875 64H80.625C87.6458 64 92.4583 62.8125 95.0625 60.4375C97.6875 58.0625 99 55.1042 99 51.5625C99 48.2917 97.6979 45.7083 95.0938 43.8125C92.5104 41.8958 90.1667 40.8438 88.0625 40.6562V40.5625C89.9792 40.25 91.9583 39.2083 94 37.4375C94.9152 36.6343 95.6253 35.7537 96.1303 34.7956C93.6634 35.0436 91.2141 35.3269 88.7852 35.645C88.448 35.9537 88.0716 36.2491 87.6562 36.5312C85.4688 38.0104 82.6354 38.75 79.1562 38.75H71.3125V24.3125H79.1562C80.3386 24.3125 81.4232 24.3499 82.41 24.4248C86.1435 23.862 89.9235 23.3795 93.7404 22.9781C93.6218 22.8592 93.5 22.7415 93.375 22.625C90.9167 20.3333 86.1458 19.1875 79.0625 19.1875H66.875C65.8333 19.1875 65.3125 19.7604 65.3125 20.9062V62.2812ZM79.625 58.875H71.3125V43.25H79.625C84.0417 43.25 87.3021 43.9583 89.4062 45.375C91.5312 46.7917 92.5938 48.7917 92.5938 51.375C92.5938 54.1667 91.5521 56.1146 89.4688 57.2188C87.3854 58.3229 84.1042 58.875 79.625 58.875Z" fill="#7A95B5"/>
<path d="M95.0625 60.4375L94.3916 59.696L94.3887 59.6986L95.0625 60.4375ZM95.0938 43.8125L94.4979 44.6156L94.5052 44.621L95.0938 43.8125ZM88.0625 40.6562H87.0625V41.5711L87.9737 41.6523L88.0625 40.6562ZM88.0625 40.5625L87.9016 39.5755L87.0625 39.7123V40.5625H88.0625ZM94 37.4375L94.6552 38.1929L94.6596 38.1891L94 37.4375ZM96.1303 34.7956L97.015 35.2619L97.8833 33.6143L96.0303 33.8006L96.1303 34.7956ZM88.7852 35.645L88.6554 34.6535L88.3427 34.6944L88.11 34.9073L88.7852 35.645ZM87.6562 36.5312L88.2164 37.3596L88.2181 37.3585L87.6562 36.5312ZM71.3125 38.75H70.3125V39.75H71.3125V38.75ZM71.3125 24.3125V23.3125H70.3125V24.3125H71.3125ZM82.41 24.4248L82.3344 25.4219L82.4472 25.4305L82.5591 25.4136L82.41 24.4248ZM93.7404 22.9781L93.845 23.9727L95.9265 23.7538L94.4484 22.2719L93.7404 22.9781ZM93.375 22.625L94.0569 21.8935L94.0569 21.8935L93.375 22.625ZM71.3125 58.875H70.3125V59.875H71.3125V58.875ZM71.3125 43.25V42.25H70.3125V43.25H71.3125ZM89.4062 45.375L88.8478 46.2045L88.8515 46.2071L89.4062 45.375ZM66.875 63C66.5342 63 66.4549 62.9107 66.4431 62.8976C66.4148 62.8665 66.3125 62.7224 66.3125 62.2812H64.3125C64.3125 62.986 64.4706 63.7012 64.9632 64.243C65.4722 64.8029 66.1742 65 66.875 65V63ZM80.625 63H66.875V65H80.625V63ZM94.3887 59.6986C92.0811 61.8031 87.6088 63 80.625 63V65C87.6828 65 92.8356 63.8219 95.7363 61.1764L94.3887 59.6986ZM98 51.5625C98 54.8218 96.8069 57.5107 94.3916 59.696L95.7334 61.179C98.5681 58.6143 100 55.3866 100 51.5625H98ZM94.5052 44.621C96.8462 46.3252 98 48.6056 98 51.5625H100C100 47.9777 98.5497 45.0915 95.6823 43.004L94.5052 44.621ZM87.9737 41.6523C89.8222 41.817 91.991 42.7556 94.4979 44.6156L95.6896 43.0094C93.0298 41.036 90.5111 39.8705 88.1513 39.6602L87.9737 41.6523ZM87.0625 40.5625V40.6562H89.0625V40.5625H87.0625ZM93.3448 36.6821C91.3907 38.377 89.5769 39.3024 87.9016 39.5755L88.2234 41.5495C90.3814 41.1976 92.526 40.0397 94.6552 38.1929L93.3448 36.6821ZM95.2457 34.3294C94.8043 35.1668 94.1752 35.9533 93.3404 36.6859L94.6596 38.1891C95.6553 37.3153 96.4464 36.3406 97.015 35.2619L95.2457 34.3294ZM88.9151 36.6365C91.3339 36.3197 93.7733 36.0376 96.2303 35.7906L96.0303 33.8006C93.5535 34.0496 91.0942 34.334 88.6554 34.6535L88.9151 36.6365ZM88.2181 37.3585C88.6696 37.0518 89.0843 36.7269 89.4604 36.3826L88.11 34.9073C87.8116 35.1805 87.4737 35.4464 87.0944 35.704L88.2181 37.3585ZM79.1562 39.75C82.7726 39.75 85.8184 38.9812 88.2164 37.3596L87.0961 35.7029C85.1191 37.0397 82.4982 37.75 79.1562 37.75V39.75ZM71.3125 39.75H79.1562V37.75H71.3125V39.75ZM70.3125 24.3125V38.75H72.3125V24.3125H70.3125ZM79.1562 23.3125H71.3125V25.3125H79.1562V23.3125ZM82.4856 23.4277C81.4694 23.3506 80.3591 23.3125 79.1562 23.3125V25.3125C80.318 25.3125 81.377 25.3493 82.3344 25.4219L82.4856 23.4277ZM93.6358 21.9836C89.8044 22.3865 86.0095 22.8709 82.261 23.436L82.5591 25.4136C86.2775 24.8531 90.0427 24.3725 93.845 23.9727L93.6358 21.9836ZM92.6931 23.3565C92.8094 23.4649 92.9225 23.5742 93.0324 23.6844L94.4484 22.2719C94.3211 22.1443 94.1906 22.0182 94.0569 21.8935L92.6931 23.3565ZM79.0625 20.1875C82.557 20.1875 85.4362 20.4708 87.7196 21.0192C90.0093 21.5692 91.6351 22.3701 92.6931 23.3565L94.0569 21.8935C92.6566 20.5882 90.6678 19.6704 88.1867 19.0745C85.6992 18.4771 82.6514 18.1875 79.0625 18.1875V20.1875ZM66.875 20.1875H79.0625V18.1875H66.875V20.1875ZM66.3125 20.9062C66.3125 20.4651 66.4148 20.321 66.4431 20.2899C66.4549 20.2768 66.5342 20.1875 66.875 20.1875V18.1875C66.1742 18.1875 65.4722 18.3846 64.9632 18.9445C64.4706 19.4863 64.3125 20.2015 64.3125 20.9062H66.3125ZM66.3125 62.2812V20.9062H64.3125V62.2812H66.3125ZM71.3125 59.875H79.625V57.875H71.3125V59.875ZM70.3125 43.25V58.875H72.3125V43.25H70.3125ZM79.625 42.25H71.3125V44.25H79.625V42.25ZM89.9647 44.5455C87.6132 42.9623 84.1105 42.25 79.625 42.25V44.25C83.9728 44.25 86.9909 44.9544 88.8478 46.2045L89.9647 44.5455ZM93.5938 51.375C93.5938 48.462 92.368 46.1476 89.961 44.5429L88.8515 46.2071C90.6945 47.4357 91.5938 49.1214 91.5938 51.375H93.5938ZM89.937 58.1023C92.4142 56.7894 93.5938 54.4548 93.5938 51.375H91.5938C91.5938 53.8785 90.69 55.4397 89.0005 56.3352L89.937 58.1023ZM79.625 59.875C84.1454 59.875 87.6306 59.3248 89.937 58.1023L89.0005 56.3352C87.1403 57.3211 84.0629 57.875 79.625 57.875V59.875Z" fill="#7A95B5" mask="url(#path-4-outside-1_792_38)"/>
</g>
<defs>
<clipPath id="clip0_792_38">
<rect width="136" height="68" fill="white"/>
</clipPath>
</defs>
</svg>
