<svg width="137" height="72" viewBox="0 0 137 72" fill="none" xmlns="http://www.w3.org/2000/svg">
<g clip-path="url(#clip0_801_38)">
<g filter="url(#filter0_d_801_38)">
<path fill-rule="evenodd" clip-rule="evenodd" d="M82 30.1723V37.2621C95.0081 35.1399 108.692 34.0347 122.597 34.0025L105.966 49.6838C104.56 51.0099 104.494 53.225 105.821 54.6314C107.147 56.0378 109.362 56.1029 110.768 54.7768L133.687 33.1669C135.093 31.8408 135.158 29.6256 133.832 28.2193L112.222 5.30069C110.896 3.89429 108.681 3.82919 107.275 5.15529C105.868 6.48138 105.803 8.6965 107.129 10.1029L123.063 27.0019C109.045 27.0099 95.2101 28.081 82 30.1723Z" fill="white"/>
</g>
<path d="M133.687 33.1669C135.093 31.8408 135.158 29.6257 133.832 28.2193L112.222 5.30071C110.896 3.89431 108.681 3.82921 107.275 5.15531C105.868 6.4814 105.803 8.69652 107.129 10.1029L126.338 30.475L105.966 49.6838C104.56 51.0099 104.494 53.225 105.821 54.6314C107.147 56.0378 109.362 56.1029 110.768 54.7768L133.687 33.1669ZM59.4449 38.5317L60.3595 41.91L60.3595 41.91L59.4449 38.5317ZM4.69308 61.6379C3.2394 62.912 3.09379 65.1232 4.36786 66.5769C5.64194 68.0306 7.85323 68.1762 9.30692 66.9022L4.69308 61.6379ZM131.388 27.1219C105.914 26.3732 80.7577 29.1353 58.5302 35.1533L60.3595 41.91C81.8547 36.0903 106.319 33.3881 131.183 34.1189L131.388 27.1219ZM58.5302 35.1533C36.3321 41.1633 17.6851 50.2512 4.69308 61.6379L9.30692 66.9022C21.2587 56.4271 38.8348 47.7377 60.3595 41.91L58.5302 35.1533Z" fill="white"/>
<g filter="url(#filter1_d_801_38)">
<path d="M28.875 67C27.8333 67 27.3125 66.4271 27.3125 65.2812V23.9062C27.3125 22.7604 27.8333 22.1875 28.875 22.1875H42C49.0833 22.1875 53.8646 23.3854 56.3438 25.7812C58.8229 28.1562 60.0625 31.4271 60.0625 35.5938C60.0625 39.7604 58.8229 43.0417 56.3438 45.4375C53.8646 47.8125 49.0833 49 42 49H33.3125V65.2812C33.3125 66.4271 32.7917 67 31.75 67H28.875ZM33.3125 43.875H42.0938C46.6771 43.875 49.8021 43.2292 51.4688 41.9375C53.1354 40.625 53.9688 38.5104 53.9688 35.5938C53.9688 32.6771 53.1354 30.5729 51.4688 29.2812C49.8021 27.9688 46.6771 27.3125 42.0938 27.3125H33.3125V43.875Z" fill="#7A95B5"/>
<path d="M56.3438 25.7812L55.6488 26.5003L55.652 26.5034L56.3438 25.7812ZM56.3438 45.4375L57.0355 46.1596L57.0387 46.1566L56.3438 45.4375ZM33.3125 49V48H32.3125V49H33.3125ZM33.3125 43.875H32.3125V44.875H33.3125V43.875ZM51.4688 41.9375L52.0813 42.7279L52.0874 42.7231L51.4688 41.9375ZM51.4688 29.2812L50.85 30.0669L50.8562 30.0717L51.4688 29.2812ZM33.3125 27.3125V26.3125H32.3125V27.3125H33.3125ZM28.875 66C28.5342 66 28.4549 65.9107 28.4431 65.8976C28.4148 65.8665 28.3125 65.7224 28.3125 65.2812H26.3125C26.3125 65.986 26.4706 66.7012 26.9632 67.243C27.4722 67.8029 28.1742 68 28.875 68V66ZM28.3125 65.2812V23.9062H26.3125V65.2812H28.3125ZM28.3125 23.9062C28.3125 23.4651 28.4148 23.321 28.4431 23.2899C28.4549 23.2768 28.5342 23.1875 28.875 23.1875V21.1875C28.1742 21.1875 27.4722 21.3846 26.9632 21.9445C26.4706 22.4863 26.3125 23.2015 26.3125 23.9062H28.3125ZM28.875 23.1875H42V21.1875H28.875V23.1875ZM42 23.1875C49.057 23.1875 53.4745 24.3991 55.6488 26.5003L57.0387 25.0622C54.2547 22.3717 49.1097 21.1875 42 21.1875V23.1875ZM55.652 26.5034C57.8932 28.6505 59.0625 31.6372 59.0625 35.5938H61.0625C61.0625 31.217 59.7526 27.662 57.0355 25.0591L55.652 26.5034ZM59.0625 35.5938C59.0625 39.55 57.8933 42.5494 55.6488 44.7184L57.0387 46.1566C59.7525 43.5339 61.0625 39.9708 61.0625 35.5938H59.0625ZM55.652 44.7154C54.5815 45.7409 52.948 46.57 50.6574 47.1389C48.3717 47.7066 45.4926 48 42 48V50C45.5908 50 48.6439 49.6997 51.1395 49.0799C53.6301 48.4613 55.6268 47.5091 57.0355 46.1596L55.652 44.7154ZM42 48H33.3125V50H42V48ZM32.3125 49V65.2812H34.3125V49H32.3125ZM32.3125 65.2812C32.3125 65.7224 32.2102 65.8665 32.1819 65.8976C32.1701 65.9107 32.0908 66 31.75 66V68C32.4508 68 33.1528 67.8029 33.6618 67.243C34.1544 66.7012 34.3125 65.986 34.3125 65.2812H32.3125ZM31.75 66H28.875V68H31.75V66ZM33.3125 44.875H42.0938V42.875H33.3125V44.875ZM42.0938 44.875C44.4267 44.875 46.4264 44.7111 48.0774 44.3699C49.7194 44.0306 51.0815 43.5028 52.0813 42.7279L50.8562 41.1471C50.1893 41.6639 49.1556 42.1048 47.6726 42.4113C46.1986 42.716 44.3442 42.875 42.0938 42.875V44.875ZM52.0874 42.7231C54.0768 41.1565 54.9688 38.6948 54.9688 35.5938H52.9688C52.9688 38.3261 52.194 40.0935 50.8501 41.1519L52.0874 42.7231ZM54.9688 35.5938C54.9688 32.4939 54.0772 30.0376 52.0813 28.4908L50.8562 30.0717C52.1936 31.1082 52.9688 32.8602 52.9688 35.5938H54.9688ZM52.0874 28.4956C51.0874 27.7081 49.7242 27.1712 48.0805 26.826C46.4283 26.4791 44.4274 26.3125 42.0938 26.3125V28.3125C44.3435 28.3125 46.1967 28.4741 47.6695 28.7833C49.1508 29.0944 50.1834 29.5419 50.8501 30.0669L52.0874 28.4956ZM42.0938 26.3125H33.3125V28.3125H42.0938V26.3125ZM32.3125 27.3125V43.875H34.3125V27.3125H32.3125Z" fill="#7A95B5"/>
</g>
<g filter="url(#filter2_d_801_38)">
<mask id="path-5-outside-1_801_38" maskUnits="userSpaceOnUse" x="65.3125" y="21.1875" width="36" height="47" fill="black">
<rect fill="white" x="65.3125" y="21.1875" width="36" height="47"/>
<path fill-rule="evenodd" clip-rule="evenodd" d="M66.3125 65.2812C66.3125 66.4271 66.8333 67 67.875 67H81.625C88.6458 67 93.4583 65.8125 96.0625 63.4375C98.6875 61.0625 100 58.1042 100 54.5625C100 51.2917 98.6979 48.7083 96.0938 46.8125C93.5104 44.8958 91.1667 43.8438 89.0625 43.6562V43.5625C90.9792 43.25 92.9583 42.2083 95 40.4375C95.9152 39.6343 96.6253 38.7537 97.1303 37.7956C94.6634 38.0437 92.214 38.3269 89.7852 38.645C89.4479 38.9537 89.0716 39.2491 88.6562 39.5312C86.4688 41.0104 83.6354 41.75 80.1562 41.75H72.3125V27.3125H80.1562C81.3386 27.3125 82.4232 27.3499 83.4101 27.4248C87.1436 26.862 90.9236 26.3795 94.7404 25.9782C94.6218 25.8592 94.5 25.7415 94.375 25.625C91.9167 23.3333 87.1458 22.1875 80.0625 22.1875H67.875C66.8333 22.1875 66.3125 22.7604 66.3125 23.9062V65.2812ZM80.625 61.875H72.3125V46.25H80.625C85.0417 46.25 88.3021 46.9583 90.4062 48.375C92.5312 49.7917 93.5938 51.7917 93.5938 54.375C93.5938 57.1667 92.5521 59.1146 90.4688 60.2188C88.3854 61.3229 85.1042 61.875 80.625 61.875Z"/>
</mask>
<path fill-rule="evenodd" clip-rule="evenodd" d="M66.3125 65.2812C66.3125 66.4271 66.8333 67 67.875 67H81.625C88.6458 67 93.4583 65.8125 96.0625 63.4375C98.6875 61.0625 100 58.1042 100 54.5625C100 51.2917 98.6979 48.7083 96.0938 46.8125C93.5104 44.8958 91.1667 43.8438 89.0625 43.6562V43.5625C90.9792 43.25 92.9583 42.2083 95 40.4375C95.9152 39.6343 96.6253 38.7537 97.1303 37.7956C94.6634 38.0437 92.214 38.3269 89.7852 38.645C89.4479 38.9537 89.0716 39.2491 88.6562 39.5312C86.4688 41.0104 83.6354 41.75 80.1562 41.75H72.3125V27.3125H80.1562C81.3386 27.3125 82.4232 27.3499 83.4101 27.4248C87.1436 26.862 90.9236 26.3795 94.7404 25.9782C94.6218 25.8592 94.5 25.7415 94.375 25.625C91.9167 23.3333 87.1458 22.1875 80.0625 22.1875H67.875C66.8333 22.1875 66.3125 22.7604 66.3125 23.9062V65.2812ZM80.625 61.875H72.3125V46.25H80.625C85.0417 46.25 88.3021 46.9583 90.4062 48.375C92.5312 49.7917 93.5938 51.7917 93.5938 54.375C93.5938 57.1667 92.5521 59.1146 90.4688 60.2188C88.3854 61.3229 85.1042 61.875 80.625 61.875Z" fill="#7A95B5"/>
<path d="M96.0625 63.4375L95.3916 62.696L95.3887 62.6986L96.0625 63.4375ZM96.0938 46.8125L95.4979 47.6156L95.5052 47.621L96.0938 46.8125ZM89.0625 43.6562H88.0625V44.5711L88.9737 44.6523L89.0625 43.6562ZM89.0625 43.5625L88.9016 42.5755L88.0625 42.7123V43.5625H89.0625ZM95 40.4375L95.6552 41.1929L95.6596 41.1891L95 40.4375ZM97.1303 37.7956L98.0149 38.2619L98.8833 36.6144L97.0303 36.8007L97.1303 37.7956ZM89.7852 38.645L89.6553 37.6535L89.3426 37.6944L89.11 37.9074L89.7852 38.645ZM88.6562 39.5312L89.2164 40.3596L89.2181 40.3585L88.6562 39.5312ZM72.3125 41.75H71.3125V42.75H72.3125V41.75ZM72.3125 27.3125V26.3125H71.3125V27.3125H72.3125ZM83.4101 27.4248L83.3345 28.4219L83.4473 28.4305L83.5592 28.4136L83.4101 27.4248ZM94.7404 25.9782L94.845 26.9727L96.9265 26.7538L95.4484 25.272L94.7404 25.9782ZM94.375 25.625L93.6931 26.3565L93.6931 26.3565L94.375 25.625ZM72.3125 61.875H71.3125V62.875H72.3125V61.875ZM72.3125 46.25V45.25H71.3125V46.25H72.3125ZM90.4062 48.375L89.8478 49.2045L89.8515 49.2071L90.4062 48.375ZM67.875 66C67.5342 66 67.4549 65.9107 67.4431 65.8976C67.4148 65.8665 67.3125 65.7224 67.3125 65.2812H65.3125C65.3125 65.986 65.4706 66.7012 65.9632 67.243C66.4722 67.8029 67.1742 68 67.875 68V66ZM81.625 66H67.875V68H81.625V66ZM95.3887 62.6986C93.0811 64.8031 88.6088 66 81.625 66V68C88.6828 68 93.8356 66.8219 96.7363 64.1764L95.3887 62.6986ZM99 54.5625C99 57.8218 97.8069 60.5107 95.3916 62.696L96.7334 64.179C99.5681 61.6143 101 58.3866 101 54.5625H99ZM95.5052 47.621C97.8462 49.3252 99 51.6056 99 54.5625H101C101 50.9777 99.5497 48.0915 96.6823 46.004L95.5052 47.621ZM88.9737 44.6523C90.8222 44.817 92.991 45.7556 95.4979 47.6156L96.6896 46.0094C94.0298 44.036 91.5111 42.8705 89.1513 42.6602L88.9737 44.6523ZM88.0625 43.5625V43.6562H90.0625V43.5625H88.0625ZM94.3448 39.6821C92.3907 41.377 90.5769 42.3024 88.9016 42.5755L89.2234 44.5495C91.3814 44.1976 93.526 43.0397 95.6552 41.1929L94.3448 39.6821ZM96.2456 37.3294C95.8043 38.1668 95.1752 38.9533 94.3404 39.6859L95.6596 41.1891C96.6553 40.3153 97.4464 39.3406 98.0149 38.2619L96.2456 37.3294ZM89.915 39.6366C92.3339 39.3198 94.7733 39.0377 97.2303 38.7906L97.0303 36.8007C94.5535 37.0497 92.0942 37.3341 89.6553 37.6535L89.915 39.6366ZM89.2181 40.3585C89.6695 40.0518 90.0843 39.7269 90.4604 39.3827L89.11 37.9074C88.8116 38.1805 88.4737 38.4464 88.0944 38.704L89.2181 40.3585ZM80.1562 42.75C83.7726 42.75 86.8184 41.9812 89.2164 40.3596L88.0961 38.7029C86.1191 40.0397 83.4982 40.75 80.1562 40.75V42.75ZM72.3125 42.75H80.1562V40.75H72.3125V42.75ZM71.3125 27.3125V41.75H73.3125V27.3125H71.3125ZM80.1562 26.3125H72.3125V28.3125H80.1562V26.3125ZM83.4857 26.4277C82.4694 26.3506 81.3592 26.3125 80.1562 26.3125V28.3125C81.318 28.3125 82.377 28.3493 83.3345 28.4219L83.4857 26.4277ZM94.6358 24.9836C90.8044 25.3865 87.0096 25.8709 83.261 26.436L83.5592 28.4136C87.2776 27.8531 91.0427 27.3725 94.845 26.9727L94.6358 24.9836ZM93.6931 26.3565C93.8094 26.4649 93.9225 26.5742 94.0324 26.6844L95.4484 25.272C95.3211 25.1443 95.1906 25.0182 95.0569 24.8935L93.6931 26.3565ZM80.0625 23.1875C83.557 23.1875 86.4362 23.4708 88.7196 24.0192C91.0093 24.5692 92.6351 25.3701 93.6931 26.3565L95.0569 24.8935C93.6566 23.5882 91.6678 22.6704 89.1867 22.0745C86.6992 21.4771 83.6514 21.1875 80.0625 21.1875V23.1875ZM67.875 23.1875H80.0625V21.1875H67.875V23.1875ZM67.3125 23.9062C67.3125 23.4651 67.4148 23.321 67.4431 23.2899C67.4549 23.2768 67.5342 23.1875 67.875 23.1875V21.1875C67.1742 21.1875 66.4722 21.3846 65.9632 21.9445C65.4706 22.4863 65.3125 23.2015 65.3125 23.9062H67.3125ZM67.3125 65.2812V23.9062H65.3125V65.2812H67.3125ZM72.3125 62.875H80.625V60.875H72.3125V62.875ZM71.3125 46.25V61.875H73.3125V46.25H71.3125ZM80.625 45.25H72.3125V47.25H80.625V45.25ZM90.9647 47.5455C88.6132 45.9623 85.1105 45.25 80.625 45.25V47.25C84.9728 47.25 87.9909 47.9544 89.8478 49.2045L90.9647 47.5455ZM94.5938 54.375C94.5938 51.462 93.368 49.1476 90.961 47.5429L89.8515 49.2071C91.6945 50.4357 92.5938 52.1214 92.5938 54.375H94.5938ZM90.937 61.1023C93.4142 59.7894 94.5938 57.4548 94.5938 54.375H92.5938C92.5938 56.8785 91.69 58.4397 90.0005 59.3352L90.937 61.1023ZM80.625 62.875C85.1454 62.875 88.6306 62.3248 90.937 61.1023L90.0005 59.3352C88.1403 60.3211 85.0629 60.875 80.625 60.875V62.875Z" fill="#7A95B5" mask="url(#path-5-outside-1_801_38)"/>
</g>
<rect x="66" y="22" width="7" height="45" fill="#7A95B5"/>
<rect x="67" y="28" width="6" height="19" transform="rotate(-90 67 28)" fill="#7A95B5"/>
<rect x="66" y="47" width="6" height="25" transform="rotate(-90 66 47)" fill="#7A95B5"/>
<rect x="68" y="68" width="3" height="12" transform="rotate(-90 68 68)" fill="#7A95B5"/>
<ellipse cx="82.5" cy="66" rx="6.5" ry="2" fill="#7A95B5"/>
<ellipse cx="82.5" cy="63" rx="6.5" ry="2" fill="#7A95B5"/>
<ellipse cx="73.5" cy="63" rx="6.5" ry="2" fill="#7A95B5"/>
<ellipse cx="95.3493" cy="61.3274" rx="6.5" ry="2.46378" transform="rotate(-44.7794 95.3493 61.3274)" fill="#7A95B5"/>
<ellipse cx="97.368" cy="51.826" rx="6.51463" ry="2.75071" transform="rotate(-111.57 97.368 51.826)" fill="#7A95B5"/>
<ellipse cx="86.801" cy="24.0906" rx="7.59061" ry="2.15538" transform="rotate(-172.793 86.801 24.0906)" fill="#7A95B5"/>
<ellipse cx="86.6987" cy="26.2194" rx="7.59061" ry="1.53695" transform="rotate(174.794 86.6987 26.2194)" fill="#7A95B5"/>
<ellipse cx="87.0653" cy="25.7028" rx="8.02946" ry="1.49693" transform="rotate(-178.527 87.0653 25.7028)" fill="#7A95B5"/>
<ellipse cx="90.9395" cy="45.7784" rx="6.51463" ry="2.59894" transform="rotate(-149.898 90.9395 45.7784)" fill="#7A95B5"/>
<ellipse cx="88.6979" cy="64.7911" rx="6.5" ry="2" transform="rotate(-7.12747 88.6979 64.7911)" fill="#7A95B5"/>
<ellipse cx="85.5003" cy="42.2293" rx="8.02946" ry="1.75969" transform="rotate(148.67 85.5003 42.2293)" fill="#7A95B5"/>
<ellipse cx="84.1399" cy="42.184" rx="8.02946" ry="1.58645" transform="rotate(166.95 84.1399 42.184)" fill="#7A95B5"/>
<ellipse cx="88.1867" cy="46.8214" rx="8.02946" ry="1.38411" transform="rotate(-161.81 88.1867 46.8214)" fill="#7A95B5"/>
<ellipse cx="92.2441" cy="49.6059" rx="8.02946" ry="1.10562" transform="rotate(-134.769 92.2441 49.6059)" fill="#7A95B5"/>
<ellipse cx="94.1524" cy="54.0358" rx="8.02946" ry="1.10562" transform="rotate(-107.3 94.1524 54.0358)" fill="#7A95B5"/>
<ellipse cx="93.5679" cy="57.9711" rx="8.02946" ry="1.10562" transform="rotate(-85.4908 93.5679 57.9711)" fill="#7A95B5"/>
<ellipse cx="93.049" cy="58.2955" rx="8.02946" ry="1.285" transform="rotate(-57.9228 93.049 58.2955)" fill="#7A95B5"/>
<ellipse cx="86.9568" cy="62.0438" rx="8.02946" ry="1.2716" transform="rotate(-20.8301 86.9568 62.0438)" fill="#7A95B5"/>
<ellipse cx="91.637" cy="41.4537" rx="8.02946" ry="1.49693" transform="rotate(146.355 91.637 41.4537)" fill="#7A95B5"/>
<ellipse cx="88.5138" cy="41.6948" rx="8.02946" ry="1.49693" transform="rotate(146.355 88.5138 41.6948)" fill="#7A95B5"/>
</g>
<defs>
<filter id="filter0_d_801_38" x="78" y="2.20178" width="60.7856" height="59.5286" filterUnits="userSpaceOnUse" color-interpolation-filters="sRGB">
<feFlood flood-opacity="0" result="BackgroundImageFix"/>
<feColorMatrix in="SourceAlpha" type="matrix" values="0 0 0 0 0 0 0 0 0 0 0 0 0 0 0 0 0 0 127 0" result="hardAlpha"/>
<feOffset dy="2"/>
<feGaussianBlur stdDeviation="2"/>
<feComposite in2="hardAlpha" operator="out"/>
<feColorMatrix type="matrix" values="0 0 0 0 0 0 0 0 0 0 0 0 0 0 0 0 0 0 0.25 0"/>
<feBlend mode="normal" in2="BackgroundImageFix" result="effect1_dropShadow_801_38"/>
<feBlend mode="normal" in="SourceGraphic" in2="effect1_dropShadow_801_38" result="shape"/>
</filter>
<filter id="filter1_d_801_38" x="23.3125" y="20.1875" width="40.75" height="52.8125" filterUnits="userSpaceOnUse" color-interpolation-filters="sRGB">
<feFlood flood-opacity="0" result="BackgroundImageFix"/>
<feColorMatrix in="SourceAlpha" type="matrix" values="0 0 0 0 0 0 0 0 0 0 0 0 0 0 0 0 0 0 127 0" result="hardAlpha"/>
<feOffset dy="2"/>
<feGaussianBlur stdDeviation="2"/>
<feComposite in2="hardAlpha" operator="out"/>
<feColorMatrix type="matrix" values="0 0 0 0 0 0 0 0 0 0 0 0 0 0 0 0 0 0 0.25 0"/>
<feBlend mode="normal" in2="BackgroundImageFix" result="effect1_dropShadow_801_38"/>
<feBlend mode="normal" in="SourceGraphic" in2="effect1_dropShadow_801_38" result="shape"/>
</filter>
<filter id="filter2_d_801_38" x="61.3125" y="19.1875" width="43.6875" height="54.8125" filterUnits="userSpaceOnUse" color-interpolation-filters="sRGB">
<feFlood flood-opacity="0" result="BackgroundImageFix"/>
<feColorMatrix in="SourceAlpha" type="matrix" values="0 0 0 0 0 0 0 0 0 0 0 0 0 0 0 0 0 0 127 0" result="hardAlpha"/>
<feOffset dy="2"/>
<feGaussianBlur stdDeviation="2"/>
<feComposite in2="hardAlpha" operator="out"/>
<feColorMatrix type="matrix" values="0 0 0 0 0 0 0 0 0 0 0 0 0 0 0 0 0 0 0.25 0"/>
<feBlend mode="normal" in2="BackgroundImageFix" result="effect1_dropShadow_801_38"/>
<feBlend mode="normal" in="SourceGraphic" in2="effect1_dropShadow_801_38" result="shape"/>
</filter>
<clipPath id="clip0_801_38">
<rect width="137" height="72" fill="white"/>
</clipPath>
</defs>
</svg>
