<svg width="100" height="100" viewBox="0 0 100 100" fill="none" xmlns="http://www.w3.org/2000/svg">
<rect width="100" height="100" fill="white"/>
<path d="M91.5 50C91.5 72.3404 73.171 90.5 50.5 90.5C27.829 90.5 9.5 72.3404 9.5 50C9.5 27.6596 27.829 9.5 50.5 9.5C73.171 9.5 91.5 27.6596 91.5 50Z" fill="#EA3B52" stroke="#EA3B52" stroke-width="5"/>
<path fill-rule="evenodd" clip-rule="evenodd" d="M31.0226 66.3826C29.6983 67.7111 29.6983 69.8651 31.0226 71.1937C32.3468 72.5223 34.4938 72.5223 35.8181 71.1937L51.0038 55.9585L66.1896 71.1938C67.5139 72.5223 69.6609 72.5223 70.9851 71.1937C72.3094 69.8652 72.3094 67.7112 70.9851 66.3826L55.7993 51.1473L70.9851 35.912C72.3094 34.5835 72.3094 32.4295 70.9851 31.1009C69.6609 29.7724 67.5139 29.7724 66.1896 31.1009L51.0038 46.3362L35.8181 31.101C34.4939 29.7724 32.3468 29.7724 31.0226 31.101C29.6984 32.4295 29.6984 34.5835 31.0226 35.9121L46.2083 51.1473L31.0226 66.3826Z" fill="white"/>
</svg>
