<svg width="84" height="52" viewBox="0 0 84 52" fill="none" xmlns="http://www.w3.org/2000/svg">
<g clip-path="url(#clip0_302_30)">
<path fill-rule="evenodd" clip-rule="evenodd" d="M51 14C51 18.9706 46.9706 23 42 23C37.0294 23 33 18.9706 33 14C33 9.02944 37.0294 5 42 5C46.9706 5 51 9.02944 51 14ZM46.496 27.2624C52.0225 25.3895 56 20.1593 56 14C56 6.26801 49.732 0 42 0C34.268 0 28 6.26801 28 14C28 19.9291 31.6858 24.9974 36.8911 27.0386C35.1539 27.3601 33.4512 27.8778 31.8134 28.5852C29.5598 29.5587 27.4628 30.877 25.5902 32.493C24.9522 32.0686 24.2902 31.6911 23.608 31.3632C23.0035 31.0726 22.3864 30.8227 21.7599 30.6142C24.5845 28.8571 26.4724 25.6695 26.4724 22.0286C26.4724 16.49 22.1034 12 16.714 12C11.3245 12 6.95554 16.49 6.95554 22.0286C6.95554 25.756 8.93421 29.0084 11.871 30.737C11.366 30.9188 10.8677 31.1276 10.3776 31.3632C8.28032 32.3712 6.37469 33.8486 4.76951 35.7111C3.16432 37.5735 1.89102 39.7846 1.0223 42.2181C0.595522 43.4136 0.270494 44.6513 0.0502462 45.9134C-0.329508 48.0897 1.49732 49.8937 3.70646 49.8937H16.9928H17.2493C17.7942 51.2038 19.1685 52.1132 20.7384 52.1132H41.1586H61.5787C63.1486 52.1132 64.5229 51.2038 65.0678 49.8937H66.8337H80.1201C82.3292 49.8937 84.156 48.0897 83.7763 45.9134C83.556 44.6513 83.231 43.4136 82.8042 42.2181C81.9355 39.7846 80.6622 37.5735 79.057 35.7111C77.4518 33.8486 75.5462 32.3712 73.4489 31.3632C72.9588 31.1276 72.4605 30.9188 71.9556 30.737C74.8923 29.0084 76.871 25.756 76.871 22.0286C76.871 16.49 72.502 12 67.1126 12C61.7232 12 57.3542 16.49 57.3542 22.0286C57.3542 25.6695 59.242 28.8571 62.0666 30.6142C61.4401 30.8227 60.8231 31.0726 60.2186 31.3632C59.231 31.8378 58.2859 32.4166 57.3946 33.0906C55.3578 31.2 53.0291 29.6761 50.5038 28.5852C49.2037 28.0237 47.8627 27.5817 46.496 27.2624ZM60.7122 36.8577C61.9282 38.5527 62.9396 40.4031 63.7199 42.3676C64.0485 43.1949 64.3344 44.0382 64.5769 44.8937H66.8337H78.4164C78.3191 44.5577 78.212 44.226 78.0953 43.8991C77.423 42.0158 76.4525 40.3478 75.2696 38.9753C74.0877 37.604 72.7253 36.5629 71.2831 35.8697C69.8441 35.1782 68.3348 34.8364 66.8337 34.8364C65.3326 34.8364 63.8234 35.1782 62.3844 35.8697C61.8124 36.1447 61.2529 36.4743 60.7122 36.8577ZM21.4421 35.8697C21.6593 35.9741 21.8747 36.0864 22.088 36.2065C20.6549 38.075 19.4787 40.1485 18.5972 42.3676C18.2686 43.1949 17.9827 44.0382 17.7402 44.8937H16.9928H5.4101C5.50743 44.5577 5.61455 44.226 5.73124 43.8991C6.40359 42.0158 7.37403 40.3478 8.55697 38.9753C9.7388 37.604 11.1013 36.5629 12.5435 35.8697C13.9824 35.1782 15.4917 34.8364 16.9928 34.8364C18.4939 34.8364 20.0032 35.1782 21.4421 35.8697ZM59.073 44.2133C59.4474 45.156 59.7537 46.1254 59.99 47.1132H41.1586H22.3271C22.5634 46.1254 22.8697 45.156 23.2441 44.2133C24.2365 41.7148 25.6859 39.4579 27.4998 37.5663C29.3132 35.6751 31.4547 34.1867 33.7961 33.1753C36.137 32.1641 38.6381 31.6467 41.1586 31.6467C43.679 31.6467 46.1802 32.1641 48.521 33.1753C50.8624 34.1867 53.0039 35.6751 54.8173 37.5663C56.6312 39.4579 58.0806 41.7148 59.073 44.2133ZM16.714 27.0573C19.2141 27.0573 21.4724 24.9355 21.4724 22.0286C21.4724 19.1218 19.2141 17 16.714 17C14.2138 17 11.9555 19.1218 11.9555 22.0286C11.9555 24.9355 14.2138 27.0573 16.714 27.0573ZM62.3542 22.0286C62.3542 24.9355 64.6124 27.0573 67.1126 27.0573C69.6127 27.0573 71.871 24.9355 71.871 22.0286C71.871 19.1218 69.6127 17 67.1126 17C64.6124 17 62.3542 19.1218 62.3542 22.0286Z" fill="#1B263B"/>
</g>
<defs>
<clipPath id="clip0_302_30">
<rect width="84" height="52" fill="white"/>
</clipPath>
</defs>
</svg>
