<svg fill="none" xmlns="http://www.w3.org/2000/svg" viewBox="8.3 28 87.42 49.13">
<path fill-rule="evenodd" clip-rule="evenodd" d="M59.8092 41C59.8092 45.4183 56.2275 49 51.8092 49C47.3909 49 43.8092 45.4183 43.8092 41C43.8092 36.5817 47.3909 33 51.8092 33C56.2275 33 59.8092 36.5817 59.8092 41ZM57.7181 52.5826C61.9275 50.4309 64.8092 46.052 64.8092 41C64.8092 33.8203 58.9889 28 51.8092 28C44.6295 28 38.8092 33.8203 38.8092 41C38.8092 45.8754 41.493 50.1239 45.4638 52.3488C44.2206 52.6597 43 53.0727 41.8134 53.5852C39.4091 54.6238 37.183 56.0549 35.2174 57.8212C34.472 57.3274 33.6937 56.8931 32.8883 56.5224C31.7489 55.998 30.5668 55.6064 29.361 55.3517C32.9673 53.8787 35.5169 50.2596 35.5169 46.0286C35.5169 40.49 31.1479 36 25.7584 36C20.369 36 16 40.49 16 46.0286C16 50.327 18.6313 53.9937 22.3288 55.4204C21.2305 55.6747 20.1533 56.0431 19.1117 56.5224C16.9279 57.5275 14.9436 59.0007 13.2721 60.8579C11.6007 62.715 10.2748 64.9198 9.3702 67.3463C8.92692 68.5354 8.58906 69.7663 8.35975 71.0216C7.96276 73.1948 9.7909 75 12 75H26H27.2958C27.8693 76.2527 29.2113 77.1132 30.7384 77.1132H51.1586H71.5788C73.1058 77.1132 74.4478 76.2527 75.0214 75H77.4999H91.9999C94.2091 75 96.038 73.1941 95.6305 71.0228C95.3948 69.7671 95.0475 68.5358 94.5917 67.3463C93.662 64.9198 92.2993 62.715 90.5814 60.8579C88.8635 59.0007 86.8241 57.5275 84.5796 56.5224C83.4311 56.0081 82.2404 55.6215 81.0258 55.3666C84.6515 53.9032 87.2183 50.274 87.2183 46.0286C87.2183 40.49 82.8493 36 77.4599 36C72.0705 36 67.7015 40.49 67.7015 46.0286C67.7015 50.2847 70.2813 53.9216 73.9216 55.3777C72.7253 55.6327 71.5523 56.0155 70.4203 56.5224C69.3975 56.9804 68.4172 57.5357 67.4906 58.1801C65.4311 56.2481 63.0689 54.6933 60.5038 53.5852C59.5935 53.192 58.6632 52.8575 57.7181 52.5826ZM70.8008 61.9819C71.9774 63.643 72.9586 65.451 73.7199 67.3676C74.0621 68.2292 74.358 69.108 74.6068 70H77.4999H90.2259C90.133 69.7085 90.0319 69.4201 89.9227 69.1353C89.2143 67.2864 88.185 65.6305 86.9109 64.2531C85.6376 62.8765 84.1472 61.8072 82.5361 61.0858C80.9263 60.3649 79.2162 60 77.4999 60C75.7837 60 74.0736 60.3649 72.4638 61.0858C71.8929 61.3414 71.3371 61.6407 70.8008 61.9819ZM30.7979 61.0645C31.1385 61.2212 31.4739 61.3949 31.8032 61.5851C30.4985 63.3537 29.4196 65.2973 28.5973 67.3676C28.2551 68.2292 27.9591 69.108 27.7103 70H26H13.747C13.8411 69.694 13.9439 69.3915 14.0552 69.0929C14.7484 67.2334 15.7529 65.5757 16.9886 64.2027C18.2234 62.8307 19.6604 61.774 21.2021 61.0645C22.7419 60.3558 24.3705 60 26 60C27.6296 60 29.2581 60.3558 30.7979 61.0645ZM69.073 69.2133C69.4475 70.156 69.7538 71.1254 69.99 72.1132H51.1586H32.3271C32.5634 71.1254 32.8697 70.156 33.2441 69.2133C34.2365 66.7148 35.6859 64.4579 37.4998 62.5663C39.3133 60.6751 41.4547 59.1867 43.7961 58.1753C46.137 57.1641 48.6381 56.6467 51.1586 56.6467C53.6791 56.6467 56.1802 57.1641 58.5211 58.1753C60.8625 59.1867 63.0039 60.6751 64.8174 62.5663C66.6312 64.4579 68.0806 66.7148 69.073 69.2133ZM25.7584 51.0573C28.2586 51.0573 30.5169 48.9355 30.5169 46.0286C30.5169 43.1218 28.2586 41 25.7584 41C23.2583 41 21 43.1218 21 46.0286C21 48.9355 23.2583 51.0573 25.7584 51.0573ZM72.7015 46.0286C72.7015 48.9355 74.9598 51.0573 77.4599 51.0573C79.9601 51.0573 82.2183 48.9355 82.2183 46.0286C82.2183 43.1218 79.9601 41 77.4599 41C74.9598 41 72.7015 43.1218 72.7015 46.0286Z" fill="#0B2239"/>
</svg>