<svg fill="none" xmlns="http://www.w3.org/2000/svg" viewBox="7.25 22 85.5 56">
<path fill-rule="evenodd" clip-rule="evenodd" d="M81.75 28H18.25C15.4886 28 13.25 30.2386 13.25 33V67C13.25 69.7614 15.4886 72 18.25 72H81.75C84.5114 72 86.75 69.7614 86.75 67V33C86.75 30.2386 84.5114 28 81.75 28ZM18.25 22C12.1749 22 7.25 26.9249 7.25 33V67C7.25 73.0751 12.1749 78 18.25 78H81.75C87.8251 78 92.75 73.0751 92.75 67V33C92.75 26.9249 87.8251 22 81.75 22H18.25Z" fill="black"/>
<path fill-rule="evenodd" clip-rule="evenodd" d="M35.3378 43.0057C35.3378 44.6291 34.0008 46.0114 32.2694 46.0114C30.538 46.0114 29.2011 44.6291 29.2011 43.0057C29.2011 41.3824 30.538 40 32.2694 40C34.0008 40 35.3378 41.3824 35.3378 43.0057ZM36.4415 49.8594C38.7769 48.4568 40.3378 45.9121 40.3378 43.0057C40.3378 38.5843 36.7255 35 32.2694 35C27.8134 35 24.2011 38.5843 24.2011 43.0057C24.2011 45.9812 25.8371 48.5776 28.2652 49.9575C27.8477 50.1026 27.4357 50.2693 27.0305 50.4574C25.2965 51.262 23.7209 52.4414 22.3937 53.9282C21.0665 55.415 20.0137 57.1801 19.2955 59.1227C19.0352 59.8265 18.8208 60.5486 18.6531 61.2833C18.1615 63.437 19.9984 65.25 22.2075 65.25H32.5H42.7925C45.0016 65.25 46.8386 63.437 46.3469 61.2833C46.1792 60.5486 45.9648 59.8265 45.7045 59.1227C44.9863 57.1801 43.9335 55.415 42.6063 53.9282C41.2791 52.4414 39.7035 51.262 37.9695 50.4574C37.4697 50.2254 36.9595 50.0259 36.4415 49.8594ZM38.8762 57.2578C39.6367 58.1097 40.2821 59.1189 40.7717 60.25H32.5H24.2283C24.7179 59.1189 25.3633 58.1097 26.1238 57.2578C27.0167 56.2575 28.0457 55.4983 29.1351 54.9928C30.2223 54.4883 31.3638 54.2386 32.5 54.2386C33.6362 54.2386 34.7777 54.4883 35.8649 54.9928C36.9543 55.4983 37.9833 56.2575 38.8762 57.2578Z" fill="black"/>
<rect x="51.75" y="38.25" width="27.1719" height="4.5" rx="2.25" fill="black"/>
<rect x="51.75" y="47.75" width="27.1719" height="4.5" rx="2.25" fill="black"/>
<rect x="51.75" y="57.25" width="27.1719" height="4.5" rx="2.25" fill="black"/>
</svg>