<svg width="100" height="100" viewBox="0 0 100 100" fill="none" xmlns="http://www.w3.org/2000/svg">
<rect width="100" height="100" fill="white"/>
<path d="M70.892 50.1818C70.892 54.9403 69.9901 58.9886 68.1861 62.3267C66.3963 65.6648 63.9531 68.2145 60.8565 69.9759C57.7741 71.723 54.3082 72.5966 50.4588 72.5966C46.581 72.5966 43.1009 71.7159 40.0185 69.9545C36.9361 68.1932 34.5 65.6435 32.7102 62.3054C30.9205 58.9673 30.0256 54.9261 30.0256 50.1818C30.0256 45.4233 30.9205 41.375 32.7102 38.0369C34.5 34.6989 36.9361 32.1562 40.0185 30.4091C43.1009 28.6477 46.581 27.767 50.4588 27.767C54.3082 27.767 57.7741 28.6477 60.8565 30.4091C63.9531 32.1562 66.3963 34.6989 68.1861 38.0369C69.9901 41.375 70.892 45.4233 70.892 50.1818ZM61.5384 50.1818C61.5384 47.0994 61.0767 44.5 60.1534 42.3835C59.2443 40.267 57.9588 38.6619 56.2969 37.5682C54.6349 36.4744 52.6889 35.9276 50.4588 35.9276C48.2287 35.9276 46.2827 36.4744 44.6207 37.5682C42.9588 38.6619 41.6662 40.267 40.7429 42.3835C39.8338 44.5 39.3793 47.0994 39.3793 50.1818C39.3793 53.2642 39.8338 55.8636 40.7429 57.9801C41.6662 60.0966 42.9588 61.7017 44.6207 62.7955C46.2827 63.8892 48.2287 64.4361 50.4588 64.4361C52.6889 64.4361 54.6349 63.8892 56.2969 62.7955C57.9588 61.7017 59.2443 60.0966 60.1534 57.9801C61.0767 55.8636 61.5384 53.2642 61.5384 50.1818Z" fill="#1B263B"/>
</svg>
