<svg width="100" height="100" viewBox="0 0 100 100" fill="none" xmlns="http://www.w3.org/2000/svg">
<rect width="100" height="100" fill="white"/>
<path d="M64.919 51.6364C64.919 55.2053 64.2425 58.2415 62.8896 60.745C61.5472 63.2486 59.7148 65.1609 57.3924 66.4819C55.0806 67.7923 52.4812 68.4474 49.5941 68.4474C46.6857 68.4474 44.0756 67.7869 41.7638 66.4659C39.4521 65.1449 37.625 63.2326 36.2827 60.729C34.9403 58.2255 34.2692 55.1946 34.2692 51.6364C34.2692 48.0675 34.9403 45.0312 36.2827 42.5277C37.625 40.0241 39.4521 38.1172 41.7638 36.8068C44.0756 35.4858 46.6857 34.8253 49.5941 34.8253C52.4812 34.8253 55.0806 35.4858 57.3924 36.8068C59.7148 38.1172 61.5472 40.0241 62.8896 42.5277C64.2425 45.0312 64.919 48.0675 64.919 51.6364ZM57.9038 51.6364C57.9038 49.3246 57.5575 47.375 56.8651 45.7876C56.1832 44.2003 55.2191 42.9964 53.9727 42.1761C52.7262 41.3558 51.2667 40.9457 49.5941 40.9457C47.9215 40.9457 46.462 41.3558 45.2156 42.1761C43.9691 42.9964 42.9996 44.2003 42.3072 45.7876C41.6254 47.375 41.2844 49.3246 41.2844 51.6364C41.2844 53.9482 41.6254 55.8977 42.3072 57.4851C42.9996 59.0724 43.9691 60.2763 45.2156 61.0966C46.462 61.9169 47.9215 62.3271 49.5941 62.3271C51.2667 62.3271 52.7262 61.9169 53.9727 61.0966C55.2191 60.2763 56.1832 59.0724 56.8651 57.4851C57.5575 55.8977 57.9038 53.9482 57.9038 51.6364Z" fill="#1B263B"/>
<path fill-rule="evenodd" clip-rule="evenodd" d="M72 24H28C24.6863 24 22 26.6863 22 30V74C22 77.3137 24.6863 80 28 80H72C75.3137 80 78 77.3137 78 74V30C78 26.6863 75.3137 24 72 24ZM28 19C21.9249 19 17 23.9249 17 30V74C17 80.0751 21.9249 85 28 85H72C78.0751 85 83 80.0751 83 74V30C83 23.9249 78.0751 19 72 19H28Z" fill="#1B263B"/>
</svg>
