<svg width="68" height="67" viewBox="0 0 68 67" fill="none" xmlns="http://www.w3.org/2000/svg">
<path fill-rule="evenodd" clip-rule="evenodd" d="M63 33.5C63 49.1705 50.0864 62 34 62C17.9136 62 5 49.1705 5 33.5C5 17.8295 17.9136 5 34 5C50.0864 5 63 17.8295 63 33.5ZM68 33.5C68 52.0015 52.7777 67 34 67C15.2223 67 0 52.0015 0 33.5C0 14.9985 15.2223 0 34 0C52.7777 0 68 14.9985 68 33.5ZM16.7095 31.4469L13.7669 28.7374L8.34795 34.6226L11.2905 37.3321L27.8682 52.5963C28.7308 53.3906 29.8985 53.7664 31.0625 53.6242C32.2264 53.4821 33.2694 52.8365 33.9155 51.858L52.8379 23.2043L55.0421 19.8664L48.3664 15.4579L46.1621 18.7958L29.8297 43.5276L16.7095 31.4469Z" fill="#5DBB63"/>
</svg>
