<svg width="68" height="67" viewBox="0 0 68 67" fill="none" xmlns="http://www.w3.org/2000/svg">
<path fill-rule="evenodd" clip-rule="evenodd" d="M63 33.5C63 49.1705 50.0864 62 34 62C17.9136 62 5 49.1705 5 33.5C5 17.8295 17.9136 5 34 5C50.0864 5 63 17.8295 63 33.5ZM68 33.5C68 52.0015 52.7777 67 34 67C15.2223 67 0 52.0015 0 33.5C0 14.9985 15.2223 0 34 0C52.7777 0 68 14.9985 68 33.5ZM18.9643 16L33.5 30.5357L48.0357 16L52 19.9643L37.4643 34.5L52 49.0357L48.0357 53L33.5 38.4643L18.9643 53L15 49.0357L29.5357 34.5L15 19.9643L18.9643 16Z" fill="#EA3B52"/>
</svg>
