<svg width="58" height="65" viewBox="0 0 58 65" fill="none" xmlns="http://www.w3.org/2000/svg">
<path fill-rule="evenodd" clip-rule="evenodd" d="M39.3642 2.60501C41.5148 0.0839667 45.3019 -0.216358 47.8229 1.93423L55.0738 8.11958C57.5948 10.2702 57.8951 14.0573 55.7446 16.5783L21.4785 56.7471C21.3546 56.8923 21.2226 57.0264 21.0837 57.1494C20.932 57.7795 20.4812 58.3389 19.7786 58.5751L3.41686 64.0768C2.00591 64.5512 0.591102 63.3665 0.804673 61.8893L3.28132 44.7601C3.41134 43.8609 4.08243 43.2468 4.85724 43.0856C4.93165 42.9789 5.01193 42.8748 5.09811 42.7738L39.3642 2.60501ZM14.5611 56.1039L6.65285 49.3577L5.22347 59.2437L14.5611 56.1039ZM46.8174 20.8799L18.7717 53.7567L13.4798 49.3252L8.3976 45.0693L36.5233 12.0986L46.8174 20.8799ZM49.4133 17.8368L39.1193 9.05543L42.4074 5.20099C43.1242 4.36064 44.3866 4.26054 45.2269 4.97739L52.4778 11.1627C53.3181 11.8796 53.4182 13.142 52.7014 13.9823L49.4133 17.8368Z" fill="black"/>
</svg>
