<svg fill="none" xmlns="http://www.w3.org/2000/svg" viewBox="25.48 14.93 52.15 67.77">
<path d="M75.7453 30.798C76.5123 29.732 77.0618 28.5254 77.3624 27.247C77.6631 25.9687 77.709 24.6437 77.4976 23.3476C77.2861 22.0515 76.8215 20.8097 76.1302 19.6932C75.4388 18.5767 74.5343 17.6073 73.4684 16.8403C72.4024 16.0734 71.1958 15.5239 69.9174 15.2232C68.6391 14.9226 67.3141 14.8767 66.018 15.0881C64.7219 15.2995 63.4801 15.7642 62.3636 16.4555C61.2471 17.1468 60.2777 18.0513 59.5107 19.1173L67.628 24.9576L75.7453 30.798Z" fill="white"/>
<rect x="56.2646" y="23.6183" width="20" height="46.1551" transform="rotate(35.7347 56.2646 23.6183)" fill="white"/>
<path fill-rule="evenodd" clip-rule="evenodd" d="M41.1296 76.317L27.1477 66.0942L25.52 81.1448L27.1078 82.5095L41.1296 76.317Z" fill="white"/>
<path d="M26.8478 68.8667C26.9473 67.9472 26.997 67.4874 27.2216 67.2447C27.4091 67.042 27.672 66.9258 27.9482 66.9238C28.2789 66.9213 28.6522 67.1942 29.3987 67.7401L38.8785 74.6712C39.625 75.217 39.9983 75.49 40.0963 75.8058C40.1781 76.0696 40.1471 76.3554 40.0109 76.5955C39.8477 76.8832 39.4247 77.07 38.5786 77.4436L27.8363 82.1878C26.9903 82.5614 26.5673 82.7482 26.2447 82.6751C25.9754 82.614 25.7434 82.4444 25.6035 82.2063C25.436 81.9211 25.4858 81.4614 25.5852 80.5419L26.8478 68.8667Z" fill="white"/>
</svg>