<svg width="77" height="63" viewBox="0 0 77 63" fill="none" xmlns="http://www.w3.org/2000/svg">
<path fill-rule="evenodd" clip-rule="evenodd" d="M41.9399 0.875515C42.0281 0.177544 42.7904 -0.213524 43.4088 0.121924L50.6394 4.04414C51.0076 4.24387 51.1808 4.61594 51.1611 4.97847H53.7886C53.9589 4.97847 54.1268 4.98912 54.2915 5.00978C55.8926 4.89739 57.519 5.55641 58.583 6.91526L75.4429 28.4485C76.4643 29.753 76.2348 31.6386 74.9303 32.66L64.9425 40.4802C63.638 41.5016 61.7524 41.2721 60.7309 39.9675L57.7886 36.2096V58.9785C57.7886 61.1876 55.9977 62.9785 53.7886 62.9785H21.7886C19.5794 62.9785 17.7886 61.1876 17.7886 58.9785V36.8531L15.35 39.9676C14.3286 41.2721 12.443 41.5017 11.1384 40.4802L1.15067 32.6601C-0.153878 31.6386 -0.383394 29.7531 0.638034 28.4485L17.498 6.9153C18.4743 5.66834 19.9244 5.01071 21.3938 4.99771C21.5237 4.98498 21.6554 4.97847 21.7886 4.97847H24.9908C25.0581 4.78758 25.1857 4.61306 25.3765 4.48496L31.7024 0.237909C32.3004 -0.163578 33.1139 0.179728 33.2435 0.888254L33.9915 4.97847H41.4212L41.9399 0.875515Z" fill="#415A77"/>
</svg>
