<svg width="71" height="61" viewBox="0 0 71 61" fill="none" xmlns="http://www.w3.org/2000/svg">
<path fill-rule="evenodd" clip-rule="evenodd" d="M23.7927 0.585815H21.8449C21.7072 0.585815 21.571 0.59278 21.4368 0.606377C19.8971 0.501278 18.3451 1.16717 17.3312 2.53715L0.795069 24.8812C-0.190556 26.2131 0.0447931 28.1495 1.32073 29.2065L11.0768 37.2881C12.3527 38.345 14.1861 38.1222 15.1717 36.7904L17.8449 33.1783V56.5499C17.8449 58.7591 19.6358 60.5499 21.8449 60.5499H49.5315C51.7406 60.5499 53.5315 58.7591 53.5315 56.5499V34.5375L55.1987 36.7904C56.1844 38.1222 58.0177 38.345 59.2937 37.2881L69.0497 29.2064C70.3257 28.1495 70.561 26.213 69.5754 24.8812L53.0393 2.53711C52.9033 2.35342 52.7577 2.18238 52.6037 2.02416C51.87 1.14512 50.766 0.585815 49.5315 0.585815H47.2457C47.2457 7.43763 41.9955 12.9921 35.5192 12.9921C29.0429 12.9921 23.7927 7.43763 23.7927 0.585815Z" fill="#415A77"/>
<path fill-rule="evenodd" clip-rule="evenodd" d="M46.5866 5.34973C47.1896 3.828 47.5 2.19703 47.5 0.549928H35.5L23.5 0.549927C23.5 2.19703 23.8104 3.828 24.4134 5.34973C25.0165 6.87145 25.9004 8.25412 27.0147 9.4188C28.129 10.5835 29.4519 11.5074 30.9078 12.1377C32.3637 12.768 33.9241 13.0924 35.5 13.0924C37.0759 13.0924 38.6363 12.768 40.0922 12.1377C41.5481 11.5074 42.871 10.5835 43.9853 9.4188C45.0996 8.25412 45.9835 6.87145 46.5866 5.34973Z" fill="#253547"/>
</svg>
