<svg width="71" height="70" viewBox="0 0 71 70" fill="none" xmlns="http://www.w3.org/2000/svg">
<path fill-rule="evenodd" clip-rule="evenodd" d="M35.8295 24C42.3627 24 47.659 18.6274 47.659 12H50C51.1732 12 52.2285 12.5051 52.9602 13.3097C53.1743 13.5043 53.3746 13.7205 53.558 13.9581L70.1521 35.4572C71.1644 36.7688 70.9334 38.6675 69.6359 39.6979L59.8314 47.4853C58.5339 48.5158 56.6615 48.2879 55.6491 46.9763L54 44.8397V66C54 68.2091 52.2091 70 50 70H22C19.7908 70 18 68.2091 18 66V43.5249L15.3359 46.9763C14.3236 48.288 12.4511 48.5158 11.1537 47.4854L1.34913 39.698C0.0517197 38.6675 -0.179361 36.7689 0.832997 35.4573L17.4271 13.9581C18.4321 12.6561 19.9456 11.9948 21.4622 12.0358C21.6381 12.0122 21.8176 12 22 12H24C24 18.6274 29.2962 24 35.8295 24Z" fill="#415A77"/>
<path d="M47.659 12C47.659 13.5759 47.353 15.1363 46.7585 16.5922C46.1641 18.0481 45.2927 19.371 44.1942 20.4853C43.0958 21.5996 41.7917 22.4835 40.3565 23.0866C38.9212 23.6896 37.383 24 35.8295 24C34.276 24 32.7378 23.6896 31.3025 23.0866C29.8673 22.4835 28.5633 21.5996 27.4648 20.4853C26.3663 19.371 25.495 18.0481 24.9005 16.5922C24.306 15.1363 24 13.5759 24 12L35.8295 12H47.659Z" fill="#304660"/>
</svg>
