<svg width="65" height="69" viewBox="0 0 65 69" fill="none" xmlns="http://www.w3.org/2000/svg">
<path fill-rule="evenodd" clip-rule="evenodd" d="M11 6H42C44.7614 6 47 8.23858 47 11V26.0014C47.0651 26.0005 47.1304 26 47.1958 26C49.2977 26 51.275 26.4973 53 27.3727V11C53 4.92487 48.0751 0 42 0H11C4.92487 0 0 4.92487 0 11V58C0 64.0751 4.92487 69 11 69H29.5082C26.1945 69 23.4293 66.2645 24.3296 63.0754L24.351 63H11C8.23858 63 6 60.7614 6 58V11C6 8.23858 8.23858 6 11 6ZM50 39.5C50 41.433 48.433 43 46.5 43C44.567 43 43 41.433 43 39.5C43 37.567 44.567 36 46.5 36C48.433 36 50 37.567 50 39.5ZM49.9856 48.3402C53.5078 46.9503 56 43.5162 56 39.5C56 34.2533 51.7467 30 46.5 30C41.2533 30 37 34.2533 37 39.5C37 43.5162 39.4922 46.9503 43.0144 48.3402C39.4048 49.0514 36.0548 50.8574 33.4185 53.565C31.3433 55.6963 29.8119 58.2819 28.9164 61.0942C27.9109 64.2517 30.6863 67 34 67H46.5H59C62.3137 67 65.0891 64.2517 64.0836 61.0942C63.1881 58.2819 61.6567 55.6963 59.5815 53.565C56.9452 50.8574 53.5952 49.0514 49.9856 48.3402ZM55.2826 57.7507C56.2149 58.7081 56.9908 59.8056 57.5885 61H46.5H35.4115C36.0092 59.8056 36.7851 58.7081 37.7174 57.7507C40.0746 55.3297 43.2372 54 46.5 54C49.7628 54 52.9254 55.3297 55.2826 57.7507ZM13.9423 12.0006C12.2858 12.0324 10.9687 13.4011 11.0006 15.0577C11.0324 16.7142 12.4011 18.0313 14.0577 17.9994L40.0577 17.4994C41.7142 17.4676 43.0313 16.0989 42.9994 14.4423C42.9676 12.7858 41.5989 11.4687 39.9423 11.5006L13.9423 12.0006ZM11.0004 26.1098C10.9886 24.453 12.3222 23.1004 13.9791 23.0886L38.9784 22.9115C40.6352 22.8998 41.9879 24.2334 41.9996 25.8902C42.0114 27.547 40.6778 28.8996 39.0209 28.9114L14.0216 29.0885C12.3648 29.1002 11.0121 27.7666 11.0004 26.1098ZM14.0018 34.2353C12.345 34.2318 10.999 35.5722 10.9956 37.229C10.9921 38.8859 12.3324 40.2318 13.9893 40.2353L27.9982 40.2647C29.655 40.2682 31.001 38.9278 31.0044 37.271C31.0079 35.6141 29.6676 34.2682 28.0107 34.2647L14.0018 34.2353Z" fill="black"/>
</svg>
