<svg width="87" height="87" viewBox="0 0 87 87" fill="none" xmlns="http://www.w3.org/2000/svg">
    <path d="M41.5244 0.645514C31.1777 1.09473 22.2178 4.82032 14.6299 11.8223C8.38965 17.584 4.06348 25.0107 1.90528 33.668C1.7588 34.2539 1.74903 34.3223 1.79786 34.6738C1.86134 35.1523 2.00782 35.46 2.3252 35.7725C2.62794 36.0801 2.93067 36.2314 3.36524 36.29C3.57032 36.3193 5.96778 36.3291 9.38575 36.3242C15.9238 36.3047 15.3281 36.3535 15.8506 35.8262C16.1338 35.5381 16.1631 35.4844 16.627 34.3809C17.833 31.5098 18.8584 29.249 19.2734 28.5605C20.4648 26.5732 22.2568 24.3418 23.9414 22.75C26.0801 20.7236 28.2139 19.2295 30.9141 17.877C34.3857 16.1338 37.8281 15.2061 41.8027 14.9424C42.8818 14.8691 45.5576 14.9131 46.5879 15.0205C52.7109 15.6455 57.999 17.9746 62.6035 22.0713C62.8574 22.3008 63.0771 22.4912 63.0869 22.501C63.1016 22.5107 61.3096 24.3272 59.1074 26.5342C56.4854 29.1611 55.0352 30.6504 54.9131 30.8359C54.1855 31.959 54.1709 33.4678 54.8691 34.5664C55.4209 35.4258 56.2168 36.0068 57.1348 36.2217C57.4814 36.3047 58.2285 36.3096 70.4648 36.3096C85.0156 36.3096 83.6436 36.3437 84.4541 35.9434C85.4258 35.4648 86.1973 34.5078 86.4072 33.5215C86.5146 33.0137 86.5146 7.47657 86.4072 6.96875C86.168 5.83106 85.1719 4.72754 84.0537 4.35645C82.9795 4 81.8809 4.15625 80.9141 4.80567C80.792 4.88379 79.6396 5.99707 78.3506 7.27637C77.0615 8.55567 75.3672 10.2354 74.5811 11.0117L73.1553 12.4229L72.6768 11.9883C68.0674 7.76954 62.7207 4.65918 56.6709 2.67676C51.8369 1.08985 46.7881 0.416022 41.5244 0.645514Z" fill="black"/>
    <path d="M3.66798 50.6651C2.29591 50.9434 1.16309 52.0567 0.865242 53.4238C0.792 53.7608 0.787117 54.8887 0.796882 66.8272L0.811531 79.8643L0.953132 80.2744C1.35841 81.4268 2.39356 82.3789 3.54102 82.6475C3.92188 82.7402 4.78126 82.7402 5.16212 82.6475C5.53809 82.5596 5.92872 82.3887 6.29005 82.1543C6.47071 82.0371 7.95997 80.5869 10.3184 78.2383L14.0586 74.5029L14.2783 74.6934C14.3955 74.7959 14.8106 75.167 15.1963 75.5137C21.8906 81.5147 30.6504 85.333 39.5566 86.1338C42.0566 86.3584 45.2109 86.3486 47.7842 86.1094C56.6221 85.2891 64.2344 82.0518 71.0508 76.2119C72.9111 74.6152 74.9521 72.5059 76.4902 70.5869C80.4307 65.6748 83.1553 60.1231 84.8447 53.5508C85.084 52.6231 85.1182 52.4424 85.0889 52.208C85.0156 51.6026 84.5859 51.0166 84.0244 50.7578L83.7217 50.6162H72.1494L71.8711 50.7481C71.5391 50.9043 71.2412 51.1973 71.0801 51.5342C71.0166 51.6758 70.6113 52.6133 70.1816 53.6192C68.707 57.0762 68.2822 57.9453 67.4473 59.21C65.2695 62.5108 62.667 65.1279 59.4297 67.2666C56.7197 69.0586 53.6826 70.4063 50.6211 71.1729C49.166 71.5391 47.7402 71.7735 45.9775 71.9395C45.0938 72.0225 42.1885 72.0176 41.3389 71.9395C39.5811 71.7686 38.3799 71.5684 36.8711 71.1924C32.4229 70.0938 28.209 67.8672 24.7324 64.7861L24.2246 64.3369L28.1748 60.3819C31.3193 57.2324 32.1738 56.3487 32.3643 56.0557C33.1357 54.8692 33.0918 53.2969 32.2617 52.1397C31.7002 51.3487 30.9141 50.836 29.9961 50.6602C29.4785 50.5625 4.15626 50.5674 3.66798 50.6651Z" fill="black"/>
</svg>
