<svg width="74" height="52" viewBox="0 0 74 52" fill="none" xmlns="http://www.w3.org/2000/svg">
<path d="M4 22.5C2.067 22.5 0.5 24.067 0.5 26C0.5 27.933 2.067 29.5 4 29.5L4 22.5ZM72.4749 28.4749C73.8417 27.108 73.8417 24.892 72.4749 23.5251L50.201 1.25126C48.8342 -0.11557 46.6181 -0.11557 45.2513 1.25126C43.8844 2.6181 43.8844 4.83418 45.2513 6.20101L65.0502 26L45.2513 45.799C43.8844 47.1658 43.8844 49.3819 45.2513 50.7487C46.6181 52.1156 48.8342 52.1156 50.201 50.7487L72.4749 28.4749ZM4 29.5L70 29.5L70 22.5L4 22.5L4 29.5Z" fill="black"/>
</svg>
