<svg xmlns="http://www.w3.org/2000/svg" fill="none" viewBox="5 14 92 67">
<path fill-rule="evenodd" clip-rule="evenodd" d="M86 19H16C12.6863 19 10 21.6863 10 25V70C10 73.3137 12.6863 76 16 76H86C89.3137 76 92 73.3137 92 70V25C92 21.6863 89.3137 19 86 19ZM16 14C9.92487 14 5 18.9249 5 25V70C5 76.0751 9.92487 81 16 81H86C92.0751 81 97 76.0751 97 70V25C97 18.9249 92.0751 14 86 14H16Z" fill="#1B263B"/>
<path d="M73.1108 62.3977C70.9896 62.3977 69.1004 62.0331 67.4432 61.304C65.7955 60.5653 64.4934 59.5521 63.5369 58.2642C62.59 56.9669 62.1023 55.4706 62.0739 53.7756H68.267C68.3049 54.4858 68.5369 55.1108 68.9631 55.6506C69.3987 56.1809 69.9763 56.5928 70.696 56.8864C71.4157 57.1799 72.2254 57.3267 73.125 57.3267C74.0625 57.3267 74.8911 57.161 75.6108 56.8295C76.3305 56.4981 76.8939 56.0388 77.3011 55.4517C77.7083 54.8646 77.9119 54.1875 77.9119 53.4205C77.9119 52.6439 77.6941 51.9574 77.2585 51.3608C76.8324 50.7547 76.2169 50.2812 75.4119 49.9403C74.6165 49.5994 73.6695 49.429 72.571 49.429H69.858V44.9119H72.571C73.4991 44.9119 74.3182 44.7509 75.0284 44.429C75.7481 44.107 76.3068 43.6619 76.7045 43.0938C77.1023 42.5161 77.3011 41.8438 77.3011 41.0767C77.3011 40.3475 77.1259 39.7083 76.7756 39.1591C76.4347 38.6004 75.9517 38.1648 75.3267 37.8523C74.7112 37.5398 73.9915 37.3835 73.1676 37.3835C72.3343 37.3835 71.572 37.535 70.8807 37.8381C70.1894 38.1316 69.6354 38.553 69.2188 39.1023C68.8021 39.6515 68.5795 40.2955 68.5511 41.0341H62.6562C62.6847 39.358 63.1629 37.8807 64.0909 36.6023C65.0189 35.3239 66.2689 34.3248 67.8409 33.6051C69.4223 32.8759 71.2074 32.5114 73.196 32.5114C75.2036 32.5114 76.9602 32.8759 78.4659 33.6051C79.9716 34.3343 81.1411 35.3191 81.9744 36.5597C82.8172 37.7907 83.2339 39.1733 83.2244 40.7074C83.2339 42.3362 82.7273 43.6951 81.7045 44.7841C80.6913 45.8731 79.3703 46.5644 77.7415 46.858V47.0852C79.8816 47.3598 81.5104 48.1032 82.6278 49.3153C83.7547 50.518 84.3134 52.0237 84.304 53.8324C84.3134 55.4896 83.8352 56.9621 82.8693 58.25C81.9129 59.5379 80.5919 60.5511 78.9062 61.2898C77.2206 62.0284 75.2888 62.3977 73.1108 62.3977Z" fill="#1B263B"/>
<path d="M18.358 62V57.5682L28.7131 47.9801C29.5938 47.1278 30.3324 46.3608 30.929 45.679C31.535 44.9972 31.9943 44.3295 32.3068 43.6761C32.6193 43.0133 32.7756 42.2983 32.7756 41.5312C32.7756 40.679 32.5814 39.9451 32.1932 39.3295C31.8049 38.7045 31.2746 38.2263 30.6023 37.8949C29.9299 37.554 29.1676 37.3835 28.3153 37.3835C27.4252 37.3835 26.6487 37.5634 25.9858 37.9233C25.3229 38.2831 24.8116 38.7992 24.4517 39.4716C24.0919 40.1439 23.9119 40.9441 23.9119 41.8722H18.0739C18.0739 39.9687 18.5047 38.3163 19.3665 36.9148C20.2282 35.5133 21.4356 34.429 22.9886 33.6619C24.5417 32.8949 26.3314 32.5114 28.358 32.5114C30.4413 32.5114 32.2547 32.8807 33.7983 33.6193C35.3513 34.3485 36.5587 35.3617 37.4205 36.6591C38.2822 37.9564 38.7131 39.4432 38.7131 41.1193C38.7131 42.2178 38.4953 43.3021 38.0597 44.3722C37.6335 45.4422 36.8712 46.6307 35.7727 47.9375C34.6742 49.2348 33.1259 50.7926 31.1278 52.6108L26.8807 56.7727V56.9716H39.0966V62H18.358Z" fill="#1B263B"/>
<path d="M50.8097 58.3125C49.9479 58.3125 49.2093 58.0095 48.5938 57.4034C47.9782 56.7973 47.6752 56.0587 47.6847 55.1875C47.6752 54.3352 47.9782 53.6061 48.5938 53C49.2093 52.3939 49.9479 52.0909 50.8097 52.0909C51.643 52.0909 52.3674 52.3939 52.983 53C53.608 53.6061 53.9252 54.3352 53.9347 55.1875C53.9252 55.7652 53.7737 56.2907 53.4801 56.7642C53.196 57.2377 52.8172 57.6165 52.3438 57.9006C51.8797 58.1752 51.3684 58.3125 50.8097 58.3125ZM50.8097 42.7443C49.9479 42.7443 49.2093 42.4413 48.5938 41.8352C47.9782 41.2197 47.6752 40.4811 47.6847 39.6193C47.6752 38.767 47.9782 38.0379 48.5938 37.4318C49.2093 36.8163 49.9479 36.5085 50.8097 36.5085C51.643 36.5085 52.3674 36.8163 52.983 37.4318C53.608 38.0379 53.9252 38.767 53.9347 39.6193C53.9252 40.1875 53.7737 40.7083 53.4801 41.1818C53.196 41.6553 52.8172 42.0341 52.3438 42.3182C51.8797 42.6023 51.3684 42.7443 50.8097 42.7443Z" fill="#1B263B"/>
</svg>