<svg width="115" height="101" viewBox="0 0 115 101" fill="none" xmlns="http://www.w3.org/2000/svg">
<path fill-rule="evenodd" clip-rule="evenodd" d="M101 17H15.2537C11.94 17 9.25372 19.6863 9.25372 23V79.4674C9.25372 82.7811 11.94 85.4674 15.2537 85.4674H101C104.314 85.4674 107 82.7811 107 79.4674V23C107 19.6863 104.314 17 101 17ZM15.2537 12C9.17859 12 4.25372 16.9249 4.25372 23V79.4674C4.25372 85.5425 9.17858 90.4674 15.2537 90.4674H101C107.075 90.4674 112 85.5425 112 79.4674V23C112 16.9249 107.075 12 101 12H15.2537ZM40.4823 69.5384C43.0453 65.0532 44.7576 58.59 44.7576 51.2337C44.7576 43.8774 43.0453 37.4142 40.4823 32.929C37.8547 28.3307 34.8342 26.5404 32.3615 26.5404C29.8887 26.5404 26.8682 28.3307 24.2406 32.929C21.6776 37.4142 19.9653 43.8774 19.9653 51.2337C19.9653 58.59 21.6776 65.0532 24.2406 69.5384C26.8682 74.1367 29.8887 75.927 32.3615 75.927C34.8342 75.927 37.8547 74.1367 40.4823 69.5384ZM32.3615 79.927C41.4168 79.927 48.7576 67.0806 48.7576 51.2337C48.7576 35.3868 41.4168 22.5404 32.3615 22.5404C23.3061 22.5404 15.9653 35.3868 15.9653 51.2337C15.9653 67.0806 23.3061 79.927 32.3615 79.927ZM95.1173 40.1077C95.1173 44.1562 93.8547 47.6743 91.9981 50.096C90.1445 52.5137 87.8644 53.6751 85.649 53.6751C83.4335 53.6751 81.1535 52.5137 79.2999 50.096C77.4432 47.6743 76.1807 44.1562 76.1807 40.1077C76.1807 36.0593 77.4432 32.5412 79.2999 30.1195C81.1535 27.7017 83.4335 26.5404 85.649 26.5404C87.8644 26.5404 90.1445 27.7017 91.9981 30.1195C93.8547 32.5412 95.1173 36.0593 95.1173 40.1077ZM99.1173 40.1077C99.1173 49.8099 93.0873 57.6751 85.649 57.6751C78.2106 57.6751 72.1807 49.8099 72.1807 40.1077C72.1807 30.4056 78.2106 22.5404 85.649 22.5404C93.0873 22.5404 99.1173 30.4056 99.1173 40.1077Z" fill="#1B263B"/>
<line x1="97" y1="40" x2="97" y2="79" stroke="#1B263B" stroke-width="4" stroke-linecap="round"/>
<line x1="61" y1="17" x2="61" y2="86" stroke="#1B263B" stroke-width="4" stroke-linecap="round"/>
</svg>
