<svg width="100" height="100" viewBox="0 0 100 100" fill="none" xmlns="http://www.w3.org/2000/svg">
<path fill-rule="evenodd" clip-rule="evenodd" d="M86 19H16C12.6863 19 10 21.6863 10 25V70C10 73.3137 12.6863 76 16 76H86C89.3137 76 92 73.3137 92 70V25C92 21.6863 89.3137 19 86 19ZM16 14C9.92487 14 5 18.9249 5 25V70C5 76.0751 9.92487 81 16 81H86C92.0751 81 97 76.0751 97 70V25C97 18.9249 92.0751 14 86 14H16Z" fill="#1B263B"/>
<path d="M16.1222 61V57.0114L25.4418 48.3821C26.2344 47.6151 26.8991 46.9247 27.4361 46.3111C27.9815 45.6974 28.3949 45.0966 28.6761 44.5085C28.9574 43.9119 29.098 43.2685 29.098 42.5781C29.098 41.8111 28.9233 41.1506 28.5739 40.5966C28.2244 40.0341 27.7472 39.6037 27.142 39.3054C26.5369 38.9986 25.8509 38.8452 25.0838 38.8452C24.2827 38.8452 23.5838 39.0071 22.9872 39.331C22.3906 39.6548 21.9304 40.1193 21.6065 40.7244C21.2827 41.3295 21.1207 42.0497 21.1207 42.8849H15.8665C15.8665 41.1719 16.2543 39.6847 17.0298 38.4233C17.8054 37.1619 18.892 36.1861 20.2898 35.4957C21.6875 34.8054 23.2983 34.4602 25.1222 34.4602C26.9972 34.4602 28.6293 34.7926 30.0185 35.4574C31.4162 36.1136 32.5028 37.0256 33.2784 38.1932C34.054 39.3608 34.4418 40.6989 34.4418 42.2074C34.4418 43.196 34.2457 44.1719 33.8537 45.1349C33.4702 46.098 32.7841 47.1676 31.7955 48.3438C30.8068 49.5114 29.4134 50.9134 27.6151 52.5497L23.7926 56.2955V56.4744H34.7869V61H16.1222ZM50.3643 57.9574C49.5206 57.9574 48.7962 57.6591 48.1911 57.0625C47.5945 56.4659 47.2962 55.7415 47.2962 54.8892C47.2962 54.054 47.5945 53.3381 48.1911 52.7415C48.7962 52.1449 49.5206 51.8466 50.3643 51.8466C51.1825 51.8466 51.8984 52.1449 52.5121 52.7415C53.1257 53.3381 53.4325 54.054 53.4325 54.8892C53.4325 55.4517 53.2876 55.9673 52.9979 56.4361C52.7166 56.8963 52.3459 57.267 51.8857 57.5483C51.4254 57.821 50.9183 57.9574 50.3643 57.9574ZM50.3643 45.1094C49.5206 45.1094 48.7962 44.8111 48.1911 44.2145C47.5945 43.6179 47.2962 42.8935 47.2962 42.0412C47.2962 41.206 47.5945 40.4943 48.1911 39.9062C48.7962 39.3097 49.5206 39.0114 50.3643 39.0114C51.1825 39.0114 51.8984 39.3097 52.5121 39.9062C53.1257 40.4943 53.4325 41.206 53.4325 42.0412C53.4325 42.6122 53.2876 43.1321 52.9979 43.6009C52.7166 44.0611 52.3459 44.4276 51.8857 44.7003C51.4254 44.973 50.9183 45.1094 50.3643 45.1094ZM75.8622 61.358C73.9531 61.358 72.2528 61.0298 70.7614 60.3736C69.2784 59.7088 68.1065 58.7969 67.2457 57.6378C66.3935 56.4702 65.9545 55.1236 65.929 53.598H71.5028C71.5369 54.2372 71.7457 54.7997 72.1293 55.2855C72.5213 55.7628 73.0412 56.1335 73.6889 56.3977C74.3366 56.6619 75.0653 56.794 75.875 56.794C76.7188 56.794 77.4645 56.6449 78.1122 56.3466C78.7599 56.0483 79.267 55.6349 79.6335 55.1065C80 54.5781 80.1832 53.9687 80.1832 53.2784C80.1832 52.5795 79.9872 51.9616 79.5952 51.4247C79.2116 50.8793 78.6577 50.4531 77.9332 50.1463C77.2173 49.8395 76.3651 49.6861 75.3764 49.6861H72.9347V45.6207H75.3764C76.2116 45.6207 76.9489 45.4759 77.5881 45.1861C78.2358 44.8963 78.7386 44.4957 79.0966 43.9844C79.4545 43.4645 79.6335 42.8594 79.6335 42.169C79.6335 41.5128 79.4759 40.9375 79.1605 40.4432C78.8537 39.9403 78.419 39.5483 77.8565 39.267C77.3026 38.9858 76.6548 38.8452 75.9134 38.8452C75.1634 38.8452 74.4773 38.9815 73.8551 39.2543C73.233 39.5185 72.7344 39.8977 72.3594 40.392C71.9844 40.8864 71.7841 41.4659 71.7585 42.1307H66.4531C66.4787 40.6222 66.9091 39.2926 67.7443 38.142C68.5795 36.9915 69.7045 36.0923 71.1193 35.4446C72.5426 34.7884 74.1491 34.4602 75.9389 34.4602C77.7457 34.4602 79.3267 34.7884 80.6818 35.4446C82.0369 36.1009 83.0895 36.9872 83.8395 38.1037C84.598 39.2116 84.973 40.456 84.9645 41.8366C84.973 43.3026 84.517 44.5256 83.5966 45.5057C82.6847 46.4858 81.4957 47.108 80.0298 47.3722V47.5767C81.956 47.8239 83.4219 48.4929 84.4276 49.5838C85.4418 50.6662 85.9446 52.0213 85.9361 53.6491C85.9446 55.1406 85.5142 56.4659 84.6449 57.625C83.7841 58.7841 82.5952 59.696 81.0781 60.3608C79.5611 61.0256 77.8224 61.358 75.8622 61.358Z" fill="black"/>
</svg>
