<svg fill="none" xmlns="http://www.w3.org/2000/svg" viewBox="18 14 52.82 65.82">
<path fill-rule="evenodd" clip-rule="evenodd" d="M42.2518 55.6066C52.438 55.6066 60.5036 47.5307 60.5036 37.8033C60.5036 28.0759 52.438 20 42.2518 20C32.0655 20 24 28.0759 24 37.8033C24 47.5307 32.0655 55.6066 42.2518 55.6066ZM42.2518 61.6066C45.7908 61.6066 49.1527 60.8626 52.184 59.5253L65.4172 78.5268C66.3641 79.8864 68.2148 80.1944 69.551 79.2146C70.8871 78.2348 71.2026 76.3384 70.2558 74.9788L57.3432 56.4376C62.9253 52.0766 66.5036 45.3501 66.5036 37.8033C66.5036 24.6571 55.6457 14 42.2518 14C28.8579 14 18 24.6571 18 37.8033C18 50.9495 28.8579 61.6066 42.2518 61.6066ZM38.1803 28.7823C39.5298 28.4907 40.3875 27.1603 40.0959 25.8107C39.8043 24.4611 38.4739 23.6035 37.1244 23.8951C31.6269 25.0828 28.4771 27.8706 27.1203 31.2744C25.833 34.5036 26.3483 37.8252 27.1778 39.9203C27.6861 41.2041 29.1388 41.8327 30.4225 41.3244C31.7063 40.8162 32.3349 39.3634 31.8267 38.0797C31.3309 36.8276 31.0709 34.8666 31.7648 33.1259C32.3892 31.5597 33.9771 29.6904 38.1803 28.7823Z" fill="white"/>
</svg>