<svg width="53" height="66" viewBox="0 0 53 66" fill="none" xmlns="http://www.w3.org/2000/svg">
<path fill-rule="evenodd" clip-rule="evenodd" d="M24.2518 41.6066C34.438 41.6066 42.5036 33.5307 42.5036 23.8033C42.5036 14.0759 34.438 6 24.2518 6C14.0655 6 6 14.0759 6 23.8033C6 33.5307 14.0655 41.6066 24.2518 41.6066ZM24.2518 47.6066C27.7908 47.6066 31.1527 46.8626 34.184 45.5253L47.4172 64.5268C48.3641 65.8864 50.2148 66.1944 51.551 65.2146C52.8871 64.2348 53.2026 62.3384 52.2558 60.9788L39.3432 42.4376C44.9253 38.0766 48.5036 31.3501 48.5036 23.8033C48.5036 10.6571 37.6457 0 24.2518 0C10.8579 0 0 10.6571 0 23.8033C0 36.9495 10.8579 47.6066 24.2518 47.6066ZM20.1803 14.7823C21.5298 14.4907 22.3875 13.1603 22.0959 11.8107C21.8043 10.4611 20.4739 9.60347 19.1244 9.89505C13.6269 11.0828 10.4771 13.8706 9.12028 17.2744C7.833 20.5036 8.34828 23.8252 9.17778 25.9203C9.68606 27.2041 11.1388 27.8327 12.4225 27.3244C13.7063 26.8162 14.3349 25.3634 13.8267 24.0797C13.3309 22.8276 13.0709 20.8666 13.7648 19.1259C14.3892 17.5597 15.9771 15.6904 20.1803 14.7823Z" fill="black"/>
</svg>
