<svg width="76" height="69" viewBox="0 0 76 69" fill="none" xmlns="http://www.w3.org/2000/svg">
<path fill-rule="evenodd" clip-rule="evenodd" d="M65 6H34C31.2386 6 29 8.23858 29 11V17H23V11C23 4.92487 27.9249 0 34 0H65C71.0751 0 76 4.92487 76 11V58C76 64.0751 71.0751 69 65 69H34C27.9249 69 23 64.0751 23 58V51H29V58C29 60.7614 31.2386 63 34 63H65C67.7614 63 70 60.7614 70 58V11C70 8.23858 67.7614 6 65 6ZM57.7678 32.2322L41.8579 16.3223C40.8816 15.346 39.2986 15.346 38.3223 16.3223C37.346 17.2986 37.346 18.8816 38.3223 19.8579L49.9645 31.5H-2C-3.38071 31.5 -4.5 32.6193 -4.5 34C-4.5 35.3807 -3.38071 36.5 -2 36.5H49.9645L38.3223 48.1421C37.346 49.1184 37.346 50.7014 38.3223 51.6777C39.2986 52.654 40.8816 52.654 41.8579 51.6777L57.7678 35.7678C58.7441 34.7915 58.7441 33.2085 57.7678 32.2322Z" fill="black"/>
</svg>
