<svg width="78" height="69" viewBox="0 0 78 69" fill="none" xmlns="http://www.w3.org/2000/svg">
<path fill-rule="evenodd" clip-rule="evenodd" d="M42 6H11C8.23858 6 6 8.23858 6 11V58C6 60.7614 8.23858 63 11 63H42C44.7614 63 47 60.7614 47 58V49H53V58C53 64.0751 48.0751 69 42 69H11C4.92487 69 0 64.0751 0 58V11C0 4.92487 4.92487 0 11 0H42C48.0751 0 53 4.92487 53 11V18H47V11C47 8.23858 44.7614 6 42 6ZM76.7678 32.2322L60.8579 16.3223C59.8816 15.346 58.2986 15.346 57.3223 16.3223C56.346 17.2986 56.346 18.8816 57.3223 19.8579L68.9645 31.5H21C19.6193 31.5 18.5 32.6193 18.5 34C18.5 35.3807 19.6193 36.5 21 36.5H68.9645L57.3223 48.1421C56.346 49.1184 56.346 50.7014 57.3223 51.6777C58.2986 52.654 59.8816 52.654 60.8579 51.6777L76.7678 35.7678C77.7441 34.7915 77.7441 33.2085 76.7678 32.2322Z" fill="black"/>
</svg>
