<svg fill="none" xmlns="http://www.w3.org/2000/svg" viewBox="20 46.98 60 5.03">
<rect x="24" y="47" width="52" height="5" fill="white"/>
<rect x="41.5" y="47" width="6" height="5" fill="white"/>
<rect x="52.5" y="47" width="6" height="5" fill="white"/>
<rect x="63.5" y="47" width="6" height="5" fill="white"/>
<path d="M22.05 47C21.7808 47 21.5142 47.0647 21.2655 47.1903C21.0168 47.3159 20.7908 47.5001 20.6004 47.7322C20.4101 47.9644 20.2591 48.24 20.156 48.5433C20.053 48.8466 20 49.1717 20 49.5C20 49.8283 20.053 50.1534 20.156 50.4567C20.2591 50.76 20.4101 51.0356 20.6004 51.2678C20.7908 51.4999 21.0168 51.6841 21.2655 51.8097C21.5142 51.9353 21.7808 52 22.05 52L22.05 49.5V47Z" fill="white"/>
<rect x="22" y="47" width="4" height="5" fill="white"/>
<path d="M77.95 52C78.2192 52 78.4858 51.9353 78.7345 51.8097C78.9832 51.6841 79.2092 51.4999 79.3996 51.2678C79.5899 51.0356 79.7409 50.76 79.844 50.4567C79.947 50.1534 80 49.8283 80 49.5C80 49.1717 79.947 48.8466 79.844 48.5433C79.7409 48.24 79.5899 47.9644 79.3996 47.7322C79.2092 47.5001 78.9832 47.3159 78.7345 47.1903C78.4858 47.0647 78.2192 47 77.95 47L77.95 49.5V52Z" fill="white"/>
<rect x="78" y="52" width="4" height="5" transform="rotate(180 78 52)" fill="white"/>
</svg>