<svg fill="none" xmlns="http://www.w3.org/2000/svg" viewBox="6.5 3.5 86.12 86.12">
<circle cx="49.5584" cy="46.5584" r="37" transform="rotate(0.805542 49.5584 46.5584)" fill="white" stroke="black" stroke-width="6"/>
<rect x="24.4062" y="76.9411" width="32" height="6" transform="rotate(-55 24.4062 76.9411)" fill="black"/>
<rect x="70.121" y="80.8276" width="32" height="6" transform="rotate(-125 70.121 80.8276)" fill="black"/>
<rect x="13.8779" y="31.5505" width="32" height="6" transform="rotate(20 13.8779 31.5505)" fill="black"/>
<rect x="87.9481" y="36.9134" width="32" height="6" transform="rotate(160 87.9481 36.9134)" fill="black"/>
<rect x="52.4495" y="8.72475" width="32" height="6" transform="rotate(90 52.4495 8.72475)" fill="black"/>
<path d="M49.5 29L66.1435 41.0922L59.7862 60.6578L39.2138 60.6578L32.8565 41.0922L49.5 29Z" fill="black"/>
<rect x="85.3837" y="47.3381" width="23.7924" height="3.74671" transform="rotate(-108.454 85.3837 47.3381)" fill="black"/>
<rect x="61.1624" y="12.6039" width="23.7924" height="3.74671" transform="rotate(-179.426 61.1624 12.6039)" fill="black"/>
<path d="M49.4272 23.5776L34.6886 10.7507L64.1165 10.6943L49.4272 23.5776Z" fill="black"/>
<rect x="20.2917" y="67.722" width="23.7924" height="3.74671" transform="rotate(33.8497 20.2917 67.722)" fill="black"/>
<path d="M36.1238 64.9863L41.408 83.7967L16.7743 67.6976L36.1238 64.9863Z" fill="black"/>
<rect x="21.3115" y="25.4485" width="23.7924" height="3.74671" transform="rotate(108.831 21.3115 25.4485)" fill="black"/>
<path d="M28.0563 40.0309L11.2577 50.009L20.4235 22.0449L28.0563 40.0309Z" fill="black"/>
<rect x="59.1135" y="80.1296" width="23.7924" height="3.74671" transform="rotate(-35.101 59.1135 80.1296)" fill="black"/>
<path d="M62.2467 64.3714L81.6999 66.196L57.8273 83.4036L62.2467 64.3714Z" fill="black"/>
<path d="M71.1837 39.8218L78.5047 21.7066L88.1522 49.5082L71.1837 39.8218Z" fill="black"/>
</svg>