<svg width="41" height="28" viewBox="0 0 41 28" fill="none" xmlns="http://www.w3.org/2000/svg">
<path fill-rule="evenodd" clip-rule="evenodd" d="M40.7071 7.2929L34.3431 0.928942C33.9526 0.538417 33.3195 0.538417 32.9289 0.928942C32.5384 1.31947 32.5384 1.95263 32.9289 2.34316L37.5858 7.00001H1V9.00001H37.5858L32.9289 13.6569C32.5384 14.0474 32.5384 14.6806 32.9289 15.0711C33.3195 15.4616 33.9526 15.4616 34.3431 15.0711L40.7071 8.70712C41.0976 8.31659 41.0976 7.68343 40.7071 7.2929ZM0.292894 19.2929C-0.0976306 19.6834 -0.0976306 20.3166 0.292894 20.7071L6.65685 27.0711C7.04738 27.4616 7.68054 27.4616 8.07107 27.0711C8.46159 26.6806 8.46159 26.0474 8.07107 25.6569L3.41421 21H40V19H3.41421L8.07107 14.3432C8.46159 13.9526 8.46159 13.3195 8.07107 12.9289C7.68054 12.5384 7.04738 12.5384 6.65685 12.9289L0.292894 19.2929Z" fill="#253342" fill-opacity="0.6"/>
</svg>
