<svg width="84" height="49" viewBox="0 0 84 49" fill="none" xmlns="http://www.w3.org/2000/svg">
<path fill-rule="evenodd" clip-rule="evenodd" d="M49.5502 12.7333C49.5502 16.6378 45.9981 20.4665 40.7647 20.4665C35.5313 20.4665 31.9791 16.6378 31.9791 12.7333C31.9791 8.82872 35.5313 5 40.7647 5C45.9981 5 49.5502 8.82872 49.5502 12.7333ZM47.893 23.6342C51.8833 21.4033 54.5502 17.356 54.5502 12.7333C54.5502 5.70087 48.3782 0 40.7647 0C33.1511 0 26.9791 5.70087 26.9791 12.7333C26.9791 17.4658 29.7743 21.5954 33.923 23.7902C33.2097 24.021 32.5057 24.2861 31.8134 24.5852C29.5598 25.5587 27.4628 26.877 25.5902 28.493C24.9522 28.0687 24.2902 27.6911 23.608 27.3632C23.0035 27.0726 22.3864 26.8227 21.7599 26.6142C24.5845 24.8571 26.4724 21.6695 26.4724 18.0286C26.4724 12.49 22.1034 8 16.714 8C11.3245 8 6.95554 12.49 6.95554 18.0286C6.95554 21.756 8.93421 25.0084 11.871 26.737C11.366 26.9188 10.8677 27.1276 10.3776 27.3632C8.28032 28.3712 6.37469 29.8486 4.76951 31.7111C3.16432 33.5735 1.89102 35.7846 1.0223 38.2181C0.595522 39.4136 0.270494 40.6513 0.050246 41.9134C-0.329508 44.0897 1.49732 45.8937 3.70646 45.8937H16.9928H17.2493C17.7942 47.2038 19.1685 48.1132 20.7384 48.1132H41.1586H61.5787C63.1486 48.1132 64.5229 47.2038 65.0678 45.8937H66.8337H80.1201C82.3292 45.8937 84.156 44.0897 83.7763 41.9134C83.556 40.6513 83.231 39.4136 82.8042 38.2181C81.9355 35.7846 80.6622 33.5735 79.057 31.7111C77.4518 29.8486 75.5462 28.3712 73.4489 27.3632C72.9588 27.1276 72.4605 26.9188 71.9556 26.737C74.8923 25.0084 76.871 21.756 76.871 18.0286C76.871 12.49 72.502 8 67.1126 8C61.7232 8 57.3542 12.49 57.3542 18.0286C57.3542 21.6695 59.242 24.8571 62.0666 26.6142C61.4401 26.8227 60.8231 27.0726 60.2186 27.3632C59.231 27.8378 58.2859 28.4166 57.3946 29.0906C55.3578 27.2 53.0291 25.6761 50.5038 24.5852C49.6497 24.2163 48.7781 23.899 47.893 23.6342ZM60.7122 32.8577C61.9282 34.5527 62.9396 36.4031 63.7199 38.3676C64.0485 39.1949 64.3344 40.0382 64.5769 40.8937H66.8337H78.4164C78.3191 40.5577 78.212 40.226 78.0953 39.8991C77.423 38.0158 76.4525 36.3478 75.2696 34.9753C74.0877 33.604 72.7253 32.5629 71.2831 31.8697C69.8441 31.1782 68.3348 30.8364 66.8337 30.8364C65.3326 30.8364 63.8234 31.1782 62.3844 31.8697C61.8124 32.1447 61.2529 32.4743 60.7122 32.8577ZM21.4421 31.8697C21.6593 31.9741 21.8747 32.0864 22.088 32.2065C20.6549 34.075 19.4787 36.1485 18.5972 38.3676C18.2686 39.1949 17.9827 40.0382 17.7402 40.8937H16.9928H5.4101C5.50743 40.5577 5.61455 40.226 5.73124 39.8991C6.40359 38.0158 7.37403 36.3478 8.55697 34.9753C9.7388 33.604 11.1013 32.5629 12.5435 31.8697C13.9824 31.1782 15.4917 30.8364 16.9928 30.8364C18.4939 30.8364 20.0032 31.1782 21.4421 31.8697ZM59.073 40.2133C59.4474 41.156 59.7537 42.1254 59.99 43.1132H41.1586H22.3271C22.5634 42.1254 22.8697 41.156 23.2441 40.2133C24.2365 37.7148 25.6859 35.4579 27.4998 33.5663C29.3132 31.6751 31.4547 30.1867 33.7961 29.1753C36.137 28.1641 38.6381 27.6467 41.1586 27.6467C43.679 27.6467 46.1802 28.1641 48.521 29.1753C50.8624 30.1867 53.0039 31.6751 54.8173 33.5663C56.6312 35.4579 58.0806 37.7148 59.073 40.2133ZM16.714 23.0573C19.2141 23.0573 21.4724 20.9355 21.4724 18.0286C21.4724 15.1218 19.2141 13 16.714 13C14.2138 13 11.9555 15.1218 11.9555 18.0286C11.9555 20.9355 14.2138 23.0573 16.714 23.0573ZM62.3542 18.0286C62.3542 20.9355 64.6124 23.0573 67.1126 23.0573C69.6127 23.0573 71.871 20.9355 71.871 18.0286C71.871 15.1218 69.6127 13 67.1126 13C64.6124 13 62.3542 15.1218 62.3542 18.0286Z" fill="#1B263B"/>
</svg>
