<svg width="100" height="100" viewBox="0 0 100 100" fill="none" xmlns="http://www.w3.org/2000/svg">
<rect width="100" height="100" fill="white"/>
<path d="M36.598 40.9776V35.2727H63.4766V40.9776H53.457V68H46.6175V40.9776H36.598Z" fill="#1B263B"/>
<path fill-rule="evenodd" clip-rule="evenodd" d="M72 24H28C24.6863 24 22 26.6863 22 30V74C22 77.3137 24.6863 80 28 80H72C75.3137 80 78 77.3137 78 74V30C78 26.6863 75.3137 24 72 24ZM28 19C21.9249 19 17 23.9249 17 30V74C17 80.0751 21.9249 85 28 85H72C78.0751 85 83 80.0751 83 74V30C83 23.9249 78.0751 19 72 19H28Z" fill="#1B263B"/>
</svg>
