<svg fill="none" xmlns="http://www.w3.org/2000/svg" viewBox="16.47 20.12 66.07 61.9">
<path d="M55 29.5C55 32.5376 52.5376 35 49.5 35C46.4624 35 44 32.5376 44 29.5C44 26.4624 46.4624 24 49.5 24C52.5376 24 55 26.4624 55 29.5Z" fill="white"/>
<path d="M78 71.5C78 74.5376 75.5376 77 72.5 77C69.4624 77 67 74.5376 67 71.5C67 68.4624 69.4624 66 72.5 66C75.5376 66 78 68.4624 78 71.5Z" fill="white"/>
<path d="M32 71.5C32 74.5376 29.5376 77 26.5 77C23.4624 77 21 74.5376 21 71.5C21 68.4624 23.4624 66 26.5 66C29.5376 66 32 68.4624 32 71.5Z" fill="white"/>
<path d="M26.4696 72L49.5 30.1484L72.5304 72H26.4696Z" stroke="white" stroke-width="4"/>
</svg>