<svg width="62" height="64" viewBox="0 0 62 64" fill="none" xmlns="http://www.w3.org/2000/svg">
<path fill-rule="evenodd" clip-rule="evenodd" d="M42 17C42 22.9124 37.0164 28 30.5 28C23.9836 28 19 22.9124 19 17C19 11.0876 23.9836 6 30.5 6C37.0164 6 42 11.0876 42 17ZM39.805 31.4003C44.7282 28.392 48 23.0672 48 17C48 7.61116 40.165 0 30.5 0C20.835 0 13 7.61116 13 17C13 23.2148 16.4329 28.6506 21.5572 31.6157C20.7398 31.9025 19.9322 32.2267 19.1368 32.5881C15.3757 34.2968 11.9583 36.8012 9.07968 39.9584C6.20106 43.1156 3.91762 46.8637 2.35973 50.9888C1.26832 53.8786 0.547982 56.9139 0.214448 60.0076C-0.0223435 62.204 1.79085 64 3.99999 64H31H58C60.2091 64 62.0223 62.204 61.7855 60.0076C61.452 56.9139 60.7317 53.8786 59.6403 50.9888C58.0824 46.8637 55.7989 43.1156 52.9203 39.9584C50.0417 36.8012 46.6243 34.2968 42.8632 32.5881C41.8615 32.133 40.8407 31.7368 39.805 31.4003ZM54.0272 53.1086C54.6244 54.6898 55.0897 56.3272 55.418 58H31H6.58197C6.91032 56.3272 7.37561 54.6898 7.97277 53.1086C9.2714 49.67 11.1623 46.5795 13.5134 44.0009C15.8635 41.4234 18.6231 39.4116 21.6185 38.0508C24.612 36.6908 27.798 36 31 36C34.202 36 37.388 36.6908 40.3815 38.0508C43.3769 39.4116 46.1365 41.4234 48.4866 44.0009C50.8376 46.5795 52.7286 49.67 54.0272 53.1086Z" fill="white"/>
</svg>
