<svg width="89" height="66" viewBox="0 0 89 66" fill="none" xmlns="http://www.w3.org/2000/svg">
<g clip-path="url(#clip0_673_4)">
<rect width="89" height="66" fill="white"/>
<path fill-rule="evenodd" clip-rule="evenodd" d="M8.4849 32.598L17.0828 24.162C32.4573 9.07699 57.1496 9.31168 72.2346 24.6862L80.518 33.1286L71.9202 41.5646C56.5456 56.6496 31.8533 56.4149 16.7683 41.0404L8.4849 32.598ZM0 32.5173L4.28277 28.3152L12.8807 19.8792C30.6205 2.47345 59.1116 2.74424 76.5174 20.4841L84.8008 28.9265L89.0029 33.2092L84.7202 37.4114L76.1223 45.8473C58.3824 63.2531 29.8913 62.9823 12.4855 45.2425L4.20212 36.8001L0 32.5173ZM55 33.5C55 39.299 50.299 44 44.5 44C38.701 44 34 39.299 34 33.5C34 27.701 38.701 23 44.5 23C50.299 23 55 27.701 55 33.5ZM61 33.5C61 42.6127 53.6127 50 44.5 50C35.3873 50 28 42.6127 28 33.5C28 24.3873 35.3873 17 44.5 17C53.6127 17 61 24.3873 61 33.5Z" fill="black"/>
</g>
<defs>
<clipPath id="clip0_673_4">
<rect width="89" height="66" fill="white"/>
</clipPath>
</defs>
</svg>
