<svg width="91" height="53" viewBox="0 0 91 53" fill="none" xmlns="http://www.w3.org/2000/svg">
<path fill-rule="evenodd" clip-rule="evenodd" d="M9.48343 26.2347L18.0813 17.7987C33.4558 2.71371 58.1482 2.94841 73.2332 18.3229L81.5166 26.7653L72.9187 35.2013C57.5442 50.2863 32.8518 50.0516 17.7668 34.6771L9.48343 26.2347ZM0.998535 26.154L5.28131 21.9519L13.8792 13.5159C31.619 -3.88983 60.1102 -3.61903 77.5159 14.1208L85.7993 22.5632L90.0015 26.846L85.7187 31.0481L77.1208 39.4841C59.381 56.8898 30.8898 56.619 13.4841 38.8792L5.20066 30.4368L0.998535 26.154ZM56 26.5C56 31.3988 51.6579 36 45.5 36C39.3421 36 35 31.3988 35 26.5C35 21.6012 39.3421 17 45.5 17C51.6579 17 56 21.6012 56 26.5ZM62 26.5C62 35.0604 54.6127 42 45.5 42C36.3873 42 29 35.0604 29 26.5C29 17.9396 36.3873 11 45.5 11C54.6127 11 62 17.9396 62 26.5Z" fill="black"/>
</svg>
