<svg width="51" height="66" viewBox="0 0 51 66" fill="none" xmlns="http://www.w3.org/2000/svg">
<mask id="path-1-inside-1_43_12" fill="white">
<path fill-rule="evenodd" clip-rule="evenodd" d="M40.6437 37.1584L40.3115 37.4995L25.936 59.3292L11.0009 37.7985L10.6651 37.4686C7.12129 33.9865 5 29.3152 5 24.212C5 13.8425 13.9308 5 25.5 5C37.0692 5 46 13.8425 46 24.212C46 29.1667 44.0011 33.7115 40.6437 37.1584ZM0 24.212C0 30.748 2.72754 36.6791 7.16082 41.0351L23.5147 64.6112C24.7252 66.3561 27.3166 66.3238 28.4852 64.5492L44.2255 40.6471C48.4304 36.33 51 30.556 51 24.212C51 10.8401 39.5833 0 25.5 0C11.4167 0 0 10.8401 0 24.212ZM31 25.5C31 28.3467 28.5095 31 25 31C21.4905 31 19 28.3467 19 25.5C19 22.6533 21.4905 20 25 20C28.5095 20 31 22.6533 31 25.5ZM35 25.5C35 30.7467 30.5228 35 25 35C19.4772 35 15 30.7467 15 25.5C15 20.2533 19.4772 16 25 16C30.5228 16 35 20.2533 35 25.5Z"/>
</mask>
<path d="M40.3115 37.4995L36.0134 33.3131L35.6147 33.7224L35.3005 34.1996L40.3115 37.4995ZM40.6437 37.1584L44.9418 41.3448L44.9419 41.3448L40.6437 37.1584ZM25.936 59.3292L21.006 62.749L26.0652 70.0424L30.947 62.6291L25.936 59.3292ZM11.0009 37.7985L15.9309 34.3787L15.609 33.9146L15.2061 33.5188L11.0009 37.7985ZM10.6651 37.4686L14.8703 33.1889L14.8703 33.1889L10.6651 37.4686ZM7.16082 41.0351L12.0908 37.6153L11.7689 37.1512L11.366 36.7553L7.16082 41.0351ZM23.5147 64.6112L18.5847 68.0309L18.5847 68.0309L23.5147 64.6112ZM28.4852 64.5492L33.4963 67.8491L33.4963 67.8491L28.4852 64.5492ZM44.2255 40.6471L39.9274 36.4607L39.5287 36.87L39.2145 37.3472L44.2255 40.6471ZM44.6096 41.6859L44.9418 41.3448L36.3456 32.972L36.0134 33.3131L44.6096 41.6859ZM30.947 62.6291L45.3225 40.7994L35.3005 34.1996L20.9249 56.0293L30.947 62.6291ZM6.07087 41.2183L21.006 62.749L30.866 55.9094L15.9309 34.3787L6.07087 41.2183ZM6.45995 41.7484L6.7957 42.0783L15.2061 33.5188L14.8703 33.1889L6.45995 41.7484ZM-1 24.212C-1 31.0328 1.84741 37.2162 6.45995 41.7484L14.8703 33.1889C12.3952 30.7568 11 27.5976 11 24.212H-1ZM25.5 -1C10.8911 -1 -1 10.2613 -1 24.212H11C11 17.4238 16.9705 11 25.5 11V-1ZM52 24.212C52 10.2613 40.1089 -1 25.5 -1V11C34.0295 11 40 17.4238 40 24.212H52ZM44.9419 41.3448C49.3174 36.8525 52 30.8322 52 24.212H40C40 27.5011 38.6848 30.5704 36.3456 32.972L44.9419 41.3448ZM11.366 36.7553C8.00005 33.448 6 29.0286 6 24.212H-6C-6 32.4674 -2.54498 39.9101 2.95563 45.3149L11.366 36.7553ZM28.4447 61.1914L12.0908 37.6153L2.2308 44.4549L18.5847 68.0309L28.4447 61.1914ZM23.4742 61.2493C24.639 59.4805 27.2303 59.4407 28.4447 61.1914L18.5847 68.0309C22.22 73.2716 29.9941 73.1672 33.4963 67.8491L23.4742 61.2493ZM39.2145 37.3472L23.4742 61.2493L33.4963 67.8491L49.2365 43.947L39.2145 37.3472ZM45 24.212C45 28.8888 43.1152 33.1878 39.9274 36.4607L48.5236 44.8335C53.7455 39.4723 57 32.2231 57 24.212H45ZM25.5 6C36.5664 6 45 14.443 45 24.212H57C57 7.23717 42.6002 -6 25.5 -6V6ZM6 24.212C6 14.443 14.4336 6 25.5 6V-6C8.39984 -6 -6 7.23717 -6 24.212H6ZM25 37C31.5917 37 37 31.8873 37 25.5H25C25 25.1601 25.1404 25.0089 25.1602 24.9898C25.1791 24.9717 25.1868 24.9712 25.1738 24.9765C25.1652 24.9799 25.1139 25 25 25V37ZM13 25.5C13 31.8873 18.4083 37 25 37V25C24.8861 25 24.8348 24.9799 24.8262 24.9765C24.8132 24.9712 24.8209 24.9717 24.8398 24.9898C24.8596 25.0089 25 25.1601 25 25.5H13ZM25 14C18.4083 14 13 19.1127 13 25.5H25C25 25.8399 24.8596 25.9911 24.8398 26.0102C24.8209 26.0283 24.8132 26.0288 24.8262 26.0235C24.8348 26.0201 24.8861 26 25 26V14ZM37 25.5C37 19.1127 31.5917 14 25 14V26C25.1139 26 25.1652 26.0201 25.1738 26.0235C25.1868 26.0288 25.1791 26.0283 25.1602 26.0102C25.1404 25.9911 25 25.8399 25 25.5H37ZM25 41C33.5428 41 41 34.3467 41 25.5H29C29 27.1467 27.5029 29 25 29V41ZM9 25.5C9 34.3467 16.4572 41 25 41V29C22.4971 29 21 27.1467 21 25.5H9ZM25 10C16.4572 10 9 16.6533 9 25.5H21C21 23.8533 22.4971 22 25 22V10ZM41 25.5C41 16.6533 33.5428 10 25 10V22C27.5029 22 29 23.8533 29 25.5H41Z" fill="white" mask="url(#path-1-inside-1_43_12)"/>
</svg>
