<svg width="58" height="65" viewBox="0 0 58 65" fill="none" xmlns="http://www.w3.org/2000/svg">
<g clip-path="url(#clip0_855_17)">
<path fill-rule="evenodd" clip-rule="evenodd" d="M8 6H45C46.1046 6 47 6.89543 47 8V30.6194H53V8C53 3.58172 49.4183 0 45 0H8C3.58172 0 0 3.58172 0 8V56C0 60.4183 3.58172 64 8 64L32.1521 64V58H8C6.89543 58 6 57.1046 6 56V8C6 6.89543 6.89543 6 8 6Z" fill="#0B2239"/>
<circle cx="50" cy="31" r="3" fill="#0B2239"/>
<circle cx="32" cy="61" r="3" fill="#0B2239"/>
<path fill-rule="evenodd" clip-rule="evenodd" d="M8 6H45C46.1046 6 47 6.89543 47 8V30.6194H53V8C53 3.58172 49.4183 0 45 0H8C3.58172 0 0 3.58172 0 8V56C0 60.4183 3.58172 64 8 64L32.1521 64V58H8C6.89543 58 6 57.1046 6 56V8C6 6.89543 6.89543 6 8 6Z" fill="#0B2239"/>
<circle cx="50" cy="31" r="3" fill="#0B2239"/>
<circle cx="32" cy="61" r="3" fill="#0B2239"/>
<mask id="path-7-inside-1_855_17" fill="white">
<path fill-rule="evenodd" clip-rule="evenodd" d="M17.4841 32.7187L17.4788 32.7127L17.4768 32.7142L17.4676 32.7212L17.464 32.6973L17.4637 32.6954L17.4554 32.686L17.4574 32.6845L17.4616 32.6813L17.4615 32.6807L16.448 25.965L15.4688 19.4762C15.2534 18.0493 16.7247 16.934 18.1844 17.4175L24.8231 19.6163L31.7177 21.8999L31.734 21.9053L31.7348 21.9056L31.7267 21.9117L31.7311 21.9168L31.8225 22.0212L35.6877 26.4382L54.8187 48.2999C58.0705 52.0158 57.5125 57.4408 53.5724 60.417C49.6323 63.3931 43.8021 62.7934 40.5504 59.0775L21.4169 37.2129L17.5258 32.7664L17.4841 32.7187ZM23.1346 30.0648L45.0656 55.1263C46.2454 56.4744 48.5265 56.7091 49.956 55.6293C50.5985 55.144 50.8692 54.5546 50.924 54.0219C50.9788 53.4892 50.8337 52.8572 50.3035 52.2512L28.2772 27.0809L22.3901 25.131L23.1346 30.0648Z"/>
</mask>
<path fill-rule="evenodd" clip-rule="evenodd" d="M17.4841 32.7187L17.4788 32.7127L17.4768 32.7142L17.4676 32.7212L17.464 32.6973L17.4637 32.6954L17.4554 32.686L17.4574 32.6845L17.4616 32.6813L17.4615 32.6807L16.448 25.965L15.4688 19.4762C15.2534 18.0493 16.7247 16.934 18.1844 17.4175L24.8231 19.6163L31.7177 21.8999L31.734 21.9053L31.7348 21.9056L31.7267 21.9117L31.7311 21.9168L31.8225 22.0212L35.6877 26.4382L54.8187 48.2999C58.0705 52.0158 57.5125 57.4408 53.5724 60.417C49.6323 63.3931 43.8021 62.7934 40.5504 59.0775L21.4169 37.2129L17.5258 32.7664L17.4841 32.7187ZM23.1346 30.0648L45.0656 55.1263C46.2454 56.4744 48.5265 56.7091 49.956 55.6293C50.5985 55.144 50.8692 54.5546 50.924 54.0219C50.9788 53.4892 50.8337 52.8572 50.3035 52.2512L28.2772 27.0809L22.3901 25.131L23.1346 30.0648Z" fill="#0B2239"/>
<path d="M17.4788 32.7127L23.4993 27.4445L18.5883 21.8322L12.6456 26.3377L17.4788 32.7127ZM17.4841 32.7187L11.4636 37.9869L11.4637 37.987L17.4841 32.7187ZM17.4768 32.7142L22.3095 39.0895L22.31 39.0892L17.4768 32.7142ZM17.4676 32.7212L9.55714 33.9149L11.5669 47.2329L22.3003 39.0965L17.4676 32.7212ZM17.464 32.6973L9.55346 33.8906L9.55353 33.891L17.464 32.6973ZM17.4637 32.6954L25.3742 31.5021L25.0251 29.1881L23.484 27.4271L17.4637 32.6954ZM17.4554 32.686L12.6333 26.3026L5.77358 31.4847L11.4351 37.9543L17.4554 32.686ZM17.4574 32.6845L12.6356 26.3009L12.6352 26.3011L17.4574 32.6845ZM17.4616 32.6813L22.2834 39.0649L26.0812 36.1962L25.3723 31.4898L17.4616 32.6813ZM17.4615 32.6807L25.3722 31.4891L25.3719 31.4869L17.4615 32.6807ZM16.448 25.965L8.53755 27.1587L8.53755 27.1587L16.448 25.965ZM15.4688 19.4762L7.55832 20.6699L15.4688 19.4762ZM18.1844 17.4175L15.6691 25.0118L18.1844 17.4175ZM24.8231 19.6163L22.3078 27.2106L22.3078 27.2106L24.8231 19.6163ZM31.7177 21.8999L29.2024 29.4942L29.2024 29.4942L31.7177 21.8999ZM31.734 21.9053L34.2498 14.3112L34.2494 14.311L31.734 21.9053ZM31.7348 21.9056L36.5681 28.2805L48.6856 19.0935L34.2506 14.3115L31.7348 21.9056ZM31.7267 21.9117L26.8935 15.5368L20.0545 20.7219L25.7065 27.1803L31.7267 21.9117ZM31.7311 21.9168L37.7515 16.6485L37.7513 16.6483L31.7311 21.9168ZM31.8225 22.0212L25.8021 27.2895L25.8022 27.2896L31.8225 22.0212ZM35.6877 26.4382L41.708 21.1698L41.708 21.1698L35.6877 26.4382ZM54.8187 48.2999L60.8391 43.0316L60.8391 43.0316L54.8187 48.2999ZM53.5724 60.417L58.3942 66.8005L58.3942 66.8005L53.5724 60.417ZM40.5504 59.0775L46.5707 53.8092L46.5707 53.8092L40.5504 59.0775ZM21.4169 37.2129L15.3966 42.4813L15.3966 42.4813L21.4169 37.2129ZM17.5258 32.7664L11.5055 38.0347L11.5055 38.0348L17.5258 32.7664ZM45.0656 55.1263L51.086 49.8579L51.086 49.8579L45.0656 55.1263ZM23.1346 30.0648L15.2242 31.2586L15.5734 33.5723L17.1143 35.3332L23.1346 30.0648ZM49.956 55.6293L54.7778 62.0129L54.7778 62.0128L49.956 55.6293ZM50.924 54.0219L58.882 54.8405L58.882 54.8405L50.924 54.0219ZM50.3035 52.2512L44.2831 57.5195L44.2831 57.5196L50.3035 52.2512ZM28.2772 27.0809L34.2976 21.8126L32.862 20.1721L30.7926 19.4866L28.2772 27.0809ZM22.3901 25.131L24.9054 17.5367L12.5351 13.4395L14.4796 26.3248L22.3901 25.131ZM11.4583 37.9809L11.4636 37.9869L23.5045 27.4505L23.4993 27.4445L11.4583 37.9809ZM22.31 39.0892L22.312 39.0876L12.6456 26.3377L12.6436 26.3393L22.31 39.0892ZM22.3003 39.0965L22.3095 39.0895L12.644 26.3389L12.6348 26.3459L22.3003 39.0965ZM9.55353 33.891L9.55714 33.9149L25.378 31.5274L25.3744 31.5035L9.55353 33.891ZM9.55318 33.8887L9.55346 33.8906L25.3745 31.5039L25.3742 31.5021L9.55318 33.8887ZM11.4351 37.9543L11.4433 37.9637L23.484 27.4271L23.4758 27.4176L11.4351 37.9543ZM12.6352 26.3011L12.6333 26.3026L22.2776 39.0693L22.2796 39.0678L12.6352 26.3011ZM12.6397 26.2977L12.6356 26.3009L22.2792 39.068L22.2834 39.0649L12.6397 26.2977ZM9.5507 33.8722L9.55079 33.8729L25.3723 31.4898L25.3722 31.4891L9.5507 33.8722ZM8.53755 27.1587L9.55103 33.8745L25.3719 31.4869L24.3584 24.7712L8.53755 27.1587ZM7.55832 20.6699L8.53755 27.1587L24.3584 24.7712L23.3792 18.2824L7.55832 20.6699ZM20.6998 9.8232C14.5912 7.79993 6.29767 12.3163 7.55832 20.6699L23.3792 18.2824C23.7572 20.7875 22.5701 22.9391 21.0313 24.1057C19.5242 25.2482 17.5208 25.6251 15.6691 25.0118L20.6998 9.8232ZM27.3384 12.022L20.6998 9.8232L15.6691 25.0118L22.3078 27.2106L27.3384 12.022ZM34.2331 14.3056L27.3384 12.022L22.3078 27.2106L29.2024 29.4942L34.2331 14.3056ZM34.2494 14.311L34.2331 14.3056L29.2024 29.4942L29.2187 29.4996L34.2494 14.311ZM34.2506 14.3115L34.2498 14.3112L29.2183 29.4995L29.219 29.4997L34.2506 14.3115ZM36.5599 28.2867L36.5681 28.2805L26.9016 15.5307L26.8935 15.5368L36.5599 28.2867ZM37.7513 16.6483L37.7469 16.6432L25.7065 27.1803L25.7109 27.1853L37.7513 16.6483ZM37.8429 16.7529L37.7515 16.6485L25.7107 27.1851L25.8021 27.2895L37.8429 16.7529ZM41.708 21.1698L37.8428 16.7529L25.8022 27.2896L29.6674 31.7065L41.708 21.1698ZM60.8391 43.0316L41.708 21.1698L29.6674 31.7065L48.7984 53.5683L60.8391 43.0316ZM58.3942 66.8005C66.0406 61.0248 67.1496 50.2429 60.8391 43.0316L48.7984 53.5683C48.8948 53.6785 48.9207 53.7498 48.9275 53.7713C48.9359 53.7974 48.9351 53.8112 48.9345 53.8173C48.9338 53.8234 48.9318 53.8371 48.9183 53.8609C48.9072 53.8806 48.8674 53.9451 48.7505 54.0334L58.3942 66.8005ZM34.53 64.3458C40.5444 71.2187 51.1066 72.3052 58.3942 66.8005L48.7505 54.0334C48.5189 54.2084 48.128 54.3508 47.6218 54.2987C47.1157 54.2467 46.7619 54.0277 46.5707 53.8092L34.53 64.3458ZM15.3966 42.4813L34.53 64.3458L46.5707 53.8092L27.4373 31.9446L15.3966 42.4813ZM11.5055 38.0348L15.3966 42.4813L27.4373 31.9446L23.5462 27.4981L11.5055 38.0348ZM11.4637 37.987L11.5055 38.0347L23.5462 27.4981L23.5044 27.4504L11.4637 37.987ZM51.086 49.8579L29.155 24.7965L17.1143 35.3332L39.0453 60.3946L51.086 49.8579ZM45.1342 49.2457C46.265 48.3915 47.4298 48.2473 48.2357 48.3302C49.0417 48.4131 50.1527 48.7914 51.086 49.8579L39.0453 60.3946C42.9877 64.8997 50.0009 65.6211 54.7778 62.0129L45.1342 49.2457ZM42.966 53.2034C43.1388 51.5232 44.0062 50.0977 45.1342 49.2457L54.7778 62.0128C57.1908 60.1902 58.5996 57.586 58.882 54.8405L42.966 53.2034ZM44.2831 57.5196C43.3522 56.4557 42.7931 54.8835 42.966 53.2034L58.882 54.8405C59.1644 52.095 58.3153 49.2586 56.3238 46.9828L44.2831 57.5196ZM22.2569 32.3493L44.2831 57.5195L56.3238 46.9829L34.2976 21.8126L22.2569 32.3493ZM19.8747 32.7253L25.7619 34.6752L30.7926 19.4866L24.9054 17.5367L19.8747 32.7253ZM31.0451 28.871L30.3005 23.9372L14.4796 26.3248L15.2242 31.2586L31.0451 28.871Z" fill="#0B2239" mask="url(#path-7-inside-1_855_17)"/>
</g>
<defs>
<clipPath id="clip0_855_17">
<rect width="58" height="65" fill="white"/>
</clipPath>
</defs>
</svg>
