<svg width="79" height="94" viewBox="0 0 79 94" fill="none" xmlns="http://www.w3.org/2000/svg">
<g clip-path="url(#clip0_722_138)">
<path d="M41.875 93C40.8333 93 40.3125 92.4271 40.3125 91.2812V49.9062C40.3125 48.7604 40.8333 48.1875 41.875 48.1875H54.0625C61.1458 48.1875 65.9167 49.3333 68.375 51.625C70.8333 53.9167 72.0625 56.6771 72.0625 59.9062C72.0625 62.4688 71.0417 64.6458 69 66.4375C66.9583 68.2083 64.9792 69.25 63.0625 69.5625V69.6562C65.1667 69.8438 67.5104 70.8958 70.0938 72.8125C72.6979 74.7083 74 77.2917 74 80.5625C74 84.1042 72.6875 87.0625 70.0625 89.4375C67.4583 91.8125 62.6458 93 55.625 93H41.875ZM46.3125 87.875H54.625C59.1042 87.875 62.3854 87.3229 64.4688 86.2188C66.5521 85.1146 67.5938 83.1667 67.5938 80.375C67.5938 77.7917 66.5312 75.7917 64.4062 74.375C62.3021 72.9583 59.0417 72.25 54.625 72.25H46.3125V87.875ZM46.3125 67.75H54.1562C57.6354 67.75 60.4688 67.0104 62.6562 65.5312C64.8646 64.0312 65.9688 62.1562 65.9688 59.9062C65.9688 57.7604 65.1458 56.125 63.5 55C61.8542 53.875 58.7396 53.3125 54.1562 53.3125H46.3125V67.75Z" fill="#1B263B"/>
<path d="M68.375 51.625L67.6931 52.3565L68.375 51.625ZM69 66.4375L69.6552 67.1929L69.6596 67.1891L69 66.4375ZM63.0625 69.5625L62.9016 68.5755L62.0625 68.7123V69.5625H63.0625ZM63.0625 69.6562H62.0625V70.5711L62.9737 70.6523L63.0625 69.6562ZM70.0938 72.8125L69.4979 73.6156L69.5052 73.621L70.0938 72.8125ZM70.0625 89.4375L69.3916 88.696L69.3887 88.6986L70.0625 89.4375ZM46.3125 87.875H45.3125V88.875H46.3125V87.875ZM64.4062 74.375L63.8478 75.2045L63.8515 75.2071L64.4062 74.375ZM46.3125 72.25V71.25H45.3125V72.25H46.3125ZM46.3125 67.75H45.3125V68.75H46.3125V67.75ZM62.6562 65.5312L63.2164 66.3596L63.2181 66.3585L62.6562 65.5312ZM46.3125 53.3125V52.3125H45.3125V53.3125H46.3125ZM41.875 92C41.5342 92 41.4549 91.9107 41.4431 91.8976C41.4148 91.8665 41.3125 91.7224 41.3125 91.2812H39.3125C39.3125 91.986 39.4706 92.7012 39.9632 93.243C40.4722 93.8029 41.1742 94 41.875 94V92ZM41.3125 91.2812V49.9062H39.3125V91.2812H41.3125ZM41.3125 49.9062C41.3125 49.4651 41.4148 49.321 41.4431 49.2899C41.4549 49.2768 41.5342 49.1875 41.875 49.1875V47.1875C41.1742 47.1875 40.4722 47.3846 39.9632 47.9445C39.4706 48.4863 39.3125 49.2015 39.3125 49.9062H41.3125ZM41.875 49.1875H54.0625V47.1875H41.875V49.1875ZM54.0625 49.1875C57.557 49.1875 60.4362 49.4708 62.7196 50.0192C65.0093 50.5692 66.6351 51.3701 67.6931 52.3565L69.0569 50.8935C67.6566 49.5882 65.6678 48.6704 63.1867 48.0745C60.6992 47.4771 57.6514 47.1875 54.0625 47.1875V49.1875ZM67.6931 52.3565C69.9579 54.4677 71.0625 56.967 71.0625 59.9062H73.0625C73.0625 56.3872 71.7088 53.3656 69.0569 50.8935L67.6931 52.3565ZM71.0625 59.9062C71.0625 62.1619 70.1804 64.0712 68.3404 65.6859L69.6596 67.1891C71.9029 65.2205 73.0625 62.7756 73.0625 59.9062H71.0625ZM68.3448 65.6821C66.3906 67.377 64.5769 68.3024 62.9016 68.5755L63.2234 70.5495C65.3814 70.1976 67.526 69.0397 69.6552 67.1929L68.3448 65.6821ZM62.0625 69.5625V69.6562H64.0625V69.5625H62.0625ZM62.9737 70.6523C64.8222 70.817 66.991 71.7556 69.4979 73.6156L70.6896 72.0094C68.0298 70.036 65.5111 68.8705 63.1513 68.6602L62.9737 70.6523ZM69.5052 73.621C71.8461 75.3252 73 77.6056 73 80.5625H75C75 76.9777 73.5497 74.0915 70.6823 72.004L69.5052 73.621ZM73 80.5625C73 83.8218 71.8069 86.5107 69.3916 88.696L70.7334 90.179C73.5681 87.6143 75 84.3866 75 80.5625H73ZM69.3887 88.6986C67.0811 90.8031 62.6088 92 55.625 92V94C62.6828 94 67.8356 92.8219 70.7363 90.1764L69.3887 88.6986ZM55.625 92H41.875V94H55.625V92ZM46.3125 88.875H54.625V86.875H46.3125V88.875ZM54.625 88.875C59.1454 88.875 62.6306 88.3248 64.937 87.1023L64.0005 85.3352C62.1403 86.3211 59.0629 86.875 54.625 86.875V88.875ZM64.937 87.1023C67.4142 85.7894 68.5938 83.4548 68.5938 80.375H66.5938C66.5938 82.8785 65.69 84.4397 64.0005 85.3352L64.937 87.1023ZM68.5938 80.375C68.5938 77.462 67.368 75.1476 64.961 73.5429L63.8515 75.2071C65.6945 76.4357 66.5938 78.1214 66.5938 80.375H68.5938ZM64.9647 73.5455C62.6132 71.9623 59.1105 71.25 54.625 71.25V73.25C58.9728 73.25 61.9909 73.9544 63.8478 75.2045L64.9647 73.5455ZM54.625 71.25H46.3125V73.25H54.625V71.25ZM45.3125 72.25V87.875H47.3125V72.25H45.3125ZM46.3125 68.75H54.1562V66.75H46.3125V68.75ZM54.1562 68.75C57.7726 68.75 60.8184 67.9812 63.2164 66.3596L62.0961 64.7029C60.1191 66.0397 57.4982 66.75 54.1562 66.75V68.75ZM63.2181 66.3585C65.6418 64.7122 66.9688 62.5527 66.9688 59.9062H64.9688C64.9688 61.7598 64.0874 63.3503 62.0944 64.704L63.2181 66.3585ZM66.9688 59.9062C66.9688 57.46 66.0065 55.502 64.0643 54.1744L62.9357 55.8256C64.2852 56.748 64.9688 58.0609 64.9688 59.9062H66.9688ZM64.0643 54.1744C63.0768 53.4994 61.7309 53.0435 60.1074 52.7503C58.4719 52.4549 56.4836 52.3125 54.1562 52.3125V54.3125C56.4123 54.3125 58.2729 54.4513 59.752 54.7185C61.2431 54.9877 62.2774 55.3756 62.9357 55.8256L64.0643 54.1744ZM54.1562 52.3125H46.3125V54.3125H54.1562V52.3125ZM45.3125 53.3125V67.75H47.3125V53.3125H45.3125Z" fill="#1B263B"/>
<path d="M7.875 46C6.83333 46 6.3125 45.4271 6.3125 44.2812V2.90625C6.3125 1.76042 6.83333 1.1875 7.875 1.1875H21C28.0833 1.1875 32.8646 2.38542 35.3438 4.78125C37.8229 7.15625 39.0625 10.4271 39.0625 14.5938C39.0625 18.7604 37.8229 22.0417 35.3438 24.4375C32.8646 26.8125 28.0833 28 21 28H12.3125V44.2812C12.3125 45.4271 11.7917 46 10.75 46H7.875ZM12.3125 22.875H21.0938C25.6771 22.875 28.8021 22.2292 30.4688 20.9375C32.1354 19.625 32.9688 17.5104 32.9688 14.5938C32.9688 11.6771 32.1354 9.57292 30.4688 8.28125C28.8021 6.96875 25.6771 6.3125 21.0938 6.3125H12.3125V22.875Z" fill="#1B263B"/>
<path d="M35.3438 4.78125L34.6488 5.50035L34.652 5.50336L35.3438 4.78125ZM35.3438 24.4375L36.0355 25.1596L36.0387 25.1566L35.3438 24.4375ZM12.3125 28V27H11.3125V28H12.3125ZM12.3125 22.875H11.3125V23.875H12.3125V22.875ZM30.4688 20.9375L31.0813 21.7279L31.0874 21.7231L30.4688 20.9375ZM30.4688 8.28125L29.85 9.06691L29.8562 9.07166L30.4688 8.28125ZM12.3125 6.3125V5.3125H11.3125V6.3125H12.3125ZM7.875 45C7.53417 45 7.4549 44.9107 7.44307 44.8976C7.41479 44.8665 7.3125 44.7224 7.3125 44.2812H5.3125C5.3125 44.986 5.47062 45.7012 5.96318 46.243C6.47218 46.8029 7.17416 47 7.875 47V45ZM7.3125 44.2812V2.90625H5.3125V44.2812H7.3125ZM7.3125 2.90625C7.3125 2.46515 7.41479 2.32096 7.44307 2.28986C7.4549 2.27684 7.53417 2.1875 7.875 2.1875V0.1875C7.17416 0.1875 6.47218 0.384617 5.96318 0.944515C5.47062 1.48633 5.3125 2.20152 5.3125 2.90625H7.3125ZM7.875 2.1875H21V0.1875H7.875V2.1875ZM21 2.1875C28.057 2.1875 32.4745 3.3991 34.6488 5.50034L36.0387 4.06216C33.2547 1.37173 28.1097 0.1875 21 0.1875V2.1875ZM34.652 5.50336C36.8932 7.65046 38.0625 10.6372 38.0625 14.5938H40.0625C40.0625 10.217 38.7526 6.66204 36.0355 4.05914L34.652 5.50336ZM38.0625 14.5938C38.0625 18.55 36.8933 21.5494 34.6488 23.7184L36.0387 25.1566C38.7525 22.5339 40.0625 18.9708 40.0625 14.5938H38.0625ZM34.652 23.7154C33.5815 24.7409 31.948 25.57 29.6574 26.1389C27.3717 26.7066 24.4926 27 21 27V29C24.5908 29 27.6439 28.6997 30.1395 28.0799C32.6301 27.4613 34.6268 26.5091 36.0355 25.1596L34.652 23.7154ZM21 27H12.3125V29H21V27ZM11.3125 28V44.2812H13.3125V28H11.3125ZM11.3125 44.2812C11.3125 44.7224 11.2102 44.8665 11.1819 44.8976C11.1701 44.9107 11.0908 45 10.75 45V47C11.4508 47 12.1528 46.8029 12.6618 46.243C13.1544 45.7012 13.3125 44.986 13.3125 44.2812H11.3125ZM10.75 45H7.875V47H10.75V45ZM12.3125 23.875H21.0938V21.875H12.3125V23.875ZM21.0938 23.875C23.4267 23.875 25.4264 23.7111 27.0774 23.3699C28.7194 23.0306 30.0815 22.5028 31.0813 21.7279L29.8562 20.1471C29.1893 20.6639 28.1556 21.1048 26.6726 21.4113C25.1986 21.716 23.3442 21.875 21.0938 21.875V23.875ZM31.0874 21.7231C33.0768 20.1565 33.9688 17.6948 33.9688 14.5938H31.9688C31.9688 17.3261 31.194 19.0935 29.8501 20.1519L31.0874 21.7231ZM33.9688 14.5938C33.9688 11.4939 33.0772 9.03764 31.0813 7.49084L29.8562 9.07166C31.1936 10.1082 31.9688 11.8602 31.9688 14.5938H33.9688ZM31.0874 7.49561C30.0874 6.70812 28.7242 6.1712 27.0805 5.82603C25.4283 5.47906 23.4274 5.3125 21.0938 5.3125V7.3125C23.3435 7.3125 25.1967 7.47407 26.6695 7.78334C28.1508 8.09442 29.1834 8.54188 29.8501 9.06689L31.0874 7.49561ZM21.0938 5.3125H12.3125V7.3125H21.0938V5.3125ZM11.3125 6.3125V22.875H13.3125V6.3125H11.3125Z" fill="#1B263B"/>
<path d="M78.0581 25.1827C79.2636 24.0461 79.3194 22.1474 78.1827 20.9419L59.6599 1.29743C58.5233 0.0919473 56.6246 0.0361481 55.4191 1.1728C54.2136 2.30944 54.1578 4.20812 55.2945 5.4136L71.7592 22.8754L54.2974 39.3401C53.0919 40.4767 53.0361 42.3754 54.1728 43.5809C55.3095 44.7864 57.2081 44.8422 58.4136 43.7055L78.0581 25.1827ZM34.2367 40.351L32.2082 38.1408L34.2367 40.351ZM0.18391 88.9658C-0.387281 90.5211 0.410483 92.2449 1.96577 92.8161C3.52105 93.3873 5.2449 92.5895 5.81609 91.0342L0.18391 88.9658ZM76.0881 20.0013C60.6536 19.5477 45.5009 25.9407 32.2082 38.1408L36.2653 42.5612C48.6534 31.1913 62.3462 25.6 75.9119 25.9987L76.0881 20.0013ZM32.2082 38.1408C18.9338 50.3241 7.91486 67.9153 0.18391 88.9658L5.81609 91.0342C13.3028 70.6489 23.8588 53.948 36.2653 42.5612L32.2082 38.1408Z" fill="#7A95B5"/>
</g>
<defs>
<clipPath id="clip0_722_138">
<rect width="79" height="94" fill="white"/>
</clipPath>
</defs>
</svg>
