<svg width="201" height="106" viewBox="0 0 201 106" fill="none" xmlns="http://www.w3.org/2000/svg">
<g clip-path="url(#clip0_720_27)">
<mask id="path-1-outside-1_720_27" maskUnits="userSpaceOnUse" x="44.3125" y="56.875" width="141" height="49" fill="black">
<rect fill="white" x="44.3125" y="56.875" width="141" height="49"/>
<path fill-rule="evenodd" clip-rule="evenodd" d="M45.3125 66.8122V102.281C45.3125 103.427 45.8333 104 46.875 104H60.625C67.6458 104 72.4583 102.812 75.0625 100.438C77.6875 98.0625 79 95.1042 79 91.5625C79 88.2917 77.6979 85.7083 75.0938 83.8125C72.5104 81.8958 70.1667 80.8438 68.0625 80.6562V80.5625C69.9792 80.25 71.9583 79.2083 74 77.4375C76.0417 75.6458 77.0625 73.4688 77.0625 70.9062C77.0625 67.6771 75.8333 64.9167 73.375 62.625C71.6611 61.0273 68.823 59.9865 64.861 59.5027C60.1669 60.991 55.6485 62.5974 51.3174 64.3125H59.1562C63.7396 64.3125 66.8542 64.875 68.5 66C70.1458 67.125 70.9688 68.7604 70.9688 70.9062C70.9688 73.1562 69.8646 75.0312 67.6562 76.5312C65.4688 78.0104 62.6354 78.75 59.1562 78.75H51.3125V64.3145C49.2704 65.1232 47.27 65.9561 45.3125 66.8122ZM59.625 98.875H51.3125V83.25H59.625C64.0417 83.25 67.3021 83.9583 69.4062 85.375C71.5312 86.7917 72.5938 88.7917 72.5938 91.375C72.5938 94.1667 71.5521 96.1146 69.4688 97.2188C67.3854 98.3229 64.1042 98.875 59.625 98.875ZM88.9688 75.4688C86.3854 78.6562 85.0938 82.6979 85.0938 87.5938C85.0938 92.4896 86.3854 96.5417 88.9688 99.75C91.5729 102.938 95.375 104.531 100.375 104.531C105.375 104.531 109.167 102.938 111.75 99.75C114.354 96.5417 115.656 92.4896 115.656 87.5938C115.656 82.6979 114.354 78.6562 111.75 75.4688C109.167 72.2604 105.375 70.6562 100.375 70.6562C95.375 70.6562 91.5729 72.2604 88.9688 75.4688ZM93.5 97.3125C91.7708 95.2083 90.9062 91.9688 90.9062 87.5938C90.9062 83.2188 91.7708 79.9792 93.5 77.875C95.2292 75.7708 97.5208 74.7188 100.375 74.7188C103.229 74.7188 105.521 75.7708 107.25 77.875C108.979 79.9792 109.844 83.2188 109.844 87.5938C109.844 91.9688 108.979 95.2083 107.25 97.3125C105.521 99.4167 103.229 100.469 100.375 100.469C97.5208 100.469 95.2292 99.4167 93.5 97.3125ZM124.844 75.4688C122.26 78.6562 120.969 82.6979 120.969 87.5938C120.969 92.4896 122.26 96.5417 124.844 99.75C127.448 102.938 131.25 104.531 136.25 104.531C141.25 104.531 145.042 102.938 147.625 99.75C150.229 96.5417 151.531 92.4896 151.531 87.5938C151.531 82.6979 150.229 78.6562 147.625 75.4688C145.042 72.2604 141.25 70.6562 136.25 70.6562C131.25 70.6562 127.448 72.2604 124.844 75.4688ZM129.375 97.3125C127.646 95.2083 126.781 91.9688 126.781 87.5938C126.781 83.2188 127.646 79.9792 129.375 77.875C131.104 75.7708 133.396 74.7188 136.25 74.7188C139.104 74.7188 141.396 75.7708 143.125 77.875C144.854 79.9792 145.719 83.2188 145.719 87.5938C145.719 91.9688 144.854 95.2083 143.125 97.3125C141.396 99.4167 139.104 100.469 136.25 100.469C133.396 100.469 131.104 99.4167 129.375 97.3125ZM158.625 102.594C158.625 103.531 159.094 104 160.031 104H162.719C163.656 104 164.125 103.531 164.125 102.594V94.4375L168.844 88.8125L177.844 102.844C178.344 103.615 178.938 104 179.625 104H182.688C184.021 104 184.292 103.385 183.5 102.156L172.281 84.7188L182.094 73.0312C183.135 71.8021 182.865 71.1875 181.281 71.1875H178.438C177.792 71.1875 177.24 71.4583 176.781 72L164.125 87.1562H164.062C164.104 86.5312 164.125 85.9062 164.125 85.2812V59.2812C164.125 58.3438 163.656 57.875 162.719 57.875H160.031C159.094 57.875 158.625 58.3438 158.625 59.2812V102.594Z"/>
</mask>
<path fill-rule="evenodd" clip-rule="evenodd" d="M45.3125 66.8122V102.281C45.3125 103.427 45.8333 104 46.875 104H60.625C67.6458 104 72.4583 102.812 75.0625 100.438C77.6875 98.0625 79 95.1042 79 91.5625C79 88.2917 77.6979 85.7083 75.0938 83.8125C72.5104 81.8958 70.1667 80.8438 68.0625 80.6562V80.5625C69.9792 80.25 71.9583 79.2083 74 77.4375C76.0417 75.6458 77.0625 73.4688 77.0625 70.9062C77.0625 67.6771 75.8333 64.9167 73.375 62.625C71.6611 61.0273 68.823 59.9865 64.861 59.5027C60.1669 60.991 55.6485 62.5974 51.3174 64.3125H59.1562C63.7396 64.3125 66.8542 64.875 68.5 66C70.1458 67.125 70.9688 68.7604 70.9688 70.9062C70.9688 73.1562 69.8646 75.0312 67.6562 76.5312C65.4688 78.0104 62.6354 78.75 59.1562 78.75H51.3125V64.3145C49.2704 65.1232 47.27 65.9561 45.3125 66.8122ZM59.625 98.875H51.3125V83.25H59.625C64.0417 83.25 67.3021 83.9583 69.4062 85.375C71.5312 86.7917 72.5938 88.7917 72.5938 91.375C72.5938 94.1667 71.5521 96.1146 69.4688 97.2188C67.3854 98.3229 64.1042 98.875 59.625 98.875ZM88.9688 75.4688C86.3854 78.6562 85.0938 82.6979 85.0938 87.5938C85.0938 92.4896 86.3854 96.5417 88.9688 99.75C91.5729 102.938 95.375 104.531 100.375 104.531C105.375 104.531 109.167 102.938 111.75 99.75C114.354 96.5417 115.656 92.4896 115.656 87.5938C115.656 82.6979 114.354 78.6562 111.75 75.4688C109.167 72.2604 105.375 70.6562 100.375 70.6562C95.375 70.6562 91.5729 72.2604 88.9688 75.4688ZM93.5 97.3125C91.7708 95.2083 90.9062 91.9688 90.9062 87.5938C90.9062 83.2188 91.7708 79.9792 93.5 77.875C95.2292 75.7708 97.5208 74.7188 100.375 74.7188C103.229 74.7188 105.521 75.7708 107.25 77.875C108.979 79.9792 109.844 83.2188 109.844 87.5938C109.844 91.9688 108.979 95.2083 107.25 97.3125C105.521 99.4167 103.229 100.469 100.375 100.469C97.5208 100.469 95.2292 99.4167 93.5 97.3125ZM124.844 75.4688C122.26 78.6562 120.969 82.6979 120.969 87.5938C120.969 92.4896 122.26 96.5417 124.844 99.75C127.448 102.938 131.25 104.531 136.25 104.531C141.25 104.531 145.042 102.938 147.625 99.75C150.229 96.5417 151.531 92.4896 151.531 87.5938C151.531 82.6979 150.229 78.6562 147.625 75.4688C145.042 72.2604 141.25 70.6562 136.25 70.6562C131.25 70.6562 127.448 72.2604 124.844 75.4688ZM129.375 97.3125C127.646 95.2083 126.781 91.9688 126.781 87.5938C126.781 83.2188 127.646 79.9792 129.375 77.875C131.104 75.7708 133.396 74.7188 136.25 74.7188C139.104 74.7188 141.396 75.7708 143.125 77.875C144.854 79.9792 145.719 83.2188 145.719 87.5938C145.719 91.9688 144.854 95.2083 143.125 97.3125C141.396 99.4167 139.104 100.469 136.25 100.469C133.396 100.469 131.104 99.4167 129.375 97.3125ZM158.625 102.594C158.625 103.531 159.094 104 160.031 104H162.719C163.656 104 164.125 103.531 164.125 102.594V94.4375L168.844 88.8125L177.844 102.844C178.344 103.615 178.938 104 179.625 104H182.688C184.021 104 184.292 103.385 183.5 102.156L172.281 84.7188L182.094 73.0312C183.135 71.8021 182.865 71.1875 181.281 71.1875H178.438C177.792 71.1875 177.24 71.4583 176.781 72L164.125 87.1562H164.062C164.104 86.5312 164.125 85.9062 164.125 85.2812V59.2812C164.125 58.3438 163.656 57.875 162.719 57.875H160.031C159.094 57.875 158.625 58.3438 158.625 59.2812V102.594Z" fill="#1B263B"/>
<path d="M45.3125 66.8122L44.9118 65.896L44.3125 66.1581V66.8122H45.3125ZM75.0625 100.438L74.3916 99.696L74.3887 99.6986L75.0625 100.438ZM75.0938 83.8125L74.4979 84.6156L74.5052 84.621L75.0938 83.8125ZM68.0625 80.6562H67.0625V81.5711L67.9737 81.6523L68.0625 80.6562ZM68.0625 80.5625L67.9016 79.5755L67.0625 79.7123V80.5625H68.0625ZM74 77.4375L74.6552 78.1929L74.6596 78.1891L74 77.4375ZM73.375 62.625L74.0569 61.8935L74.0569 61.8935L73.375 62.625ZM64.861 59.5027L64.9822 58.5101L64.7662 58.4837L64.5587 58.5494L64.861 59.5027ZM51.3174 64.3125L50.9493 63.3827L51.3174 65.3125V64.3125ZM67.6562 76.5312L68.2164 77.3596L68.2181 77.3585L67.6562 76.5312ZM51.3125 78.75H50.3125V79.75H51.3125V78.75ZM51.3125 64.3145H52.3125V62.8429L50.9443 63.3847L51.3125 64.3145ZM51.3125 98.875H50.3125V99.875H51.3125V98.875ZM51.3125 83.25V82.25H50.3125V83.25H51.3125ZM69.4062 85.375L68.8478 86.2045L68.8515 86.2071L69.4062 85.375ZM88.9688 75.4688L88.1923 74.8385L88.1919 74.8391L88.9688 75.4688ZM88.9688 99.75L88.1898 100.377L88.1943 100.383L88.9688 99.75ZM111.75 99.75L110.974 99.1198L110.973 99.1204L111.75 99.75ZM111.75 75.4688L110.971 76.0959L110.976 76.1014L111.75 75.4688ZM124.844 75.4688L124.067 74.8385L124.067 74.8391L124.844 75.4688ZM124.844 99.75L124.065 100.377L124.069 100.383L124.844 99.75ZM147.625 99.75L146.849 99.1198L146.848 99.1204L147.625 99.75ZM147.625 75.4688L146.846 76.0959L146.851 76.1014L147.625 75.4688ZM164.125 94.4375L163.359 93.7948L163.125 94.0736V94.4375H164.125ZM168.844 88.8125L169.685 88.2726L168.951 87.1282L168.078 88.1698L168.844 88.8125ZM177.844 102.844L177.002 103.384L177.005 103.388L177.844 102.844ZM183.5 102.156L182.659 102.697L182.659 102.698L183.5 102.156ZM172.281 84.7188L171.515 84.0758L171.042 84.6401L171.44 85.2598L172.281 84.7188ZM182.094 73.0312L181.331 72.3847L181.328 72.3883L182.094 73.0312ZM176.781 72L176.018 71.354L176.014 71.359L176.781 72ZM164.125 87.1562V88.1562H164.593L164.893 87.7972L164.125 87.1562ZM164.062 87.1562L163.065 87.0897L162.994 88.1562H164.062V87.1562ZM46.3125 102.281V66.8122H44.3125V102.281H46.3125ZM46.875 103C46.5342 103 46.4549 102.911 46.4431 102.898C46.4148 102.867 46.3125 102.722 46.3125 102.281H44.3125C44.3125 102.986 44.4706 103.701 44.9632 104.243C45.4722 104.803 46.1742 105 46.875 105V103ZM60.625 103H46.875V105H60.625V103ZM74.3887 99.6986C72.0811 101.803 67.6088 103 60.625 103V105C67.6828 105 72.8356 103.822 75.7363 101.176L74.3887 99.6986ZM78 91.5625C78 94.8218 76.8069 97.5107 74.3916 99.696L75.7334 101.179C78.5681 98.6143 80 95.3866 80 91.5625H78ZM74.5052 84.621C76.8462 86.3252 78 88.6056 78 91.5625H80C80 87.9777 78.5497 85.0915 75.6823 83.004L74.5052 84.621ZM67.9737 81.6523C69.8222 81.817 71.991 82.7556 74.4979 84.6156L75.6896 83.0094C73.0298 81.036 70.5111 79.8705 68.1513 79.6602L67.9737 81.6523ZM67.0625 80.5625V80.6562H69.0625V80.5625H67.0625ZM73.3448 76.6821C71.3907 78.377 69.5769 79.3024 67.9016 79.5755L68.2234 81.5495C70.3814 81.1976 72.526 80.0397 74.6552 78.1929L73.3448 76.6821ZM76.0625 70.9062C76.0625 73.1619 75.1804 75.0712 73.3404 76.6859L74.6596 78.1891C76.9029 76.2205 78.0625 73.7756 78.0625 70.9062H76.0625ZM72.6931 63.3565C74.9579 65.4677 76.0625 67.967 76.0625 70.9062H78.0625C78.0625 67.3872 76.7088 64.3656 74.0569 61.8935L72.6931 63.3565ZM64.7398 60.4953C68.6246 60.9697 71.209 61.973 72.6931 63.3565L74.0569 61.8935C72.1131 60.0815 69.0215 59.0033 64.9822 58.5101L64.7398 60.4953ZM64.5587 58.5494C59.8434 60.0445 55.3029 61.6587 50.9493 63.3827L51.6856 65.2423C55.9941 63.5361 60.4905 61.9374 65.1632 60.4559L64.5587 58.5494ZM59.1562 63.3125H51.3174V65.3125H59.1562V63.3125ZM69.0643 65.1744C68.0768 64.4994 66.7309 64.0435 65.1074 63.7503C63.4719 63.4549 61.4836 63.3125 59.1562 63.3125V65.3125C61.4123 65.3125 63.2729 65.4513 64.752 65.7185C66.2431 65.9877 67.2774 66.3756 67.9357 66.8256L69.0643 65.1744ZM71.9688 70.9062C71.9688 68.46 71.0065 66.502 69.0643 65.1744L67.9357 66.8256C69.2852 67.748 69.9688 69.0609 69.9688 70.9062H71.9688ZM68.2181 77.3585C70.6418 75.7122 71.9688 73.5527 71.9688 70.9062H69.9688C69.9688 72.7598 69.0874 74.3503 67.0944 75.704L68.2181 77.3585ZM59.1562 79.75C62.7726 79.75 65.8184 78.9812 68.2164 77.3596L67.0961 75.7029C65.1191 77.0397 62.4982 77.75 59.1562 77.75V79.75ZM51.3125 79.75H59.1562V77.75H51.3125V79.75ZM50.3125 64.3145V78.75H52.3125V64.3145H50.3125ZM50.9443 63.3847C48.8916 64.1977 46.8803 65.0351 44.9118 65.896L45.7132 67.7284C47.6597 66.8771 49.6493 66.0487 51.6807 65.2442L50.9443 63.3847ZM51.3125 99.875H59.625V97.875H51.3125V99.875ZM50.3125 83.25V98.875H52.3125V83.25H50.3125ZM59.625 82.25H51.3125V84.25H59.625V82.25ZM69.9647 84.5455C67.6132 82.9623 64.1105 82.25 59.625 82.25V84.25C63.9728 84.25 66.9909 84.9544 68.8478 86.2045L69.9647 84.5455ZM73.5938 91.375C73.5938 88.462 72.368 86.1476 69.961 84.5429L68.8515 86.2071C70.6945 87.4357 71.5938 89.1214 71.5938 91.375H73.5938ZM69.937 98.1023C72.4142 96.7894 73.5938 94.4548 73.5938 91.375H71.5938C71.5938 93.8785 70.69 95.4397 69.0005 96.3352L69.937 98.1023ZM59.625 99.875C64.1454 99.875 67.6306 99.3248 69.937 98.1023L69.0005 96.3352C67.1403 97.3211 64.0629 97.875 59.625 97.875V99.875ZM86.0938 87.5938C86.0938 82.8811 87.3332 79.075 89.7456 76.0984L88.1919 74.8391C85.4376 78.2375 84.0938 82.5148 84.0938 87.5938H86.0938ZM89.7476 99.1228C87.3332 96.1242 86.0938 92.3062 86.0938 87.5938H84.0938C84.0938 92.673 85.4377 96.9591 88.1899 100.377L89.7476 99.1228ZM100.375 103.531C95.6041 103.531 92.1166 102.022 89.7432 99.1173L88.1943 100.383C91.0292 103.853 95.1459 105.531 100.375 105.531V103.531ZM110.973 99.1204C108.621 102.022 105.146 103.531 100.375 103.531V105.531C105.604 105.531 109.712 103.853 112.527 100.38L110.973 99.1204ZM114.656 87.5938C114.656 92.3043 113.407 96.1212 110.974 99.1198L112.526 100.38C115.301 96.9621 116.656 92.6749 116.656 87.5938H114.656ZM110.976 76.1014C113.407 79.078 114.656 82.883 114.656 87.5938H116.656C116.656 82.5129 115.301 78.2345 112.524 74.8361L110.976 76.1014ZM100.375 71.6562C105.144 71.6562 108.618 73.1739 110.971 76.0959L112.529 74.8416C109.715 71.3469 105.606 69.6562 100.375 69.6562V71.6562ZM89.7452 76.099C92.1194 73.1739 95.6064 71.6562 100.375 71.6562V69.6562C95.1436 69.6562 91.0265 71.3469 88.1923 74.8385L89.7452 76.099ZM89.9062 87.5938C89.9062 92.0691 90.7852 95.584 92.7274 97.9474L94.2726 96.6776C92.7565 94.8327 91.9062 91.8684 91.9062 87.5938H89.9062ZM92.7274 77.2401C90.7852 79.6035 89.9062 83.1184 89.9062 87.5938H91.9062C91.9062 83.3191 92.7565 80.3548 94.2726 78.5099L92.7274 77.2401ZM100.375 73.7188C97.2382 73.7188 94.6568 74.8923 92.7274 77.2401L94.2726 78.5099C95.8016 76.6493 97.8035 75.7188 100.375 75.7188V73.7188ZM108.023 77.2401C106.093 74.8923 103.512 73.7188 100.375 73.7188V75.7188C102.947 75.7188 104.948 76.6493 106.477 78.5099L108.023 77.2401ZM110.844 87.5938C110.844 83.1184 109.965 79.6035 108.023 77.2401L106.477 78.5099C107.994 80.3548 108.844 83.3191 108.844 87.5938H110.844ZM108.023 97.9474C109.965 95.584 110.844 92.0691 110.844 87.5938H108.844C108.844 91.8684 107.994 94.8327 106.477 96.6776L108.023 97.9474ZM100.375 101.469C103.512 101.469 106.093 100.295 108.023 97.9474L106.477 96.6776C104.948 98.5382 102.947 99.4688 100.375 99.4688V101.469ZM92.7274 97.9474C94.6568 100.295 97.2382 101.469 100.375 101.469V99.4688C97.8035 99.4688 95.8016 98.5382 94.2726 96.6776L92.7274 97.9474ZM121.969 87.5938C121.969 82.8811 123.208 79.075 125.621 76.0984L124.067 74.8391C121.313 78.2375 119.969 82.5148 119.969 87.5938H121.969ZM125.623 99.1228C123.208 96.1242 121.969 92.3062 121.969 87.5938H119.969C119.969 92.673 121.313 96.9591 124.065 100.377L125.623 99.1228ZM136.25 103.531C131.479 103.531 127.992 102.022 125.618 99.1173L124.069 100.383C126.904 103.853 131.021 105.531 136.25 105.531V103.531ZM146.848 99.1204C144.496 102.022 141.021 103.531 136.25 103.531V105.531C141.479 105.531 145.587 103.853 148.402 100.38L146.848 99.1204ZM150.531 87.5938C150.531 92.3043 149.282 96.1212 146.849 99.1198L148.401 100.38C151.176 96.9621 152.531 92.6749 152.531 87.5938H150.531ZM146.851 76.1014C149.282 79.078 150.531 82.883 150.531 87.5938H152.531C152.531 82.5129 151.176 78.2345 148.399 74.8361L146.851 76.1014ZM136.25 71.6562C141.019 71.6562 144.493 73.1739 146.846 76.0959L148.404 74.8416C145.59 71.3469 141.481 69.6562 136.25 69.6562V71.6562ZM125.62 76.099C127.994 73.1739 131.481 71.6562 136.25 71.6562V69.6562C131.019 69.6562 126.901 71.3469 124.067 74.8385L125.62 76.099ZM125.781 87.5938C125.781 92.0691 126.66 95.584 128.602 97.9474L130.148 96.6776C128.631 94.8327 127.781 91.8684 127.781 87.5938H125.781ZM128.602 77.2401C126.66 79.6035 125.781 83.1184 125.781 87.5938H127.781C127.781 83.3191 128.631 80.3548 130.148 78.5099L128.602 77.2401ZM136.25 73.7188C133.113 73.7188 130.532 74.8923 128.602 77.2401L130.148 78.5099C131.677 76.6493 133.679 75.7188 136.25 75.7188V73.7188ZM143.898 77.2401C141.968 74.8923 139.387 73.7188 136.25 73.7188V75.7188C138.821 75.7188 140.823 76.6493 142.352 78.5099L143.898 77.2401ZM146.719 87.5938C146.719 83.1184 145.84 79.6035 143.898 77.2401L142.352 78.5099C143.869 80.3548 144.719 83.3191 144.719 87.5938H146.719ZM143.898 97.9474C145.84 95.584 146.719 92.0691 146.719 87.5938H144.719C144.719 91.8684 143.869 94.8327 142.352 96.6776L143.898 97.9474ZM136.25 101.469C139.387 101.469 141.968 100.295 143.898 97.9474L142.352 96.6776C140.823 98.5382 138.821 99.4688 136.25 99.4688V101.469ZM128.602 97.9474C130.532 100.295 133.113 101.469 136.25 101.469V99.4688C133.679 99.4688 131.677 98.5382 130.148 96.6776L128.602 97.9474ZM160.031 103C159.717 103 159.664 102.922 159.684 102.941C159.703 102.961 159.625 102.908 159.625 102.594H157.625C157.625 103.217 157.781 103.867 158.269 104.356C158.758 104.844 159.408 105 160.031 105V103ZM162.719 103H160.031V105H162.719V103ZM163.125 102.594C163.125 102.908 163.047 102.961 163.066 102.941C163.086 102.922 163.033 103 162.719 103V105C163.342 105 163.992 104.844 164.481 104.356C164.969 103.867 165.125 103.217 165.125 102.594H163.125ZM163.125 94.4375V102.594H165.125V94.4375H163.125ZM168.078 88.1698L163.359 93.7948L164.891 95.0802L169.61 89.4552L168.078 88.1698ZM178.685 102.304L169.685 88.2726L168.002 89.3524L177.002 103.384L178.685 102.304ZM179.625 103C179.386 103 179.067 102.893 178.683 102.3L177.005 103.388C177.62 104.337 178.489 105 179.625 105V103ZM182.688 103H179.625V105H182.688V103ZM182.659 102.698C182.829 102.961 182.904 103.136 182.932 103.235C182.961 103.335 182.917 103.269 182.976 103.136C183.005 103.069 183.048 103.017 183.088 102.982C183.124 102.951 183.146 102.945 183.131 102.951C183.115 102.957 183.073 102.97 182.995 102.981C182.918 102.992 182.817 103 182.688 103V105C183.083 105 183.486 104.956 183.846 104.819C184.223 104.674 184.603 104.403 184.806 103.942C185 103.501 184.959 103.052 184.857 102.691C184.755 102.329 184.567 101.966 184.341 101.615L182.659 102.698ZM171.44 85.2598L182.659 102.697L184.341 101.615L173.122 84.1777L171.44 85.2598ZM181.328 72.3883L171.515 84.0758L173.047 85.3617L182.86 73.6742L181.328 72.3883ZM181.281 72.1875C181.448 72.1875 181.584 72.1957 181.692 72.2089C181.801 72.2223 181.87 72.2394 181.908 72.2519C181.947 72.2648 181.935 72.2668 181.899 72.2393C181.858 72.2078 181.799 72.1465 181.757 72.0517C181.715 71.9577 181.711 71.8766 181.715 71.8333C181.717 71.7958 181.725 71.7949 181.706 71.8389C181.688 71.8817 181.653 71.9502 181.59 72.0463C181.527 72.1413 181.442 72.2539 181.331 72.3847L182.857 73.6778C183.148 73.3339 183.399 72.9752 183.552 72.6103C183.702 72.2502 183.809 71.7501 183.587 71.2452C183.362 70.7336 182.913 70.4782 182.537 70.3535C182.161 70.2287 181.726 70.1875 181.281 70.1875V72.1875ZM178.438 72.1875H181.281V70.1875H178.438V72.1875ZM177.545 72.6459C177.834 72.3038 178.117 72.1875 178.438 72.1875V70.1875C177.466 70.1875 176.645 70.6129 176.018 71.3541L177.545 72.6459ZM164.893 87.7972L177.549 72.641L176.014 71.359L163.357 86.5153L164.893 87.7972ZM164.062 88.1562H164.125V86.1562H164.062V88.1562ZM163.125 85.2812C163.125 85.884 163.105 86.4868 163.065 87.0897L165.06 87.2228C165.103 86.5757 165.125 85.9285 165.125 85.2812H163.125ZM163.125 59.2812V85.2812H165.125V59.2812H163.125ZM162.719 58.875C163.033 58.875 163.086 58.953 163.066 58.9337C163.047 58.9144 163.125 58.9666 163.125 59.2812H165.125C165.125 58.6584 164.969 58.0075 164.481 57.5195C163.992 57.0314 163.342 56.875 162.719 56.875V58.875ZM160.031 58.875H162.719V56.875H160.031V58.875ZM159.625 59.2812C159.625 58.9666 159.703 58.9144 159.684 58.9337C159.664 58.953 159.717 58.875 160.031 58.875V56.875C159.408 56.875 158.758 57.0314 158.269 57.5195C157.781 58.0075 157.625 58.6584 157.625 59.2812H159.625ZM159.625 102.594V59.2812H157.625V102.594H159.625Z" fill="#1B263B" mask="url(#path-1-outside-1_720_27)"/>
<path d="M84.9688 87.5938C84.9688 82.6979 86.2604 78.6562 88.8438 75.4688C91.4479 72.2604 95.25 70.6562 100.25 70.6562C105.25 70.6562 109.042 72.2604 111.625 75.4688C114.229 78.6562 115.531 82.6979 115.531 87.5938C115.531 92.4896 114.229 96.5417 111.625 99.75C109.042 102.938 105.25 104.531 100.25 104.531C95.25 104.531 91.4479 102.938 88.8438 99.75C86.2604 96.5417 84.9688 92.4896 84.9688 87.5938ZM90.7812 87.5938C90.7812 91.9688 91.6458 95.2083 93.375 97.3125C95.1042 99.4167 97.3958 100.469 100.25 100.469C103.104 100.469 105.396 99.4167 107.125 97.3125C108.854 95.2083 109.719 91.9688 109.719 87.5938C109.719 83.2188 108.854 79.9792 107.125 77.875C105.396 75.7708 103.104 74.7188 100.25 74.7188C97.3958 74.7188 95.1042 75.7708 93.375 77.875C91.6458 79.9792 90.7812 83.2188 90.7812 87.5938ZM120.844 87.5938C120.844 82.6979 122.135 78.6562 124.719 75.4688C127.323 72.2604 131.125 70.6562 136.125 70.6562C141.125 70.6562 144.917 72.2604 147.5 75.4688C150.104 78.6562 151.406 82.6979 151.406 87.5938C151.406 92.4896 150.104 96.5417 147.5 99.75C144.917 102.938 141.125 104.531 136.125 104.531C131.125 104.531 127.323 102.938 124.719 99.75C122.135 96.5417 120.844 92.4896 120.844 87.5938ZM126.656 87.5938C126.656 91.9688 127.521 95.2083 129.25 97.3125C130.979 99.4167 133.271 100.469 136.125 100.469C138.979 100.469 141.271 99.4167 143 97.3125C144.729 95.2083 145.594 91.9688 145.594 87.5938C145.594 83.2188 144.729 79.9792 143 77.875C141.271 75.7708 138.979 74.7188 136.125 74.7188C133.271 74.7188 130.979 75.7708 129.25 77.875C127.521 79.9792 126.656 83.2188 126.656 87.5938ZM159.906 104C158.969 104 158.5 103.531 158.5 102.594V59.2812C158.5 58.3438 158.969 57.875 159.906 57.875H162.594C163.531 57.875 164 58.3438 164 59.2812V85.2812C164 85.9062 163.979 86.5312 163.938 87.1562H164L176.656 72C177.115 71.4583 177.667 71.1875 178.312 71.1875H181.156C182.74 71.1875 183.01 71.8021 181.969 73.0312L172.156 84.7188L183.375 102.156C184.167 103.385 183.896 104 182.562 104H179.5C178.812 104 178.219 103.615 177.719 102.844L168.719 88.8125L164 94.4375V102.594C164 103.531 163.531 104 162.594 104H159.906Z" fill="#1B263B"/>
<path d="M88.8438 75.4688L88.0673 74.8385L88.0669 74.8391L88.8438 75.4688ZM111.625 75.4688L110.846 76.0959L110.851 76.1014L111.625 75.4688ZM111.625 99.75L110.849 99.1198L110.848 99.1204L111.625 99.75ZM88.8438 99.75L88.0648 100.377L88.0693 100.383L88.8438 99.75ZM107.125 97.3125L106.352 96.6776L107.125 97.3125ZM85.9688 87.5938C85.9688 82.8811 87.2082 79.075 89.6206 76.0984L88.0669 74.8391C85.3126 78.2375 83.9688 82.5148 83.9688 87.5938H85.9688ZM89.6202 76.099C91.9944 73.1739 95.4814 71.6562 100.25 71.6562V69.6562C95.0186 69.6562 90.9015 71.3469 88.0673 74.8385L89.6202 76.099ZM100.25 71.6562C105.019 71.6562 108.493 73.1739 110.846 76.0959L112.404 74.8416C109.59 71.3469 105.481 69.6562 100.25 69.6562V71.6562ZM110.851 76.1014C113.282 79.078 114.531 82.883 114.531 87.5938H116.531C116.531 82.5129 115.176 78.2345 112.399 74.8361L110.851 76.1014ZM114.531 87.5938C114.531 92.3043 113.282 96.1212 110.849 99.1198L112.401 100.38C115.176 96.9621 116.531 92.6749 116.531 87.5938H114.531ZM110.848 99.1204C108.496 102.022 105.021 103.531 100.25 103.531V105.531C105.479 105.531 109.587 103.853 112.402 100.38L110.848 99.1204ZM100.25 103.531C95.4791 103.531 91.9916 102.022 89.6182 99.1173L88.0693 100.383C90.9042 103.853 95.0209 105.531 100.25 105.531V103.531ZM89.6226 99.1228C87.2082 96.1242 85.9688 92.3062 85.9688 87.5938H83.9688C83.9688 92.673 85.3127 96.9591 88.0649 100.377L89.6226 99.1228ZM89.7812 87.5938C89.7812 92.0691 90.6602 95.584 92.6024 97.9474L94.1476 96.6776C92.6315 94.8327 91.7812 91.8684 91.7812 87.5938H89.7812ZM92.6024 97.9474C94.5318 100.295 97.1132 101.469 100.25 101.469V99.4688C97.6785 99.4688 95.6766 98.5382 94.1476 96.6776L92.6024 97.9474ZM100.25 101.469C103.387 101.469 105.968 100.295 107.898 97.9474L106.352 96.6776C104.823 98.5382 102.822 99.4688 100.25 99.4688V101.469ZM107.898 97.9474C109.84 95.584 110.719 92.0691 110.719 87.5938H108.719C108.719 91.8684 107.869 94.8327 106.352 96.6776L107.898 97.9474ZM110.719 87.5938C110.719 83.1184 109.84 79.6035 107.898 77.2401L106.352 78.5099C107.869 80.3548 108.719 83.3191 108.719 87.5938H110.719ZM107.898 77.2401C105.968 74.8923 103.387 73.7188 100.25 73.7188V75.7188C102.822 75.7188 104.823 76.6493 106.352 78.5099L107.898 77.2401ZM100.25 73.7188C97.1132 73.7188 94.5318 74.8923 92.6024 77.2401L94.1476 78.5099C95.6766 76.6493 97.6785 75.7188 100.25 75.7188V73.7188ZM92.6024 77.2401C90.6602 79.6035 89.7812 83.1184 89.7812 87.5938H91.7812C91.7812 83.3191 92.6315 80.3548 94.1476 78.5099L92.6024 77.2401ZM124.719 75.4688L123.942 74.8385L123.942 74.8391L124.719 75.4688ZM147.5 75.4688L146.721 76.0959L146.726 76.1014L147.5 75.4688ZM147.5 99.75L146.724 99.1198L146.723 99.1204L147.5 99.75ZM124.719 99.75L123.94 100.377L123.944 100.383L124.719 99.75ZM143 97.3125L142.227 96.6776L143 97.3125ZM121.844 87.5938C121.844 82.8811 123.083 79.075 125.496 76.0984L123.942 74.8391C121.188 78.2375 119.844 82.5148 119.844 87.5938H121.844ZM125.495 76.099C127.869 73.1739 131.356 71.6562 136.125 71.6562V69.6562C130.894 69.6562 126.776 71.3469 123.942 74.8385L125.495 76.099ZM136.125 71.6562C140.894 71.6562 144.368 73.1739 146.721 76.0959L148.279 74.8416C145.465 71.3469 141.356 69.6562 136.125 69.6562V71.6562ZM146.726 76.1014C149.157 79.078 150.406 82.883 150.406 87.5938H152.406C152.406 82.5129 151.051 78.2345 148.274 74.8361L146.726 76.1014ZM150.406 87.5938C150.406 92.3043 149.157 96.1212 146.724 99.1198L148.276 100.38C151.051 96.9621 152.406 92.6749 152.406 87.5938H150.406ZM146.723 99.1204C144.371 102.022 140.896 103.531 136.125 103.531V105.531C141.354 105.531 145.462 103.853 148.277 100.38L146.723 99.1204ZM136.125 103.531C131.354 103.531 127.867 102.022 125.493 99.1173L123.944 100.383C126.779 103.853 130.896 105.531 136.125 105.531V103.531ZM125.498 99.1228C123.083 96.1242 121.844 92.3062 121.844 87.5938H119.844C119.844 92.673 121.188 96.9591 123.94 100.377L125.498 99.1228ZM125.656 87.5938C125.656 92.0691 126.535 95.584 128.477 97.9474L130.023 96.6776C128.506 94.8327 127.656 91.8684 127.656 87.5938H125.656ZM128.477 97.9474C130.407 100.295 132.988 101.469 136.125 101.469V99.4688C133.553 99.4688 131.552 98.5382 130.023 96.6776L128.477 97.9474ZM136.125 101.469C139.262 101.469 141.843 100.295 143.773 97.9474L142.227 96.6776C140.698 98.5382 138.697 99.4688 136.125 99.4688V101.469ZM143.773 97.9474C145.715 95.584 146.594 92.0691 146.594 87.5938H144.594C144.594 91.8684 143.744 94.8327 142.227 96.6776L143.773 97.9474ZM146.594 87.5938C146.594 83.1184 145.715 79.6035 143.773 77.2401L142.227 78.5099C143.744 80.3548 144.594 83.3191 144.594 87.5938H146.594ZM143.773 77.2401C141.843 74.8923 139.262 73.7188 136.125 73.7188V75.7188C138.697 75.7188 140.698 76.6493 142.227 78.5099L143.773 77.2401ZM136.125 73.7188C132.988 73.7188 130.407 74.8923 128.477 77.2401L130.023 78.5099C131.552 76.6493 133.553 75.7188 136.125 75.7188V73.7188ZM128.477 77.2401C126.535 79.6035 125.656 83.1184 125.656 87.5938H127.656C127.656 83.3191 128.506 80.3548 130.023 78.5099L128.477 77.2401ZM163.938 87.1562L162.94 87.0897L162.869 88.1562H163.938V87.1562ZM164 87.1562V88.1562H164.468L164.768 87.7972L164 87.1562ZM176.656 72L175.893 71.354L175.889 71.359L176.656 72ZM181.969 73.0312L181.206 72.3847L181.203 72.3883L181.969 73.0312ZM172.156 84.7188L171.39 84.0758L170.917 84.6401L171.315 85.2598L172.156 84.7188ZM183.375 102.156L182.534 102.697L182.534 102.698L183.375 102.156ZM177.719 102.844L176.877 103.384L176.88 103.388L177.719 102.844ZM168.719 88.8125L169.56 88.2726L168.826 87.1282L167.953 88.1698L168.719 88.8125ZM164 94.4375L163.234 93.7948L163 94.0736V94.4375H164ZM159.906 103C159.592 103 159.539 102.922 159.559 102.941C159.578 102.961 159.5 102.908 159.5 102.594H157.5C157.5 103.217 157.656 103.867 158.144 104.356C158.633 104.844 159.283 105 159.906 105V103ZM159.5 102.594V59.2812H157.5V102.594H159.5ZM159.5 59.2812C159.5 58.9666 159.578 58.9144 159.559 58.9337C159.539 58.953 159.592 58.875 159.906 58.875V56.875C159.283 56.875 158.633 57.0314 158.144 57.5195C157.656 58.0075 157.5 58.6584 157.5 59.2812H159.5ZM159.906 58.875H162.594V56.875H159.906V58.875ZM162.594 58.875C162.908 58.875 162.961 58.953 162.941 58.9337C162.922 58.9144 163 58.9666 163 59.2812H165C165 58.6584 164.844 58.0075 164.356 57.5195C163.867 57.0314 163.217 56.875 162.594 56.875V58.875ZM163 59.2812V85.2812H165V59.2812H163ZM163 85.2812C163 85.884 162.98 86.4868 162.94 87.0897L164.935 87.2228C164.978 86.5757 165 85.9285 165 85.2812H163ZM163.938 88.1562H164V86.1562H163.938V88.1562ZM164.768 87.7972L177.424 72.641L175.889 71.359L163.232 86.5153L164.768 87.7972ZM177.42 72.6459C177.709 72.3038 177.992 72.1875 178.312 72.1875V70.1875C177.341 70.1875 176.52 70.6129 175.893 71.3541L177.42 72.6459ZM178.312 72.1875H181.156V70.1875H178.312V72.1875ZM181.156 72.1875C181.323 72.1875 181.459 72.1957 181.567 72.2089C181.676 72.2223 181.745 72.2394 181.783 72.2519C181.822 72.2648 181.81 72.2668 181.774 72.2393C181.733 72.2078 181.674 72.1465 181.632 72.0517C181.59 71.9577 181.586 71.8766 181.59 71.8333C181.592 71.7958 181.6 71.7949 181.581 71.8389C181.563 71.8817 181.528 71.9502 181.465 72.0463C181.402 72.1413 181.317 72.2539 181.206 72.3847L182.732 73.6778C183.023 73.3339 183.274 72.9752 183.427 72.6103C183.577 72.2502 183.684 71.7501 183.462 71.2452C183.237 70.7336 182.788 70.4782 182.412 70.3535C182.036 70.2287 181.601 70.1875 181.156 70.1875V72.1875ZM181.203 72.3883L171.39 84.0758L172.922 85.3617L182.735 73.6742L181.203 72.3883ZM171.315 85.2598L182.534 102.697L184.216 101.615L172.997 84.1777L171.315 85.2598ZM182.534 102.698C182.704 102.961 182.779 103.136 182.807 103.235C182.836 103.335 182.792 103.269 182.851 103.136C182.88 103.069 182.923 103.017 182.963 102.982C182.999 102.951 183.021 102.945 183.006 102.951C182.99 102.957 182.948 102.97 182.87 102.981C182.793 102.992 182.692 103 182.562 103V105C182.958 105 183.361 104.956 183.721 104.819C184.098 104.674 184.478 104.403 184.681 103.942C184.875 103.501 184.834 103.052 184.732 102.691C184.63 102.329 184.442 101.966 184.216 101.615L182.534 102.698ZM182.562 103H179.5V105H182.562V103ZM179.5 103C179.261 103 178.942 102.893 178.558 102.3L176.88 103.388C177.495 104.337 178.364 105 179.5 105V103ZM178.56 102.304L169.56 88.2726L167.877 89.3524L176.877 103.384L178.56 102.304ZM167.953 88.1698L163.234 93.7948L164.766 95.0802L169.485 89.4552L167.953 88.1698ZM163 94.4375V102.594H165V94.4375H163ZM163 102.594C163 102.908 162.922 102.961 162.941 102.941C162.961 102.922 162.908 103 162.594 103V105C163.217 105 163.867 104.844 164.356 104.356C164.844 103.867 165 103.217 165 102.594H163ZM162.594 103H159.906V105H162.594V103Z" fill="#1B263B"/>
<mask id="path-5-outside-2_720_27" maskUnits="userSpaceOnUse" x="4.3125" y="0.34375" width="81" height="49" fill="black">
<rect fill="white" x="4.3125" y="0.34375" width="81" height="49"/>
<path fill-rule="evenodd" clip-rule="evenodd" d="M5.3125 46.2812C5.3125 47.4271 5.83333 48 6.875 48H9.75C10.7917 48 11.3125 47.4271 11.3125 46.2812V30H20C27.0833 30 31.8646 28.8125 34.3438 26.4375C36.8229 24.0417 38.0625 20.7604 38.0625 16.5938C38.0625 12.4271 36.8229 9.15625 34.3438 6.78125C31.8646 4.38542 27.0833 3.1875 20 3.1875H6.875C5.83333 3.1875 5.3125 3.76042 5.3125 4.90625V46.2812ZM20.0938 24.875H11.3125V8.3125H20.0938C24.6771 8.3125 27.8021 8.96875 29.4688 10.2812C31.1354 11.5729 31.9688 13.6771 31.9688 16.5938C31.9688 19.5104 31.1354 21.625 29.4688 22.9375C27.8021 24.2292 24.6771 24.875 20.0938 24.875ZM45.3125 46.5938C45.3125 47.5312 45.7812 48 46.7188 48H49.4062C50.3438 48 50.8125 47.5312 50.8125 46.5938V2.4375C50.8125 1.70833 50.5 1.34375 49.875 1.34375H48.7812C48.5312 1.34375 48.2083 1.70833 47.8125 2.4375L45.625 6.40625C45.4167 6.78125 45.3125 7.17708 45.3125 7.59375V46.5938ZM63.0938 31.0938C59.6354 32.8229 57.9062 35.5417 57.9062 39.25C57.9062 41.5281 58.4655 43.4186 59.5839 44.9214C61.3996 44.3435 63.2354 43.7837 65.0903 43.2421C64.834 43.0316 64.606 42.7842 64.4062 42.5C63.8646 41.7083 63.5938 40.6667 63.5938 39.375C63.5938 37.9583 64.1562 36.7083 65.2812 35.625C66.4062 34.5208 67.8646 33.75 69.6562 33.3125C71.4479 32.8542 74.4479 32.4688 78.6562 32.1562V39.6887C80.4774 39.264 82.311 38.8566 84.1562 38.4665V27.2188C84.1562 23.3229 83.2292 20.2604 81.375 18.0312C79.5208 15.7812 76.4167 14.6562 72.0625 14.6562C70.4583 14.6562 68.875 14.8438 67.3125 15.2188C65.7708 15.5729 64.4792 16.0104 63.4375 16.5312C62.3958 17.0521 61.3229 17.8333 60.2188 18.875C59.4479 19.6042 59.2917 20.2292 59.75 20.75L61.375 22.625C61.875 23.1875 62.4062 23.1562 62.9688 22.5312C63.7188 21.6979 64.5 21.0208 65.3125 20.5C66.1458 19.9583 67.0625 19.5312 68.0625 19.2188C69.0625 18.8854 70.3958 18.7188 72.0625 18.7188C74.6875 18.7188 76.4375 19.4375 77.3125 20.875C78.2083 22.2917 78.6562 23.9792 78.6562 25.9375V28.0625C71.7604 28.3542 66.5729 29.3646 63.0938 31.0938Z"/>
</mask>
<path fill-rule="evenodd" clip-rule="evenodd" d="M5.3125 46.2812C5.3125 47.4271 5.83333 48 6.875 48H9.75C10.7917 48 11.3125 47.4271 11.3125 46.2812V30H20C27.0833 30 31.8646 28.8125 34.3438 26.4375C36.8229 24.0417 38.0625 20.7604 38.0625 16.5938C38.0625 12.4271 36.8229 9.15625 34.3438 6.78125C31.8646 4.38542 27.0833 3.1875 20 3.1875H6.875C5.83333 3.1875 5.3125 3.76042 5.3125 4.90625V46.2812ZM20.0938 24.875H11.3125V8.3125H20.0938C24.6771 8.3125 27.8021 8.96875 29.4688 10.2812C31.1354 11.5729 31.9688 13.6771 31.9688 16.5938C31.9688 19.5104 31.1354 21.625 29.4688 22.9375C27.8021 24.2292 24.6771 24.875 20.0938 24.875ZM45.3125 46.5938C45.3125 47.5312 45.7812 48 46.7188 48H49.4062C50.3438 48 50.8125 47.5312 50.8125 46.5938V2.4375C50.8125 1.70833 50.5 1.34375 49.875 1.34375H48.7812C48.5312 1.34375 48.2083 1.70833 47.8125 2.4375L45.625 6.40625C45.4167 6.78125 45.3125 7.17708 45.3125 7.59375V46.5938ZM63.0938 31.0938C59.6354 32.8229 57.9062 35.5417 57.9062 39.25C57.9062 41.5281 58.4655 43.4186 59.5839 44.9214C61.3996 44.3435 63.2354 43.7837 65.0903 43.2421C64.834 43.0316 64.606 42.7842 64.4062 42.5C63.8646 41.7083 63.5938 40.6667 63.5938 39.375C63.5938 37.9583 64.1562 36.7083 65.2812 35.625C66.4062 34.5208 67.8646 33.75 69.6562 33.3125C71.4479 32.8542 74.4479 32.4688 78.6562 32.1562V39.6887C80.4774 39.264 82.311 38.8566 84.1562 38.4665V27.2188C84.1562 23.3229 83.2292 20.2604 81.375 18.0312C79.5208 15.7812 76.4167 14.6562 72.0625 14.6562C70.4583 14.6562 68.875 14.8438 67.3125 15.2188C65.7708 15.5729 64.4792 16.0104 63.4375 16.5312C62.3958 17.0521 61.3229 17.8333 60.2188 18.875C59.4479 19.6042 59.2917 20.2292 59.75 20.75L61.375 22.625C61.875 23.1875 62.4062 23.1562 62.9688 22.5312C63.7188 21.6979 64.5 21.0208 65.3125 20.5C66.1458 19.9583 67.0625 19.5312 68.0625 19.2188C69.0625 18.8854 70.3958 18.7188 72.0625 18.7188C74.6875 18.7188 76.4375 19.4375 77.3125 20.875C78.2083 22.2917 78.6562 23.9792 78.6562 25.9375V28.0625C71.7604 28.3542 66.5729 29.3646 63.0938 31.0938Z" fill="#1B263B"/>
<path d="M11.3125 30V29H10.3125V30H11.3125ZM34.3438 26.4375L35.0355 27.1596L35.0387 27.1566L34.3438 26.4375ZM34.3438 6.78125L33.6488 7.50035L33.652 7.50336L34.3438 6.78125ZM11.3125 24.875H10.3125V25.875H11.3125V24.875ZM11.3125 8.3125V7.3125H10.3125V8.3125H11.3125ZM29.4688 10.2812L28.85 11.0669L28.8562 11.0717L29.4688 10.2812ZM29.4688 22.9375L30.0813 23.7279L30.0874 23.7231L29.4688 22.9375ZM47.8125 2.4375L48.6883 2.92022L48.6914 2.91459L47.8125 2.4375ZM45.625 6.40625L46.4992 6.89189L46.5008 6.88896L45.625 6.40625ZM63.0938 31.0938L62.6487 30.1982L62.6465 30.1993L63.0938 31.0938ZM59.5839 44.9214L58.7817 45.5185L59.2076 46.0906L59.8872 45.8743L59.5839 44.9214ZM65.0903 43.2421L65.3706 44.2021L67.1883 43.6714L65.7251 42.4694L65.0903 43.2421ZM64.4062 42.5L63.5809 43.0647L63.5881 43.0749L64.4062 42.5ZM65.2812 35.625L65.9749 36.3454L65.9817 36.3387L65.2812 35.625ZM69.6562 33.3125L69.8935 34.284L69.9041 34.2813L69.6562 33.3125ZM78.6562 32.1562H79.6562V31.0792L78.5822 31.159L78.6562 32.1562ZM78.6562 39.6887H77.6562V40.9488L78.8834 40.6626L78.6562 39.6887ZM84.1562 38.4665L84.3631 39.4449L85.1562 39.2772V38.4665H84.1562ZM81.375 18.0312L80.6033 18.6672L80.6062 18.6707L81.375 18.0312ZM67.3125 15.2188L67.5364 16.1934L67.5459 16.1911L67.3125 15.2188ZM60.2188 18.875L59.5325 18.1476L59.5316 18.1485L60.2188 18.875ZM59.75 20.75L60.5057 20.0951L60.5007 20.0894L59.75 20.75ZM61.375 22.625L60.6193 23.28L60.6276 23.2894L61.375 22.625ZM62.9688 22.5312L63.712 23.2002L62.9688 22.5312ZM65.3125 20.5L65.8522 21.3419L65.8575 21.3384L65.3125 20.5ZM68.0625 19.2188L68.3608 20.1732L68.3698 20.1704L68.3787 20.1674L68.0625 19.2188ZM77.3125 20.875L76.4583 21.3949L76.4627 21.4022L76.4673 21.4095L77.3125 20.875ZM78.6562 28.0625L78.6985 29.0616L79.6562 29.0211V28.0625H78.6562ZM6.875 47C6.53417 47 6.4549 46.9107 6.44307 46.8976C6.41479 46.8665 6.3125 46.7224 6.3125 46.2812H4.3125C4.3125 46.986 4.47062 47.7012 4.96318 48.243C5.47218 48.8029 6.17416 49 6.875 49V47ZM9.75 47H6.875V49H9.75V47ZM10.3125 46.2812C10.3125 46.7224 10.2102 46.8665 10.1819 46.8976C10.1701 46.9107 10.0908 47 9.75 47V49C10.4508 49 11.1528 48.8029 11.6618 48.243C12.1544 47.7012 12.3125 46.986 12.3125 46.2812H10.3125ZM10.3125 30V46.2812H12.3125V30H10.3125ZM20 29H11.3125V31H20V29ZM33.652 25.7154C32.5815 26.7409 30.948 27.57 28.6574 28.1389C26.3717 28.7066 23.4926 29 20 29V31C23.5908 31 26.6439 30.6997 29.1395 30.0799C31.6301 29.4613 33.6268 28.5091 35.0355 27.1596L33.652 25.7154ZM37.0625 16.5938C37.0625 20.55 35.8933 23.5494 33.6488 25.7184L35.0387 27.1566C37.7525 24.5339 39.0625 20.9708 39.0625 16.5938H37.0625ZM33.652 7.50336C35.8932 9.65046 37.0625 12.6372 37.0625 16.5938H39.0625C39.0625 12.217 37.7526 8.66204 35.0355 6.05914L33.652 7.50336ZM20 4.1875C27.057 4.1875 31.4745 5.3991 33.6488 7.50034L35.0387 6.06216C32.2547 3.37173 27.1097 2.1875 20 2.1875V4.1875ZM6.875 4.1875H20V2.1875H6.875V4.1875ZM6.3125 4.90625C6.3125 4.46515 6.41479 4.32096 6.44307 4.28986C6.4549 4.27684 6.53417 4.1875 6.875 4.1875V2.1875C6.17416 2.1875 5.47218 2.38462 4.96318 2.94451C4.47062 3.48633 4.3125 4.20152 4.3125 4.90625H6.3125ZM6.3125 46.2812V4.90625H4.3125V46.2812H6.3125ZM11.3125 25.875H20.0938V23.875H11.3125V25.875ZM10.3125 8.3125V24.875H12.3125V8.3125H10.3125ZM20.0938 7.3125H11.3125V9.3125H20.0938V7.3125ZM30.0874 9.49561C29.0874 8.70812 27.7242 8.1712 26.0805 7.82603C24.4283 7.47906 22.4274 7.3125 20.0938 7.3125V9.3125C22.3435 9.3125 24.1967 9.47407 25.6695 9.78334C27.1508 10.0944 28.1834 10.5419 28.8501 11.0669L30.0874 9.49561ZM32.9688 16.5938C32.9688 13.4939 32.0772 11.0376 30.0813 9.49084L28.8562 11.0717C30.1936 12.1082 30.9688 13.8602 30.9688 16.5938H32.9688ZM30.0874 23.7231C32.0768 22.1565 32.9688 19.6948 32.9688 16.5938H30.9688C30.9688 19.3261 30.194 21.0935 28.8501 22.1519L30.0874 23.7231ZM20.0938 25.875C22.4267 25.875 24.4264 25.7111 26.0774 25.3699C27.7194 25.0306 29.0815 24.5028 30.0813 23.7279L28.8562 22.1471C28.1893 22.6639 27.1556 23.1048 25.6726 23.4113C24.1986 23.716 22.3442 23.875 20.0938 23.875V25.875ZM46.7188 47C46.4041 47 46.3519 46.922 46.3712 46.9413C46.3905 46.9606 46.3125 46.9084 46.3125 46.5938H44.3125C44.3125 47.2166 44.4689 47.8675 44.957 48.3555C45.445 48.8436 46.0959 49 46.7188 49V47ZM49.4062 47H46.7188V49H49.4062V47ZM49.8125 46.5938C49.8125 46.9084 49.7345 46.9606 49.7538 46.9413C49.7731 46.922 49.7209 47 49.4062 47V49C50.0291 49 50.68 48.8436 51.168 48.3555C51.6561 47.8675 51.8125 47.2166 51.8125 46.5938H49.8125ZM49.8125 2.4375V46.5938H51.8125V2.4375H49.8125ZM49.875 2.34375C49.9363 2.34375 49.9454 2.35292 49.9227 2.34411C49.9108 2.33948 49.8931 2.33095 49.8728 2.31679C49.8524 2.3025 49.834 2.28567 49.8189 2.26798C49.7876 2.23148 49.7857 2.21021 49.7924 2.23371C49.7999 2.26006 49.8125 2.32338 49.8125 2.4375H51.8125C51.8125 1.95326 51.712 1.40347 51.3374 0.966396C50.9375 0.499814 50.3854 0.34375 49.875 0.34375V2.34375ZM48.7812 2.34375H49.875V0.34375H48.7812V2.34375ZM48.6914 2.91459C48.8745 2.57712 49.012 2.37971 49.1002 2.28022C49.1434 2.23134 49.1499 2.2348 49.117 2.25577C49.0838 2.27686 48.9656 2.34375 48.7812 2.34375V0.34375C48.194 0.34375 47.7931 0.739476 47.603 0.954152C47.3682 1.21925 47.1463 1.56871 46.9336 1.96041L48.6914 2.91459ZM46.5008 6.88896L48.6883 2.92021L46.9367 1.95479L44.7492 5.92354L46.5008 6.88896ZM46.3125 7.59375C46.3125 7.35219 46.3708 7.12291 46.4992 6.89189L44.7508 5.92061C44.4625 6.43959 44.3125 7.00198 44.3125 7.59375H46.3125ZM46.3125 46.5938V7.59375H44.3125V46.5938H46.3125ZM58.9062 39.25C58.9062 37.5566 59.299 36.1422 60.0469 34.9664C60.7963 33.7881 61.9414 32.788 63.541 31.9882L62.6465 30.1993C60.7878 31.1287 59.3391 32.3526 58.3593 33.893C57.378 35.4359 56.9062 37.2351 56.9062 39.25H58.9062ZM60.3862 44.3244C59.4219 43.0287 58.9062 41.3606 58.9062 39.25H56.9062C56.9062 41.6957 57.5091 43.8085 58.7817 45.5185L60.3862 44.3244ZM59.8872 45.8743C61.6952 45.2989 63.5232 44.7414 65.3706 44.2021L64.8101 42.2822C62.9475 42.826 61.1041 43.3882 59.2807 43.9685L59.8872 45.8743ZM63.5881 43.0749C63.8373 43.4296 64.1262 43.7443 64.4556 44.0149L65.7251 42.4694C65.5417 42.3188 65.3747 42.1388 65.2244 41.9251L63.5881 43.0749ZM62.5938 39.375C62.5938 40.7998 62.8922 42.058 63.5809 43.0647L65.2316 41.9353C64.837 41.3587 64.5938 40.5335 64.5938 39.375H62.5938ZM64.5876 34.9047C63.289 36.1552 62.5938 37.6573 62.5938 39.375H64.5938C64.5938 38.2594 65.0235 37.2615 65.9749 36.3453L64.5876 34.9047ZM69.419 32.341C67.4826 32.8139 65.8546 33.6611 64.5808 34.9113L65.9817 36.3387C66.9579 35.3806 68.2465 34.6861 69.8935 34.284L69.419 32.341ZM78.5822 31.159C74.3703 31.4718 71.2931 31.8616 69.4084 32.3437L69.9041 34.2813C71.6028 33.8468 74.5256 33.4657 78.7303 33.1535L78.5822 31.159ZM79.6562 39.6887V32.1562H77.6562V39.6887H79.6562ZM78.8834 40.6626C80.6977 40.2395 82.5245 39.8335 84.3631 39.4449L83.9494 37.4881C82.0974 37.8796 80.2571 38.2885 78.4291 38.7149L78.8834 40.6626ZM83.1562 27.2188V38.4665H85.1562V27.2188H83.1562ZM80.6062 18.6707C82.2665 20.6668 83.1562 23.476 83.1562 27.2188H85.1562C85.1562 23.1698 84.1918 19.854 82.1438 17.3918L80.6062 18.6707ZM72.0625 15.6562C76.2685 15.6562 79.0176 16.743 80.6033 18.6672L82.1467 17.3953C80.0241 14.8195 76.5648 13.6562 72.0625 13.6562V15.6562ZM67.5459 16.1911C69.0321 15.8345 70.5371 15.6562 72.0625 15.6562V13.6562C70.3796 13.6562 68.7179 13.853 67.0791 14.2464L67.5459 16.1911ZM63.8847 17.4257C64.8352 16.9504 66.0465 16.5356 67.5364 16.1934L67.0886 14.2441C65.4951 14.6102 64.1231 15.0704 62.9903 15.6368L63.8847 17.4257ZM60.905 19.6024C61.9583 18.6087 62.9523 17.8919 63.8847 17.4257L62.9903 15.6368C61.8394 16.2123 60.6875 17.058 59.5325 18.1476L60.905 19.6024ZM60.5007 20.0894C60.4712 20.0559 60.4804 20.0543 60.4884 20.0849C60.4973 20.1186 60.4917 20.1406 60.4936 20.1332C60.4972 20.1188 60.5147 20.0641 60.581 19.9673C60.6471 19.8707 60.7507 19.7483 60.9059 19.6015L59.5316 18.1485C59.0882 18.5679 58.6987 19.0664 58.5533 19.6481C58.3885 20.3073 58.5727 20.9259 58.9993 21.4106L60.5007 20.0894ZM62.1307 21.9701L60.5057 20.0951L58.9943 21.4049L60.6193 23.2799L62.1307 21.9701ZM62.2255 21.8623C62.1315 21.9667 62.0676 22.0136 62.0382 22.0312C62.0126 22.0466 62.0325 22.0285 62.0897 22.0252C62.117 22.0236 62.1444 22.0259 62.1692 22.0315C62.1934 22.0369 62.2086 22.0439 62.2138 22.0466C62.2216 22.0506 62.1887 22.0352 62.1224 21.9606L60.6276 23.2894C60.9924 23.6998 61.5237 24.0619 62.2072 24.0217C62.8528 23.9837 63.3534 23.5987 63.712 23.2002L62.2255 21.8623ZM64.7728 19.6581C63.874 20.2343 63.0259 20.9729 62.2255 21.8623L63.712 23.2002C64.4116 22.4229 65.126 21.8074 65.8522 21.3419L64.7728 19.6581ZM67.7642 18.2643C66.6818 18.6025 65.6814 19.0675 64.7675 19.6616L65.8575 21.3384C66.6102 20.8492 67.4432 20.46 68.3608 20.1732L67.7642 18.2643ZM72.0625 17.7188C70.3432 17.7188 68.8898 17.8889 67.7463 18.2701L68.3787 20.1674C69.2352 19.8819 70.4484 19.7188 72.0625 19.7188V17.7188ZM78.1667 20.3551C77.0238 18.4774 74.8296 17.7188 72.0625 17.7188V19.7188C74.5454 19.7188 75.8512 20.3976 76.4583 21.3949L78.1667 20.3551ZM79.6562 25.9375C79.6562 23.8224 79.1707 21.9425 78.1577 20.3405L76.4673 21.4095C77.246 22.6409 77.6562 24.136 77.6562 25.9375H79.6562ZM79.6562 28.0625V25.9375H77.6562V28.0625H79.6562ZM63.5388 31.9892C66.8301 30.3534 71.8506 29.3512 78.6985 29.0616L78.614 27.0634C71.6702 27.3571 66.3157 28.3757 62.6487 30.1983L63.5388 31.9892Z" fill="#1B263B" mask="url(#path-5-outside-2_720_27)"/>
<path d="M6.875 48C5.83333 48 5.3125 47.4271 5.3125 46.2812V4.90625C5.3125 3.76042 5.83333 3.1875 6.875 3.1875H20C27.0833 3.1875 31.8646 4.38542 34.3438 6.78125C36.8229 9.15625 38.0625 12.4271 38.0625 16.5938C38.0625 20.7604 36.8229 24.0417 34.3438 26.4375C31.8646 28.8125 27.0833 30 20 30H11.3125V46.2812C11.3125 47.4271 10.7917 48 9.75 48H6.875ZM11.3125 24.875H20.0938C24.6771 24.875 27.8021 24.2292 29.4688 22.9375C31.1354 21.625 31.9688 19.5104 31.9688 16.5938C31.9688 13.6771 31.1354 11.5729 29.4688 10.2812C27.8021 8.96875 24.6771 8.3125 20.0938 8.3125H11.3125V24.875ZM46.7188 48C45.7812 48 45.3125 47.5312 45.3125 46.5938V7.59375C45.3125 7.17708 45.4167 6.78125 45.625 6.40625L47.8125 2.4375C48.2083 1.70833 48.5312 1.34375 48.7812 1.34375H49.875C50.5 1.34375 50.8125 1.70833 50.8125 2.4375V46.5938C50.8125 47.5312 50.3438 48 49.4062 48H46.7188Z" fill="#1B263B"/>
<path d="M34.3438 6.78125L33.6488 7.50035L33.652 7.50336L34.3438 6.78125ZM34.3438 26.4375L35.0355 27.1596L35.0387 27.1566L34.3438 26.4375ZM11.3125 30V29H10.3125V30H11.3125ZM11.3125 24.875H10.3125V25.875H11.3125V24.875ZM29.4688 22.9375L30.0813 23.7279L30.0874 23.7231L29.4688 22.9375ZM29.4688 10.2812L28.85 11.0669L28.8562 11.0717L29.4688 10.2812ZM11.3125 8.3125V7.3125H10.3125V8.3125H11.3125ZM6.875 47C6.53417 47 6.4549 46.9107 6.44307 46.8976C6.41479 46.8665 6.3125 46.7224 6.3125 46.2812H4.3125C4.3125 46.986 4.47062 47.7012 4.96318 48.243C5.47218 48.8029 6.17416 49 6.875 49V47ZM6.3125 46.2812V4.90625H4.3125V46.2812H6.3125ZM6.3125 4.90625C6.3125 4.46515 6.41479 4.32096 6.44307 4.28986C6.4549 4.27684 6.53417 4.1875 6.875 4.1875V2.1875C6.17416 2.1875 5.47218 2.38462 4.96318 2.94451C4.47062 3.48633 4.3125 4.20152 4.3125 4.90625H6.3125ZM6.875 4.1875H20V2.1875H6.875V4.1875ZM20 4.1875C27.057 4.1875 31.4745 5.3991 33.6488 7.50034L35.0387 6.06216C32.2547 3.37173 27.1097 2.1875 20 2.1875V4.1875ZM33.652 7.50336C35.8932 9.65046 37.0625 12.6372 37.0625 16.5938H39.0625C39.0625 12.217 37.7526 8.66204 35.0355 6.05914L33.652 7.50336ZM37.0625 16.5938C37.0625 20.55 35.8933 23.5494 33.6488 25.7184L35.0387 27.1566C37.7525 24.5339 39.0625 20.9708 39.0625 16.5938H37.0625ZM33.652 25.7154C32.5815 26.7409 30.948 27.57 28.6574 28.1389C26.3717 28.7066 23.4926 29 20 29V31C23.5908 31 26.6439 30.6997 29.1395 30.0799C31.6301 29.4613 33.6268 28.5091 35.0355 27.1596L33.652 25.7154ZM20 29H11.3125V31H20V29ZM10.3125 30V46.2812H12.3125V30H10.3125ZM10.3125 46.2812C10.3125 46.7224 10.2102 46.8665 10.1819 46.8976C10.1701 46.9107 10.0908 47 9.75 47V49C10.4508 49 11.1528 48.8029 11.6618 48.243C12.1544 47.7012 12.3125 46.986 12.3125 46.2812H10.3125ZM9.75 47H6.875V49H9.75V47ZM11.3125 25.875H20.0938V23.875H11.3125V25.875ZM20.0938 25.875C22.4267 25.875 24.4264 25.7111 26.0774 25.3699C27.7194 25.0306 29.0815 24.5028 30.0813 23.7279L28.8562 22.1471C28.1893 22.6639 27.1556 23.1048 25.6726 23.4113C24.1986 23.716 22.3442 23.875 20.0938 23.875V25.875ZM30.0874 23.7231C32.0768 22.1565 32.9688 19.6948 32.9688 16.5938H30.9688C30.9688 19.3261 30.194 21.0935 28.8501 22.1519L30.0874 23.7231ZM32.9688 16.5938C32.9688 13.4939 32.0772 11.0376 30.0813 9.49083L28.8562 11.0717C30.1936 12.1082 30.9688 13.8602 30.9688 16.5938H32.9688ZM30.0874 9.49561C29.0874 8.70812 27.7242 8.1712 26.0805 7.82603C24.4283 7.47906 22.4274 7.3125 20.0938 7.3125V9.3125C22.3435 9.3125 24.1967 9.47407 25.6695 9.78334C27.1508 10.0944 28.1834 10.5419 28.8501 11.0669L30.0874 9.49561ZM20.0938 7.3125H11.3125V9.3125H20.0938V7.3125ZM10.3125 8.3125V24.875H12.3125V8.3125H10.3125ZM45.625 6.40625L46.4992 6.8919L46.5008 6.88896L45.625 6.40625ZM47.8125 2.4375L48.6883 2.92022L48.6914 2.91459L47.8125 2.4375ZM46.7188 47C46.4041 47 46.3519 46.922 46.3712 46.9413C46.3905 46.9606 46.3125 46.9084 46.3125 46.5938H44.3125C44.3125 47.2166 44.4689 47.8675 44.957 48.3555C45.445 48.8436 46.0959 49 46.7188 49V47ZM46.3125 46.5938V7.59375H44.3125V46.5938H46.3125ZM46.3125 7.59375C46.3125 7.35219 46.3708 7.12291 46.4992 6.89189L44.7508 5.92061C44.4625 6.43959 44.3125 7.00198 44.3125 7.59375H46.3125ZM46.5008 6.88896L48.6883 2.92021L46.9367 1.95479L44.7492 5.92354L46.5008 6.88896ZM48.6914 2.91459C48.8746 2.57712 49.012 2.37971 49.1002 2.28022C49.1434 2.23134 49.1499 2.2348 49.117 2.25577C49.0838 2.27686 48.9656 2.34375 48.7812 2.34375V0.34375C48.194 0.34375 47.7931 0.739477 47.603 0.954152C47.3682 1.21925 47.1463 1.56871 46.9336 1.96041L48.6914 2.91459ZM48.7812 2.34375H49.875V0.34375H48.7812V2.34375ZM49.875 2.34375C49.9363 2.34375 49.9454 2.35292 49.9227 2.34411C49.9108 2.33948 49.8931 2.33095 49.8728 2.31679C49.8524 2.3025 49.834 2.28567 49.8189 2.26798C49.7876 2.23148 49.7857 2.21021 49.7924 2.23371C49.7999 2.26006 49.8125 2.32338 49.8125 2.4375H51.8125C51.8125 1.95326 51.712 1.40347 51.3374 0.966396C50.9375 0.499814 50.3854 0.34375 49.875 0.34375V2.34375ZM49.8125 2.4375V46.5938H51.8125V2.4375H49.8125ZM49.8125 46.5938C49.8125 46.9084 49.7345 46.9606 49.7538 46.9413C49.7731 46.922 49.7209 47 49.4062 47V49C50.0291 49 50.68 48.8436 51.168 48.3555C51.6561 47.8675 51.8125 47.2166 51.8125 46.5938H49.8125ZM49.4062 47H46.7188V49H49.4062V47Z" fill="#1B263B"/>
<path d="M92.1562 16.7188C91.7812 15.6979 92.0625 15.1875 93 15.1875H96.4062C97.0938 15.1875 97.5625 15.5938 97.8125 16.4062L104.375 37.0312C104.562 37.5938 104.844 38.4792 105.219 39.6875C105.615 40.875 105.896 41.9375 106.062 42.875H106.125C106.292 41.9375 106.49 41.0938 106.719 40.3438C106.969 39.5729 107.333 38.4688 107.812 37.0312L114.438 16.4062C114.708 15.5938 115.177 15.1875 115.844 15.1875H119.25C120.188 15.1875 120.469 15.6979 120.094 16.7188L109.562 46.0938C107.583 51.6146 105.812 55.4792 104.25 57.6875C102.688 59.9167 100.354 61.0312 97.25 61.0312C95.625 61.0312 94.3333 60.7917 93.375 60.3125C92.9375 60.1042 92.7917 59.7812 92.9375 59.3438L93.75 56.8125C93.8958 56.375 94.1771 56.25 94.5938 56.4375C95.4479 56.7917 96.2708 56.9688 97.0625 56.9688C98.5208 56.9688 99.7083 56.1771 100.625 54.5938C101.542 53.0312 102.271 51.4583 102.812 49.875L103.438 48.0312L92.1562 16.7188Z" fill="#1B263B"/>
<path d="M92.1562 16.7188L93.0971 16.3798L93.0949 16.3739L92.1562 16.7188ZM97.8125 16.4062L96.8567 16.7003L96.8596 16.7095L97.8125 16.4062ZM104.375 37.0312L103.422 37.3345L103.426 37.3475L104.375 37.0312ZM105.219 39.6875L104.264 39.9839L104.267 39.9938L104.27 40.0037L105.219 39.6875ZM106.062 42.875L105.078 43.05L105.225 43.875H106.062V42.875ZM106.125 42.875V43.875H106.963L107.11 43.05L106.125 42.875ZM106.719 40.3438L105.768 40.0352L105.765 40.0434L105.762 40.0515L106.719 40.3438ZM107.812 37.0312L108.761 37.3475L108.765 37.3371L107.812 37.0312ZM114.438 16.4062L113.489 16.09L113.485 16.1004L114.438 16.4062ZM120.094 16.7188L119.155 16.3739L119.152 16.3813L120.094 16.7188ZM109.562 46.0938L108.621 45.7563L108.621 45.7563L109.562 46.0938ZM104.25 57.6875L103.434 57.1099L103.431 57.1135L104.25 57.6875ZM93.375 60.3125L93.8222 59.4181L93.8136 59.4138L93.8049 59.4096L93.375 60.3125ZM92.9375 59.3438L93.8862 59.66L93.8897 59.6494L92.9375 59.3438ZM93.75 56.8125L92.8013 56.4963L92.7978 56.5069L93.75 56.8125ZM94.5938 56.4375L94.1834 57.3494L94.197 57.3555L94.2107 57.3612L94.5938 56.4375ZM100.625 54.5938L99.7625 54.0877L99.7596 54.0927L100.625 54.5938ZM102.812 49.875L103.759 50.1987L103.76 50.196L102.812 49.875ZM103.438 48.0312L104.385 48.3523L104.497 48.0212L104.378 47.6923L103.438 48.0312ZM93.0949 16.3739C93.0219 16.1751 93.0001 16.0511 92.9962 15.9877C92.9925 15.9269 93.0076 15.9697 92.9618 16.0529C92.9389 16.0945 92.9082 16.1318 92.8741 16.1611C92.8411 16.1895 92.8147 16.202 92.8062 16.2056C92.7988 16.2087 92.8083 16.2037 92.842 16.1981C92.8756 16.1925 92.9271 16.1875 93 16.1875V14.1875C92.4028 14.1875 91.6168 14.3496 91.2101 15.0877C90.8477 15.7455 91.0096 16.4973 91.2176 17.0636L93.0949 16.3739ZM93 16.1875H96.4062V14.1875H93V16.1875ZM96.4062 16.1875C96.5374 16.1875 96.586 16.2197 96.6185 16.2479C96.6681 16.2909 96.7671 16.4091 96.8567 16.7003L98.7683 16.1122C98.6079 15.5909 98.3475 15.0998 97.9284 14.7365C97.4921 14.3584 96.9626 14.1875 96.4062 14.1875V16.1875ZM96.8596 16.7095L103.422 37.3345L105.328 36.728L98.7654 16.103L96.8596 16.7095ZM103.426 37.3475C103.61 37.8995 103.889 38.7765 104.264 39.9839L106.174 39.3911C105.799 38.1818 105.515 37.288 105.324 36.715L103.426 37.3475ZM104.27 40.0037C104.655 41.1585 104.922 42.1726 105.078 43.05L107.047 42.7C106.87 41.7024 106.574 40.5915 106.167 39.3713L104.27 40.0037ZM106.062 43.875H106.125V41.875H106.062V43.875ZM107.11 43.05C107.271 42.1441 107.46 41.3404 107.675 40.636L105.762 40.0515C105.519 40.8471 105.313 41.7309 105.14 42.7L107.11 43.05ZM107.67 40.6523C107.919 39.8853 108.282 38.7842 108.761 37.3475L106.864 36.715C106.384 38.1533 106.019 39.2605 105.768 40.0352L107.67 40.6523ZM108.765 37.3371L115.39 16.7121L113.485 16.1004L106.86 36.7254L108.765 37.3371ZM115.386 16.7225C115.486 16.4244 115.59 16.297 115.647 16.2479C115.685 16.2146 115.732 16.1875 115.844 16.1875V14.1875C115.289 14.1875 114.768 14.3635 114.337 14.7365C113.925 15.0936 113.66 15.5756 113.489 16.09L115.386 16.7225ZM115.844 16.1875H119.25V14.1875H115.844V16.1875ZM119.25 16.1875C119.323 16.1875 119.374 16.1925 119.408 16.1981C119.442 16.2037 119.451 16.2087 119.444 16.2056C119.435 16.202 119.409 16.1895 119.376 16.1611C119.342 16.1318 119.311 16.0945 119.288 16.0529C119.242 15.9697 119.258 15.9269 119.254 15.9877C119.25 16.0511 119.228 16.1751 119.155 16.3739L121.032 17.0636C121.24 16.4973 121.402 15.7455 121.04 15.0877C120.633 14.3496 119.847 14.1875 119.25 14.1875V16.1875ZM119.152 16.3813L108.621 45.7563L110.504 46.4312L121.035 17.0562L119.152 16.3813ZM108.621 45.7563C106.646 51.2673 104.912 55.0207 103.434 57.1099L105.066 58.2651C106.713 55.9377 108.521 51.9619 110.504 46.4312L108.621 45.7563ZM103.431 57.1135C102.084 59.0351 100.081 60.0312 97.25 60.0312V62.0312C100.627 62.0312 103.291 60.7982 105.069 58.2615L103.431 57.1135ZM97.25 60.0312C95.7071 60.0312 94.5885 59.8012 93.8222 59.4181L92.9278 61.2069C94.0782 61.7821 95.5429 62.0312 97.25 62.0312V60.0312ZM93.8049 59.4096C93.7213 59.3698 93.7938 59.3806 93.8489 59.5025C93.875 59.5604 93.8828 59.614 93.8828 59.6504C93.8828 59.6829 93.8767 59.6884 93.8862 59.66L91.9888 59.0275C91.861 59.4108 91.8215 59.8725 92.0261 60.3256C92.227 60.7704 92.5912 61.0469 92.9451 61.2154L93.8049 59.4096ZM93.8897 59.6494L94.7022 57.1181L92.7978 56.5069L91.9853 59.0381L93.8897 59.6494ZM94.6987 57.1287C94.7272 57.0433 94.6977 57.2061 94.4765 57.3044C94.2524 57.404 94.1076 57.3153 94.1834 57.3494L95.0041 55.5256C94.6633 55.3722 94.1695 55.2522 93.6642 55.4768C93.1617 55.7001 92.9187 56.1442 92.8013 56.4963L94.6987 57.1287ZM94.2107 57.3612C95.1662 57.7574 96.1192 57.9688 97.0625 57.9688V55.9688C96.4224 55.9688 95.7296 55.8259 94.9768 55.5138L94.2107 57.3612ZM97.0625 57.9688C98.972 57.9688 100.448 56.8955 101.49 55.0948L99.7596 54.0927C98.9688 55.4586 98.0697 55.9688 97.0625 55.9688V57.9688ZM101.488 55.0998C102.435 53.4842 103.194 51.8504 103.759 50.1987L101.866 49.5513C101.348 51.0663 100.648 52.5783 99.7625 54.0877L101.488 55.0998ZM103.76 50.196L104.385 48.3523L102.49 47.7102L101.865 49.554L103.76 50.196ZM104.378 47.6923L93.0971 16.3798L91.2154 17.0577L102.497 48.3702L104.378 47.6923Z" fill="#1B263B"/>
<path d="M166 50.9167L196.841 28.7172" stroke="#7A95B5" stroke-width="8" stroke-linecap="round"/>
<path d="M192.436 55.8412L170.236 25" stroke="#7A95B5" stroke-width="8" stroke-linecap="round"/>
<path fill-rule="evenodd" clip-rule="evenodd" d="M1.42525 86.3708C0.115909 84.9488 0.207238 82.7346 1.62924 81.4252C17.6111 66.7096 40.6004 54.8982 68.043 47.0574C77.0251 44.4911 86.3951 42.3755 96.0401 40.7225L98.3915 47.4242C88.5754 49.0636 79.0584 51.1903 69.9661 53.7881C43.2327 61.4262 21.3239 72.8063 6.37079 86.5748C4.94879 87.8841 2.7346 87.7928 1.42525 86.3708ZM114.366 45.2156C125.786 43.9559 137.502 43.3301 149.333 43.3613L132.68 59.0634C131.274 60.3895 131.209 62.6046 132.535 64.011C133.861 65.4174 136.076 65.4825 137.483 64.1564L160.401 42.5465C161.808 41.2204 161.873 39.0053 160.547 37.5989L138.937 14.6803C137.61 13.2739 135.395 13.2088 133.989 14.5349C132.583 15.861 132.517 18.0761 133.844 19.4825L149.76 36.3627C138.693 36.3196 127.71 36.8392 116.955 37.9063L114.366 45.2156Z" fill="#7A95B5"/>
<path d="M111 87.5C111 95.1844 106.095 101 100.5 101C94.9047 101 90 95.1844 90 87.5C90 79.8156 94.9047 74 100.5 74C106.095 74 111 79.8156 111 87.5Z" stroke="#1B263B" stroke-width="2"/>
<path d="M115.5 87.5C115.5 96.9476 108.729 104.5 100.5 104.5C92.271 104.5 85.5 96.9476 85.5 87.5C85.5 78.0524 92.271 70.5 100.5 70.5C108.729 70.5 115.5 78.0524 115.5 87.5Z" stroke="#1B263B"/>
<path d="M147 87.5C147 95.1844 142.095 101 136.5 101C130.905 101 126 95.1844 126 87.5C126 79.8156 130.905 74 136.5 74C142.095 74 147 79.8156 147 87.5Z" stroke="#1B263B" stroke-width="2"/>
<rect x="145" y="82" width="2" height="11" fill="#1B263B"/>
<rect x="109" y="81" width="1" height="12" fill="#1B263B"/>
<rect x="87.3935" y="76" width="2.324" height="6.90849" transform="rotate(20.271 87.3935 76)" fill="#1B263B"/>
<rect x="92.2648" y="71.651" width="2.324" height="7.40477" transform="rotate(45.3166 92.2648 71.651)" fill="#1B263B"/>
<rect x="87" y="98.0154" width="1.40486" height="7.89361" transform="rotate(-46.2849 87 98.0154)" fill="#1B263B"/>
<rect x="91.1114" y="102.971" width="1.01233" height="7.89361" transform="rotate(-73.5184 91.1114 102.971)" fill="#1B263B"/>
<rect x="110.7" y="101.955" width="0.854649" height="7.89361" transform="rotate(-144.974 110.7 101.955)" fill="#1B263B"/>
<rect x="105.15" y="104.835" width="0.574641" height="7.89361" transform="rotate(-121.378 105.15 104.835)" fill="#1B263B"/>
<rect x="84.8361" y="90.7255" width="2.49532" height="7.40477" transform="rotate(-16.9039 84.8361 90.7255)" fill="#1B263B"/>
<path d="M151.5 87.5C151.5 96.932 144.519 104.5 136 104.5C127.481 104.5 120.5 96.932 120.5 87.5C120.5 78.068 127.481 70.5 136 70.5C144.519 70.5 151.5 78.068 151.5 87.5Z" stroke="#1B263B"/>
<rect x="123.557" y="76" width="2.324" height="6.90849" transform="rotate(20.271 123.557 76)" fill="#1B263B"/>
<rect x="128.429" y="71.651" width="2.324" height="7.40477" transform="rotate(45.3166 128.429 71.651)" fill="#1B263B"/>
<rect x="143" y="73.5568" width="2.324" height="7.40477" transform="rotate(-42.0562 143 73.5568)" fill="#1B263B"/>
<rect x="123.164" y="98.0154" width="1.40486" height="7.89361" transform="rotate(-46.2849 123.164 98.0154)" fill="#1B263B"/>
<rect x="143.308" y="103.926" width="1.92043" height="9.56995" transform="rotate(-132.948 143.308 103.926)" fill="#1B263B"/>
<rect x="121" y="90.7255" width="2.49532" height="7.40477" transform="rotate(-16.9039 121 90.7255)" fill="#1B263B"/>
<rect x="157.864" y="58.4224" width="2.49532" height="45.0519" transform="rotate(-0.225337 157.864 58.4224)" fill="#1B263B"/>
<rect x="45.0258" y="66.5784" width="2.49532" height="37.215" transform="rotate(-0.225337 45.0258 66.5784)" fill="#1B263B"/>
<rect x="78.0502" y="20.7657" width="2.49532" height="18.975" transform="rotate(-0.225337 78.0502 20.7657)" fill="#1B263B"/>
<rect x="82.763" y="31" width="1.00496" height="18.975" transform="rotate(81.426 82.763 31)" fill="#1B263B"/>
<rect x="82.763" y="31" width="1.00496" height="18.975" transform="rotate(81.426 82.763 31)" fill="#1B263B"/>
<rect x="83.9961" y="36.6527" width="2.49532" height="5.55148" transform="rotate(77.6349 83.9961 36.6527)" fill="#1B263B"/>
<rect x="72.4227" y="16" width="2.49532" height="5.55148" transform="rotate(77.6349 72.4227 16)" fill="#1B263B"/>
<rect x="76.9655" y="17.2765" width="2.49532" height="5.55148" transform="rotate(98.8776 76.9655 17.2765)" fill="#1B263B"/>
<rect x="80.5797" y="22.1094" width="2.23457" height="5.55148" transform="rotate(137.751 80.5797 22.1094)" fill="#1B263B"/>
<rect x="44.9855" y="6.33496" width="6.00095" height="41.8474" transform="rotate(-0.225337 44.9855 6.33496)" fill="#1B263B"/>
<rect x="4.66724" y="3.95386" width="7.04712" height="44.0827" transform="rotate(-0.225337 4.66724 3.95386)" fill="#1B263B"/>
<rect x="25.9216" y="24.1301" width="6.17435" height="19.5302" transform="rotate(90.2878 25.9216 24.1301)" fill="#1B263B"/>
<rect x="25.9216" y="24.1301" width="6.17435" height="19.5302" transform="rotate(90.2878 25.9216 24.1301)" fill="#1B263B"/>
<rect x="25.561" y="3.09814" width="6.17435" height="20.3014" transform="rotate(90.2878 25.561 3.09814)" fill="#1B263B"/>
<rect x="49.0011" y="64.2874" width="2.49532" height="39.8563" transform="rotate(-0.225337 49.0011 64.2874)" fill="#1B263B"/>
<rect x="65.4946" y="102.2" width="2.02966" height="19.4956" transform="rotate(89.4375 65.4946 102.2)" fill="#1B263B"/>
<rect x="162" y="58.0098" width="2.49532" height="45.4342" transform="rotate(-0.225337 162 58.0098)" fill="#1B263B"/>
<rect x="163.948" y="57.6008" width="1.91315" height="5.31255" transform="rotate(89.6301 163.948 57.6008)" fill="#1B263B"/>
<rect x="177.27" y="71" width="2.49532" height="25.1728" transform="rotate(40.2653 177.27 71)" fill="#1B263B"/>
<rect x="181.27" y="71" width="2.49532" height="28.7344" transform="rotate(40.2653 181.27 71)" fill="#1B263B"/>
<rect x="184.556" y="103.226" width="2.49532" height="25.9296" transform="rotate(147.47 184.556 103.226)" fill="#1B263B"/>
<rect x="180.356" y="102.777" width="2.49532" height="22.4828" transform="rotate(147.47 180.356 102.777)" fill="#1B263B"/>
<rect x="182.782" y="71.1154" width="1.75422" height="5.28822" transform="rotate(90.3941 182.782 71.1154)" fill="#1B263B"/>
<rect x="164.312" y="102" width="2.06111" height="5.87103" transform="rotate(89.6301 164.312 102)" fill="#1B263B"/>
<rect x="183.871" y="102" width="2.06111" height="5.87103" transform="rotate(89.6301 183.871 102)" fill="#1B263B"/>
<rect x="45" y="84" width="6" height="25" transform="rotate(-90 45 84)" fill="#1B263B"/>
<ellipse cx="61.5" cy="100" rx="6.5" ry="2" fill="#1B263B"/>
<ellipse cx="52.5" cy="100" rx="6.5" ry="2" fill="#1B263B"/>
<ellipse cx="74.3493" cy="98.3274" rx="6.5" ry="2.46378" transform="rotate(-44.7794 74.3493 98.3274)" fill="#1B263B"/>
<ellipse cx="76.368" cy="88.826" rx="6.51463" ry="2.75071" transform="rotate(-111.57 76.368 88.826)" fill="#1B263B"/>
<ellipse cx="67.3937" cy="61.4136" rx="5.96997" ry="2.03475" transform="rotate(-172.793 67.3937 61.4136)" fill="#1B263B"/>
<ellipse cx="65.6987" cy="63.2194" rx="7.59061" ry="1.53695" transform="rotate(174.794 65.6987 63.2194)" fill="#1B263B"/>
<ellipse cx="66.0653" cy="62.7028" rx="8.02946" ry="1.49693" transform="rotate(-178.527 66.0653 62.7028)" fill="#1B263B"/>
<ellipse cx="66.0653" cy="62.7028" rx="8.02946" ry="1.49693" transform="rotate(-178.527 66.0653 62.7028)" fill="#1B263B"/>
<ellipse cx="69.188" cy="65.496" rx="6.30337" ry="1.49693" transform="rotate(-154.795 69.188 65.496)" fill="#1B263B"/>
<ellipse cx="74.1935" cy="64.8806" rx="4.98275" ry="1.49693" transform="rotate(-126.988 74.1935 64.8806)" fill="#1B263B"/>
<ellipse cx="75.9899" cy="71.1079" rx="4.98275" ry="1.49693" transform="rotate(-84.2344 75.9899 71.1079)" fill="#1B263B"/>
<ellipse cx="70.9899" cy="74.1079" rx="4.98275" ry="1.49693" transform="rotate(-73.8878 70.9899 74.1079)" fill="#1B263B"/>
<ellipse cx="70.788" cy="67.0636" rx="4.98275" ry="1.49693" transform="rotate(-120.004 70.788 67.0636)" fill="#1B263B"/>
<ellipse cx="71.8433" cy="68.0756" rx="4.98275" ry="1.49693" transform="rotate(-94.0282 71.8433 68.0756)" fill="#1B263B"/>
<ellipse cx="69.9395" cy="82.7784" rx="6.51463" ry="2.59894" transform="rotate(-149.898 69.9395 82.7784)" fill="#1B263B"/>
<ellipse cx="67.6979" cy="101.791" rx="6.5" ry="2" transform="rotate(-7.12747 67.6979 101.791)" fill="#1B263B"/>
<ellipse cx="64.5003" cy="79.2293" rx="8.02946" ry="1.75969" transform="rotate(148.67 64.5003 79.2293)" fill="#1B263B"/>
<ellipse cx="63.1399" cy="79.184" rx="8.02946" ry="1.58645" transform="rotate(166.95 63.1399 79.184)" fill="#1B263B"/>
<ellipse cx="67.1867" cy="83.8214" rx="8.02946" ry="1.38411" transform="rotate(-161.81 67.1867 83.8214)" fill="#1B263B"/>
<ellipse cx="71.2441" cy="86.6059" rx="8.02946" ry="1.10562" transform="rotate(-134.769 71.2441 86.6059)" fill="#1B263B"/>
<ellipse cx="73.1524" cy="91.0358" rx="8.02946" ry="1.10562" transform="rotate(-107.3 73.1524 91.0358)" fill="#1B263B"/>
<ellipse cx="72.5679" cy="94.9711" rx="8.02946" ry="1.10562" transform="rotate(-85.4908 72.5679 94.9711)" fill="#1B263B"/>
<ellipse cx="72.049" cy="95.2955" rx="8.02946" ry="1.285" transform="rotate(-57.9228 72.049 95.2955)" fill="#1B263B"/>
<ellipse cx="65.9568" cy="99.0438" rx="8.02946" ry="1.2716" transform="rotate(-20.8301 65.9568 99.0438)" fill="#1B263B"/>
<ellipse cx="70.637" cy="78.4538" rx="8.02946" ry="1.49693" transform="rotate(146.355 70.637 78.4538)" fill="#1B263B"/>
<ellipse cx="48.1465" cy="66.5107" rx="3.98456" ry="1.49693" transform="rotate(146.355 48.1465 66.5107)" fill="#1B263B"/>
<ellipse cx="57.8284" cy="62.4412" rx="7.61504" ry="1.08137" transform="rotate(166.166 57.8284 62.4412)" fill="#1B263B"/>
<ellipse cx="58.6227" cy="63.9935" rx="7.61504" ry="0.928066" transform="rotate(179.507 58.6227 63.9935)" fill="#1B263B"/>
<ellipse cx="67.5138" cy="78.6948" rx="8.02946" ry="1.49693" transform="rotate(146.355 67.5138 78.6948)" fill="#1B263B"/>
<ellipse cx="47.7942" cy="4.01514" rx="3.36368" ry="1.35511" transform="rotate(125.027 47.7942 4.01514)" fill="#1B263B"/>
<ellipse cx="49.8772" cy="4.31293" rx="3.43925" ry="1.45224" transform="rotate(92.0377 49.8772 4.31293)" fill="#1B263B"/>
<ellipse cx="35.2062" cy="8.31071" rx="4.33323" ry="0.853691" transform="rotate(-125.403 35.2062 8.31071)" fill="#1B263B"/>
<ellipse cx="61.2674" cy="20.9706" rx="2.55295" ry="1.56725" transform="rotate(51.0409 61.2674 20.9706)" fill="#1B263B"/>
<ellipse cx="66.3009" cy="18.9528" rx="6.3284" ry="1.36538" transform="rotate(-36.238 66.3009 18.9528)" fill="#1B263B"/>
<ellipse cx="74.5142" cy="15.9203" rx="6.3284" ry="1.82948" transform="rotate(7.56564 74.5142 15.9203)" fill="#1B263B"/>
<ellipse cx="82.0849" cy="22.5505" rx="6.3284" ry="1.82948" transform="rotate(67.8009 82.0849 22.5505)" fill="#1B263B"/>
<ellipse cx="83.0193" cy="32.7281" rx="6.71604" ry="1.97063" transform="rotate(89.5846 83.0193 32.7281)" fill="#1B263B"/>
<ellipse cx="59.0097" cy="39.415" rx="5.40085" ry="1.97063" transform="rotate(89.5846 59.0097 39.415)" fill="#1B263B"/>
<ellipse cx="62.5004" cy="39.2979" rx="5.40085" ry="0.888753" transform="rotate(59.5883 62.5004 39.2979)" fill="#1B263B"/>
<ellipse cx="61.9311" cy="43.7676" rx="3.25256" ry="1.08105" transform="rotate(-19.8978 61.9311 43.7676)" fill="#1B263B"/>
<ellipse cx="61.9193" cy="32.7598" rx="3.86517" ry="1.08105" transform="rotate(-36.4176 61.9193 32.7598)" fill="#1B263B"/>
<ellipse cx="70.9345" cy="29.2215" rx="8.01034" ry="1.08105" transform="rotate(-10.3705 70.9345 29.2215)" fill="#1B263B"/>
<ellipse cx="64.7521" cy="35.1645" rx="3.86517" ry="1.08105" transform="rotate(-36.4176 64.7521 35.1645)" fill="#1B263B"/>
<ellipse cx="63.2857" cy="38.4404" rx="4.32838" ry="1.13099" transform="rotate(-87.9425 63.2857 38.4404)" fill="#1B263B"/>
<ellipse cx="32.4278" cy="17.0368" rx="8.02946" ry="1.38411" transform="rotate(-89.6884 32.4278 17.0368)" fill="#1B263B"/>
<ellipse cx="30.2264" cy="22.8416" rx="8.02946" ry="1.22991" transform="rotate(-48.668 30.2264 22.8416)" fill="#1B263B"/>
<ellipse cx="63.799" cy="17.571" rx="4.25519" ry="2.05276" transform="rotate(-25.4553 63.799 17.571)" fill="#1B263B"/>
<ellipse cx="66.7126" cy="16.6232" rx="4.2552" ry="2.11304" transform="rotate(-11.2428 66.7126 16.6232)" fill="#1B263B"/>
</g>
<defs>
<clipPath id="clip0_720_27">
<rect width="201" height="106" fill="white"/>
</clipPath>
</defs>
</svg>
