<svg width="560" height="700" viewBox="0 0 560 700" fill="none" xmlns="http://www.w3.org/2000/svg">
<path d="M560 0H0V700H560V0Z" fill="#5DBB63"/>
<rect x="36.5" y="627.5" width="487" height="43" stroke="white" stroke-width="5"/>
<rect x="36" y="600" width="488" height="28" stroke="white" stroke-width="4"/>
<rect x="36" y="572" width="488" height="28" stroke="white" stroke-width="4"/>
<rect x="36" y="544" width="488" height="28" stroke="white" stroke-width="4"/>
<rect x="36" y="516" width="488" height="28" stroke="white" stroke-width="4"/>
<rect x="36" y="488" width="488" height="28" stroke="white" stroke-width="4"/>
<rect x="36" y="460" width="488" height="28" stroke="white" stroke-width="4"/>
<rect x="36" y="432" width="488" height="28" stroke="white" stroke-width="4"/>
<rect x="36" y="404" width="488" height="28" stroke="white" stroke-width="4"/>
<rect x="36" y="376" width="488" height="28" stroke="white" stroke-width="4"/>
<rect x="36" y="348" width="488" height="28" stroke="white" stroke-width="4"/>
<rect x="36" y="320" width="488" height="28" stroke="white" stroke-width="4"/>
<rect x="36" y="292" width="488" height="28" stroke="white" stroke-width="4"/>
<rect x="36" y="264" width="488" height="28" stroke="white" stroke-width="4"/>
<rect x="36" y="236" width="488" height="28" stroke="white" stroke-width="4"/>
<rect x="36" y="208" width="488" height="28" stroke="white" stroke-width="4"/>
<rect x="36" y="180" width="488" height="28" stroke="white" stroke-width="4"/>
<rect x="36" y="152" width="488" height="28" stroke="white" stroke-width="4"/>
<rect x="36" y="124" width="488" height="28" stroke="white" stroke-width="4"/>
<rect x="36" y="96" width="488" height="28" stroke="white" stroke-width="4"/>
<rect x="36" y="68" width="488" height="28" stroke="white" stroke-width="4"/>
<rect x="36.5" y="24.5" width="487" height="43" stroke="white" stroke-width="5"/>
<line x1="56" y1="630" x2="56" y2="71" stroke="white" stroke-width="10" stroke-dasharray="3 3"/>
<line x1="158" y1="629" x2="158" y2="70" stroke="white" stroke-width="10" stroke-dasharray="3 3"/>
<line x1="404" y1="630" x2="404" y2="71" stroke="white" stroke-width="10" stroke-dasharray="3 3"/>
<line x1="506" y1="630" x2="506" y2="71" stroke="white" stroke-width="10" stroke-dasharray="3 3"/>
<line x1="260" y1="15" x2="300" y2="15" stroke="#FFD21C" stroke-width="4"/>
<line x1="280" y1="27" x2="280" y2="17" stroke="#FFD21C" stroke-width="4"/>
<line x1="298" y1="13" x2="298" y2="3" stroke="#FFD21C" stroke-width="4"/>
<line x1="262" y1="13" x2="262" y2="3" stroke="#FFD21C" stroke-width="4"/>
<line x1="261" y1="661" x2="301" y2="661" stroke="#FFD21C" stroke-width="4"/>
<line x1="281" y1="673" x2="281" y2="663" stroke="#FFD21C" stroke-width="4"/>
<line x1="299" y1="659" x2="299" y2="649" stroke="#FFD21C" stroke-width="4"/>
<line x1="263" y1="659" x2="263" y2="649" stroke="#FFD21C" stroke-width="4"/>
<path d="M447.727 575.989H471V580.909H452.398V581.045L455.739 586.375H451.375L447.727 580.614V575.989ZM471.511 561.332C471.504 563.287 471.023 564.969 470.068 566.378C469.114 567.779 467.731 568.859 465.92 569.616C464.11 570.366 461.932 570.738 459.386 570.73C456.848 570.73 454.686 570.355 452.898 569.605C451.11 568.848 449.75 567.768 448.818 566.366C447.879 564.957 447.409 563.279 447.409 561.332C447.409 559.385 447.879 557.711 448.818 556.31C449.758 554.901 451.121 553.817 452.909 553.06C454.689 552.302 456.848 551.927 459.386 551.935C461.939 551.935 464.121 552.313 465.932 553.071C467.742 553.821 469.125 554.897 470.08 556.298C471.034 557.7 471.511 559.378 471.511 561.332ZM467.432 561.332C467.432 559.999 466.761 558.935 465.42 558.139C464.08 557.344 462.068 556.95 459.386 556.957C457.621 556.957 456.152 557.139 454.977 557.503C453.803 557.859 452.92 558.366 452.33 559.026C451.739 559.677 451.443 560.446 451.443 561.332C451.443 562.658 452.106 563.719 453.432 564.514C454.758 565.31 456.742 565.711 459.386 565.719C461.174 565.719 462.667 565.541 463.864 565.185C465.053 564.821 465.947 564.31 466.545 563.651C467.136 562.991 467.432 562.219 467.432 561.332Z" fill="white"/>
<path d="M471 533.114H467.455L459.784 524.83C459.102 524.125 458.489 523.534 457.943 523.057C457.398 522.572 456.864 522.205 456.341 521.955C455.811 521.705 455.239 521.58 454.625 521.58C453.943 521.58 453.356 521.735 452.864 522.045C452.364 522.356 451.981 522.78 451.716 523.318C451.443 523.856 451.307 524.466 451.307 525.148C451.307 525.86 451.451 526.481 451.739 527.011C452.027 527.542 452.439 527.951 452.977 528.239C453.515 528.527 454.155 528.67 454.898 528.67V533.341C453.375 533.341 452.053 532.996 450.932 532.307C449.811 531.617 448.943 530.652 448.33 529.409C447.716 528.167 447.409 526.735 447.409 525.114C447.409 523.447 447.705 521.996 448.295 520.761C448.879 519.519 449.689 518.553 450.727 517.864C451.765 517.174 452.955 516.83 454.295 516.83C455.174 516.83 456.042 517.004 456.898 517.352C457.754 517.693 458.705 518.303 459.75 519.182C460.788 520.061 462.034 521.299 463.489 522.898L466.818 526.295H466.977V516.523H471V533.114ZM471.511 503.832C471.504 505.787 471.023 507.469 470.068 508.878C469.114 510.279 467.731 511.359 465.92 512.116C464.11 512.866 461.932 513.238 459.386 513.23C456.848 513.23 454.686 512.855 452.898 512.105C451.11 511.348 449.75 510.268 448.818 508.866C447.879 507.457 447.409 505.779 447.409 503.832C447.409 501.885 447.879 500.211 448.818 498.81C449.758 497.401 451.121 496.317 452.909 495.56C454.689 494.802 456.848 494.427 459.386 494.435C461.939 494.435 464.121 494.813 465.932 495.571C467.742 496.321 469.125 497.397 470.08 498.798C471.034 500.2 471.511 501.878 471.511 503.832ZM467.432 503.832C467.432 502.499 466.761 501.435 465.42 500.639C464.08 499.844 462.068 499.45 459.386 499.457C457.621 499.457 456.152 499.639 454.977 500.003C453.803 500.359 452.92 500.866 452.33 501.526C451.739 502.177 451.443 502.946 451.443 503.832C451.443 505.158 452.106 506.219 453.432 507.014C454.758 507.81 456.742 508.211 459.386 508.219C461.174 508.219 462.667 508.041 463.864 507.685C465.053 507.321 465.947 506.81 466.545 506.151C467.136 505.491 467.432 504.719 467.432 503.832Z" fill="white"/>
<path d="M471.318 469.511C471.318 471.208 471.027 472.72 470.443 474.045C469.852 475.364 469.042 476.405 468.011 477.17C466.973 477.928 465.777 478.318 464.42 478.341V473.386C464.989 473.356 465.489 473.17 465.92 472.83C466.345 472.481 466.674 472.019 466.909 471.443C467.144 470.867 467.261 470.22 467.261 469.5C467.261 468.75 467.129 468.087 466.864 467.511C466.598 466.936 466.231 466.485 465.761 466.159C465.292 465.833 464.75 465.67 464.136 465.67C463.515 465.67 462.966 465.845 462.489 466.193C462.004 466.534 461.625 467.027 461.352 467.67C461.08 468.307 460.943 469.064 460.943 469.943V472.114H457.33V469.943C457.33 469.201 457.201 468.545 456.943 467.977C456.686 467.402 456.33 466.955 455.875 466.636C455.413 466.318 454.875 466.159 454.261 466.159C453.678 466.159 453.167 466.299 452.727 466.58C452.28 466.852 451.932 467.239 451.682 467.739C451.432 468.231 451.307 468.807 451.307 469.466C451.307 470.133 451.428 470.742 451.67 471.295C451.905 471.848 452.242 472.292 452.682 472.625C453.121 472.958 453.636 473.136 454.227 473.159V477.875C452.886 477.852 451.705 477.47 450.682 476.727C449.659 475.985 448.86 474.985 448.284 473.727C447.701 472.462 447.409 471.034 447.409 469.443C447.409 467.837 447.701 466.432 448.284 465.227C448.867 464.023 449.655 463.087 450.648 462.42C451.633 461.746 452.739 461.413 453.966 461.42C455.269 461.413 456.356 461.818 457.227 462.636C458.098 463.447 458.652 464.504 458.886 465.807H459.068C459.288 464.095 459.883 462.792 460.852 461.898C461.814 460.996 463.019 460.549 464.466 460.557C465.792 460.549 466.97 460.932 468 461.705C469.03 462.47 469.841 463.527 470.432 464.875C471.023 466.223 471.318 467.769 471.318 469.511ZM471.511 447.895C471.504 449.849 471.023 451.531 470.068 452.94C469.114 454.342 467.731 455.421 465.92 456.179C464.11 456.929 461.932 457.3 459.386 457.293C456.848 457.293 454.686 456.918 452.898 456.168C451.11 455.41 449.75 454.33 448.818 452.929C447.879 451.52 447.409 449.842 447.409 447.895C447.409 445.948 447.879 444.274 448.818 442.872C449.758 441.463 451.121 440.38 452.909 439.622C454.689 438.865 456.848 438.49 459.386 438.497C461.939 438.497 464.121 438.876 465.932 439.634C467.742 440.384 469.125 441.459 470.08 442.861C471.034 444.262 471.511 445.94 471.511 447.895ZM467.432 447.895C467.432 446.562 466.761 445.497 465.42 444.702C464.08 443.906 462.068 443.512 459.386 443.52C457.621 443.52 456.152 443.702 454.977 444.065C453.803 444.421 452.92 444.929 452.33 445.588C451.739 446.24 451.443 447.009 451.443 447.895C451.443 449.221 452.106 450.281 453.432 451.077C454.758 451.872 456.742 452.274 459.386 452.281C461.174 452.281 462.667 452.103 463.864 451.747C465.053 451.384 465.947 450.872 466.545 450.213C467.136 449.554 467.432 448.781 467.432 447.895Z" fill="white"/>
<path d="M466.909 423.466H463.034L447.727 413.75V410.409H453.091V412.386L462.784 418.511H462.966V404.705H466.909V423.466ZM471 412.295H465.727L464.011 412.205H447.727V407.591H471V412.295ZM471.511 392.301C471.504 394.256 471.023 395.937 470.068 397.347C469.114 398.748 467.731 399.828 465.92 400.585C464.11 401.335 461.932 401.706 459.386 401.699C456.848 401.699 454.686 401.324 452.898 400.574C451.11 399.816 449.75 398.737 448.818 397.335C447.879 395.926 447.409 394.248 447.409 392.301C447.409 390.354 447.879 388.68 448.818 387.278C449.758 385.869 451.121 384.786 452.909 384.028C454.689 383.271 456.848 382.896 459.386 382.903C461.939 382.903 464.121 383.282 465.932 384.04C467.742 384.79 469.125 385.866 470.08 387.267C471.034 388.669 471.511 390.347 471.511 392.301ZM467.432 392.301C467.432 390.968 466.761 389.903 465.42 389.108C464.08 388.312 462.068 387.919 459.386 387.926C457.621 387.926 456.152 388.108 454.977 388.472C453.803 388.828 452.92 389.335 452.33 389.994C451.739 390.646 451.443 391.415 451.443 392.301C451.443 393.627 452.106 394.687 453.432 395.483C454.758 396.278 456.742 396.68 459.386 396.688C461.174 396.688 462.667 396.509 463.864 396.153C465.053 395.79 465.947 395.278 466.545 394.619C467.136 393.96 467.432 393.188 467.432 392.301Z" fill="white"/>
<path d="M467.909 312.466H464.034L448.727 302.75V299.409H454.091V301.386L463.784 307.511H463.966V293.705H467.909V312.466ZM472 301.295H466.727L465.011 301.205H448.727V296.591H472V301.295ZM472.511 281.301C472.504 283.256 472.023 284.937 471.068 286.347C470.114 287.748 468.731 288.828 466.92 289.585C465.11 290.335 462.932 290.706 460.386 290.699C457.848 290.699 455.686 290.324 453.898 289.574C452.11 288.816 450.75 287.737 449.818 286.335C448.879 284.926 448.409 283.248 448.409 281.301C448.409 279.354 448.879 277.68 449.818 276.278C450.758 274.869 452.121 273.786 453.909 273.028C455.689 272.271 457.848 271.896 460.386 271.903C462.939 271.903 465.121 272.282 466.932 273.04C468.742 273.79 470.125 274.866 471.08 276.267C472.034 277.669 472.511 279.347 472.511 281.301ZM468.432 281.301C468.432 279.968 467.761 278.903 466.42 278.108C465.08 277.312 463.068 276.919 460.386 276.926C458.621 276.926 457.152 277.108 455.977 277.472C454.803 277.828 453.92 278.335 453.33 278.994C452.739 279.646 452.443 280.415 452.443 281.301C452.443 282.627 453.106 283.687 454.432 284.483C455.758 285.278 457.742 285.68 460.386 285.688C462.174 285.688 463.667 285.509 464.864 285.153C466.053 284.79 466.947 284.278 467.545 283.619C468.136 282.96 468.432 282.188 468.432 281.301Z" fill="white"/>
<path d="M472.318 249.511C472.318 251.208 472.027 252.72 471.443 254.045C470.852 255.364 470.042 256.405 469.011 257.17C467.973 257.928 466.777 258.318 465.42 258.341V253.386C465.989 253.356 466.489 253.17 466.92 252.83C467.345 252.481 467.674 252.019 467.909 251.443C468.144 250.867 468.261 250.22 468.261 249.5C468.261 248.75 468.129 248.087 467.864 247.511C467.598 246.936 467.231 246.485 466.761 246.159C466.292 245.833 465.75 245.67 465.136 245.67C464.515 245.67 463.966 245.845 463.489 246.193C463.004 246.534 462.625 247.027 462.352 247.67C462.08 248.307 461.943 249.064 461.943 249.943V252.114H458.33V249.943C458.33 249.201 458.201 248.545 457.943 247.977C457.686 247.402 457.33 246.955 456.875 246.636C456.413 246.318 455.875 246.159 455.261 246.159C454.678 246.159 454.167 246.299 453.727 246.58C453.28 246.852 452.932 247.239 452.682 247.739C452.432 248.231 452.307 248.807 452.307 249.466C452.307 250.133 452.428 250.742 452.67 251.295C452.905 251.848 453.242 252.292 453.682 252.625C454.121 252.958 454.636 253.136 455.227 253.159V257.875C453.886 257.852 452.705 257.47 451.682 256.727C450.659 255.985 449.86 254.985 449.284 253.727C448.701 252.462 448.409 251.034 448.409 249.443C448.409 247.837 448.701 246.432 449.284 245.227C449.867 244.023 450.655 243.087 451.648 242.42C452.633 241.746 453.739 241.413 454.966 241.42C456.269 241.413 457.356 241.818 458.227 242.636C459.098 243.447 459.652 244.504 459.886 245.807H460.068C460.288 244.095 460.883 242.792 461.852 241.898C462.814 240.996 464.019 240.549 465.466 240.557C466.792 240.549 467.97 240.932 469 241.705C470.03 242.47 470.841 243.527 471.432 244.875C472.023 246.223 472.318 247.769 472.318 249.511ZM472.511 227.895C472.504 229.849 472.023 231.531 471.068 232.94C470.114 234.342 468.731 235.421 466.92 236.179C465.11 236.929 462.932 237.3 460.386 237.293C457.848 237.293 455.686 236.918 453.898 236.168C452.11 235.41 450.75 234.33 449.818 232.929C448.879 231.52 448.409 229.842 448.409 227.895C448.409 225.948 448.879 224.274 449.818 222.872C450.758 221.463 452.121 220.38 453.909 219.622C455.689 218.865 457.848 218.49 460.386 218.497C462.939 218.497 465.121 218.876 466.932 219.634C468.742 220.384 470.125 221.459 471.08 222.861C472.034 224.262 472.511 225.94 472.511 227.895ZM468.432 227.895C468.432 226.562 467.761 225.497 466.42 224.702C465.08 223.906 463.068 223.512 460.386 223.52C458.621 223.52 457.152 223.702 455.977 224.065C454.803 224.421 453.92 224.929 453.33 225.588C452.739 226.24 452.443 227.009 452.443 227.895C452.443 229.221 453.106 230.281 454.432 231.077C455.758 231.872 457.742 232.274 460.386 232.281C462.174 232.281 463.667 232.103 464.864 231.747C466.053 231.384 466.947 230.872 467.545 230.213C468.136 229.554 468.432 228.781 468.432 227.895Z" fill="white"/>
<path d="M472 201.114H468.455L460.784 192.83C460.102 192.125 459.489 191.534 458.943 191.057C458.398 190.572 457.864 190.205 457.341 189.955C456.811 189.705 456.239 189.58 455.625 189.58C454.943 189.58 454.356 189.735 453.864 190.045C453.364 190.356 452.981 190.78 452.716 191.318C452.443 191.856 452.307 192.466 452.307 193.148C452.307 193.86 452.451 194.481 452.739 195.011C453.027 195.542 453.439 195.951 453.977 196.239C454.515 196.527 455.155 196.67 455.898 196.67V201.341C454.375 201.341 453.053 200.996 451.932 200.307C450.811 199.617 449.943 198.652 449.33 197.409C448.716 196.167 448.409 194.735 448.409 193.114C448.409 191.447 448.705 189.996 449.295 188.761C449.879 187.519 450.689 186.553 451.727 185.864C452.765 185.174 453.955 184.83 455.295 184.83C456.174 184.83 457.042 185.004 457.898 185.352C458.754 185.693 459.705 186.303 460.75 187.182C461.788 188.061 463.034 189.299 464.489 190.898L467.818 194.295H467.977V184.523H472V201.114ZM472.511 171.832C472.504 173.787 472.023 175.469 471.068 176.878C470.114 178.279 468.731 179.359 466.92 180.116C465.11 180.866 462.932 181.238 460.386 181.23C457.848 181.23 455.686 180.855 453.898 180.105C452.11 179.348 450.75 178.268 449.818 176.866C448.879 175.457 448.409 173.779 448.409 171.832C448.409 169.885 448.879 168.211 449.818 166.81C450.758 165.401 452.121 164.317 453.909 163.56C455.689 162.802 457.848 162.427 460.386 162.435C462.939 162.435 465.121 162.813 466.932 163.571C468.742 164.321 470.125 165.397 471.08 166.798C472.034 168.2 472.511 169.878 472.511 171.832ZM468.432 171.832C468.432 170.499 467.761 169.435 466.42 168.639C465.08 167.844 463.068 167.45 460.386 167.457C458.621 167.457 457.152 167.639 455.977 168.003C454.803 168.359 453.92 168.866 453.33 169.526C452.739 170.177 452.443 170.946 452.443 171.832C452.443 173.158 453.106 174.219 454.432 175.014C455.758 175.81 457.742 176.211 460.386 176.219C462.174 176.219 463.667 176.041 464.864 175.685C466.053 175.321 466.947 174.81 467.545 174.151C468.136 173.491 468.432 172.719 468.432 171.832Z" fill="white"/>
<path d="M460 98L462 102H458L460 98Z" fill="white"/>
<path d="M448.727 130.989H472V135.909H453.398V136.045L456.739 141.375H452.375L448.727 135.614V130.989ZM472.511 116.332C472.504 118.287 472.023 119.969 471.068 121.378C470.114 122.779 468.731 123.859 466.92 124.616C465.11 125.366 462.932 125.738 460.386 125.73C457.848 125.73 455.686 125.355 453.898 124.605C452.11 123.848 450.75 122.768 449.818 121.366C448.879 119.957 448.409 118.279 448.409 116.332C448.409 114.385 448.879 112.711 449.818 111.31C450.758 109.901 452.121 108.817 453.909 108.06C455.689 107.302 457.848 106.927 460.386 106.935C462.939 106.935 465.121 107.313 466.932 108.071C468.742 108.821 470.125 109.897 471.08 111.298C472.034 112.7 472.511 114.378 472.511 116.332ZM468.432 116.332C468.432 114.999 467.761 113.935 466.42 113.139C465.08 112.344 463.068 111.95 460.386 111.957C458.621 111.957 457.152 112.139 455.977 112.503C454.803 112.859 453.92 113.366 453.33 114.026C452.739 114.677 452.443 115.446 452.443 116.332C452.443 117.658 453.106 118.719 454.432 119.514C455.758 120.31 457.742 120.711 460.386 120.719C462.174 120.719 463.667 120.541 464.864 120.185C466.053 119.821 466.947 119.31 467.545 118.651C468.136 117.991 468.432 117.219 468.432 116.332Z" fill="white"/>
<path d="M472.318 358.614C472.318 360.22 472.023 361.652 471.432 362.909C470.841 364.159 470.027 365.152 468.989 365.886C467.951 366.621 466.761 367.004 465.42 367.034V362.261C466.322 362.208 467.053 361.83 467.614 361.125C468.174 360.42 468.455 359.583 468.455 358.614C468.455 357.841 468.284 357.159 467.943 356.568C467.595 355.97 467.114 355.504 466.5 355.17C465.879 354.83 465.167 354.659 464.364 354.659C463.545 354.659 462.826 354.833 462.205 355.182C461.583 355.523 461.098 355.996 460.75 356.602C460.402 357.208 460.223 357.902 460.216 358.682C460.216 359.364 460.356 360.027 460.636 360.67C460.917 361.307 461.299 361.803 461.784 362.159L461 366.534L448.727 365.432V351.205H452.75V361.375L458.58 361.977V361.841C458.004 361.432 457.527 360.814 457.148 359.989C456.769 359.163 456.58 358.239 456.58 357.216C456.58 355.814 456.909 354.564 457.568 353.466C458.227 352.367 459.133 351.5 460.284 350.864C461.428 350.227 462.746 349.913 464.239 349.92C465.807 349.913 467.201 350.277 468.42 351.011C469.633 351.739 470.587 352.758 471.284 354.068C471.973 355.371 472.318 356.886 472.318 358.614ZM472.511 337.364C472.504 339.318 472.023 341 471.068 342.409C470.114 343.811 468.731 344.89 466.92 345.648C465.11 346.398 462.932 346.769 460.386 346.761C457.848 346.761 455.686 346.386 453.898 345.636C452.11 344.879 450.75 343.799 449.818 342.398C448.879 340.989 448.409 339.311 448.409 337.364C448.409 335.417 448.879 333.742 449.818 332.341C450.758 330.932 452.121 329.848 453.909 329.091C455.689 328.333 457.848 327.958 460.386 327.966C462.939 327.966 465.121 328.345 466.932 329.102C468.742 329.852 470.125 330.928 471.08 332.33C472.034 333.731 472.511 335.409 472.511 337.364ZM468.432 337.364C468.432 336.03 467.761 334.966 466.42 334.17C465.08 333.375 463.068 332.981 460.386 332.989C458.621 332.989 457.152 333.17 455.977 333.534C454.803 333.89 453.92 334.398 453.33 335.057C452.739 335.708 452.443 336.477 452.443 337.364C452.443 338.689 453.106 339.75 454.432 340.545C455.758 341.341 457.742 341.742 460.386 341.75C462.174 341.75 463.667 341.572 464.864 341.216C466.053 340.852 466.947 340.341 467.545 339.682C468.136 339.023 468.432 338.25 468.432 337.364Z" fill="white"/>
<path d="M460 266L462 270H458L460 266Z" fill="white"/>
<path d="M459 430L457 426H461L459 430Z" fill="white"/>
<path d="M459 486L457 482H461L459 486Z" fill="white"/>
<path d="M459 542L457 538H461L459 542Z" fill="white"/>
<path d="M461 598L459 594H463L461 598Z" fill="white"/>
<path d="M460 210L462 214H458L460 210Z" fill="white"/>
<path d="M460 154L462 158H458L460 154Z" fill="white"/>
<path d="M124.199 120.008L100.927 120.016L100.925 115.095L119.527 115.089L119.527 114.952L116.184 109.624L120.548 109.622L124.198 115.383L124.199 120.008ZM100.421 134.672C100.427 132.718 100.908 131.036 101.862 129.626C102.816 128.224 104.198 127.144 106.009 126.386C107.819 125.635 109.997 125.263 112.542 125.27C115.08 125.269 117.243 125.643 119.031 126.393C120.819 127.15 122.18 128.229 123.112 129.63C124.052 131.039 124.522 132.717 124.523 134.664C124.524 136.611 124.054 138.285 123.116 139.687C122.177 141.096 120.813 142.18 119.026 142.938C117.246 143.697 115.087 144.072 112.549 144.066C109.996 144.067 107.814 143.688 106.003 142.932C104.192 142.182 102.809 141.107 101.854 139.706C100.899 138.305 100.421 136.627 100.421 134.672ZM104.5 134.671C104.501 136.004 105.171 137.068 106.513 137.863C107.854 138.658 109.865 139.051 112.547 139.043C114.312 139.042 115.782 138.86 116.956 138.496C118.13 138.139 119.013 137.632 119.603 136.972C120.194 136.32 120.489 135.551 120.489 134.665C120.488 133.339 119.825 132.279 118.499 131.484C117.173 130.689 115.188 130.288 112.544 130.282C110.756 130.282 109.264 130.461 108.067 130.817C106.878 131.181 105.984 131.693 105.386 132.352C104.795 133.012 104.5 133.784 104.5 134.671Z" fill="white"/>
<path d="M100.942 162.891L104.487 162.889L112.161 171.171C112.843 171.875 113.457 172.466 114.002 172.943C114.548 173.428 115.082 173.795 115.605 174.045C116.135 174.294 116.707 174.419 117.321 174.419C118.003 174.419 118.59 174.263 119.082 173.953C119.582 173.642 119.965 173.217 120.23 172.679C120.502 172.141 120.638 171.532 120.638 170.85C120.638 170.138 120.494 169.516 120.205 168.986C119.917 168.456 119.504 168.047 118.966 167.759C118.428 167.472 117.788 167.328 117.046 167.328L117.044 162.658C118.567 162.657 119.889 163.001 121.01 163.69C122.132 164.379 123 165.345 123.614 166.587C124.228 167.829 124.535 169.261 124.536 170.882C124.536 172.549 124.241 174 123.651 175.235C123.068 176.478 122.258 177.444 121.22 178.134C120.182 178.823 118.993 179.168 117.652 179.169C116.773 179.169 115.906 178.995 115.05 178.647C114.194 178.307 113.243 177.697 112.197 176.819C111.159 175.94 109.912 174.702 108.457 173.104L105.126 169.707L104.967 169.708L104.971 179.48L100.948 179.482L100.942 162.891ZM100.441 192.172C100.448 190.218 100.928 188.536 101.882 187.126C102.836 185.724 104.219 184.644 106.029 183.886C107.839 183.135 110.017 182.763 112.563 182.77C115.101 182.769 117.264 183.143 119.052 183.893C120.84 184.65 122.2 185.729 123.132 187.13C124.072 188.539 124.543 190.217 124.543 192.164C124.544 194.111 124.075 195.785 123.136 197.187C122.197 198.596 120.834 199.68 119.046 200.438C117.266 201.197 115.107 201.572 112.569 201.566C110.016 201.567 107.834 201.188 106.023 200.432C104.213 199.682 102.83 198.607 101.875 197.206C100.92 195.805 100.442 194.127 100.441 192.172ZM104.52 192.171C104.521 193.504 105.192 194.568 106.533 195.363C107.874 196.158 109.886 196.551 112.568 196.543C114.333 196.542 115.802 196.36 116.976 195.996C118.151 195.639 119.033 195.132 119.624 194.472C120.214 193.82 120.509 193.051 120.509 192.165C120.509 190.839 119.845 189.779 118.519 188.984C117.193 188.189 115.208 187.788 112.564 187.782C110.777 187.782 109.284 187.961 108.087 188.317C106.898 188.681 106.004 189.193 105.406 189.852C104.815 190.512 104.52 191.284 104.52 192.171Z" fill="white"/>
<path d="M100.646 226.493C100.646 224.796 100.937 223.285 101.52 221.959C102.11 220.64 102.92 219.598 103.95 218.833C104.988 218.075 106.185 217.684 107.541 217.661L107.543 222.616C106.974 222.646 106.474 222.832 106.043 223.173C105.619 223.522 105.289 223.984 105.055 224.56C104.82 225.136 104.703 225.783 104.703 226.503C104.703 227.253 104.836 227.916 105.101 228.492C105.367 229.067 105.734 229.518 106.204 229.843C106.674 230.169 107.216 230.332 107.829 230.331C108.451 230.331 109 230.157 109.477 229.808C109.962 229.467 110.34 228.975 110.613 228.331C110.885 227.694 111.021 226.936 111.021 226.058L111.02 223.887L114.634 223.886L114.635 226.056C114.635 226.799 114.764 227.454 115.022 228.022C115.28 228.598 115.636 229.045 116.09 229.363C116.553 229.681 117.091 229.84 117.704 229.839C118.288 229.839 118.799 229.699 119.238 229.418C119.685 229.145 120.033 228.759 120.283 228.259C120.533 227.766 120.658 227.191 120.658 226.532C120.657 225.865 120.536 225.255 120.293 224.702C120.058 224.149 119.721 223.706 119.281 223.373C118.842 223.04 118.327 222.862 117.736 222.839L117.734 218.123C119.075 218.146 120.257 218.528 121.28 219.27C122.303 220.012 123.103 221.012 123.679 222.269C124.263 223.534 124.555 224.962 124.555 226.553C124.556 228.159 124.265 229.564 123.682 230.769C123.099 231.974 122.311 232.91 121.319 233.577C120.335 234.251 119.229 234.585 118.001 234.578C116.698 234.586 115.611 234.181 114.74 233.363C113.868 232.553 113.315 231.496 113.079 230.193L112.898 230.193C112.678 231.906 112.084 233.209 111.115 234.103C110.153 235.005 108.949 235.452 107.502 235.445C106.176 235.453 104.998 235.071 103.967 234.299C102.937 233.534 102.126 232.477 101.534 231.129C100.943 229.781 100.647 228.236 100.646 226.493ZM100.461 248.11C100.468 246.155 100.948 244.473 101.902 243.064C102.856 241.662 104.238 240.582 106.049 239.824C107.859 239.073 110.037 238.701 112.582 238.708C115.12 238.707 117.283 239.081 119.071 239.83C120.86 240.587 122.22 241.666 123.152 243.068C124.092 244.476 124.562 246.154 124.563 248.101C124.564 250.048 124.095 251.723 123.156 253.124C122.217 254.534 120.854 255.618 119.066 256.376C117.286 257.134 115.127 257.51 112.589 257.503C110.036 257.504 107.854 257.126 106.043 256.369C104.232 255.62 102.849 254.544 101.894 253.143C100.939 251.742 100.461 250.064 100.461 248.11ZM104.54 248.108C104.541 249.442 105.212 250.506 106.553 251.301C107.894 252.096 109.905 252.489 112.587 252.48C114.352 252.48 115.822 252.297 116.996 251.933C118.17 251.577 119.053 251.069 119.643 250.41C120.234 249.758 120.529 248.989 120.529 248.103C120.528 246.777 119.865 245.716 118.539 244.921C117.213 244.126 115.228 243.726 112.584 243.719C110.796 243.72 109.304 243.898 108.107 244.255C106.918 244.619 106.024 245.13 105.426 245.79C104.835 246.449 104.54 247.222 104.54 248.108Z" fill="white"/>
<path d="M105.072 272.537L108.947 272.536L124.257 282.246L124.258 285.587L118.894 285.589L118.894 283.612L109.198 277.49L109.017 277.49L109.021 291.297L105.078 291.298L105.072 272.537ZM100.985 283.709L106.257 283.707L107.973 283.797L124.257 283.792L124.259 288.405L100.986 288.413L100.985 283.709ZM100.48 303.703C100.487 301.749 100.968 300.067 101.922 298.657C102.876 297.256 104.258 296.176 106.068 295.417C107.879 294.667 110.057 294.295 112.602 294.301C115.14 294.301 117.303 294.675 119.091 295.424C120.879 296.181 122.24 297.26 123.172 298.661C124.112 300.07 124.582 301.748 124.583 303.695C124.583 305.642 124.114 307.316 123.175 308.718C122.236 310.128 120.873 311.211 119.086 311.97C117.306 312.728 115.147 313.104 112.609 313.097C110.056 313.098 107.874 312.72 106.063 311.963C104.252 311.213 102.869 310.138 101.914 308.737C100.959 307.336 100.481 305.658 100.48 303.703ZM104.56 303.702C104.56 305.035 105.231 306.099 106.572 306.894C107.914 307.689 109.925 308.083 112.607 308.074C114.372 308.074 115.842 307.891 117.016 307.527C118.19 307.171 119.072 306.663 119.663 306.003C120.254 305.352 120.549 304.583 120.549 303.696C120.548 302.371 119.885 301.31 118.559 300.515C117.233 299.72 115.248 299.319 112.604 299.313C110.816 299.313 109.324 299.492 108.127 299.848C106.938 300.213 106.044 300.724 105.446 301.383C104.855 302.043 104.56 302.816 104.56 303.702Z" fill="white"/>
<path d="M104.111 383.537L107.986 383.536L123.296 393.246L123.297 396.587L117.934 396.589L117.933 394.612L108.238 388.49L108.056 388.49L108.061 402.297L104.118 402.299L104.111 383.537ZM100.024 394.709L105.297 394.707L107.013 394.798L123.297 394.792L123.298 399.405L100.026 399.414L100.024 394.709ZM99.5197 414.704C99.5266 412.749 100.007 411.067 100.961 409.658C101.915 408.256 103.297 407.176 105.108 406.418C106.918 405.667 109.096 405.295 111.641 405.302C114.179 405.301 116.342 405.675 118.13 406.424C119.919 407.181 121.279 408.26 122.211 409.662C123.151 411.07 123.621 412.748 123.622 414.695C123.623 416.642 123.154 418.317 122.215 419.718C121.276 421.128 119.913 422.212 118.125 422.97C116.345 423.728 114.186 424.104 111.648 424.097C109.095 424.098 106.913 423.72 105.102 422.963C103.291 422.214 101.908 421.138 100.953 419.737C99.9983 418.336 99.5204 416.658 99.5197 414.704ZM103.599 414.702C103.6 416.036 104.271 417.1 105.612 417.895C106.953 418.69 108.964 419.083 111.646 419.074C113.411 419.074 114.881 418.891 116.055 418.527C117.229 418.171 118.112 417.663 118.702 417.004C119.293 416.352 119.588 415.583 119.588 414.697C119.587 413.371 118.924 412.31 117.598 411.515C116.272 410.72 114.287 410.32 111.643 410.313C109.855 410.314 108.363 410.492 107.166 410.849C105.977 411.213 105.083 411.724 104.485 412.384C103.894 413.043 103.599 413.816 103.599 414.702Z" fill="white"/>
<path d="M99.7241 446.493C99.7235 444.796 100.015 443.285 100.598 441.959C101.188 440.641 101.998 439.599 103.028 438.833C104.066 438.075 105.263 437.685 106.619 437.661L106.62 442.616C106.052 442.646 105.552 442.832 105.121 443.173C104.697 443.522 104.367 443.984 104.133 444.56C103.898 445.136 103.781 445.784 103.781 446.503C103.781 447.253 103.914 447.916 104.179 448.492C104.445 449.067 104.812 449.518 105.282 449.844C105.752 450.169 106.294 450.332 106.907 450.332C107.528 450.332 108.078 450.157 108.555 449.808C109.04 449.467 109.418 448.975 109.691 448.331C109.963 447.694 110.099 446.937 110.099 446.058L110.098 443.887L113.712 443.886L113.713 446.057C113.713 446.799 113.842 447.454 114.1 448.022C114.357 448.598 114.714 449.045 115.168 449.363C115.631 449.681 116.168 449.84 116.782 449.84C117.365 449.839 117.877 449.699 118.316 449.419C118.763 449.146 119.111 448.759 119.361 448.259C119.611 447.767 119.736 447.191 119.735 446.532C119.735 445.865 119.614 445.255 119.371 444.702C119.136 444.149 118.799 443.706 118.359 443.373C117.92 443.04 117.405 442.862 116.814 442.84L116.812 438.124C118.153 438.146 119.335 438.528 120.358 439.27C121.381 440.012 122.181 441.012 122.757 442.269C123.34 443.534 123.633 444.962 123.633 446.553C123.634 448.159 123.343 449.565 122.76 450.769C122.177 451.974 121.389 452.91 120.397 453.577C119.412 454.252 118.307 454.585 117.079 454.578C115.776 454.586 114.689 454.181 113.817 453.363C112.946 452.553 112.393 451.496 112.157 450.194L111.975 450.194C111.756 451.906 111.162 453.209 110.193 454.103C109.231 455.005 108.027 455.453 106.58 455.445C105.254 455.454 104.076 455.071 103.045 454.299C102.014 453.534 101.203 452.478 100.612 451.129C100.021 449.781 99.7247 448.236 99.7241 446.493ZM99.5386 468.11C99.5455 466.155 100.026 464.473 100.98 463.064C101.934 461.662 103.316 460.582 105.127 459.824C106.937 459.073 109.115 458.701 111.66 458.708C114.198 458.707 116.361 459.081 118.149 459.831C119.937 460.588 121.298 461.667 122.23 463.068C123.17 464.477 123.64 466.154 123.641 468.101C123.642 470.048 123.172 471.723 122.234 473.125C121.295 474.534 119.931 475.618 118.144 476.376C116.364 477.134 114.205 477.51 111.667 477.503C109.114 477.504 106.932 477.126 105.121 476.369C103.31 475.62 101.927 474.545 100.972 473.144C100.017 471.742 99.5393 470.064 99.5386 468.11ZM103.618 468.108C103.619 469.442 104.289 470.506 105.631 471.301C106.972 472.096 108.983 472.489 111.665 472.481C113.43 472.48 114.9 472.298 116.074 471.934C117.248 471.577 118.131 471.069 118.721 470.41C119.312 469.758 119.607 468.989 119.607 468.103C119.606 466.777 118.943 465.717 117.617 464.922C116.291 464.127 114.306 463.726 111.662 463.719C109.874 463.72 108.382 463.898 107.185 464.255C105.996 464.619 105.102 465.131 104.504 465.79C103.913 466.449 103.618 467.222 103.618 468.108Z" fill="white"/>
<path d="M100.059 494.891L103.605 494.89L111.278 503.171C111.96 503.875 112.574 504.466 113.12 504.943C113.665 505.428 114.2 505.795 114.722 506.045C115.253 506.295 115.825 506.419 116.438 506.419C117.12 506.419 117.707 506.264 118.2 505.953C118.7 505.642 119.082 505.218 119.347 504.68C119.619 504.142 119.756 503.532 119.755 502.85C119.755 502.138 119.611 501.517 119.323 500.986C119.035 500.456 118.622 500.047 118.084 499.76C117.546 499.472 116.906 499.328 116.163 499.328L116.162 494.658C117.684 494.657 119.006 495.002 120.128 495.691C121.249 496.38 122.117 497.345 122.731 498.588C123.345 499.83 123.653 501.261 123.653 502.883C123.654 504.549 123.359 506 122.768 507.235C122.185 508.478 121.375 509.444 120.338 510.134C119.3 510.824 118.111 511.169 116.77 511.169C115.891 511.169 115.023 510.996 114.167 510.647C113.311 510.307 112.36 509.697 111.314 508.819C110.276 507.94 109.029 506.702 107.574 505.104L104.244 501.708L104.085 501.708L104.088 511.48L100.065 511.482L100.059 494.891ZM99.5584 524.172C99.5653 522.218 100.046 520.536 101 519.126C101.954 517.725 103.336 516.645 105.146 515.886C106.957 515.136 109.135 514.764 111.68 514.77C114.218 514.77 116.381 515.144 118.169 515.893C119.957 516.65 121.317 517.729 122.25 519.13C123.19 520.539 123.66 522.217 123.661 524.164C123.661 526.111 123.192 527.785 122.253 529.187C121.314 530.597 119.951 531.68 118.164 532.439C116.384 533.197 114.225 533.573 111.687 533.566C109.134 533.567 106.952 533.189 105.141 532.432C103.33 531.682 101.947 530.607 100.992 529.206C100.037 527.805 99.5591 526.127 99.5584 524.172ZM103.638 524.171C103.638 525.504 104.309 526.568 105.65 527.363C106.992 528.158 109.003 528.552 111.685 528.543C113.45 528.543 114.92 528.36 116.094 527.996C117.268 527.64 118.15 527.132 118.741 526.472C119.332 525.821 119.627 525.052 119.627 524.165C119.626 522.84 118.963 521.779 117.637 520.984C116.311 520.189 114.326 519.788 111.682 519.782C109.894 519.782 108.402 519.961 107.205 520.317C106.015 520.681 105.122 521.193 104.523 521.852C103.933 522.512 103.638 523.285 103.638 524.171Z" fill="white"/>
<path d="M112.096 598.001L110.095 594.001L114.095 594L112.096 598.001Z" fill="white"/>
<path d="M123.357 565.008L100.084 565.016L100.082 560.096L118.685 560.089L118.685 559.953L115.342 554.624L119.706 554.623L123.355 560.383L123.357 565.008ZM99.578 579.672C99.5849 577.718 100.065 576.036 101.019 574.626C101.973 573.225 103.356 572.145 105.166 571.386C106.976 570.636 109.154 570.264 111.7 570.27C114.238 570.27 116.401 570.644 118.189 571.393C119.977 572.15 121.337 573.229 122.269 574.63C123.209 576.039 123.68 577.717 123.68 579.664C123.681 581.611 123.212 583.285 122.273 584.687C121.334 586.097 119.971 587.18 118.183 587.939C116.403 588.697 114.244 589.073 111.706 589.066C109.153 589.067 106.971 588.689 105.161 587.932C103.35 587.182 101.967 586.107 101.012 584.706C100.057 583.305 99.5787 581.627 99.578 579.672ZM103.658 579.671C103.658 581.004 104.329 582.068 105.67 582.863C107.011 583.658 109.023 584.052 111.705 584.043C113.47 584.043 114.939 583.86 116.113 583.496C117.288 583.14 118.17 582.632 118.761 581.972C119.351 581.321 119.647 580.552 119.646 579.665C119.646 578.34 118.982 577.279 117.656 576.484C116.33 575.689 114.345 575.288 111.701 575.282C109.914 575.282 108.421 575.461 107.224 575.817C106.035 576.181 105.141 576.693 104.543 577.352C103.952 578.012 103.657 578.785 103.658 579.671Z" fill="white"/>
<path d="M99.6855 337.391C99.6849 335.785 99.9799 334.353 100.57 333.095C101.161 331.845 101.975 330.852 103.012 330.117C104.05 329.382 105.239 328.999 106.58 328.968L106.582 333.741C105.68 333.794 104.95 334.173 104.389 334.878C103.829 335.583 103.549 336.42 103.549 337.39C103.549 338.162 103.72 338.844 104.061 339.435C104.41 340.033 104.891 340.499 105.505 340.832C106.126 341.173 106.838 341.343 107.641 341.343C108.46 341.343 109.179 341.168 109.8 340.819C110.421 340.478 110.906 340.005 111.254 339.398C111.603 338.792 111.78 338.099 111.788 337.319C111.788 336.637 111.647 335.974 111.367 335.33C111.086 334.694 110.703 334.198 110.218 333.842L111.001 329.467L123.274 330.565L123.279 344.792L119.256 344.793L119.253 334.623L113.423 334.023L113.423 334.159C113.999 334.568 114.476 335.185 114.855 336.011C115.235 336.836 115.424 337.761 115.425 338.783C115.425 340.185 115.096 341.435 114.437 342.534C113.779 343.632 112.874 344.5 111.722 345.137C110.579 345.774 109.261 346.088 107.768 346.081C106.2 346.09 104.806 345.726 103.586 344.992C102.374 344.265 101.419 343.247 100.721 341.936C100.031 340.633 99.6861 339.118 99.6855 337.391ZM99.4998 358.641C99.5067 356.687 99.9872 355.005 100.941 353.595C101.895 352.193 103.277 351.113 105.088 350.355C106.898 349.604 109.076 349.232 111.622 349.239C114.159 349.238 116.322 349.612 118.111 350.362C119.899 351.119 121.259 352.198 122.191 353.599C123.131 355.008 123.601 356.686 123.602 358.633C123.603 360.58 123.134 362.254 122.195 363.656C121.256 365.065 119.893 366.149 118.105 366.907C116.325 367.666 114.166 368.041 111.628 368.035C109.075 368.036 106.893 367.657 105.082 366.901C103.271 366.151 101.888 365.076 100.933 363.675C99.9784 362.274 99.5005 360.596 99.4998 358.641ZM103.579 358.64C103.58 359.973 104.251 361.037 105.592 361.832C106.933 362.627 108.945 363.02 111.626 363.012C113.392 363.011 114.861 362.829 116.035 362.465C117.209 362.108 118.092 361.6 118.682 360.941C119.273 360.289 119.568 359.52 119.568 358.634C119.568 357.308 118.904 356.248 117.578 355.453C116.252 354.658 114.267 354.257 111.623 354.251C109.835 354.251 108.343 354.43 107.146 354.786C105.957 355.15 105.063 355.662 104.465 356.321C103.874 356.981 103.579 357.753 103.579 358.64Z" fill="white"/>
<path d="M112.036 430L110.035 426.001L114.035 426L112.036 430Z" fill="white"/>
<path d="M112.978 266L114.98 269.999L110.98 270.001L112.978 266Z" fill="white"/>
<path d="M112.959 210L114.96 213.999L110.96 214.001L112.959 210Z" fill="white"/>
<path d="M112.939 154L114.94 157.999L110.94 158.001L112.939 154Z" fill="white"/>
<path d="M110.919 98.0008L112.92 102L108.92 102.001L110.919 98.0008Z" fill="white"/>
<path d="M112.056 486L110.055 482.001L114.055 482L112.056 486Z" fill="white"/>
<path d="M112.076 542L110.075 538.001L114.075 538L112.076 542Z" fill="white"/>
<line x1="267" y1="80" x2="293" y2="80" stroke="white" stroke-width="4"/>
<line x1="267" y1="616" x2="293" y2="616" stroke="white" stroke-width="4"/>
</svg>
