<svg width="560" height="700" viewBox="0 0 560 700" fill="none" xmlns="http://www.w3.org/2000/svg">
<path d="M560 0H0V700H560V0Z" fill="#FFA131"/>
<path d="M522.5 23.9546H37.5V669.164H522.5V23.9546Z" stroke="white" stroke-width="5"/>
<path d="M330 347C330 374.521 307.705 397 280 397C252.295 397 230 374.521 230 347C230 319.479 252.295 297 280 297C307.705 297 330 319.479 330 347Z" stroke="white" stroke-width="5"/>
<line x1="329.995" y1="345.5" x2="523.005" y2="345.5" stroke="white" stroke-width="5"/>
<line x1="34.9795" y1="346.5" x2="230.021" y2="346.5" stroke="white" stroke-width="5"/>
<rect x="217.5" y="24.5" width="125" height="119" stroke="white" stroke-width="5"/>
<rect x="217.5" y="549.5" width="125" height="119" stroke="white" stroke-width="5"/>
<mask id="path-8-inside-1_607_4" fill="white">
<path d="M70 623H492V671H70V623Z"/>
</mask>
<path d="M492 671V676H497V671H492ZM70 671H65V676H70V671ZM487 623V671H497V623H487ZM492 666H70V676H492V666ZM75 671V623H65V671H75Z" fill="white" mask="url(#path-8-inside-1_607_4)"/>
<mask id="path-10-inside-2_607_4" fill="white">
<path d="M331 141C331 147.566 329.707 154.068 327.194 160.134C324.681 166.2 320.998 171.712 316.355 176.355C311.712 180.998 306.2 184.681 300.134 187.194C294.068 189.707 287.566 191 281 191C274.434 191 267.932 189.707 261.866 187.194C255.8 184.681 250.288 180.998 245.645 176.355C241.002 171.712 237.319 166.2 234.806 160.134C232.293 154.068 231 147.566 231 141L281 141H331Z"/>
</mask>
<path d="M331 141C331 147.566 329.707 154.068 327.194 160.134C324.681 166.2 320.998 171.712 316.355 176.355C311.712 180.998 306.2 184.681 300.134 187.194C294.068 189.707 287.566 191 281 191C274.434 191 267.932 189.707 261.866 187.194C255.8 184.681 250.288 180.998 245.645 176.355C241.002 171.712 237.319 166.2 234.806 160.134C232.293 154.068 231 147.566 231 141L281 141H331Z" stroke="white" stroke-width="10" mask="url(#path-10-inside-2_607_4)"/>
<mask id="path-11-inside-3_607_4" fill="white">
<path d="M230 552C230 545.434 231.293 538.932 233.806 532.866C236.319 526.8 240.002 521.288 244.645 516.645C249.288 512.002 254.8 508.319 260.866 505.806C266.932 503.293 273.434 502 280 502C286.566 502 293.068 503.293 299.134 505.806C305.2 508.319 310.712 512.002 315.355 516.645C319.998 521.288 323.681 526.8 326.194 532.866C328.707 538.932 330 545.434 330 552L280 552H230Z"/>
</mask>
<path d="M230 552C230 545.434 231.293 538.932 233.806 532.866C236.319 526.8 240.002 521.288 244.645 516.645C249.288 512.002 254.8 508.319 260.866 505.806C266.932 503.293 273.434 502 280 502C286.566 502 293.068 503.293 299.134 505.806C305.2 508.319 310.712 512.002 315.355 516.645C319.998 521.288 323.681 526.8 326.194 532.866C328.707 538.932 330 545.434 330 552L280 552H230Z" stroke="white" stroke-width="10" mask="url(#path-11-inside-3_607_4)"/>
<mask id="path-12-inside-4_607_4" fill="white">
<path d="M231 146C231 139.434 232.293 132.932 234.806 126.866C237.319 120.8 241.002 115.288 245.645 110.645C250.288 106.002 255.8 102.319 261.866 99.806C267.932 97.2933 274.434 96 281 96C287.566 96 294.068 97.2933 300.134 99.806C306.2 102.319 311.712 106.002 316.355 110.645C320.998 115.288 324.681 120.8 327.194 126.866C329.707 132.932 331 139.434 331 146L281 146H231Z"/>
</mask>
<path d="M231 146C231 139.434 232.293 132.932 234.806 126.866C237.319 120.8 241.002 115.288 245.645 110.645C250.288 106.002 255.8 102.319 261.866 99.806C267.932 97.2933 274.434 96 281 96C287.566 96 294.068 97.2933 300.134 99.806C306.2 102.319 311.712 106.002 316.355 110.645C320.998 115.288 324.681 120.8 327.194 126.866C329.707 132.932 331 139.434 331 146L281 146H231Z" stroke="white" stroke-width="10" stroke-dasharray="10 10" mask="url(#path-12-inside-4_607_4)"/>
<mask id="path-13-inside-5_607_4" fill="white">
<path d="M331 547C331 553.566 329.707 560.068 327.194 566.134C324.681 572.2 320.998 577.712 316.355 582.355C311.712 586.998 306.2 590.681 300.134 593.194C294.068 595.707 287.566 597 281 597C274.434 597 267.932 595.707 261.866 593.194C255.8 590.681 250.288 586.998 245.645 582.355C241.002 577.712 237.319 572.2 234.806 566.134C232.293 560.068 231 553.566 231 547L281 547H331Z"/>
</mask>
<path d="M331 547C331 553.566 329.707 560.068 327.194 566.134C324.681 572.2 320.998 577.712 316.355 582.355C311.712 586.998 306.2 590.681 300.134 593.194C294.068 595.707 287.566 597 281 597C274.434 597 267.932 595.707 261.866 593.194C255.8 590.681 250.288 586.998 245.645 582.355C241.002 577.712 237.319 572.2 234.806 566.134C232.293 560.068 231 553.566 231 547L281 547H331Z" stroke="white" stroke-width="10" stroke-dasharray="10 10" mask="url(#path-13-inside-5_607_4)"/>
<path d="M489.5 623C489.5 584.544 467.533 547.662 428.432 520.47C389.33 493.277 336.298 478 281 478C225.702 478 172.67 493.277 133.568 520.47C94.4669 547.662 72.5 584.544 72.5 623" stroke="white" stroke-width="5"/>
<mask id="path-15-inside-6_607_4" fill="white">
<path d="M488 70L66 70V22L488 22V70Z"/>
</mask>
<path d="M66 22V17H61V22H66ZM488 22H493V17H488V22ZM71 70V22H61V70H71ZM66 27L488 27V17L66 17V27ZM483 22V70H493V22H483Z" fill="white" mask="url(#path-15-inside-6_607_4)"/>
<path d="M68.5 69.999C68.5 108.455 90.4669 145.337 129.568 172.53C168.67 199.722 221.702 214.999 277 214.999C332.298 214.999 385.33 199.722 424.432 172.53C463.533 145.337 485.5 108.455 485.5 69.999" stroke="white" stroke-width="5"/>
</svg>
