<svg width="560" height="700" viewBox="0 0 560 700" fill="none" xmlns="http://www.w3.org/2000/svg">
<path d="M560 0H0V700H560V0Z" fill="#FF971A"/>
<path d="M522.5 26.9546H37.5V672.164H522.5V26.9546Z" stroke="white" stroke-width="5"/>
<path d="M330 350C330 377.521 307.705 400 280 400C252.295 400 230 377.521 230 350C230 322.479 252.295 300 280 300C307.705 300 330 322.479 330 350Z" stroke="white" stroke-width="5"/>
<line x1="329.995" y1="348.5" x2="523.005" y2="348.5" stroke="white" stroke-width="5"/>
<line x1="34.9795" y1="349.5" x2="230.021" y2="349.5" stroke="white" stroke-width="5"/>
<rect x="217.5" y="27.5" width="125" height="119" stroke="white" stroke-width="5"/>
<rect x="217.5" y="552.5" width="125" height="119" stroke="white" stroke-width="5"/>
<mask id="path-8-inside-1_607_4" fill="white">
<path d="M70 626H492V674H70V626Z"/>
</mask>
<path d="M492 674V679H497V674H492ZM70 674H65V679H70V674ZM487 626V674H497V626H487ZM492 669H70V679H492V669ZM75 674V626H65V674H75Z" fill="white" mask="url(#path-8-inside-1_607_4)"/>
<mask id="path-10-inside-2_607_4" fill="white">
<path d="M331 144C331 150.566 329.707 157.068 327.194 163.134C324.681 169.2 320.998 174.712 316.355 179.355C311.712 183.998 306.2 187.681 300.134 190.194C294.068 192.707 287.566 194 281 194C274.434 194 267.932 192.707 261.866 190.194C255.8 187.681 250.288 183.998 245.645 179.355C241.002 174.712 237.319 169.2 234.806 163.134C232.293 157.068 231 150.566 231 144L281 144H331Z"/>
</mask>
<path d="M331 144C331 150.566 329.707 157.068 327.194 163.134C324.681 169.2 320.998 174.712 316.355 179.355C311.712 183.998 306.2 187.681 300.134 190.194C294.068 192.707 287.566 194 281 194C274.434 194 267.932 192.707 261.866 190.194C255.8 187.681 250.288 183.998 245.645 179.355C241.002 174.712 237.319 169.2 234.806 163.134C232.293 157.068 231 150.566 231 144L281 144H331Z" stroke="white" stroke-width="10" mask="url(#path-10-inside-2_607_4)"/>
<mask id="path-11-inside-3_607_4" fill="white">
<path d="M230 555C230 548.434 231.293 541.932 233.806 535.866C236.319 529.8 240.002 524.288 244.645 519.645C249.288 515.002 254.8 511.319 260.866 508.806C266.932 506.293 273.434 505 280 505C286.566 505 293.068 506.293 299.134 508.806C305.2 511.319 310.712 515.002 315.355 519.645C319.998 524.288 323.681 529.8 326.194 535.866C328.707 541.932 330 548.434 330 555L280 555H230Z"/>
</mask>
<path d="M230 555C230 548.434 231.293 541.932 233.806 535.866C236.319 529.8 240.002 524.288 244.645 519.645C249.288 515.002 254.8 511.319 260.866 508.806C266.932 506.293 273.434 505 280 505C286.566 505 293.068 506.293 299.134 508.806C305.2 511.319 310.712 515.002 315.355 519.645C319.998 524.288 323.681 529.8 326.194 535.866C328.707 541.932 330 548.434 330 555L280 555H230Z" stroke="white" stroke-width="10" mask="url(#path-11-inside-3_607_4)"/>
<mask id="path-12-inside-4_607_4" fill="white">
<path d="M231 149C231 142.434 232.293 135.932 234.806 129.866C237.319 123.8 241.002 118.288 245.645 113.645C250.288 109.002 255.8 105.319 261.866 102.806C267.932 100.293 274.434 99 281 99C287.566 99 294.068 100.293 300.134 102.806C306.2 105.319 311.712 109.002 316.355 113.645C320.998 118.288 324.681 123.8 327.194 129.866C329.707 135.932 331 142.434 331 149L281 149H231Z"/>
</mask>
<path d="M231 149C231 142.434 232.293 135.932 234.806 129.866C237.319 123.8 241.002 118.288 245.645 113.645C250.288 109.002 255.8 105.319 261.866 102.806C267.932 100.293 274.434 99 281 99C287.566 99 294.068 100.293 300.134 102.806C306.2 105.319 311.712 109.002 316.355 113.645C320.998 118.288 324.681 123.8 327.194 129.866C329.707 135.932 331 142.434 331 149L281 149H231Z" stroke="white" stroke-width="10" stroke-dasharray="10 10" mask="url(#path-12-inside-4_607_4)"/>
<mask id="path-13-inside-5_607_4" fill="white">
<path d="M331 550C331 556.566 329.707 563.068 327.194 569.134C324.681 575.2 320.998 580.712 316.355 585.355C311.712 589.998 306.2 593.681 300.134 596.194C294.068 598.707 287.566 600 281 600C274.434 600 267.932 598.707 261.866 596.194C255.8 593.681 250.288 589.998 245.645 585.355C241.002 580.712 237.319 575.2 234.806 569.134C232.293 563.068 231 556.566 231 550L281 550H331Z"/>
</mask>
<path d="M331 550C331 556.566 329.707 563.068 327.194 569.134C324.681 575.2 320.998 580.712 316.355 585.355C311.712 589.998 306.2 593.681 300.134 596.194C294.068 598.707 287.566 600 281 600C274.434 600 267.932 598.707 261.866 596.194C255.8 593.681 250.288 589.998 245.645 585.355C241.002 580.712 237.319 575.2 234.806 569.134C232.293 563.068 231 556.566 231 550L281 550H331Z" stroke="white" stroke-width="10" stroke-dasharray="10 10" mask="url(#path-13-inside-5_607_4)"/>
<path d="M489.5 626C489.5 587.544 467.533 550.662 428.432 523.47C389.33 496.277 336.298 481 281 481C225.702 481 172.67 496.277 133.568 523.47C94.4669 550.662 72.5 587.544 72.5 626" stroke="white" stroke-width="5"/>
<mask id="path-15-inside-6_607_4" fill="white">
<path d="M488 73L66 73V25L488 25V73Z"/>
</mask>
<path d="M66 25V20H61V25H66ZM488 25H493V20H488V25ZM71 73V25H61V73H71ZM66 30L488 30V20L66 20V30ZM483 25V73H493V25H483Z" fill="white" mask="url(#path-15-inside-6_607_4)"/>
<path d="M68.5 72.999C68.5 111.455 90.4669 148.337 129.568 175.53C168.67 202.722 221.702 217.999 277 217.999C332.298 217.999 385.33 202.722 424.432 175.53C463.533 148.337 485.5 111.455 485.5 72.999" stroke="white" stroke-width="5"/>
</svg>
