<svg width="560" height="851" viewBox="0 0 560 851" fill="none" xmlns="http://www.w3.org/2000/svg">
<path d="M560 77.4065H0V777.406H560V77.4065Z" fill="#0066FF" fill-opacity="0.560784"/>
<path d="M522.5 102.361H37.5V747.57H522.5V102.361Z" stroke="white" stroke-width="5"/>
<path d="M38.0882 422.466H525" stroke="white" stroke-width="5"/>
<path d="M37 280.406H523.912" stroke="white" stroke-width="5"/>
<path d="M37 569.406H523.912" stroke="white" stroke-width="5"/>
<mask id="path-6-inside-1_607_5" fill="white">
<path d="M153 750.406C153 723.885 166.345 698.449 190.099 679.696C213.854 660.942 246.071 650.406 279.665 650.406C313.259 650.406 345.476 660.942 369.231 679.696C392.985 698.449 406.33 723.885 406.33 750.406L279.665 750.406H153Z"/>
</mask>
<path d="M153 750.406C153 723.885 166.345 698.449 190.099 679.696C213.854 660.942 246.071 650.406 279.665 650.406C313.259 650.406 345.476 660.942 369.231 679.696C392.985 698.449 406.33 723.885 406.33 750.406L279.665 750.406H153Z" stroke="white" stroke-width="10" mask="url(#path-6-inside-1_607_5)"/>
<path d="M105 747.406C105 709.481 123.227 673.108 155.671 646.29C188.114 619.473 232.118 604.406 278 604.406C323.882 604.406 367.886 619.473 400.329 646.29C432.773 673.108 451 709.481 451 747.406" stroke="white" stroke-width="3" stroke-dasharray="10 10"/>
<circle cx="279.5" cy="700.906" r="3" stroke="white" stroke-width="5"/>
<mask id="path-9-inside-2_607_5" fill="white">
<path d="M407.683 100C407.683 126.522 394.338 151.957 370.584 170.711C346.83 189.464 314.612 200 281.018 200C247.425 200 215.207 189.464 191.453 170.711C167.698 151.957 154.353 126.522 154.353 100L281.018 100H407.683Z"/>
</mask>
<path d="M407.683 100C407.683 126.522 394.338 151.957 370.584 170.711C346.83 189.464 314.612 200 281.018 200C247.425 200 215.207 189.464 191.453 170.711C167.698 151.957 154.353 126.522 154.353 100L281.018 100H407.683Z" stroke="white" stroke-width="10" mask="url(#path-9-inside-2_607_5)"/>
<path d="M455.334 103.007C455.334 140.933 437.107 177.306 404.663 204.123C372.219 230.941 328.216 246.007 282.334 246.007C236.451 246.007 192.448 230.941 160.004 204.123C127.56 177.306 109.334 140.933 109.334 103.007" stroke="white" stroke-width="3" stroke-dasharray="10 10"/>
<circle cx="279.526" cy="148.928" r="3" transform="rotate(-179.731 279.526 148.928)" stroke="white" stroke-width="5"/>
</svg>
