<svg width="560" height="701" viewBox="0 0 560 701" fill="none" xmlns="http://www.w3.org/2000/svg">
<path d="M560 0.406494H0V700.406H560V0.406494Z" fill="#0066FF" fill-opacity="0.560784"/>
<path d="M522.5 25.3611H37.5V670.57H522.5V25.3611Z" stroke="white" stroke-width="5"/>
<path d="M38.0884 345.466H525" stroke="white" stroke-width="5"/>
<path d="M37 203.406H523.912" stroke="white" stroke-width="5"/>
<path d="M37 492.406H523.912" stroke="white" stroke-width="5"/>
<path d="M153 673C153 646.478 166.328 621.043 190.051 602.289C213.774 583.536 245.95 573 279.5 573C313.05 573 345.226 583.536 368.949 602.289C392.672 621.043 406 646.478 406 673" stroke="white" stroke-width="5"/>
<path d="M105 670.406C105 632.481 123.227 596.108 155.671 569.29C188.114 542.473 232.118 527.406 278 527.406C323.882 527.406 367.886 542.473 400.329 569.29C432.773 596.108 451 632.481 451 670.406" stroke="white" stroke-width="3" stroke-dasharray="10 10"/>
<circle cx="279.5" cy="623.906" r="3" stroke="white" stroke-width="5"/>
<path d="M407.684 23C407.684 49.5216 394.338 74.957 370.584 93.7107C346.83 112.464 314.612 123 281.019 123C247.425 123 215.207 112.464 191.453 93.7107C167.699 74.9571 154.354 49.5217 154.354 23" stroke="white" stroke-width="5"/>
<path d="M455.334 26.0071C455.334 63.933 437.107 100.306 404.663 127.123C372.22 153.941 328.216 169.007 282.334 169.007C236.452 169.007 192.448 153.941 160.005 127.123C127.561 100.306 109.334 63.933 109.334 26.0071" stroke="white" stroke-width="3" stroke-dasharray="10 10"/>
<circle cx="279.526" cy="71.9276" r="3" transform="rotate(-179.731 279.526 71.9276)" stroke="white" stroke-width="5"/>
</svg>
