<svg width="560" height="700" viewBox="0 0 560 700" fill="none" xmlns="http://www.w3.org/2000/svg">
<g clip-path="url(#clip0_588_92)">
<path d="M560 0H0V700H560V0Z" fill="#FFD62F" fill-opacity="0.8"/>
<path d="M560 0H0V700H560V0Z" fill="#FFD62F" fill-opacity="0.8"/>
<path d="M522.5 24.9547H37.5V670.164H522.5V24.9547Z" stroke="white" stroke-width="5"/>
<path d="M347 346.499C347 383.103 317.348 413 280.5 413C243.652 413 214 383.103 214 346.499C214 309.898 243.652 280 280.5 280C317.348 280 347 309.898 347 346.499Z" stroke="white" stroke-width="5"/>
<path d="M37 213H523.912" stroke="white" stroke-width="5"/>
<path d="M35 481H521.912" stroke="white" stroke-width="5"/>
<path d="M451 25C451 59.4781 432.773 92.5441 400.329 116.924C367.886 141.304 323.882 155 278 155C232.118 155 188.114 141.304 155.671 116.924C123.227 92.5442 105 59.4782 105 25" stroke="white" stroke-width="5"/>
<path d="M112 670C112 635.522 130.227 602.456 162.671 578.076C195.114 553.696 239.118 540 285 540C330.882 540 374.886 553.696 407.329 578.076C439.773 602.456 458 635.522 458 670" stroke="white" stroke-width="5"/>
</g>
<defs>
<clipPath id="clip0_588_92">
<rect width="560" height="700" fill="white"/>
</clipPath>
</defs>
</svg>
