<svg width="565" height="701" viewBox="0 0 565 701" fill="none" xmlns="http://www.w3.org/2000/svg">
<path d="M560 0H0V700H560V0Z" fill="#5DBB63"/>
<path d="M565 1H5V701H565V1Z" fill="#5DBB63"/>
<path d="M522.5 24.9546H37.5V670.164H522.5V24.9546Z" stroke="white" stroke-width="5"/>
<line x1="35" y1="360.5" x2="523" y2="360.5" stroke="white" stroke-width="5"/>
<line x1="70.5" y1="348" x2="70.5" y2="373" stroke="white" stroke-width="5"/>
<line x1="81" y1="360.5" x2="55" y2="360.5" stroke="white" stroke-width="5"/>
<line x1="504" y1="360.5" x2="478" y2="360.5" stroke="white" stroke-width="5"/>
<line x1="269.5" y1="147" x2="269.5" y2="129" stroke="white" stroke-width="9"/>
<line x1="289.5" y1="147" x2="289.5" y2="129" stroke="white" stroke-width="9"/>
<line x1="269.5" y1="129" x2="269.5" y2="77" stroke="white" stroke-width="5"/>
<line x1="289.5" y1="129" x2="289.5" y2="77" stroke="white" stroke-width="5"/>
<line x1="267" y1="119.5" x2="292" y2="119.5" stroke="white" stroke-width="7"/>
<line x1="268.5" y1="573" x2="268.5" y2="555" stroke="white" stroke-width="9"/>
<line x1="288.5" y1="573" x2="288.5" y2="555" stroke="white" stroke-width="9"/>
<line x1="268.5" y1="555" x2="268.5" y2="503" stroke="white" stroke-width="5"/>
<line x1="288.5" y1="555" x2="288.5" y2="503" stroke="white" stroke-width="5"/>
<line x1="266" y1="545.5" x2="291" y2="545.5" stroke="white" stroke-width="7"/>
<line x1="462" y1="360.5" x2="436" y2="360.5" stroke="white" stroke-width="5"/>
<line x1="70.5" y1="313" x2="70.5" y2="338" stroke="white" stroke-width="5"/>
<line x1="83" y1="325.5" x2="58" y2="325.5" stroke="white" stroke-width="5"/>
<line x1="139.5" y1="348" x2="139.5" y2="373" stroke="white" stroke-width="5"/>
<line x1="139.5" y1="313" x2="139.5" y2="338" stroke="white" stroke-width="5"/>
<line x1="152" y1="325.5" x2="127" y2="325.5" stroke="white" stroke-width="5"/>
<line x1="70.5" y1="383" x2="70.5" y2="408" stroke="white" stroke-width="5"/>
<line x1="83" y1="395.5" x2="58" y2="395.5" stroke="white" stroke-width="5"/>
<line x1="139.5" y1="382" x2="139.5" y2="407" stroke="white" stroke-width="5"/>
<line x1="152" y1="394.5" x2="127" y2="394.5" stroke="white" stroke-width="5"/>
<line x1="71.5" y1="451" x2="71.5" y2="477" stroke="white" stroke-width="5"/>
<line x1="140.5" y1="451" x2="140.5" y2="477" stroke="white" stroke-width="5"/>
<line x1="416.5" y1="451" x2="416.5" y2="477" stroke="white" stroke-width="5"/>
<line x1="485.5" y1="451" x2="485.5" y2="477" stroke="white" stroke-width="5"/>
<line x1="128" y1="173.5" x2="153" y2="173.5" stroke="white" stroke-width="5"/>
<line x1="334" y1="173.5" x2="359" y2="173.5" stroke="white" stroke-width="5"/>
<line x1="197" y1="173.5" x2="222" y2="173.5" stroke="white" stroke-width="5"/>
<line x1="267" y1="173.5" x2="292" y2="173.5" stroke="white" stroke-width="5"/>
<line x1="140.554" y1="172" x2="140.554" y2="147" stroke="white" stroke-width="5"/>
<line x1="59" y1="173.5" x2="84" y2="173.5" stroke="white" stroke-width="5"/>
<line x1="71.5542" y1="172" x2="71.5542" y2="147" stroke="white" stroke-width="5"/>
<line x1="472" y1="173.5" x2="497" y2="173.5" stroke="white" stroke-width="5"/>
<line x1="484.554" y1="172" x2="484.554" y2="147" stroke="white" stroke-width="5"/>
<line x1="403" y1="173.5" x2="428" y2="173.5" stroke="white" stroke-width="5"/>
<line x1="415.554" y1="172" x2="415.554" y2="147" stroke="white" stroke-width="5"/>
<line x1="427.995" y1="541.548" x2="402.995" y2="541.5" stroke="white" stroke-width="5"/>
<line x1="220.995" y1="541.811" x2="195.995" y2="541.763" stroke="white" stroke-width="5"/>
<line x1="359.995" y1="541.548" x2="334.995" y2="541.5" stroke="white" stroke-width="5"/>
<line x1="415.438" y1="543.024" x2="415.39" y2="568.024" stroke="white" stroke-width="5"/>
<line x1="496.995" y1="541.548" x2="471.995" y2="541.5" stroke="white" stroke-width="5"/>
<line x1="484.438" y1="543.024" x2="484.391" y2="568.024" stroke="white" stroke-width="5"/>
<line x1="82.9952" y1="541.548" x2="57.9953" y2="541.5" stroke="white" stroke-width="5"/>
<line x1="70.438" y1="543.024" x2="70.3903" y2="568.023" stroke="white" stroke-width="5"/>
<line x1="151.995" y1="541.679" x2="126.995" y2="541.631" stroke="white" stroke-width="5"/>
<line x1="139.438" y1="543.155" x2="139.39" y2="568.155" stroke="white" stroke-width="5"/>
<line x1="71.5" y1="242" x2="71.5" y2="267" stroke="white" stroke-width="5"/>
<line x1="140.5" y1="242" x2="140.5" y2="267" stroke="white" stroke-width="5"/>
<line x1="416.5" y1="242" x2="416.5" y2="267" stroke="white" stroke-width="5"/>
<line x1="485.5" y1="242" x2="485.5" y2="267" stroke="white" stroke-width="5"/>
<line x1="290" y1="325.5" x2="265" y2="325.5" stroke="white" stroke-width="5"/>
<line x1="290" y1="394.5" x2="265" y2="394.5" stroke="white" stroke-width="5"/>
<line x1="277.5" y1="369" x2="277.5" y2="351.993" stroke="white" stroke-width="5"/>
<line x1="221" y1="325.5" x2="196" y2="325.5" stroke="white" stroke-width="5"/>
<line x1="221" y1="394.5" x2="196" y2="394.5" stroke="white" stroke-width="5"/>
<line x1="484.546" y1="372.003" x2="484.52" y2="347.003" stroke="white" stroke-width="5"/>
<line x1="484.582" y1="407.003" x2="484.556" y2="382.003" stroke="white" stroke-width="5"/>
<line x1="472.069" y1="394.516" x2="497.069" y2="394.49" stroke="white" stroke-width="5"/>
<line x1="415.546" y1="372.074" x2="415.52" y2="347.074" stroke="white" stroke-width="5"/>
<line x1="415.582" y1="407.074" x2="415.556" y2="382.074" stroke="white" stroke-width="5"/>
<line x1="403.069" y1="394.587" x2="428.069" y2="394.561" stroke="white" stroke-width="5"/>
<line x1="485.5" y1="337.003" x2="485.474" y2="312.003" stroke="white" stroke-width="5"/>
<line x1="471.996" y1="324.5" x2="496.996" y2="324.474" stroke="white" stroke-width="5"/>
<line x1="415.51" y1="338.074" x2="415.484" y2="313.074" stroke="white" stroke-width="5"/>
<line x1="402.997" y1="325.5" x2="427.997" y2="325.474" stroke="white" stroke-width="5"/>
<line x1="333.997" y1="394.5" x2="358.997" y2="394.474" stroke="white" stroke-width="5"/>
<line x1="333.997" y1="325.5" x2="358.997" y2="325.474" stroke="white" stroke-width="5"/>
<line x1="130" y1="360.5" x2="104" y2="360.5" stroke="white" stroke-width="5"/>
<rect x="37.5" y="145.5" width="483" height="425" stroke="white" stroke-width="5"/>
<rect x="37.5" y="254.5" width="485" height="210" stroke="white" stroke-width="5"/>
</svg>
