<svg width="560" height="700" viewBox="0 0 560 700" fill="none" xmlns="http://www.w3.org/2000/svg">
<g clip-path="url(#clip0_588_4)">
<path d="M560 0H0V700H560V0Z" fill="#5DBB63"/>
<path d="M560 0H0V700H560V0Z" fill="#5DBB63"/>
<path d="M449.412 535.554H109.559V670.163H449.412V535.554Z" stroke="white" stroke-width="5"/>
<path d="M522.5 24.9546H37.5V670.164H522.5V24.9546Z" stroke="white" stroke-width="5"/>
<path d="M38.0882 345.059H525" stroke="white" stroke-width="5"/>
<path d="M379.412 24.9546H182.647V86.3423H379.412V24.9546Z" stroke="white" stroke-width="5"/>
<path d="M379.412 608.776H182.647V670.164H379.412V608.776Z" stroke="white" stroke-width="5"/>
<path d="M449.412 25.9309H109.559V160.54H449.412V25.9309Z" stroke="white" stroke-width="5"/>
<path d="M349.559 347.559C349.559 383.799 318.543 413.4 280 413.4C241.457 413.4 210.441 383.799 210.441 347.559C210.441 311.32 241.457 281.719 280 281.719C318.543 281.719 349.559 311.32 349.559 347.559Z" stroke="white" stroke-width="5"/>
</g>
<defs>
<clipPath id="clip0_588_4">
<rect width="560" height="700" fill="white"/>
</clipPath>
</defs>
</svg>
