<svg width="560" height="700" viewBox="0 0 560 700" fill="none" xmlns="http://www.w3.org/2000/svg">
<path d="M560 0H0V700H560V0Z" fill="#5DBB63"/>
<path d="M560 0H0V700H560V0Z" fill="#5DBB63"/>
<circle cx="14.5" cy="345.5" r="7.5" fill="white"/>
<line x1="274.5" y1="654" x2="274.5" y2="672" stroke="white" stroke-width="5"/>
<path d="M522.5 24.9546H37.5V670.164H522.5V24.9546Z" stroke="white" stroke-width="5"/>
<line x1="448.5" y1="670.038" x2="448.5" y2="25.0001" stroke="white" stroke-width="5"/>
<line x1="103.5" y1="672.038" x2="103.5" y2="27.0001" stroke="white" stroke-width="5"/>
<line x1="106" y1="189.5" x2="446" y2="189.5" stroke="white" stroke-width="5"/>
<line x1="106" y1="503.5" x2="446" y2="503.5" stroke="white" stroke-width="5"/>
<line x1="276.001" y1="506.007" x2="276.001" y2="191.991" stroke="white" stroke-width="5"/>
<line x1="16" y1="345.5" x2="541" y2="345.5" stroke="white" stroke-width="5"/>
<line x1="278.5" y1="27" x2="278.5" y2="45" stroke="white" stroke-width="5"/>
<circle cx="541.5" cy="345.5" r="7.5" fill="white"/>
<path d="M560 0H0V700H560V0Z" fill="#FF6961"/>
<path d="M560 0H0V700H560V0Z" fill="#FF6961"/>
<circle cx="14.5" cy="345.5" r="7.5" fill="white"/>
<path d="M522.5 24.9546H37.5V670.164H522.5V24.9546Z" stroke="white" stroke-width="5"/>
<line x1="16" y1="345.5" x2="541" y2="345.5" stroke="white" stroke-width="5"/>
<circle cx="541.5" cy="345.5" r="7.5" fill="white"/>
<rect x="36.5" y="240.5" width="485" height="210" stroke="white" stroke-width="5"/>
</svg>
