<svg width="515" height="367" viewBox="0 0 515 367" fill="none" xmlns="http://www.w3.org/2000/svg">
<rect x="23" y="199" width="185" height="107" rx="7" fill="#A4A4A4" fill-opacity="0.5"/>
<circle cx="115.5" cy="252.5" r="17.5" fill="#CCCCCC" fill-opacity="0.8"/>
<path d="M123 254.732C124.333 253.962 124.333 252.038 123 251.268L114 246.072C112.667 245.302 111 246.264 111 247.804V258.196C111 259.736 112.667 260.698 114 259.928L123 254.732Z" fill="#D9D9D9"/>
<path d="M35 293.5H197.003" stroke="#D9D9D9" stroke-width="2" stroke-linecap="round"/>
<path d="M34 293.4H84" stroke="#CCCCCC" stroke-width="3" stroke-linecap="round"/>
<circle cx="85.5" cy="293.5" r="2.5" fill="#CCCCCC"/>
<path fill-rule="evenodd" clip-rule="evenodd" d="M397.906 263.101C399.286 274.975 400.481 285.257 405.516 286.129C470.531 297.382 517.015 149.808 477.729 102.28C438.443 54.7521 380.97 74.5126 345.86 138.853C314.316 196.657 292.649 269.75 328.841 258.458C390.198 196.809 394.587 234.556 397.906 263.101ZM419.858 250.291C425.381 250.291 429.858 245.814 429.858 240.291C429.858 234.768 425.381 230.291 419.858 230.291C414.335 230.291 409.858 234.768 409.858 240.291C409.858 245.814 414.335 250.291 419.858 250.291Z" fill="#4895EF" fill-opacity="0.5"/>
<path d="M390 49H130V348H390V49Z" fill="white"/>
<circle cx="24.5" cy="22.5" r="7.5" fill="#EA3B52"/>
<path d="M39.598 30V15.4545H44.7827C45.9096 15.4545 46.8447 15.6487 47.5881 16.0369C48.3362 16.4252 48.8949 16.9626 49.2642 17.6491C49.6335 18.331 49.8182 19.1193 49.8182 20.0142C49.8182 20.9044 49.6312 21.688 49.2571 22.3651C48.8878 23.0374 48.3291 23.5606 47.581 23.9347C46.8376 24.3087 45.9025 24.4957 44.7756 24.4957H40.848V22.6065H44.5767C45.2869 22.6065 45.8646 22.5047 46.3097 22.3011C46.7595 22.0975 47.0885 21.8016 47.2969 21.4134C47.5052 21.0251 47.6094 20.5587 47.6094 20.0142C47.6094 19.465 47.5028 18.9891 47.2898 18.5866C47.0814 18.1842 46.7524 17.8764 46.3026 17.6634C45.8575 17.4455 45.2727 17.3366 44.5483 17.3366H41.7926V30H39.598ZM46.7784 23.4375L50.3722 30H47.8722L44.3494 23.4375H46.7784ZM52.4886 30V15.4545H61.608V17.3438H54.6832V21.7756H61.1321V23.6577H54.6832V28.1108H61.6932V30H52.4886ZM76.6204 20.1847H74.4045C74.3192 19.7112 74.1606 19.2945 73.9286 18.9347C73.6966 18.5748 73.4125 18.2694 73.0763 18.0185C72.7402 17.7675 72.3638 17.5781 71.9471 17.4503C71.5352 17.3224 71.0972 17.2585 70.6332 17.2585C69.7951 17.2585 69.0446 17.4692 68.3817 17.8906C67.7236 18.312 67.2028 18.9299 66.8192 19.7443C66.4405 20.5587 66.2511 21.553 66.2511 22.7273C66.2511 23.911 66.4405 24.91 66.8192 25.7244C67.2028 26.5388 67.726 27.1544 68.3888 27.571C69.0517 27.9877 69.7975 28.196 70.6261 28.196C71.0853 28.196 71.521 28.1345 71.9329 28.0114C72.3496 27.8835 72.726 27.6965 73.0621 27.4503C73.3983 27.2041 73.6824 26.9034 73.9144 26.5483C74.1512 26.1884 74.3145 25.7765 74.4045 25.3125L76.6204 25.3196C76.502 26.0346 76.2724 26.6927 75.9315 27.294C75.5953 27.8906 75.1621 28.4067 74.6317 28.8423C74.1062 29.2732 73.5049 29.607 72.8278 29.8438C72.1507 30.0805 71.4121 30.1989 70.6119 30.1989C69.3524 30.1989 68.2302 29.9006 67.2454 29.304C66.2605 28.7027 65.484 27.8433 64.9158 26.7259C64.3524 25.6084 64.0707 24.2756 64.0707 22.7273C64.0707 21.1742 64.3548 19.8414 64.9229 18.7287C65.4911 17.6113 66.2676 16.7543 67.2525 16.1577C68.2373 15.5563 69.3571 15.2557 70.6119 15.2557C71.3836 15.2557 72.1033 15.367 72.771 15.5895C73.4433 15.8073 74.047 16.1293 74.582 16.5554C75.1171 16.9768 75.5598 17.4929 75.9102 18.1037C76.2605 18.7098 76.4973 19.4034 76.6204 20.1847Z" fill="white"/>
<path d="M442.847 350.181C442.006 350.178 441.287 349.956 440.69 349.515C440.093 349.075 439.637 348.434 439.321 347.592C439.005 346.751 438.847 345.737 438.847 344.551C438.847 343.368 439.005 342.358 439.321 341.52C439.641 340.682 440.099 340.043 440.695 339.602C441.295 339.162 442.013 338.942 442.847 338.942C443.682 338.942 444.397 339.164 444.994 339.608C445.591 340.048 446.047 340.687 446.363 341.525C446.683 342.36 446.842 343.368 446.842 344.551C446.842 345.74 446.684 346.756 446.368 347.598C446.052 348.436 445.596 349.077 444.999 349.521C444.403 349.961 443.685 350.181 442.847 350.181ZM442.847 348.759C443.586 348.759 444.163 348.398 444.578 347.678C444.998 346.957 445.207 345.914 445.207 344.551C445.207 343.645 445.111 342.88 444.919 342.255C444.731 341.626 444.46 341.151 444.104 340.827C443.753 340.501 443.334 340.337 442.847 340.337C442.112 340.337 441.535 340.7 441.116 341.424C440.697 342.148 440.486 343.191 440.482 344.551C440.482 345.46 440.576 346.229 440.765 346.857C440.956 347.482 441.228 347.956 441.58 348.279C441.931 348.599 442.354 348.759 442.847 348.759ZM452.53 350.181C451.688 350.178 450.969 349.956 450.373 349.515C449.776 349.075 449.32 348.434 449.004 347.592C448.688 346.751 448.53 345.737 448.53 344.551C448.53 343.368 448.688 342.358 449.004 341.52C449.323 340.682 449.781 340.043 450.378 339.602C450.978 339.162 451.695 338.942 452.53 338.942C453.364 338.942 454.08 339.164 454.677 339.608C455.273 340.048 455.729 340.687 456.046 341.525C456.365 342.36 456.525 343.368 456.525 344.551C456.525 345.74 456.367 346.756 456.051 347.598C455.735 348.436 455.278 349.077 454.682 349.521C454.085 349.961 453.368 350.181 452.53 350.181ZM452.53 348.759C453.269 348.759 453.846 348.398 454.261 347.678C454.68 346.957 454.89 345.914 454.89 344.551C454.89 343.645 454.794 342.88 454.602 342.255C454.414 341.626 454.142 341.151 453.787 340.827C453.435 340.501 453.016 340.337 452.53 340.337C451.795 340.337 451.218 340.7 450.799 341.424C450.38 342.148 450.168 343.191 450.165 344.551C450.165 345.46 450.259 346.229 450.447 346.857C450.639 347.482 450.911 347.956 451.262 348.279C451.614 348.599 452.036 348.759 452.53 348.759ZM459.485 348.647C459.194 348.647 458.944 348.544 458.734 348.338C458.525 348.129 458.42 347.876 458.42 347.582C458.42 347.29 458.525 347.042 458.734 346.836C458.944 346.626 459.194 346.522 459.485 346.522C459.776 346.522 460.027 346.626 460.236 346.836C460.446 347.042 460.551 347.29 460.551 347.582C460.551 347.777 460.501 347.956 460.401 348.12C460.306 348.279 460.178 348.407 460.018 348.503C459.858 348.599 459.681 348.647 459.485 348.647ZM459.485 343.182C459.194 343.182 458.944 343.079 458.734 342.873C458.525 342.663 458.42 342.411 458.42 342.116C458.42 341.825 458.525 341.577 458.734 341.371C458.944 341.161 459.194 341.056 459.485 341.056C459.776 341.056 460.027 341.161 460.236 341.371C460.446 341.577 460.551 341.825 460.551 342.116C460.551 342.312 460.501 342.491 460.401 342.654C460.306 342.814 460.178 342.942 460.018 343.038C459.858 343.134 459.681 343.182 459.485 343.182ZM466.461 350.181C465.619 350.178 464.9 349.956 464.303 349.515C463.707 349.075 463.25 348.434 462.934 347.592C462.618 346.751 462.46 345.737 462.46 344.551C462.46 343.368 462.618 342.358 462.934 341.52C463.254 340.682 463.712 340.043 464.309 339.602C464.909 339.162 465.626 338.942 466.461 338.942C467.295 338.942 468.011 339.164 468.607 339.608C469.204 340.048 469.66 340.687 469.976 341.525C470.296 342.36 470.456 343.368 470.456 344.551C470.456 345.74 470.298 346.756 469.982 347.598C469.665 348.436 469.209 349.077 468.613 349.521C468.016 349.961 467.299 350.181 466.461 350.181ZM466.461 348.759C467.199 348.759 467.776 348.398 468.192 347.678C468.611 346.957 468.82 345.914 468.82 344.551C468.82 343.645 468.724 342.88 468.533 342.255C468.344 341.626 468.073 341.151 467.718 340.827C467.366 340.501 466.947 340.337 466.461 340.337C465.725 340.337 465.148 340.7 464.729 341.424C464.31 342.148 464.099 343.191 464.096 344.551C464.096 345.46 464.19 346.229 464.378 346.857C464.57 347.482 464.841 347.956 465.193 348.279C465.544 348.599 465.967 348.759 466.461 348.759ZM476.143 350.181C475.302 350.178 474.582 349.956 473.986 349.515C473.389 349.075 472.933 348.434 472.617 347.592C472.301 346.751 472.143 345.737 472.143 344.551C472.143 343.368 472.301 342.358 472.617 341.52C472.937 340.682 473.395 340.043 473.991 339.602C474.591 339.162 475.309 338.942 476.143 338.942C476.978 338.942 477.693 339.164 478.29 339.608C478.886 340.048 479.343 340.687 479.659 341.525C479.978 342.36 480.138 343.368 480.138 344.551C480.138 345.74 479.98 346.756 479.664 347.598C479.348 348.436 478.892 349.077 478.295 349.521C477.699 349.961 476.981 350.181 476.143 350.181ZM476.143 348.759C476.882 348.759 477.459 348.398 477.874 347.678C478.293 346.957 478.503 345.914 478.503 344.551C478.503 343.645 478.407 342.88 478.215 342.255C478.027 341.626 477.755 341.151 477.4 340.827C477.049 340.501 476.63 340.337 476.143 340.337C475.408 340.337 474.831 340.7 474.412 341.424C473.993 342.148 473.782 343.191 473.778 344.551C473.778 345.46 473.872 346.229 474.06 346.857C474.252 347.482 474.524 347.956 474.875 348.279C475.227 348.599 475.65 348.759 476.143 348.759ZM483.099 348.647C482.807 348.647 482.557 348.544 482.347 348.338C482.138 348.129 482.033 347.876 482.033 347.582C482.033 347.29 482.138 347.042 482.347 346.836C482.557 346.626 482.807 346.522 483.099 346.522C483.39 346.522 483.64 346.626 483.85 346.836C484.059 347.042 484.164 347.29 484.164 347.582C484.164 347.777 484.114 347.956 484.015 348.12C483.919 348.279 483.791 348.407 483.631 348.503C483.471 348.599 483.294 348.647 483.099 348.647ZM483.099 343.182C482.807 343.182 482.557 343.079 482.347 342.873C482.138 342.663 482.033 342.411 482.033 342.116C482.033 341.825 482.138 341.577 482.347 341.371C482.557 341.161 482.807 341.056 483.099 341.056C483.39 341.056 483.64 341.161 483.85 341.371C484.059 341.577 484.164 341.825 484.164 342.116C484.164 342.312 484.114 342.491 484.015 342.654C483.919 342.814 483.791 342.942 483.631 343.038C483.471 343.134 483.294 343.182 483.099 343.182ZM490.415 339.091V350H488.763V340.742H488.7L486.089 342.447V340.87L488.811 339.091H490.415ZM497.164 350.181C496.322 350.178 495.603 349.956 495.006 349.515C494.41 349.075 493.953 348.434 493.637 347.592C493.321 346.751 493.163 345.737 493.163 344.551C493.163 343.368 493.321 342.358 493.637 341.52C493.957 340.682 494.415 340.043 495.012 339.602C495.612 339.162 496.329 338.942 497.164 338.942C497.998 338.942 498.714 339.164 499.31 339.608C499.907 340.048 500.363 340.687 500.679 341.525C500.999 342.36 501.159 343.368 501.159 344.551C501.159 345.74 501.001 346.756 500.685 347.598C500.369 348.436 499.912 349.077 499.316 349.521C498.719 349.961 498.002 350.181 497.164 350.181ZM497.164 348.759C497.902 348.759 498.479 348.398 498.895 347.678C499.314 346.957 499.523 345.914 499.523 344.551C499.523 343.645 499.428 342.88 499.236 342.255C499.048 341.626 498.776 341.151 498.421 340.827C498.069 340.501 497.65 340.337 497.164 340.337C496.429 340.337 495.852 340.7 495.433 341.424C495.013 342.148 494.802 343.191 494.799 344.551C494.799 345.46 494.893 346.229 495.081 346.857C495.273 347.482 495.544 347.956 495.896 348.279C496.248 348.599 496.67 348.759 497.164 348.759Z" fill="white"/>
<path fill-rule="evenodd" clip-rule="evenodd" d="M3 0H130V3H3V72H0V3V0H3ZM0 262H3V364H130V367H3H0V364V262ZM390 367H512H515V364V274H512V364H390V367ZM512 84V3H390V0H512H515V3V84H512Z" fill="white"/>
<circle cx="413.5" cy="101.5" r="12.5" fill="#12086F"/>
<circle cx="467.5" cy="160.5" r="12.5" fill="#4361EE"/>
<circle cx="457.5" cy="120.5" r="12.5" fill="#2B35AF"/>
<circle cx="462.5" cy="205.5" r="12.5" fill="#4895EF"/>
<path d="M459.186 194.344L465.013 200.766L375.098 285.792C372.575 288.178 368.587 288.032 366.245 285.469C363.91 282.913 364.115 278.941 366.702 276.639L459.186 194.344Z" fill="#2A3C4B"/>
<rect x="475.639" y="179.801" width="8.72342" height="22.0713" transform="rotate(48.4336 475.639 179.801)" fill="#CCCCCC" fill-opacity="0.8"/>
<path d="M482.24 188.847C479.022 192.418 474.601 192.843 471.332 189.898C468.063 186.952 469.286 183.504 472.504 179.932C475.721 176.361 490.068 173.07 493.46 175.383C490.97 178.997 485.457 185.276 482.24 188.847Z" fill="#795C34"/>
<path d="M390 32H130V345H390V32Z" fill="white"/>
<path d="M336.917 269.341H182V327.381H336.917V269.341Z" stroke="#415A77" stroke-width="5"/>
<path d="M369.417 48.5828H149.5V327.381H369.417V48.5828Z" stroke="#415A77" stroke-width="5"/>
<path d="M149.5 187.464H370.5" stroke="#415A77" stroke-width="5"/>
<path d="M304.417 48.5828H215.583V75.5298H304.417V48.5828Z" stroke="#415A77" stroke-width="5"/>
<path d="M304.417 300.434H215.583V327.381H304.417V300.434Z" stroke="#415A77" stroke-width="5"/>
<path d="M336.917 48.5828H182V107.659H336.917V48.5828Z" stroke="#415A77" stroke-width="5"/>
<path d="M290.333 186.945C290.333 203.774 276.566 217.52 259.458 217.52C242.351 217.52 228.583 203.774 228.583 186.945C228.583 170.117 242.351 156.371 259.458 156.371C276.566 156.371 290.333 170.117 290.333 186.945Z" stroke="#415A77" stroke-width="5"/>
<path d="M277.698 148.637C278.049 146.737 276.791 144.912 274.889 144.561L243.89 138.83C241.988 138.478 240.161 139.733 239.81 141.632C239.459 143.532 240.717 145.356 242.619 145.708L270.173 150.802L265.087 178.315C264.736 180.214 265.993 182.039 267.895 182.39C269.798 182.742 271.624 181.487 271.976 179.588L277.698 148.637ZM229.519 187.098L226.887 184.79L229.519 187.098ZM201.724 225.627C201.138 227.468 202.158 229.435 204.002 230.02C205.846 230.606 207.815 229.588 208.4 227.748L201.724 225.627ZM272.267 145.118C254.943 157.016 239.27 170.706 226.887 184.79L232.152 189.407C244.109 175.808 259.333 162.493 276.239 150.882L272.267 145.118ZM226.887 184.79C214.53 198.842 205.761 212.931 201.724 225.627L208.4 227.748C212.044 216.291 220.167 203.036 232.152 189.407L226.887 184.79Z" fill="#FF0000" fill-opacity="0.7"/>
<path d="M212.646 232.274C217.277 238.599 215.955 247.203 210.024 251.545C204.093 255.887 195.492 254.549 190.861 248.224C186.23 241.899 187.552 233.295 193.483 228.953C199.414 224.611 208.015 225.949 212.646 232.274Z" stroke="#FF0000" stroke-opacity="0.7" stroke-width="8"/>
<path d="M284.542 149.806L293.535 121" stroke="#FF0000" stroke-opacity="0.7" stroke-width="8" stroke-linecap="round"/>
<path d="M303.679 140.725L274.867 130.947" stroke="#FF0000" stroke-opacity="0.7" stroke-width="8" stroke-linecap="round"/>
<rect x="86" y="337" width="54" height="80" rx="8" transform="rotate(-90 86 337)" fill="#1B263B"/>
<circle cx="101" cy="294" r="4" fill="white"/>
<circle cx="127" cy="310" r="15.5" stroke="white" stroke-width="3"/>
<rect x="110" y="274" width="34" height="17" rx="7" fill="#1B263B"/>
</svg>
